G04 #@! TF.GenerationSoftware,KiCad,Pcbnew,(5.1.4)-1*
G04 #@! TF.CreationDate,2020-05-24T22:22:10+03:00*
G04 #@! TF.ProjectId,naa,6e61612e-6b69-4636-9164-5f7063625858,rev?*
G04 #@! TF.SameCoordinates,Original*
G04 #@! TF.FileFunction,Soldermask,Top*
G04 #@! TF.FilePolarity,Negative*
%FSLAX46Y46*%
G04 Gerber Fmt 4.6, Leading zero omitted, Abs format (unit mm)*
G04 Created by KiCad (PCBNEW (5.1.4)-1) date 2020-05-24 22:22:10*
%MOMM*%
%LPD*%
G04 APERTURE LIST*
%ADD10C,0.100000*%
G04 APERTURE END LIST*
D10*
G36*
X195500000Y-71750000D02*
G01*
X195500000Y-70250000D01*
X196500000Y-70250000D01*
X196500000Y-71750000D01*
X195500000Y-71750000D01*
G37*
X195500000Y-71750000D02*
X195500000Y-70250000D01*
X196500000Y-70250000D01*
X196500000Y-71750000D01*
X195500000Y-71750000D01*
G36*
X183250000Y-74000000D02*
G01*
X183250000Y-75500000D01*
X182250000Y-75500000D01*
X182250000Y-74000000D01*
X183250000Y-74000000D01*
G37*
X183250000Y-74000000D02*
X183250000Y-75500000D01*
X182250000Y-75500000D01*
X182250000Y-74000000D01*
X183250000Y-74000000D01*
G36*
X157500000Y-71750000D02*
G01*
X157500000Y-70250000D01*
X158500000Y-70250000D01*
X158500000Y-71750000D01*
X157500000Y-71750000D01*
G37*
X157500000Y-71750000D02*
X157500000Y-70250000D01*
X158500000Y-70250000D01*
X158500000Y-71750000D01*
X157500000Y-71750000D01*
G36*
X145250000Y-74000000D02*
G01*
X145250000Y-75500000D01*
X144250000Y-75500000D01*
X144250000Y-74000000D01*
X145250000Y-74000000D01*
G37*
X145250000Y-74000000D02*
X145250000Y-75500000D01*
X144250000Y-75500000D01*
X144250000Y-74000000D01*
X145250000Y-74000000D01*
G36*
X125751000Y-78081000D02*
G01*
X123249000Y-78081000D01*
X123249000Y-75579000D01*
X125751000Y-75579000D01*
X125751000Y-78081000D01*
X125751000Y-78081000D01*
G37*
G36*
X120671000Y-78081000D02*
G01*
X118169000Y-78081000D01*
X118169000Y-75579000D01*
X120671000Y-75579000D01*
X120671000Y-78081000D01*
X120671000Y-78081000D01*
G37*
G36*
X161961000Y-77541000D02*
G01*
X159459000Y-77541000D01*
X159459000Y-75039000D01*
X161961000Y-75039000D01*
X161961000Y-77541000D01*
X161961000Y-77541000D01*
G37*
G36*
X167041000Y-77541000D02*
G01*
X164539000Y-77541000D01*
X164539000Y-75039000D01*
X167041000Y-75039000D01*
X167041000Y-77541000D01*
X167041000Y-77541000D01*
G37*
G36*
X156151000Y-77481000D02*
G01*
X154349000Y-77481000D01*
X154349000Y-75679000D01*
X156151000Y-75679000D01*
X156151000Y-77481000D01*
X156151000Y-77481000D01*
G37*
G36*
X186151000Y-77301000D02*
G01*
X185049000Y-77301000D01*
X185049000Y-75699000D01*
X186151000Y-75699000D01*
X186151000Y-77301000D01*
X186151000Y-77301000D01*
G37*
G36*
X148151000Y-77051000D02*
G01*
X147049000Y-77051000D01*
X147049000Y-75449000D01*
X148151000Y-75449000D01*
X148151000Y-77051000D01*
X148151000Y-77051000D01*
G37*
G36*
X128676000Y-77051000D02*
G01*
X127324000Y-77051000D01*
X127324000Y-76449000D01*
X128676000Y-76449000D01*
X128676000Y-77051000D01*
X128676000Y-77051000D01*
G37*
G36*
X170301000Y-76701000D02*
G01*
X168699000Y-76701000D01*
X168699000Y-75599000D01*
X170301000Y-75599000D01*
X170301000Y-76701000D01*
X170301000Y-76701000D01*
G37*
G36*
X132301000Y-76701000D02*
G01*
X130699000Y-76701000D01*
X130699000Y-75599000D01*
X132301000Y-75599000D01*
X132301000Y-76701000D01*
X132301000Y-76701000D01*
G37*
G36*
X140651000Y-76691000D02*
G01*
X138849000Y-76691000D01*
X138849000Y-74889000D01*
X140651000Y-74889000D01*
X140651000Y-76691000D01*
X140651000Y-76691000D01*
G37*
G36*
X178651000Y-76691000D02*
G01*
X176849000Y-76691000D01*
X176849000Y-74889000D01*
X178651000Y-74889000D01*
X178651000Y-76691000D01*
X178651000Y-76691000D01*
G37*
G36*
X143301000Y-76551000D02*
G01*
X141699000Y-76551000D01*
X141699000Y-75449000D01*
X143301000Y-75449000D01*
X143301000Y-76551000D01*
X143301000Y-76551000D01*
G37*
G36*
X152551000Y-76551000D02*
G01*
X150949000Y-76551000D01*
X150949000Y-74949000D01*
X152551000Y-74949000D01*
X152551000Y-76551000D01*
X152551000Y-76551000D01*
G37*
G36*
X181301000Y-76551000D02*
G01*
X179699000Y-76551000D01*
X179699000Y-75449000D01*
X181301000Y-75449000D01*
X181301000Y-76551000D01*
X181301000Y-76551000D01*
G37*
G36*
X190551000Y-76551000D02*
G01*
X188949000Y-76551000D01*
X188949000Y-74949000D01*
X190551000Y-74949000D01*
X190551000Y-76551000D01*
X190551000Y-76551000D01*
G37*
G36*
X205041000Y-76541000D02*
G01*
X202539000Y-76541000D01*
X202539000Y-74039000D01*
X205041000Y-74039000D01*
X205041000Y-76541000D01*
X205041000Y-76541000D01*
G37*
G36*
X199961000Y-76541000D02*
G01*
X197459000Y-76541000D01*
X197459000Y-74039000D01*
X199961000Y-74039000D01*
X199961000Y-76541000D01*
X199961000Y-76541000D01*
G37*
G36*
X196676000Y-76301000D02*
G01*
X195324000Y-76301000D01*
X195324000Y-75699000D01*
X196676000Y-75699000D01*
X196676000Y-76301000D01*
X196676000Y-76301000D01*
G37*
G36*
X158676000Y-76301000D02*
G01*
X157324000Y-76301000D01*
X157324000Y-75699000D01*
X158676000Y-75699000D01*
X158676000Y-76301000D01*
X158676000Y-76301000D01*
G37*
G36*
X137926000Y-76051000D02*
G01*
X136574000Y-76051000D01*
X136574000Y-75449000D01*
X137926000Y-75449000D01*
X137926000Y-76051000D01*
X137926000Y-76051000D01*
G37*
G36*
X175926000Y-76051000D02*
G01*
X174574000Y-76051000D01*
X174574000Y-75449000D01*
X175926000Y-75449000D01*
X175926000Y-76051000D01*
X175926000Y-76051000D01*
G37*
G36*
X135301000Y-75801000D02*
G01*
X133699000Y-75801000D01*
X133699000Y-74699000D01*
X135301000Y-74699000D01*
X135301000Y-75801000D01*
X135301000Y-75801000D01*
G37*
G36*
X173301000Y-75801000D02*
G01*
X171699000Y-75801000D01*
X171699000Y-74699000D01*
X173301000Y-74699000D01*
X173301000Y-75801000D01*
X173301000Y-75801000D01*
G37*
G36*
X183059004Y-74953355D02*
G01*
X183087376Y-74961962D01*
X183115745Y-74970567D01*
X183115747Y-74970568D01*
X183168031Y-74998514D01*
X183168032Y-74998515D01*
X183168036Y-74998517D01*
X183213869Y-75036131D01*
X183251483Y-75081964D01*
X183251485Y-75081968D01*
X183251486Y-75081969D01*
X183279432Y-75134253D01*
X183296645Y-75190996D01*
X183302456Y-75250000D01*
X183296645Y-75309004D01*
X183279432Y-75365747D01*
X183261860Y-75398623D01*
X183251483Y-75418036D01*
X183213869Y-75463869D01*
X183168036Y-75501483D01*
X183168032Y-75501485D01*
X183168031Y-75501486D01*
X183115747Y-75529432D01*
X183115745Y-75529433D01*
X183087375Y-75538039D01*
X183059004Y-75546645D01*
X183014786Y-75551000D01*
X182485214Y-75551000D01*
X182440996Y-75546645D01*
X182412624Y-75538038D01*
X182384255Y-75529433D01*
X182384253Y-75529432D01*
X182331969Y-75501486D01*
X182331968Y-75501485D01*
X182331964Y-75501483D01*
X182286131Y-75463869D01*
X182248517Y-75418036D01*
X182238141Y-75398623D01*
X182220568Y-75365747D01*
X182203355Y-75309004D01*
X182197544Y-75250000D01*
X182203355Y-75190996D01*
X182220568Y-75134253D01*
X182248514Y-75081969D01*
X182248515Y-75081968D01*
X182248517Y-75081964D01*
X182286131Y-75036131D01*
X182331964Y-74998517D01*
X182331968Y-74998515D01*
X182331969Y-74998514D01*
X182384253Y-74970568D01*
X182384255Y-74970567D01*
X182412624Y-74961962D01*
X182440996Y-74953355D01*
X182485214Y-74949000D01*
X183014786Y-74949000D01*
X183059004Y-74953355D01*
X183059004Y-74953355D01*
G37*
G36*
X145059004Y-74953355D02*
G01*
X145087376Y-74961962D01*
X145115745Y-74970567D01*
X145115747Y-74970568D01*
X145168031Y-74998514D01*
X145168032Y-74998515D01*
X145168036Y-74998517D01*
X145213869Y-75036131D01*
X145251483Y-75081964D01*
X145251485Y-75081968D01*
X145251486Y-75081969D01*
X145279432Y-75134253D01*
X145296645Y-75190996D01*
X145302456Y-75250000D01*
X145296645Y-75309004D01*
X145279432Y-75365747D01*
X145261860Y-75398623D01*
X145251483Y-75418036D01*
X145213869Y-75463869D01*
X145168036Y-75501483D01*
X145168032Y-75501485D01*
X145168031Y-75501486D01*
X145115747Y-75529432D01*
X145115745Y-75529433D01*
X145087375Y-75538039D01*
X145059004Y-75546645D01*
X145014786Y-75551000D01*
X144485214Y-75551000D01*
X144440996Y-75546645D01*
X144412624Y-75538038D01*
X144384255Y-75529433D01*
X144384253Y-75529432D01*
X144331969Y-75501486D01*
X144331968Y-75501485D01*
X144331964Y-75501483D01*
X144286131Y-75463869D01*
X144248517Y-75418036D01*
X144238141Y-75398623D01*
X144220568Y-75365747D01*
X144203355Y-75309004D01*
X144197544Y-75250000D01*
X144203355Y-75190996D01*
X144220568Y-75134253D01*
X144248514Y-75081969D01*
X144248515Y-75081968D01*
X144248517Y-75081964D01*
X144286131Y-75036131D01*
X144331964Y-74998517D01*
X144331968Y-74998515D01*
X144331969Y-74998514D01*
X144384253Y-74970568D01*
X144384255Y-74970567D01*
X144412624Y-74961962D01*
X144440996Y-74953355D01*
X144485214Y-74949000D01*
X145014786Y-74949000D01*
X145059004Y-74953355D01*
X145059004Y-74953355D01*
G37*
G36*
X122324903Y-73087075D02*
G01*
X122504000Y-73161259D01*
X122552571Y-73181378D01*
X122757466Y-73318285D01*
X122931715Y-73492534D01*
X123021420Y-73626787D01*
X123068623Y-73697431D01*
X123162925Y-73925097D01*
X123211000Y-74166786D01*
X123211000Y-74413214D01*
X123183593Y-74551000D01*
X123162925Y-74654903D01*
X123068622Y-74882571D01*
X122931715Y-75087466D01*
X122757466Y-75261715D01*
X122552571Y-75398622D01*
X122552570Y-75398623D01*
X122552569Y-75398623D01*
X122324903Y-75492925D01*
X122083214Y-75541000D01*
X121836786Y-75541000D01*
X121595097Y-75492925D01*
X121367431Y-75398623D01*
X121367430Y-75398623D01*
X121367429Y-75398622D01*
X121162534Y-75261715D01*
X120988285Y-75087466D01*
X120851378Y-74882571D01*
X120757075Y-74654903D01*
X120736407Y-74551000D01*
X120709000Y-74413214D01*
X120709000Y-74166786D01*
X120757075Y-73925097D01*
X120851377Y-73697431D01*
X120898580Y-73626787D01*
X120988285Y-73492534D01*
X121162534Y-73318285D01*
X121367429Y-73181378D01*
X121416001Y-73161259D01*
X121595097Y-73087075D01*
X121836786Y-73039000D01*
X122083214Y-73039000D01*
X122324903Y-73087075D01*
X122324903Y-73087075D01*
G37*
G36*
X128676000Y-75301000D02*
G01*
X127324000Y-75301000D01*
X127324000Y-74699000D01*
X128676000Y-74699000D01*
X128676000Y-75301000D01*
X128676000Y-75301000D01*
G37*
G36*
X163614903Y-72547075D02*
G01*
X163842571Y-72641378D01*
X164047466Y-72778285D01*
X164221715Y-72952534D01*
X164330207Y-73114903D01*
X164358623Y-73157431D01*
X164452925Y-73385097D01*
X164501000Y-73626786D01*
X164501000Y-73873214D01*
X164468023Y-74039000D01*
X164452925Y-74114903D01*
X164358622Y-74342571D01*
X164221715Y-74547466D01*
X164047466Y-74721715D01*
X163842571Y-74858622D01*
X163842570Y-74858623D01*
X163842569Y-74858623D01*
X163614903Y-74952925D01*
X163373214Y-75001000D01*
X163126786Y-75001000D01*
X162885097Y-74952925D01*
X162657431Y-74858623D01*
X162657430Y-74858623D01*
X162657429Y-74858622D01*
X162452534Y-74721715D01*
X162278285Y-74547466D01*
X162141378Y-74342571D01*
X162047075Y-74114903D01*
X162031977Y-74039000D01*
X161999000Y-73873214D01*
X161999000Y-73626786D01*
X162047075Y-73385097D01*
X162141377Y-73157431D01*
X162169793Y-73114903D01*
X162278285Y-72952534D01*
X162452534Y-72778285D01*
X162657429Y-72641378D01*
X162885097Y-72547075D01*
X163126786Y-72499000D01*
X163373214Y-72499000D01*
X163614903Y-72547075D01*
X163614903Y-72547075D01*
G37*
G36*
X194151000Y-74941000D02*
G01*
X192349000Y-74941000D01*
X192349000Y-73139000D01*
X194151000Y-73139000D01*
X194151000Y-74941000D01*
X194151000Y-74941000D01*
G37*
G36*
X156151000Y-74941000D02*
G01*
X154349000Y-74941000D01*
X154349000Y-73139000D01*
X156151000Y-73139000D01*
X156151000Y-74941000D01*
X156151000Y-74941000D01*
G37*
G36*
X132301000Y-74901000D02*
G01*
X130699000Y-74901000D01*
X130699000Y-73799000D01*
X132301000Y-73799000D01*
X132301000Y-74901000D01*
X132301000Y-74901000D01*
G37*
G36*
X170301000Y-74901000D02*
G01*
X168699000Y-74901000D01*
X168699000Y-73799000D01*
X170301000Y-73799000D01*
X170301000Y-74901000D01*
X170301000Y-74901000D01*
G37*
G36*
X143301000Y-74551000D02*
G01*
X141699000Y-74551000D01*
X141699000Y-73449000D01*
X143301000Y-73449000D01*
X143301000Y-74551000D01*
X143301000Y-74551000D01*
G37*
G36*
X145059004Y-73953355D02*
G01*
X145087375Y-73961961D01*
X145115745Y-73970567D01*
X145115747Y-73970568D01*
X145168031Y-73998514D01*
X145168032Y-73998515D01*
X145168036Y-73998517D01*
X145213869Y-74036131D01*
X145251483Y-74081964D01*
X145251485Y-74081968D01*
X145251486Y-74081969D01*
X145279432Y-74134253D01*
X145296645Y-74190996D01*
X145302456Y-74250000D01*
X145296645Y-74309004D01*
X145296644Y-74309006D01*
X145286463Y-74342571D01*
X145279432Y-74365747D01*
X145254061Y-74413214D01*
X145251483Y-74418036D01*
X145213869Y-74463869D01*
X145168036Y-74501483D01*
X145168032Y-74501485D01*
X145168031Y-74501486D01*
X145115747Y-74529432D01*
X145115745Y-74529433D01*
X145087376Y-74538038D01*
X145059004Y-74546645D01*
X145014786Y-74551000D01*
X144485214Y-74551000D01*
X144440996Y-74546645D01*
X144412624Y-74538038D01*
X144384255Y-74529433D01*
X144384253Y-74529432D01*
X144331969Y-74501486D01*
X144331968Y-74501485D01*
X144331964Y-74501483D01*
X144286131Y-74463869D01*
X144248517Y-74418036D01*
X144245940Y-74413214D01*
X144220568Y-74365747D01*
X144213538Y-74342571D01*
X144203356Y-74309006D01*
X144203355Y-74309004D01*
X144197544Y-74250000D01*
X144203355Y-74190996D01*
X144220568Y-74134253D01*
X144248514Y-74081969D01*
X144248515Y-74081968D01*
X144248517Y-74081964D01*
X144286131Y-74036131D01*
X144331964Y-73998517D01*
X144331968Y-73998515D01*
X144331969Y-73998514D01*
X144384253Y-73970568D01*
X144384255Y-73970567D01*
X144412624Y-73961962D01*
X144440996Y-73953355D01*
X144485214Y-73949000D01*
X145014786Y-73949000D01*
X145059004Y-73953355D01*
X145059004Y-73953355D01*
G37*
G36*
X158676000Y-74551000D02*
G01*
X157324000Y-74551000D01*
X157324000Y-73949000D01*
X158676000Y-73949000D01*
X158676000Y-74551000D01*
X158676000Y-74551000D01*
G37*
G36*
X181301000Y-74551000D02*
G01*
X179699000Y-74551000D01*
X179699000Y-73449000D01*
X181301000Y-73449000D01*
X181301000Y-74551000D01*
X181301000Y-74551000D01*
G37*
G36*
X196676000Y-74551000D02*
G01*
X195324000Y-74551000D01*
X195324000Y-73949000D01*
X196676000Y-73949000D01*
X196676000Y-74551000D01*
X196676000Y-74551000D01*
G37*
G36*
X183059004Y-73953355D02*
G01*
X183087375Y-73961961D01*
X183115745Y-73970567D01*
X183115747Y-73970568D01*
X183168031Y-73998514D01*
X183168032Y-73998515D01*
X183168036Y-73998517D01*
X183213869Y-74036131D01*
X183251483Y-74081964D01*
X183251485Y-74081968D01*
X183251486Y-74081969D01*
X183279432Y-74134253D01*
X183296645Y-74190996D01*
X183302456Y-74250000D01*
X183296645Y-74309004D01*
X183296644Y-74309006D01*
X183286463Y-74342571D01*
X183279432Y-74365747D01*
X183254061Y-74413214D01*
X183251483Y-74418036D01*
X183213869Y-74463869D01*
X183168036Y-74501483D01*
X183168032Y-74501485D01*
X183168031Y-74501486D01*
X183115747Y-74529432D01*
X183115745Y-74529433D01*
X183087376Y-74538038D01*
X183059004Y-74546645D01*
X183014786Y-74551000D01*
X182485214Y-74551000D01*
X182440996Y-74546645D01*
X182412624Y-74538038D01*
X182384255Y-74529433D01*
X182384253Y-74529432D01*
X182331969Y-74501486D01*
X182331968Y-74501485D01*
X182331964Y-74501483D01*
X182286131Y-74463869D01*
X182248517Y-74418036D01*
X182245940Y-74413214D01*
X182220568Y-74365747D01*
X182213538Y-74342571D01*
X182203356Y-74309006D01*
X182203355Y-74309004D01*
X182197544Y-74250000D01*
X182203355Y-74190996D01*
X182220568Y-74134253D01*
X182248514Y-74081969D01*
X182248515Y-74081968D01*
X182248517Y-74081964D01*
X182286131Y-74036131D01*
X182331964Y-73998517D01*
X182331968Y-73998515D01*
X182331969Y-73998514D01*
X182384253Y-73970568D01*
X182384255Y-73970567D01*
X182412624Y-73961962D01*
X182440996Y-73953355D01*
X182485214Y-73949000D01*
X183014786Y-73949000D01*
X183059004Y-73953355D01*
X183059004Y-73953355D01*
G37*
G36*
X175926000Y-74301000D02*
G01*
X174574000Y-74301000D01*
X174574000Y-73699000D01*
X175926000Y-73699000D01*
X175926000Y-74301000D01*
X175926000Y-74301000D01*
G37*
G36*
X137926000Y-74301000D02*
G01*
X136574000Y-74301000D01*
X136574000Y-73699000D01*
X137926000Y-73699000D01*
X137926000Y-74301000D01*
X137926000Y-74301000D01*
G37*
G36*
X185251000Y-74301000D02*
G01*
X184149000Y-74301000D01*
X184149000Y-72699000D01*
X185251000Y-72699000D01*
X185251000Y-74301000D01*
X185251000Y-74301000D01*
G37*
G36*
X187051000Y-74301000D02*
G01*
X185949000Y-74301000D01*
X185949000Y-72699000D01*
X187051000Y-72699000D01*
X187051000Y-74301000D01*
X187051000Y-74301000D01*
G37*
G36*
X139863512Y-72353927D02*
G01*
X140012812Y-72383624D01*
X140176784Y-72451544D01*
X140324354Y-72550147D01*
X140449853Y-72675646D01*
X140548456Y-72823216D01*
X140616376Y-72987188D01*
X140651000Y-73161259D01*
X140651000Y-73338741D01*
X140616376Y-73512812D01*
X140548456Y-73676784D01*
X140449853Y-73824354D01*
X140324354Y-73949853D01*
X140176784Y-74048456D01*
X140012812Y-74116376D01*
X139863512Y-74146073D01*
X139838742Y-74151000D01*
X139661258Y-74151000D01*
X139636488Y-74146073D01*
X139487188Y-74116376D01*
X139323216Y-74048456D01*
X139175646Y-73949853D01*
X139050147Y-73824354D01*
X138951544Y-73676784D01*
X138883624Y-73512812D01*
X138849000Y-73338741D01*
X138849000Y-73161259D01*
X138883624Y-72987188D01*
X138951544Y-72823216D01*
X139050147Y-72675646D01*
X139175646Y-72550147D01*
X139323216Y-72451544D01*
X139487188Y-72383624D01*
X139636488Y-72353927D01*
X139661258Y-72349000D01*
X139838742Y-72349000D01*
X139863512Y-72353927D01*
X139863512Y-72353927D01*
G37*
G36*
X177863512Y-72353927D02*
G01*
X178012812Y-72383624D01*
X178176784Y-72451544D01*
X178324354Y-72550147D01*
X178449853Y-72675646D01*
X178548456Y-72823216D01*
X178616376Y-72987188D01*
X178651000Y-73161259D01*
X178651000Y-73338741D01*
X178616376Y-73512812D01*
X178548456Y-73676784D01*
X178449853Y-73824354D01*
X178324354Y-73949853D01*
X178176784Y-74048456D01*
X178012812Y-74116376D01*
X177863512Y-74146073D01*
X177838742Y-74151000D01*
X177661258Y-74151000D01*
X177636488Y-74146073D01*
X177487188Y-74116376D01*
X177323216Y-74048456D01*
X177175646Y-73949853D01*
X177050147Y-73824354D01*
X176951544Y-73676784D01*
X176883624Y-73512812D01*
X176849000Y-73338741D01*
X176849000Y-73161259D01*
X176883624Y-72987188D01*
X176951544Y-72823216D01*
X177050147Y-72675646D01*
X177175646Y-72550147D01*
X177323216Y-72451544D01*
X177487188Y-72383624D01*
X177636488Y-72353927D01*
X177661258Y-72349000D01*
X177838742Y-72349000D01*
X177863512Y-72353927D01*
X177863512Y-72353927D01*
G37*
G36*
X149051000Y-74051000D02*
G01*
X147949000Y-74051000D01*
X147949000Y-72449000D01*
X149051000Y-72449000D01*
X149051000Y-74051000D01*
X149051000Y-74051000D01*
G37*
G36*
X147251000Y-74051000D02*
G01*
X146149000Y-74051000D01*
X146149000Y-72449000D01*
X147251000Y-72449000D01*
X147251000Y-74051000D01*
X147251000Y-74051000D01*
G37*
G36*
X201614903Y-71547075D02*
G01*
X201780688Y-71615745D01*
X201842571Y-71641378D01*
X202047466Y-71778285D01*
X202221715Y-71952534D01*
X202221716Y-71952536D01*
X202358623Y-72157431D01*
X202452925Y-72385097D01*
X202501000Y-72626786D01*
X202501000Y-72873214D01*
X202452925Y-73114903D01*
X202360209Y-73338741D01*
X202358622Y-73342571D01*
X202221715Y-73547466D01*
X202047466Y-73721715D01*
X201842571Y-73858622D01*
X201842570Y-73858623D01*
X201842569Y-73858623D01*
X201614903Y-73952925D01*
X201373214Y-74001000D01*
X201126786Y-74001000D01*
X200885097Y-73952925D01*
X200657431Y-73858623D01*
X200657430Y-73858623D01*
X200657429Y-73858622D01*
X200452534Y-73721715D01*
X200278285Y-73547466D01*
X200141378Y-73342571D01*
X200139792Y-73338741D01*
X200047075Y-73114903D01*
X199999000Y-72873214D01*
X199999000Y-72626786D01*
X200047075Y-72385097D01*
X200141377Y-72157431D01*
X200278284Y-71952536D01*
X200278285Y-71952534D01*
X200452534Y-71778285D01*
X200657429Y-71641378D01*
X200719313Y-71615745D01*
X200885097Y-71547075D01*
X201126786Y-71499000D01*
X201373214Y-71499000D01*
X201614903Y-71547075D01*
X201614903Y-71547075D01*
G37*
G36*
X128801000Y-73051000D02*
G01*
X127199000Y-73051000D01*
X127199000Y-71449000D01*
X128801000Y-71449000D01*
X128801000Y-73051000D01*
X128801000Y-73051000D01*
G37*
G36*
X125751000Y-73001000D02*
G01*
X123249000Y-73001000D01*
X123249000Y-70499000D01*
X125751000Y-70499000D01*
X125751000Y-73001000D01*
X125751000Y-73001000D01*
G37*
G36*
X120671000Y-73001000D02*
G01*
X118169000Y-73001000D01*
X118169000Y-70499000D01*
X120671000Y-70499000D01*
X120671000Y-73001000D01*
X120671000Y-73001000D01*
G37*
G36*
X167041000Y-72461000D02*
G01*
X164539000Y-72461000D01*
X164539000Y-69959000D01*
X167041000Y-69959000D01*
X167041000Y-72461000D01*
X167041000Y-72461000D01*
G37*
G36*
X161961000Y-72461000D02*
G01*
X159459000Y-72461000D01*
X159459000Y-69959000D01*
X161961000Y-69959000D01*
X161961000Y-72461000D01*
X161961000Y-72461000D01*
G37*
G36*
X194151000Y-72401000D02*
G01*
X192349000Y-72401000D01*
X192349000Y-70599000D01*
X194151000Y-70599000D01*
X194151000Y-72401000D01*
X194151000Y-72401000D01*
G37*
G36*
X155363512Y-70603927D02*
G01*
X155512812Y-70633624D01*
X155676784Y-70701544D01*
X155824354Y-70800147D01*
X155949853Y-70925646D01*
X156048456Y-71073216D01*
X156116376Y-71237188D01*
X156151000Y-71411259D01*
X156151000Y-71588741D01*
X156116376Y-71762812D01*
X156048456Y-71926784D01*
X155949853Y-72074354D01*
X155824354Y-72199853D01*
X155676784Y-72298456D01*
X155512812Y-72366376D01*
X155363512Y-72396073D01*
X155338742Y-72401000D01*
X155161258Y-72401000D01*
X155136488Y-72396073D01*
X154987188Y-72366376D01*
X154823216Y-72298456D01*
X154675646Y-72199853D01*
X154550147Y-72074354D01*
X154451544Y-71926784D01*
X154383624Y-71762812D01*
X154349000Y-71588741D01*
X154349000Y-71411259D01*
X154383624Y-71237188D01*
X154451544Y-71073216D01*
X154550147Y-70925646D01*
X154675646Y-70800147D01*
X154823216Y-70701544D01*
X154987188Y-70633624D01*
X155136488Y-70603927D01*
X155161258Y-70599000D01*
X155338742Y-70599000D01*
X155363512Y-70603927D01*
X155363512Y-70603927D01*
G37*
G36*
X135176000Y-72051000D02*
G01*
X133824000Y-72051000D01*
X133824000Y-71449000D01*
X135176000Y-71449000D01*
X135176000Y-72051000D01*
X135176000Y-72051000D01*
G37*
G36*
X190551000Y-72051000D02*
G01*
X188949000Y-72051000D01*
X188949000Y-70449000D01*
X190551000Y-70449000D01*
X190551000Y-72051000D01*
X190551000Y-72051000D01*
G37*
G36*
X173176000Y-72051000D02*
G01*
X171824000Y-72051000D01*
X171824000Y-71449000D01*
X173176000Y-71449000D01*
X173176000Y-72051000D01*
X173176000Y-72051000D01*
G37*
G36*
X152551000Y-72051000D02*
G01*
X150949000Y-72051000D01*
X150949000Y-70449000D01*
X152551000Y-70449000D01*
X152551000Y-72051000D01*
X152551000Y-72051000D01*
G37*
G36*
X131051000Y-71926000D02*
G01*
X130449000Y-71926000D01*
X130449000Y-70574000D01*
X131051000Y-70574000D01*
X131051000Y-71926000D01*
X131051000Y-71926000D01*
G37*
G36*
X132801000Y-71926000D02*
G01*
X132199000Y-71926000D01*
X132199000Y-70574000D01*
X132801000Y-70574000D01*
X132801000Y-71926000D01*
X132801000Y-71926000D01*
G37*
G36*
X196309004Y-71203355D02*
G01*
X196337376Y-71211962D01*
X196365745Y-71220567D01*
X196365747Y-71220568D01*
X196418031Y-71248514D01*
X196418032Y-71248515D01*
X196418036Y-71248517D01*
X196463869Y-71286131D01*
X196501483Y-71331964D01*
X196501485Y-71331968D01*
X196501486Y-71331969D01*
X196529432Y-71384253D01*
X196546645Y-71440996D01*
X196552456Y-71500000D01*
X196546645Y-71559004D01*
X196529432Y-71615747D01*
X196515733Y-71641377D01*
X196501483Y-71668036D01*
X196463869Y-71713869D01*
X196418036Y-71751483D01*
X196418032Y-71751485D01*
X196418031Y-71751486D01*
X196396843Y-71762811D01*
X196365745Y-71779433D01*
X196337376Y-71788038D01*
X196309004Y-71796645D01*
X196264786Y-71801000D01*
X195735214Y-71801000D01*
X195690996Y-71796645D01*
X195662625Y-71788039D01*
X195634255Y-71779433D01*
X195603157Y-71762811D01*
X195581969Y-71751486D01*
X195581968Y-71751485D01*
X195581964Y-71751483D01*
X195536131Y-71713869D01*
X195498517Y-71668036D01*
X195484268Y-71641377D01*
X195470568Y-71615747D01*
X195453355Y-71559004D01*
X195447544Y-71500000D01*
X195453355Y-71440996D01*
X195470568Y-71384253D01*
X195498514Y-71331969D01*
X195498515Y-71331968D01*
X195498517Y-71331964D01*
X195536131Y-71286131D01*
X195581964Y-71248517D01*
X195581968Y-71248515D01*
X195581969Y-71248514D01*
X195634253Y-71220568D01*
X195634255Y-71220567D01*
X195662624Y-71211962D01*
X195690996Y-71203355D01*
X195735214Y-71199000D01*
X196264786Y-71199000D01*
X196309004Y-71203355D01*
X196309004Y-71203355D01*
G37*
G36*
X158309004Y-71203355D02*
G01*
X158337376Y-71211962D01*
X158365745Y-71220567D01*
X158365747Y-71220568D01*
X158418031Y-71248514D01*
X158418032Y-71248515D01*
X158418036Y-71248517D01*
X158463869Y-71286131D01*
X158501483Y-71331964D01*
X158501485Y-71331968D01*
X158501486Y-71331969D01*
X158529432Y-71384253D01*
X158546645Y-71440996D01*
X158552456Y-71500000D01*
X158546645Y-71559004D01*
X158529432Y-71615747D01*
X158515733Y-71641377D01*
X158501483Y-71668036D01*
X158463869Y-71713869D01*
X158418036Y-71751483D01*
X158418032Y-71751485D01*
X158418031Y-71751486D01*
X158396843Y-71762811D01*
X158365745Y-71779433D01*
X158337376Y-71788038D01*
X158309004Y-71796645D01*
X158264786Y-71801000D01*
X157735214Y-71801000D01*
X157690996Y-71796645D01*
X157662625Y-71788039D01*
X157634255Y-71779433D01*
X157603157Y-71762811D01*
X157581969Y-71751486D01*
X157581968Y-71751485D01*
X157581964Y-71751483D01*
X157536131Y-71713869D01*
X157498517Y-71668036D01*
X157484268Y-71641377D01*
X157470568Y-71615747D01*
X157453355Y-71559004D01*
X157447544Y-71500000D01*
X157453355Y-71440996D01*
X157470568Y-71384253D01*
X157498514Y-71331969D01*
X157498515Y-71331968D01*
X157498517Y-71331964D01*
X157536131Y-71286131D01*
X157581964Y-71248517D01*
X157581968Y-71248515D01*
X157581969Y-71248514D01*
X157634253Y-71220568D01*
X157634255Y-71220567D01*
X157662624Y-71211962D01*
X157690996Y-71203355D01*
X157735214Y-71199000D01*
X158264786Y-71199000D01*
X158309004Y-71203355D01*
X158309004Y-71203355D01*
G37*
G36*
X117151000Y-71731000D02*
G01*
X115349000Y-71731000D01*
X115349000Y-69929000D01*
X117151000Y-69929000D01*
X117151000Y-71731000D01*
X117151000Y-71731000D01*
G37*
G36*
X199961000Y-71461000D02*
G01*
X197459000Y-71461000D01*
X197459000Y-68959000D01*
X199961000Y-68959000D01*
X199961000Y-71461000D01*
X199961000Y-71461000D01*
G37*
G36*
X205041000Y-71461000D02*
G01*
X202539000Y-71461000D01*
X202539000Y-68959000D01*
X205041000Y-68959000D01*
X205041000Y-71461000D01*
X205041000Y-71461000D01*
G37*
G36*
X196309004Y-70203355D02*
G01*
X196337376Y-70211962D01*
X196365745Y-70220567D01*
X196365747Y-70220568D01*
X196418031Y-70248514D01*
X196418032Y-70248515D01*
X196418036Y-70248517D01*
X196463869Y-70286131D01*
X196501483Y-70331964D01*
X196501485Y-70331968D01*
X196501486Y-70331969D01*
X196529432Y-70384253D01*
X196546645Y-70440996D01*
X196552456Y-70500000D01*
X196546645Y-70559004D01*
X196546644Y-70559006D01*
X196529433Y-70615745D01*
X196501483Y-70668036D01*
X196463869Y-70713869D01*
X196418036Y-70751483D01*
X196418032Y-70751485D01*
X196418031Y-70751486D01*
X196365747Y-70779432D01*
X196365745Y-70779433D01*
X196337375Y-70788039D01*
X196309004Y-70796645D01*
X196264786Y-70801000D01*
X195735214Y-70801000D01*
X195690996Y-70796645D01*
X195662624Y-70788038D01*
X195634255Y-70779433D01*
X195634253Y-70779432D01*
X195581969Y-70751486D01*
X195581968Y-70751485D01*
X195581964Y-70751483D01*
X195536131Y-70713869D01*
X195498517Y-70668036D01*
X195470567Y-70615745D01*
X195453356Y-70559006D01*
X195453355Y-70559004D01*
X195447544Y-70500000D01*
X195453355Y-70440996D01*
X195470568Y-70384253D01*
X195498514Y-70331969D01*
X195498515Y-70331968D01*
X195498517Y-70331964D01*
X195536131Y-70286131D01*
X195581964Y-70248517D01*
X195581968Y-70248515D01*
X195581969Y-70248514D01*
X195634253Y-70220568D01*
X195634255Y-70220567D01*
X195662624Y-70211962D01*
X195690996Y-70203355D01*
X195735214Y-70199000D01*
X196264786Y-70199000D01*
X196309004Y-70203355D01*
X196309004Y-70203355D01*
G37*
G36*
X158309004Y-70203355D02*
G01*
X158337376Y-70211962D01*
X158365745Y-70220567D01*
X158365747Y-70220568D01*
X158418031Y-70248514D01*
X158418032Y-70248515D01*
X158418036Y-70248517D01*
X158463869Y-70286131D01*
X158501483Y-70331964D01*
X158501485Y-70331968D01*
X158501486Y-70331969D01*
X158529432Y-70384253D01*
X158546645Y-70440996D01*
X158552456Y-70500000D01*
X158546645Y-70559004D01*
X158546644Y-70559006D01*
X158529433Y-70615745D01*
X158501483Y-70668036D01*
X158463869Y-70713869D01*
X158418036Y-70751483D01*
X158418032Y-70751485D01*
X158418031Y-70751486D01*
X158365747Y-70779432D01*
X158365745Y-70779433D01*
X158337375Y-70788039D01*
X158309004Y-70796645D01*
X158264786Y-70801000D01*
X157735214Y-70801000D01*
X157690996Y-70796645D01*
X157662624Y-70788038D01*
X157634255Y-70779433D01*
X157634253Y-70779432D01*
X157581969Y-70751486D01*
X157581968Y-70751485D01*
X157581964Y-70751483D01*
X157536131Y-70713869D01*
X157498517Y-70668036D01*
X157470567Y-70615745D01*
X157453356Y-70559006D01*
X157453355Y-70559004D01*
X157447544Y-70500000D01*
X157453355Y-70440996D01*
X157470568Y-70384253D01*
X157498514Y-70331969D01*
X157498515Y-70331968D01*
X157498517Y-70331964D01*
X157536131Y-70286131D01*
X157581964Y-70248517D01*
X157581968Y-70248515D01*
X157581969Y-70248514D01*
X157634253Y-70220568D01*
X157634255Y-70220567D01*
X157662624Y-70211962D01*
X157690996Y-70203355D01*
X157735214Y-70199000D01*
X158264786Y-70199000D01*
X158309004Y-70203355D01*
X158309004Y-70203355D01*
G37*
G36*
X176201000Y-70551000D02*
G01*
X175299000Y-70551000D01*
X175299000Y-69449000D01*
X176201000Y-69449000D01*
X176201000Y-70551000D01*
X176201000Y-70551000D01*
G37*
G36*
X178201000Y-70551000D02*
G01*
X177299000Y-70551000D01*
X177299000Y-69449000D01*
X178201000Y-69449000D01*
X178201000Y-70551000D01*
X178201000Y-70551000D01*
G37*
G36*
X181051000Y-70551000D02*
G01*
X179449000Y-70551000D01*
X179449000Y-68949000D01*
X181051000Y-68949000D01*
X181051000Y-70551000D01*
X181051000Y-70551000D01*
G37*
G36*
X140201000Y-70551000D02*
G01*
X139299000Y-70551000D01*
X139299000Y-69449000D01*
X140201000Y-69449000D01*
X140201000Y-70551000D01*
X140201000Y-70551000D01*
G37*
G36*
X138201000Y-70551000D02*
G01*
X137299000Y-70551000D01*
X137299000Y-69449000D01*
X138201000Y-69449000D01*
X138201000Y-70551000D01*
X138201000Y-70551000D01*
G37*
G36*
X143051000Y-70551000D02*
G01*
X141449000Y-70551000D01*
X141449000Y-68949000D01*
X143051000Y-68949000D01*
X143051000Y-70551000D01*
X143051000Y-70551000D01*
G37*
G36*
X185551000Y-70551000D02*
G01*
X183949000Y-70551000D01*
X183949000Y-68949000D01*
X185551000Y-68949000D01*
X185551000Y-70551000D01*
X185551000Y-70551000D01*
G37*
G36*
X147551000Y-70551000D02*
G01*
X145949000Y-70551000D01*
X145949000Y-68949000D01*
X147551000Y-68949000D01*
X147551000Y-70551000D01*
X147551000Y-70551000D01*
G37*
G36*
X173176000Y-70301000D02*
G01*
X171824000Y-70301000D01*
X171824000Y-69699000D01*
X173176000Y-69699000D01*
X173176000Y-70301000D01*
X173176000Y-70301000D01*
G37*
G36*
X135176000Y-70301000D02*
G01*
X133824000Y-70301000D01*
X133824000Y-69699000D01*
X135176000Y-69699000D01*
X135176000Y-70301000D01*
X135176000Y-70301000D01*
G37*
G36*
X193363512Y-68063927D02*
G01*
X193512812Y-68093624D01*
X193676784Y-68161544D01*
X193824354Y-68260147D01*
X193949853Y-68385646D01*
X194048456Y-68533216D01*
X194116376Y-68697188D01*
X194151000Y-68871259D01*
X194151000Y-69048741D01*
X194116376Y-69222812D01*
X194048456Y-69386784D01*
X193949853Y-69534354D01*
X193824354Y-69659853D01*
X193676784Y-69758456D01*
X193512812Y-69826376D01*
X193363512Y-69856073D01*
X193338742Y-69861000D01*
X193161258Y-69861000D01*
X193136488Y-69856073D01*
X192987188Y-69826376D01*
X192823216Y-69758456D01*
X192675646Y-69659853D01*
X192550147Y-69534354D01*
X192451544Y-69386784D01*
X192383624Y-69222812D01*
X192349000Y-69048741D01*
X192349000Y-68871259D01*
X192383624Y-68697188D01*
X192451544Y-68533216D01*
X192550147Y-68385646D01*
X192675646Y-68260147D01*
X192823216Y-68161544D01*
X192987188Y-68093624D01*
X193136488Y-68063927D01*
X193161258Y-68059000D01*
X193338742Y-68059000D01*
X193363512Y-68063927D01*
X193363512Y-68063927D01*
G37*
G36*
X117151000Y-69191000D02*
G01*
X115349000Y-69191000D01*
X115349000Y-67389000D01*
X117151000Y-67389000D01*
X117151000Y-69191000D01*
X117151000Y-69191000D01*
G37*
G36*
X128801000Y-68551000D02*
G01*
X127199000Y-68551000D01*
X127199000Y-66949000D01*
X128801000Y-66949000D01*
X128801000Y-68551000D01*
X128801000Y-68551000D01*
G37*
G36*
X190551000Y-68551000D02*
G01*
X188949000Y-68551000D01*
X188949000Y-67449000D01*
X190551000Y-67449000D01*
X190551000Y-68551000D01*
X190551000Y-68551000D01*
G37*
G36*
X177201000Y-68051000D02*
G01*
X176299000Y-68051000D01*
X176299000Y-66949000D01*
X177201000Y-66949000D01*
X177201000Y-68051000D01*
X177201000Y-68051000D01*
G37*
G36*
X139201000Y-68051000D02*
G01*
X138299000Y-68051000D01*
X138299000Y-66949000D01*
X139201000Y-66949000D01*
X139201000Y-68051000D01*
X139201000Y-68051000D01*
G37*
G36*
X122801000Y-67301000D02*
G01*
X121699000Y-67301000D01*
X121699000Y-65699000D01*
X122801000Y-65699000D01*
X122801000Y-67301000D01*
X122801000Y-67301000D01*
G37*
G36*
X124801000Y-67301000D02*
G01*
X123699000Y-67301000D01*
X123699000Y-65699000D01*
X124801000Y-65699000D01*
X124801000Y-67301000D01*
X124801000Y-67301000D01*
G37*
G36*
X136801000Y-66926000D02*
G01*
X136199000Y-66926000D01*
X136199000Y-65574000D01*
X136801000Y-65574000D01*
X136801000Y-66926000D01*
X136801000Y-66926000D01*
G37*
G36*
X174801000Y-66926000D02*
G01*
X174199000Y-66926000D01*
X174199000Y-65574000D01*
X174801000Y-65574000D01*
X174801000Y-66926000D01*
X174801000Y-66926000D01*
G37*
G36*
X173051000Y-66926000D02*
G01*
X172449000Y-66926000D01*
X172449000Y-65574000D01*
X173051000Y-65574000D01*
X173051000Y-66926000D01*
X173051000Y-66926000D01*
G37*
G36*
X135051000Y-66926000D02*
G01*
X134449000Y-66926000D01*
X134449000Y-65574000D01*
X135051000Y-65574000D01*
X135051000Y-66926000D01*
X135051000Y-66926000D01*
G37*
G36*
X146691000Y-66651000D02*
G01*
X144889000Y-66651000D01*
X144889000Y-64849000D01*
X146691000Y-64849000D01*
X146691000Y-66651000D01*
X146691000Y-66651000D01*
G37*
G36*
X143363512Y-64853927D02*
G01*
X143512812Y-64883624D01*
X143676784Y-64951544D01*
X143824354Y-65050147D01*
X143949853Y-65175646D01*
X144048456Y-65323216D01*
X144116376Y-65487188D01*
X144151000Y-65661259D01*
X144151000Y-65838741D01*
X144116376Y-66012812D01*
X144048456Y-66176784D01*
X143949853Y-66324354D01*
X143824354Y-66449853D01*
X143676784Y-66548456D01*
X143512812Y-66616376D01*
X143363512Y-66646073D01*
X143338742Y-66651000D01*
X143161258Y-66651000D01*
X143136488Y-66646073D01*
X142987188Y-66616376D01*
X142823216Y-66548456D01*
X142675646Y-66449853D01*
X142550147Y-66324354D01*
X142451544Y-66176784D01*
X142383624Y-66012812D01*
X142349000Y-65838741D01*
X142349000Y-65661259D01*
X142383624Y-65487188D01*
X142451544Y-65323216D01*
X142550147Y-65175646D01*
X142675646Y-65050147D01*
X142823216Y-64951544D01*
X142987188Y-64883624D01*
X143136488Y-64853927D01*
X143161258Y-64849000D01*
X143338742Y-64849000D01*
X143363512Y-64853927D01*
X143363512Y-64853927D01*
G37*
G36*
X181363512Y-64853927D02*
G01*
X181512812Y-64883624D01*
X181676784Y-64951544D01*
X181824354Y-65050147D01*
X181949853Y-65175646D01*
X182048456Y-65323216D01*
X182116376Y-65487188D01*
X182151000Y-65661259D01*
X182151000Y-65838741D01*
X182116376Y-66012812D01*
X182048456Y-66176784D01*
X181949853Y-66324354D01*
X181824354Y-66449853D01*
X181676784Y-66548456D01*
X181512812Y-66616376D01*
X181363512Y-66646073D01*
X181338742Y-66651000D01*
X181161258Y-66651000D01*
X181136488Y-66646073D01*
X180987188Y-66616376D01*
X180823216Y-66548456D01*
X180675646Y-66449853D01*
X180550147Y-66324354D01*
X180451544Y-66176784D01*
X180383624Y-66012812D01*
X180349000Y-65838741D01*
X180349000Y-65661259D01*
X180383624Y-65487188D01*
X180451544Y-65323216D01*
X180550147Y-65175646D01*
X180675646Y-65050147D01*
X180823216Y-64951544D01*
X180987188Y-64883624D01*
X181136488Y-64853927D01*
X181161258Y-64849000D01*
X181338742Y-64849000D01*
X181363512Y-64853927D01*
X181363512Y-64853927D01*
G37*
G36*
X184691000Y-66651000D02*
G01*
X182889000Y-66651000D01*
X182889000Y-64849000D01*
X184691000Y-64849000D01*
X184691000Y-66651000D01*
X184691000Y-66651000D01*
G37*
G36*
X116363512Y-64853927D02*
G01*
X116512812Y-64883624D01*
X116676784Y-64951544D01*
X116824354Y-65050147D01*
X116949853Y-65175646D01*
X117048456Y-65323216D01*
X117116376Y-65487188D01*
X117151000Y-65661259D01*
X117151000Y-65838741D01*
X117116376Y-66012812D01*
X117048456Y-66176784D01*
X116949853Y-66324354D01*
X116824354Y-66449853D01*
X116676784Y-66548456D01*
X116512812Y-66616376D01*
X116363512Y-66646073D01*
X116338742Y-66651000D01*
X116161258Y-66651000D01*
X116136488Y-66646073D01*
X115987188Y-66616376D01*
X115823216Y-66548456D01*
X115675646Y-66449853D01*
X115550147Y-66324354D01*
X115451544Y-66176784D01*
X115383624Y-66012812D01*
X115349000Y-65838741D01*
X115349000Y-65661259D01*
X115383624Y-65487188D01*
X115451544Y-65323216D01*
X115550147Y-65175646D01*
X115675646Y-65050147D01*
X115823216Y-64951544D01*
X115987188Y-64883624D01*
X116136488Y-64853927D01*
X116161258Y-64849000D01*
X116338742Y-64849000D01*
X116363512Y-64853927D01*
X116363512Y-64853927D01*
G37*
G36*
X149051000Y-66551000D02*
G01*
X147949000Y-66551000D01*
X147949000Y-64949000D01*
X149051000Y-64949000D01*
X149051000Y-66551000D01*
X149051000Y-66551000D01*
G37*
G36*
X190551000Y-66551000D02*
G01*
X188949000Y-66551000D01*
X188949000Y-65449000D01*
X190551000Y-65449000D01*
X190551000Y-66551000D01*
X190551000Y-66551000D01*
G37*
G36*
X151051000Y-66551000D02*
G01*
X149949000Y-66551000D01*
X149949000Y-64949000D01*
X151051000Y-64949000D01*
X151051000Y-66551000D01*
X151051000Y-66551000D01*
G37*
M02*
