G04 #@! TF.GenerationSoftware,KiCad,Pcbnew,(5.1.4)-1*
G04 #@! TF.CreationDate,2020-05-25T21:58:02+03:00*
G04 #@! TF.ProjectId,naa,6e61612e-6b69-4636-9164-5f7063625858,rev?*
G04 #@! TF.SameCoordinates,Original*
G04 #@! TF.FileFunction,Legend,Top*
G04 #@! TF.FilePolarity,Positive*
%FSLAX46Y46*%
G04 Gerber Fmt 4.6, Leading zero omitted, Abs format (unit mm)*
G04 Created by KiCad (PCBNEW (5.1.4)-1) date 2020-05-25 21:58:02*
%MOMM*%
%LPD*%
G04 APERTURE LIST*
%ADD10C,0.160000*%
G04 APERTURE END LIST*
D10*
X165735714Y-64361904D02*
X165735714Y-63561904D01*
X166192857Y-64361904D01*
X166192857Y-63561904D01*
X166535714Y-64133333D02*
X166916666Y-64133333D01*
X166459523Y-64361904D02*
X166726190Y-63561904D01*
X166992857Y-64361904D01*
X167221428Y-64133333D02*
X167602380Y-64133333D01*
X167145238Y-64361904D02*
X167411904Y-63561904D01*
X167678571Y-64361904D01*
X167945238Y-64285714D02*
X167983333Y-64323809D01*
X167945238Y-64361904D01*
X167907142Y-64323809D01*
X167945238Y-64285714D01*
X167945238Y-64361904D01*
X168478571Y-63561904D02*
X168554761Y-63561904D01*
X168630952Y-63600000D01*
X168669047Y-63638095D01*
X168707142Y-63714285D01*
X168745238Y-63866666D01*
X168745238Y-64057142D01*
X168707142Y-64209523D01*
X168669047Y-64285714D01*
X168630952Y-64323809D01*
X168554761Y-64361904D01*
X168478571Y-64361904D01*
X168402380Y-64323809D01*
X168364285Y-64285714D01*
X168326190Y-64209523D01*
X168288095Y-64057142D01*
X168288095Y-63866666D01*
X168326190Y-63714285D01*
X168364285Y-63638095D01*
X168402380Y-63600000D01*
X168478571Y-63561904D01*
X169088095Y-64285714D02*
X169126190Y-64323809D01*
X169088095Y-64361904D01*
X169050000Y-64323809D01*
X169088095Y-64285714D01*
X169088095Y-64361904D01*
X169469047Y-64361904D02*
X169469047Y-63561904D01*
X169735714Y-64133333D01*
X170002380Y-63561904D01*
X170002380Y-64361904D01*
X170764285Y-63561904D02*
X170383333Y-63561904D01*
X170345238Y-63942857D01*
X170383333Y-63904761D01*
X170459523Y-63866666D01*
X170650000Y-63866666D01*
X170726190Y-63904761D01*
X170764285Y-63942857D01*
X170802380Y-64019047D01*
X170802380Y-64209523D01*
X170764285Y-64285714D01*
X170726190Y-64323809D01*
X170650000Y-64361904D01*
X170459523Y-64361904D01*
X170383333Y-64323809D01*
X170345238Y-64285714D01*
X193016666Y-63648571D02*
X193016666Y-64181904D01*
X192826190Y-63343809D02*
X192635714Y-63915238D01*
X193130952Y-63915238D01*
X193588095Y-63381904D02*
X193664285Y-63381904D01*
X193740476Y-63420000D01*
X193778571Y-63458095D01*
X193816666Y-63534285D01*
X193854761Y-63686666D01*
X193854761Y-63877142D01*
X193816666Y-64029523D01*
X193778571Y-64105714D01*
X193740476Y-64143809D01*
X193664285Y-64181904D01*
X193588095Y-64181904D01*
X193511904Y-64143809D01*
X193473809Y-64105714D01*
X193435714Y-64029523D01*
X193397619Y-63877142D01*
X193397619Y-63686666D01*
X193435714Y-63534285D01*
X193473809Y-63458095D01*
X193511904Y-63420000D01*
X193588095Y-63381904D01*
X194235714Y-64143809D02*
X194235714Y-64181904D01*
X194197619Y-64258095D01*
X194159523Y-64296190D01*
X194921428Y-63381904D02*
X194769047Y-63381904D01*
X194692857Y-63420000D01*
X194654761Y-63458095D01*
X194578571Y-63572380D01*
X194540476Y-63724761D01*
X194540476Y-64029523D01*
X194578571Y-64105714D01*
X194616666Y-64143809D01*
X194692857Y-64181904D01*
X194845238Y-64181904D01*
X194921428Y-64143809D01*
X194959523Y-64105714D01*
X194997619Y-64029523D01*
X194997619Y-63839047D01*
X194959523Y-63762857D01*
X194921428Y-63724761D01*
X194845238Y-63686666D01*
X194692857Y-63686666D01*
X194616666Y-63724761D01*
X194578571Y-63762857D01*
X194540476Y-63839047D01*
X195683333Y-63381904D02*
X195530952Y-63381904D01*
X195454761Y-63420000D01*
X195416666Y-63458095D01*
X195340476Y-63572380D01*
X195302380Y-63724761D01*
X195302380Y-64029523D01*
X195340476Y-64105714D01*
X195378571Y-64143809D01*
X195454761Y-64181904D01*
X195607142Y-64181904D01*
X195683333Y-64143809D01*
X195721428Y-64105714D01*
X195759523Y-64029523D01*
X195759523Y-63839047D01*
X195721428Y-63762857D01*
X195683333Y-63724761D01*
X195607142Y-63686666D01*
X195454761Y-63686666D01*
X195378571Y-63724761D01*
X195340476Y-63762857D01*
X195302380Y-63839047D01*
X196254761Y-63381904D02*
X196330952Y-63381904D01*
X196407142Y-63420000D01*
X196445238Y-63458095D01*
X196483333Y-63534285D01*
X196521428Y-63686666D01*
X196521428Y-63877142D01*
X196483333Y-64029523D01*
X196445238Y-64105714D01*
X196407142Y-64143809D01*
X196330952Y-64181904D01*
X196254761Y-64181904D01*
X196178571Y-64143809D01*
X196140476Y-64105714D01*
X196102380Y-64029523D01*
X196064285Y-63877142D01*
X196064285Y-63686666D01*
X196102380Y-63534285D01*
X196140476Y-63458095D01*
X196178571Y-63420000D01*
X196254761Y-63381904D01*
X197473809Y-64105714D02*
X197511904Y-64143809D01*
X197473809Y-64181904D01*
X197435714Y-64143809D01*
X197473809Y-64105714D01*
X197473809Y-64181904D01*
X197854761Y-64105714D02*
X197892857Y-64143809D01*
X197854761Y-64181904D01*
X197816666Y-64143809D01*
X197854761Y-64105714D01*
X197854761Y-64181904D01*
X198235714Y-64105714D02*
X198273809Y-64143809D01*
X198235714Y-64181904D01*
X198197619Y-64143809D01*
X198235714Y-64105714D01*
X198235714Y-64181904D01*
X199569047Y-63648571D02*
X199569047Y-64181904D01*
X199378571Y-63343809D02*
X199188095Y-63915238D01*
X199683333Y-63915238D01*
X200140476Y-63381904D02*
X200216666Y-63381904D01*
X200292857Y-63420000D01*
X200330952Y-63458095D01*
X200369047Y-63534285D01*
X200407142Y-63686666D01*
X200407142Y-63877142D01*
X200369047Y-64029523D01*
X200330952Y-64105714D01*
X200292857Y-64143809D01*
X200216666Y-64181904D01*
X200140476Y-64181904D01*
X200064285Y-64143809D01*
X200026190Y-64105714D01*
X199988095Y-64029523D01*
X199950000Y-63877142D01*
X199950000Y-63686666D01*
X199988095Y-63534285D01*
X200026190Y-63458095D01*
X200064285Y-63420000D01*
X200140476Y-63381904D01*
X200788095Y-64143809D02*
X200788095Y-64181904D01*
X200750000Y-64258095D01*
X200711904Y-64296190D01*
X201054761Y-63381904D02*
X201588095Y-63381904D01*
X201245238Y-64181904D01*
X202502380Y-64181904D02*
X202502380Y-63381904D01*
X202769047Y-63953333D01*
X203035714Y-63381904D01*
X203035714Y-64181904D01*
X203416666Y-64181904D02*
X203416666Y-63381904D01*
X203835714Y-63381904D01*
X204445238Y-63648571D02*
X204445238Y-64181904D01*
X204102380Y-63648571D02*
X204102380Y-64181904D01*
X204521428Y-64181904D01*
X204521428Y-64372380D01*
X204826190Y-64105714D02*
X204864285Y-64143809D01*
X204826190Y-64181904D01*
X204788095Y-64143809D01*
X204826190Y-64105714D01*
X204826190Y-64181904D01*
X204826190Y-63686666D02*
X204864285Y-63724761D01*
X204826190Y-63762857D01*
X204788095Y-63724761D01*
X204826190Y-63686666D01*
X204826190Y-63762857D01*
X195721428Y-65008571D02*
X195721428Y-65541904D01*
X195530952Y-64703809D02*
X195340476Y-65275238D01*
X195835714Y-65275238D01*
X196292857Y-64741904D02*
X196369047Y-64741904D01*
X196445238Y-64780000D01*
X196483333Y-64818095D01*
X196521428Y-64894285D01*
X196559523Y-65046666D01*
X196559523Y-65237142D01*
X196521428Y-65389523D01*
X196483333Y-65465714D01*
X196445238Y-65503809D01*
X196369047Y-65541904D01*
X196292857Y-65541904D01*
X196216666Y-65503809D01*
X196178571Y-65465714D01*
X196140476Y-65389523D01*
X196102380Y-65237142D01*
X196102380Y-65046666D01*
X196140476Y-64894285D01*
X196178571Y-64818095D01*
X196216666Y-64780000D01*
X196292857Y-64741904D01*
X196940476Y-65503809D02*
X196940476Y-65541904D01*
X196902380Y-65618095D01*
X196864285Y-65656190D01*
X197626190Y-64741904D02*
X197473809Y-64741904D01*
X197397619Y-64780000D01*
X197359523Y-64818095D01*
X197283333Y-64932380D01*
X197245238Y-65084761D01*
X197245238Y-65389523D01*
X197283333Y-65465714D01*
X197321428Y-65503809D01*
X197397619Y-65541904D01*
X197550000Y-65541904D01*
X197626190Y-65503809D01*
X197664285Y-65465714D01*
X197702380Y-65389523D01*
X197702380Y-65199047D01*
X197664285Y-65122857D01*
X197626190Y-65084761D01*
X197550000Y-65046666D01*
X197397619Y-65046666D01*
X197321428Y-65084761D01*
X197283333Y-65122857D01*
X197245238Y-65199047D01*
X198159523Y-65084761D02*
X198083333Y-65046666D01*
X198045238Y-65008571D01*
X198007142Y-64932380D01*
X198007142Y-64894285D01*
X198045238Y-64818095D01*
X198083333Y-64780000D01*
X198159523Y-64741904D01*
X198311904Y-64741904D01*
X198388095Y-64780000D01*
X198426190Y-64818095D01*
X198464285Y-64894285D01*
X198464285Y-64932380D01*
X198426190Y-65008571D01*
X198388095Y-65046666D01*
X198311904Y-65084761D01*
X198159523Y-65084761D01*
X198083333Y-65122857D01*
X198045238Y-65160952D01*
X198007142Y-65237142D01*
X198007142Y-65389523D01*
X198045238Y-65465714D01*
X198083333Y-65503809D01*
X198159523Y-65541904D01*
X198311904Y-65541904D01*
X198388095Y-65503809D01*
X198426190Y-65465714D01*
X198464285Y-65389523D01*
X198464285Y-65237142D01*
X198426190Y-65160952D01*
X198388095Y-65122857D01*
X198311904Y-65084761D01*
X198959523Y-64741904D02*
X199035714Y-64741904D01*
X199111904Y-64780000D01*
X199150000Y-64818095D01*
X199188095Y-64894285D01*
X199226190Y-65046666D01*
X199226190Y-65237142D01*
X199188095Y-65389523D01*
X199150000Y-65465714D01*
X199111904Y-65503809D01*
X199035714Y-65541904D01*
X198959523Y-65541904D01*
X198883333Y-65503809D01*
X198845238Y-65465714D01*
X198807142Y-65389523D01*
X198769047Y-65237142D01*
X198769047Y-65046666D01*
X198807142Y-64894285D01*
X198845238Y-64818095D01*
X198883333Y-64780000D01*
X198959523Y-64741904D01*
X200178571Y-65541904D02*
X200178571Y-64741904D01*
X200445238Y-65313333D01*
X200711904Y-64741904D01*
X200711904Y-65541904D01*
X201092857Y-65541904D02*
X201092857Y-64741904D01*
X201511904Y-64741904D01*
X202121428Y-65008571D02*
X202121428Y-65541904D01*
X201778571Y-65008571D02*
X201778571Y-65541904D01*
X202197619Y-65541904D01*
X202197619Y-65732380D01*
X170250000Y-70250000D02*
X170250000Y-70500000D01*
X170250000Y-70000000D02*
X170250000Y-69750000D01*
X169750000Y-70250000D02*
X170750000Y-70250000D01*
X170750000Y-70000000D02*
X169750000Y-70000000D01*
X169350000Y-71550000D02*
X169350000Y-71050000D01*
X171150000Y-71550000D02*
X171150000Y-71050000D01*
X169350000Y-68650000D02*
X169350000Y-69150000D01*
X171150000Y-68650000D02*
X171150000Y-69150000D01*
X171150000Y-68650000D02*
X169350000Y-68650000D01*
X171150000Y-71550000D02*
X169350000Y-71550000D01*
X132000000Y-67500000D02*
X132000000Y-67750000D01*
X132000000Y-67250000D02*
X132000000Y-67000000D01*
X131500000Y-67500000D02*
X132500000Y-67500000D01*
X132500000Y-67250000D02*
X131500000Y-67250000D01*
X131100000Y-68800000D02*
X131100000Y-68300000D01*
X132900000Y-68800000D02*
X132900000Y-68300000D01*
X131100000Y-65900000D02*
X131100000Y-66400000D01*
X132900000Y-65900000D02*
X132900000Y-66400000D01*
X132900000Y-65900000D02*
X131100000Y-65900000D01*
X132900000Y-68800000D02*
X131100000Y-68800000D01*
X115750000Y-76000000D02*
X115750000Y-76250000D01*
X115750000Y-75750000D02*
X115750000Y-75500000D01*
X115250000Y-76000000D02*
X116250000Y-76000000D01*
X116250000Y-75750000D02*
X115250000Y-75750000D01*
X114850000Y-77300000D02*
X114850000Y-76800000D01*
X116650000Y-77300000D02*
X116650000Y-76800000D01*
X114850000Y-74400000D02*
X114850000Y-74900000D01*
X116650000Y-74400000D02*
X116650000Y-74900000D01*
X116650000Y-74400000D02*
X114850000Y-74400000D01*
X116650000Y-77300000D02*
X114850000Y-77300000D01*
G36*
X164385038Y-65670041D02*
G01*
X164500004Y-65737559D01*
X164589015Y-65853948D01*
X164608207Y-65892003D01*
X164649711Y-65995403D01*
X164672803Y-66082919D01*
X164675441Y-66142883D01*
X164655723Y-66163639D01*
X164621235Y-66151252D01*
X164551547Y-66120484D01*
X164465223Y-66079664D01*
X164351987Y-66027075D01*
X164214886Y-65966851D01*
X164082732Y-65911634D01*
X164077137Y-65909379D01*
X163979504Y-65866536D01*
X163908419Y-65828433D01*
X163875030Y-65801340D01*
X163874441Y-65795395D01*
X163922339Y-65753934D01*
X164005826Y-65710769D01*
X164104893Y-65673962D01*
X164199536Y-65651574D01*
X164239445Y-65648306D01*
X164385038Y-65670041D01*
X164385038Y-65670041D01*
G37*
X164385038Y-65670041D02*
X164500004Y-65737559D01*
X164589015Y-65853948D01*
X164608207Y-65892003D01*
X164649711Y-65995403D01*
X164672803Y-66082919D01*
X164675441Y-66142883D01*
X164655723Y-66163639D01*
X164621235Y-66151252D01*
X164551547Y-66120484D01*
X164465223Y-66079664D01*
X164351987Y-66027075D01*
X164214886Y-65966851D01*
X164082732Y-65911634D01*
X164077137Y-65909379D01*
X163979504Y-65866536D01*
X163908419Y-65828433D01*
X163875030Y-65801340D01*
X163874441Y-65795395D01*
X163922339Y-65753934D01*
X164005826Y-65710769D01*
X164104893Y-65673962D01*
X164199536Y-65651574D01*
X164239445Y-65648306D01*
X164385038Y-65670041D01*
G36*
X161137563Y-65670528D02*
G01*
X161218170Y-65752829D01*
X161265840Y-65862123D01*
X161278286Y-65981318D01*
X161253221Y-66093322D01*
X161203982Y-66166907D01*
X161126187Y-66215034D01*
X161043535Y-66207582D01*
X160954527Y-66144398D01*
X160951460Y-66141357D01*
X160886005Y-66049948D01*
X160854094Y-65949094D01*
X160851937Y-65848386D01*
X160875743Y-65757414D01*
X160921721Y-65685769D01*
X160986081Y-65643040D01*
X161065032Y-65638817D01*
X161137563Y-65670528D01*
X161137563Y-65670528D01*
G37*
X161137563Y-65670528D02*
X161218170Y-65752829D01*
X161265840Y-65862123D01*
X161278286Y-65981318D01*
X161253221Y-66093322D01*
X161203982Y-66166907D01*
X161126187Y-66215034D01*
X161043535Y-66207582D01*
X160954527Y-66144398D01*
X160951460Y-66141357D01*
X160886005Y-66049948D01*
X160854094Y-65949094D01*
X160851937Y-65848386D01*
X160875743Y-65757414D01*
X160921721Y-65685769D01*
X160986081Y-65643040D01*
X161065032Y-65638817D01*
X161137563Y-65670528D01*
G36*
X163798935Y-65921111D02*
G01*
X163873367Y-65950162D01*
X163981842Y-65994297D01*
X164115454Y-66049907D01*
X164232389Y-66099347D01*
X164394489Y-66168871D01*
X164511651Y-66221164D01*
X164591113Y-66260529D01*
X164640112Y-66291272D01*
X164665886Y-66317694D01*
X164675673Y-66344100D01*
X164676889Y-66363660D01*
X164649437Y-66451786D01*
X164568964Y-66527871D01*
X164546358Y-66541528D01*
X164518919Y-66528708D01*
X164489513Y-66466373D01*
X164479182Y-66432902D01*
X164443759Y-66306385D01*
X164352382Y-66362859D01*
X164290204Y-66399322D01*
X164251327Y-66418482D01*
X164247636Y-66419333D01*
X164232169Y-66395071D01*
X164209189Y-66334122D01*
X164199906Y-66304643D01*
X164165544Y-66189954D01*
X164064058Y-66249832D01*
X163985393Y-66284850D01*
X163938343Y-66274491D01*
X163917542Y-66216022D01*
X163915321Y-66174054D01*
X163903136Y-66113552D01*
X163864222Y-66096597D01*
X163793307Y-66122004D01*
X163761834Y-66139572D01*
X163660889Y-66199131D01*
X163660889Y-66138497D01*
X163672105Y-66077733D01*
X163699318Y-66005933D01*
X163732880Y-65943720D01*
X163763140Y-65911717D01*
X163767447Y-65910757D01*
X163798935Y-65921111D01*
X163798935Y-65921111D01*
G37*
X163798935Y-65921111D02*
X163873367Y-65950162D01*
X163981842Y-65994297D01*
X164115454Y-66049907D01*
X164232389Y-66099347D01*
X164394489Y-66168871D01*
X164511651Y-66221164D01*
X164591113Y-66260529D01*
X164640112Y-66291272D01*
X164665886Y-66317694D01*
X164675673Y-66344100D01*
X164676889Y-66363660D01*
X164649437Y-66451786D01*
X164568964Y-66527871D01*
X164546358Y-66541528D01*
X164518919Y-66528708D01*
X164489513Y-66466373D01*
X164479182Y-66432902D01*
X164443759Y-66306385D01*
X164352382Y-66362859D01*
X164290204Y-66399322D01*
X164251327Y-66418482D01*
X164247636Y-66419333D01*
X164232169Y-66395071D01*
X164209189Y-66334122D01*
X164199906Y-66304643D01*
X164165544Y-66189954D01*
X164064058Y-66249832D01*
X163985393Y-66284850D01*
X163938343Y-66274491D01*
X163917542Y-66216022D01*
X163915321Y-66174054D01*
X163903136Y-66113552D01*
X163864222Y-66096597D01*
X163793307Y-66122004D01*
X163761834Y-66139572D01*
X163660889Y-66199131D01*
X163660889Y-66138497D01*
X163672105Y-66077733D01*
X163699318Y-66005933D01*
X163732880Y-65943720D01*
X163763140Y-65911717D01*
X163767447Y-65910757D01*
X163798935Y-65921111D01*
G36*
X163826613Y-66274603D02*
G01*
X163843484Y-66335193D01*
X163846254Y-66349089D01*
X163869329Y-66432024D01*
X163903409Y-66463035D01*
X163957912Y-66446619D01*
X163997050Y-66421118D01*
X164054798Y-66382466D01*
X164090183Y-66363333D01*
X164092494Y-66362889D01*
X164106136Y-66387449D01*
X164121982Y-66447842D01*
X164124508Y-66460676D01*
X164146874Y-66541716D01*
X164181400Y-66572840D01*
X164239818Y-66559026D01*
X164291038Y-66531345D01*
X164389299Y-66473370D01*
X164408575Y-66587462D01*
X164428111Y-66666987D01*
X164458459Y-66697233D01*
X164511233Y-66685358D01*
X164542256Y-66669866D01*
X164601468Y-66638177D01*
X164547198Y-66731101D01*
X164505170Y-66793231D01*
X164470189Y-66828827D01*
X164464964Y-66831204D01*
X164428984Y-66823640D01*
X164353252Y-66797599D01*
X164249648Y-66757415D01*
X164154778Y-66718041D01*
X163960292Y-66634740D01*
X163811927Y-66569950D01*
X163703692Y-66520492D01*
X163629598Y-66483187D01*
X163583655Y-66454854D01*
X163559873Y-66432315D01*
X163552263Y-66412390D01*
X163553260Y-66398754D01*
X163567313Y-66363392D01*
X163576609Y-66362496D01*
X163606585Y-66357575D01*
X163665616Y-66328932D01*
X163692443Y-66313107D01*
X163759062Y-66274132D01*
X163803881Y-66251947D01*
X163811108Y-66250000D01*
X163826613Y-66274603D01*
X163826613Y-66274603D01*
G37*
X163826613Y-66274603D02*
X163843484Y-66335193D01*
X163846254Y-66349089D01*
X163869329Y-66432024D01*
X163903409Y-66463035D01*
X163957912Y-66446619D01*
X163997050Y-66421118D01*
X164054798Y-66382466D01*
X164090183Y-66363333D01*
X164092494Y-66362889D01*
X164106136Y-66387449D01*
X164121982Y-66447842D01*
X164124508Y-66460676D01*
X164146874Y-66541716D01*
X164181400Y-66572840D01*
X164239818Y-66559026D01*
X164291038Y-66531345D01*
X164389299Y-66473370D01*
X164408575Y-66587462D01*
X164428111Y-66666987D01*
X164458459Y-66697233D01*
X164511233Y-66685358D01*
X164542256Y-66669866D01*
X164601468Y-66638177D01*
X164547198Y-66731101D01*
X164505170Y-66793231D01*
X164470189Y-66828827D01*
X164464964Y-66831204D01*
X164428984Y-66823640D01*
X164353252Y-66797599D01*
X164249648Y-66757415D01*
X164154778Y-66718041D01*
X163960292Y-66634740D01*
X163811927Y-66569950D01*
X163703692Y-66520492D01*
X163629598Y-66483187D01*
X163583655Y-66454854D01*
X163559873Y-66432315D01*
X163552263Y-66412390D01*
X163553260Y-66398754D01*
X163567313Y-66363392D01*
X163576609Y-66362496D01*
X163606585Y-66357575D01*
X163665616Y-66328932D01*
X163692443Y-66313107D01*
X163759062Y-66274132D01*
X163803881Y-66251947D01*
X163811108Y-66250000D01*
X163826613Y-66274603D01*
G36*
X156956088Y-66855550D02*
G01*
X157018582Y-66863211D01*
X157067667Y-66875862D01*
X157068305Y-66876077D01*
X157188501Y-66944526D01*
X157270649Y-67052146D01*
X157297526Y-67127807D01*
X157314931Y-67201280D01*
X156953077Y-67219631D01*
X156790986Y-67228134D01*
X156625963Y-67237271D01*
X156478581Y-67245876D01*
X156379556Y-67252101D01*
X156224929Y-67254685D01*
X156105036Y-67240759D01*
X156070089Y-67230832D01*
X155990769Y-67183277D01*
X155916324Y-67108451D01*
X155862119Y-67024927D01*
X155843334Y-66956753D01*
X155849310Y-66940182D01*
X155871927Y-66926703D01*
X155918216Y-66915279D01*
X155995208Y-66904871D01*
X156109934Y-66894439D01*
X156269425Y-66882944D01*
X156400723Y-66874392D01*
X156602502Y-66862303D01*
X156756612Y-66855118D01*
X156871620Y-66852860D01*
X156956088Y-66855550D01*
X156956088Y-66855550D01*
G37*
X156956088Y-66855550D02*
X157018582Y-66863211D01*
X157067667Y-66875862D01*
X157068305Y-66876077D01*
X157188501Y-66944526D01*
X157270649Y-67052146D01*
X157297526Y-67127807D01*
X157314931Y-67201280D01*
X156953077Y-67219631D01*
X156790986Y-67228134D01*
X156625963Y-67237271D01*
X156478581Y-67245876D01*
X156379556Y-67252101D01*
X156224929Y-67254685D01*
X156105036Y-67240759D01*
X156070089Y-67230832D01*
X155990769Y-67183277D01*
X155916324Y-67108451D01*
X155862119Y-67024927D01*
X155843334Y-66956753D01*
X155849310Y-66940182D01*
X155871927Y-66926703D01*
X155918216Y-66915279D01*
X155995208Y-66904871D01*
X156109934Y-66894439D01*
X156269425Y-66882944D01*
X156400723Y-66874392D01*
X156602502Y-66862303D01*
X156756612Y-66855118D01*
X156871620Y-66852860D01*
X156956088Y-66855550D01*
G36*
X163583876Y-66607122D02*
G01*
X163657783Y-66631945D01*
X163766150Y-66673789D01*
X163900599Y-66729302D01*
X164052753Y-66795130D01*
X164206607Y-66864413D01*
X164371325Y-66940044D01*
X164291833Y-67003429D01*
X164214697Y-67052391D01*
X164138215Y-67083077D01*
X164136121Y-67083554D01*
X164070221Y-67107524D01*
X164034378Y-67133758D01*
X164016757Y-67169137D01*
X163982158Y-67248794D01*
X163934036Y-67364391D01*
X163875849Y-67507592D01*
X163811053Y-67670058D01*
X163792319Y-67717555D01*
X163716613Y-67909820D01*
X163658312Y-68056377D01*
X163614052Y-68164005D01*
X163580469Y-68239480D01*
X163554200Y-68289579D01*
X163531880Y-68321081D01*
X163510146Y-68340763D01*
X163485634Y-68355401D01*
X163472245Y-68362442D01*
X163420406Y-68388093D01*
X163387387Y-68388566D01*
X163343487Y-68361488D01*
X163328502Y-68350955D01*
X163275255Y-68281326D01*
X163265778Y-68224662D01*
X163275905Y-68174559D01*
X163304216Y-68081191D01*
X163347608Y-67953567D01*
X163402981Y-67800699D01*
X163467229Y-67631597D01*
X163490284Y-67572666D01*
X163714790Y-67003030D01*
X163662803Y-66929904D01*
X163626728Y-66865856D01*
X163591851Y-66783158D01*
X163564170Y-66699647D01*
X163549680Y-66633157D01*
X163552806Y-66602676D01*
X163583876Y-66607122D01*
X163583876Y-66607122D01*
G37*
X163583876Y-66607122D02*
X163657783Y-66631945D01*
X163766150Y-66673789D01*
X163900599Y-66729302D01*
X164052753Y-66795130D01*
X164206607Y-66864413D01*
X164371325Y-66940044D01*
X164291833Y-67003429D01*
X164214697Y-67052391D01*
X164138215Y-67083077D01*
X164136121Y-67083554D01*
X164070221Y-67107524D01*
X164034378Y-67133758D01*
X164016757Y-67169137D01*
X163982158Y-67248794D01*
X163934036Y-67364391D01*
X163875849Y-67507592D01*
X163811053Y-67670058D01*
X163792319Y-67717555D01*
X163716613Y-67909820D01*
X163658312Y-68056377D01*
X163614052Y-68164005D01*
X163580469Y-68239480D01*
X163554200Y-68289579D01*
X163531880Y-68321081D01*
X163510146Y-68340763D01*
X163485634Y-68355401D01*
X163472245Y-68362442D01*
X163420406Y-68388093D01*
X163387387Y-68388566D01*
X163343487Y-68361488D01*
X163328502Y-68350955D01*
X163275255Y-68281326D01*
X163265778Y-68224662D01*
X163275905Y-68174559D01*
X163304216Y-68081191D01*
X163347608Y-67953567D01*
X163402981Y-67800699D01*
X163467229Y-67631597D01*
X163490284Y-67572666D01*
X163714790Y-67003030D01*
X163662803Y-66929904D01*
X163626728Y-66865856D01*
X163591851Y-66783158D01*
X163564170Y-66699647D01*
X163549680Y-66633157D01*
X163552806Y-66602676D01*
X163583876Y-66607122D01*
G36*
X169054002Y-66279153D02*
G01*
X169228217Y-66315697D01*
X169305454Y-66340814D01*
X169351866Y-66365709D01*
X169365851Y-66397990D01*
X169345811Y-66445262D01*
X169290145Y-66515132D01*
X169197254Y-66615206D01*
X169156183Y-66658220D01*
X169047369Y-66765005D01*
X168969217Y-66825431D01*
X168920776Y-66839901D01*
X168901093Y-66808815D01*
X168903228Y-66764639D01*
X168892009Y-66666878D01*
X168831966Y-66585065D01*
X168729470Y-66523337D01*
X168590891Y-66485829D01*
X168458667Y-66476041D01*
X168313638Y-66497746D01*
X168202731Y-66561047D01*
X168130421Y-66663023D01*
X168117508Y-66698744D01*
X168098953Y-66812349D01*
X168119835Y-66907113D01*
X168183542Y-66985891D01*
X168293460Y-67051540D01*
X168452979Y-67106913D01*
X168656736Y-67153209D01*
X168866121Y-67201572D01*
X169022817Y-67258427D01*
X169130319Y-67326841D01*
X169192123Y-67409882D01*
X169211724Y-67510616D01*
X169194518Y-67625189D01*
X169126272Y-67776339D01*
X169006205Y-67923930D01*
X168838937Y-68063690D01*
X168629088Y-68191348D01*
X168529223Y-68240394D01*
X168350462Y-68316312D01*
X168196725Y-68363656D01*
X168051800Y-68383576D01*
X167899475Y-68377224D01*
X167723536Y-68345750D01*
X167573365Y-68308240D01*
X167372111Y-68254278D01*
X167299501Y-68338695D01*
X167236172Y-68404011D01*
X167199659Y-68420975D01*
X167188667Y-68393282D01*
X167205186Y-68358056D01*
X167249710Y-68290141D01*
X167314691Y-68199278D01*
X167392580Y-68095207D01*
X167475829Y-67987669D01*
X167556889Y-67886405D01*
X167628212Y-67801154D01*
X167682250Y-67741657D01*
X167711454Y-67717655D01*
X167712325Y-67717555D01*
X167733779Y-67740859D01*
X167732748Y-67783134D01*
X167746726Y-67850022D01*
X167805435Y-67921735D01*
X167898230Y-67992171D01*
X168014467Y-68055228D01*
X168143499Y-68104801D01*
X168274683Y-68134790D01*
X168356774Y-68140889D01*
X168486494Y-68119850D01*
X168592236Y-68063352D01*
X168669999Y-67981320D01*
X168715787Y-67883682D01*
X168725598Y-67780364D01*
X168695436Y-67681292D01*
X168621301Y-67596393D01*
X168585667Y-67572693D01*
X168522079Y-67546393D01*
X168419363Y-67515160D01*
X168294008Y-67483695D01*
X168211364Y-67465976D01*
X168004933Y-67418660D01*
X167849206Y-67367913D01*
X167738444Y-67310662D01*
X167666908Y-67243835D01*
X167628860Y-67164359D01*
X167625987Y-67152546D01*
X167624782Y-67020770D01*
X167673061Y-66882809D01*
X167765198Y-66744666D01*
X167895565Y-66612345D01*
X168058533Y-66491847D01*
X168248476Y-66389175D01*
X168396848Y-66330316D01*
X168600737Y-66282716D01*
X168827955Y-66265518D01*
X169054002Y-66279153D01*
X169054002Y-66279153D01*
G37*
X169054002Y-66279153D02*
X169228217Y-66315697D01*
X169305454Y-66340814D01*
X169351866Y-66365709D01*
X169365851Y-66397990D01*
X169345811Y-66445262D01*
X169290145Y-66515132D01*
X169197254Y-66615206D01*
X169156183Y-66658220D01*
X169047369Y-66765005D01*
X168969217Y-66825431D01*
X168920776Y-66839901D01*
X168901093Y-66808815D01*
X168903228Y-66764639D01*
X168892009Y-66666878D01*
X168831966Y-66585065D01*
X168729470Y-66523337D01*
X168590891Y-66485829D01*
X168458667Y-66476041D01*
X168313638Y-66497746D01*
X168202731Y-66561047D01*
X168130421Y-66663023D01*
X168117508Y-66698744D01*
X168098953Y-66812349D01*
X168119835Y-66907113D01*
X168183542Y-66985891D01*
X168293460Y-67051540D01*
X168452979Y-67106913D01*
X168656736Y-67153209D01*
X168866121Y-67201572D01*
X169022817Y-67258427D01*
X169130319Y-67326841D01*
X169192123Y-67409882D01*
X169211724Y-67510616D01*
X169194518Y-67625189D01*
X169126272Y-67776339D01*
X169006205Y-67923930D01*
X168838937Y-68063690D01*
X168629088Y-68191348D01*
X168529223Y-68240394D01*
X168350462Y-68316312D01*
X168196725Y-68363656D01*
X168051800Y-68383576D01*
X167899475Y-68377224D01*
X167723536Y-68345750D01*
X167573365Y-68308240D01*
X167372111Y-68254278D01*
X167299501Y-68338695D01*
X167236172Y-68404011D01*
X167199659Y-68420975D01*
X167188667Y-68393282D01*
X167205186Y-68358056D01*
X167249710Y-68290141D01*
X167314691Y-68199278D01*
X167392580Y-68095207D01*
X167475829Y-67987669D01*
X167556889Y-67886405D01*
X167628212Y-67801154D01*
X167682250Y-67741657D01*
X167711454Y-67717655D01*
X167712325Y-67717555D01*
X167733779Y-67740859D01*
X167732748Y-67783134D01*
X167746726Y-67850022D01*
X167805435Y-67921735D01*
X167898230Y-67992171D01*
X168014467Y-68055228D01*
X168143499Y-68104801D01*
X168274683Y-68134790D01*
X168356774Y-68140889D01*
X168486494Y-68119850D01*
X168592236Y-68063352D01*
X168669999Y-67981320D01*
X168715787Y-67883682D01*
X168725598Y-67780364D01*
X168695436Y-67681292D01*
X168621301Y-67596393D01*
X168585667Y-67572693D01*
X168522079Y-67546393D01*
X168419363Y-67515160D01*
X168294008Y-67483695D01*
X168211364Y-67465976D01*
X168004933Y-67418660D01*
X167849206Y-67367913D01*
X167738444Y-67310662D01*
X167666908Y-67243835D01*
X167628860Y-67164359D01*
X167625987Y-67152546D01*
X167624782Y-67020770D01*
X167673061Y-66882809D01*
X167765198Y-66744666D01*
X167895565Y-66612345D01*
X168058533Y-66491847D01*
X168248476Y-66389175D01*
X168396848Y-66330316D01*
X168600737Y-66282716D01*
X168827955Y-66265518D01*
X169054002Y-66279153D01*
G36*
X165806829Y-65211341D02*
G01*
X165831239Y-65266433D01*
X165856677Y-65369735D01*
X165857135Y-65476261D01*
X165831641Y-65604553D01*
X165809498Y-65680598D01*
X165756773Y-65850003D01*
X165851000Y-65867680D01*
X165931822Y-65896354D01*
X166013726Y-65945945D01*
X166080159Y-66003883D01*
X166114565Y-66057598D01*
X166116223Y-66069064D01*
X166104028Y-66105951D01*
X166095056Y-66110347D01*
X166058643Y-66112346D01*
X165980907Y-66116350D01*
X165876901Y-66121587D01*
X165848125Y-66123019D01*
X165728587Y-66131408D01*
X165651634Y-66144493D01*
X165603416Y-66165832D01*
X165574550Y-66193278D01*
X165540260Y-66244061D01*
X165484936Y-66335738D01*
X165413624Y-66459143D01*
X165331368Y-66605110D01*
X165243213Y-66764474D01*
X165154204Y-66928070D01*
X165069387Y-67086732D01*
X164993806Y-67231295D01*
X164932505Y-67352594D01*
X164905107Y-67409478D01*
X164820467Y-67604752D01*
X164766552Y-67767049D01*
X164740277Y-67908590D01*
X164738556Y-68041594D01*
X164740296Y-68062308D01*
X164757677Y-68164600D01*
X164792140Y-68233771D01*
X164833091Y-68275891D01*
X164917189Y-68323039D01*
X165011909Y-68324191D01*
X165124516Y-68278463D01*
X165199000Y-68231425D01*
X165268037Y-68172550D01*
X165350962Y-68085852D01*
X165437545Y-67984136D01*
X165456226Y-67959870D01*
X165965346Y-67959870D01*
X165972178Y-68088210D01*
X166003704Y-68179496D01*
X166016193Y-68195950D01*
X166096224Y-68244943D01*
X166200925Y-68246524D01*
X166324917Y-68201063D01*
X166376507Y-68171192D01*
X166513863Y-68060839D01*
X166646656Y-67905491D01*
X166777940Y-67701103D01*
X166883525Y-67500408D01*
X167026082Y-67208542D01*
X166899245Y-67089104D01*
X166781957Y-66961221D01*
X166706884Y-66832821D01*
X166666208Y-66701762D01*
X166658591Y-66666440D01*
X166937148Y-66666440D01*
X166939366Y-66764316D01*
X166959740Y-66863431D01*
X166980216Y-66916012D01*
X167021177Y-66988432D01*
X167051607Y-67006374D01*
X167074813Y-66970080D01*
X167086361Y-66923805D01*
X167101145Y-66811859D01*
X167104078Y-66697088D01*
X167096024Y-66596128D01*
X167077850Y-66525616D01*
X167064657Y-66506481D01*
X167016841Y-66489825D01*
X166978145Y-66518238D01*
X166950827Y-66580762D01*
X166937148Y-66666440D01*
X166658591Y-66666440D01*
X166644951Y-66603191D01*
X166486420Y-66776300D01*
X166395183Y-66883124D01*
X166305352Y-67000132D01*
X166235650Y-67102873D01*
X166232914Y-67107388D01*
X166145712Y-67273129D01*
X166073392Y-67451105D01*
X166017916Y-67631459D01*
X165981247Y-67804334D01*
X165965346Y-67959870D01*
X165456226Y-67959870D01*
X165517556Y-67880205D01*
X165580766Y-67786867D01*
X165616944Y-67716924D01*
X165620804Y-67703444D01*
X165711690Y-67341007D01*
X165832148Y-67025038D01*
X165981831Y-66756094D01*
X166160396Y-66534728D01*
X166367499Y-66361498D01*
X166501688Y-66282725D01*
X166669227Y-66215507D01*
X166816864Y-66197452D01*
X166952489Y-66230210D01*
X167083993Y-66315429D01*
X167196266Y-66427869D01*
X167290888Y-66538930D01*
X167353366Y-66624052D01*
X167390316Y-66698326D01*
X167408357Y-66776843D01*
X167414105Y-66874695D01*
X167414445Y-66925478D01*
X167415459Y-67029283D01*
X167421391Y-67088890D01*
X167436572Y-67116543D01*
X167465334Y-67124484D01*
X167485000Y-67124889D01*
X167538066Y-67132627D01*
X167555556Y-67147467D01*
X167532419Y-67192745D01*
X167480629Y-67229059D01*
X167443425Y-67237778D01*
X167407457Y-67264750D01*
X167365140Y-67346239D01*
X167330785Y-67438225D01*
X167233199Y-67670452D01*
X167105408Y-67891649D01*
X166955721Y-68091005D01*
X166792447Y-68257711D01*
X166623896Y-68380957D01*
X166592953Y-68398050D01*
X166422371Y-68457582D01*
X166247441Y-68465449D01*
X166078357Y-68424527D01*
X165925311Y-68337691D01*
X165798498Y-68207816D01*
X165770234Y-68165994D01*
X165684240Y-68027658D01*
X165525028Y-68179520D01*
X165428842Y-68263937D01*
X165328378Y-68340524D01*
X165245046Y-68392989D01*
X165243529Y-68393769D01*
X165098192Y-68447290D01*
X164944617Y-68469486D01*
X164802945Y-68458663D01*
X164734173Y-68436592D01*
X164592634Y-68349749D01*
X164493853Y-68233763D01*
X164435017Y-68083574D01*
X164413317Y-67894121D01*
X164413111Y-67858667D01*
X164417733Y-67760282D01*
X164431910Y-67661165D01*
X164458263Y-67554235D01*
X164499415Y-67432411D01*
X164557990Y-67288610D01*
X164636609Y-67115752D01*
X164737896Y-66906754D01*
X164844420Y-66694119D01*
X164930470Y-66523047D01*
X164992891Y-66395711D01*
X165034120Y-66305782D01*
X165056597Y-66246932D01*
X165062759Y-66212831D01*
X165055046Y-66197152D01*
X165037297Y-66193555D01*
X164967529Y-66180074D01*
X164881324Y-66146246D01*
X164798374Y-66101994D01*
X164738369Y-66057240D01*
X164721653Y-66034490D01*
X164713536Y-65991090D01*
X164734251Y-65962907D01*
X164791536Y-65946974D01*
X164893133Y-65940327D01*
X164969494Y-65939555D01*
X165103421Y-65934946D01*
X165199761Y-65921952D01*
X165246045Y-65904278D01*
X165278221Y-65865943D01*
X165330108Y-65790709D01*
X165393565Y-65690773D01*
X165439130Y-65615000D01*
X165543686Y-65440905D01*
X165626111Y-65313824D01*
X165690021Y-65230543D01*
X165739033Y-65187845D01*
X165776763Y-65182516D01*
X165806829Y-65211341D01*
X165806829Y-65211341D01*
G37*
X165806829Y-65211341D02*
X165831239Y-65266433D01*
X165856677Y-65369735D01*
X165857135Y-65476261D01*
X165831641Y-65604553D01*
X165809498Y-65680598D01*
X165756773Y-65850003D01*
X165851000Y-65867680D01*
X165931822Y-65896354D01*
X166013726Y-65945945D01*
X166080159Y-66003883D01*
X166114565Y-66057598D01*
X166116223Y-66069064D01*
X166104028Y-66105951D01*
X166095056Y-66110347D01*
X166058643Y-66112346D01*
X165980907Y-66116350D01*
X165876901Y-66121587D01*
X165848125Y-66123019D01*
X165728587Y-66131408D01*
X165651634Y-66144493D01*
X165603416Y-66165832D01*
X165574550Y-66193278D01*
X165540260Y-66244061D01*
X165484936Y-66335738D01*
X165413624Y-66459143D01*
X165331368Y-66605110D01*
X165243213Y-66764474D01*
X165154204Y-66928070D01*
X165069387Y-67086732D01*
X164993806Y-67231295D01*
X164932505Y-67352594D01*
X164905107Y-67409478D01*
X164820467Y-67604752D01*
X164766552Y-67767049D01*
X164740277Y-67908590D01*
X164738556Y-68041594D01*
X164740296Y-68062308D01*
X164757677Y-68164600D01*
X164792140Y-68233771D01*
X164833091Y-68275891D01*
X164917189Y-68323039D01*
X165011909Y-68324191D01*
X165124516Y-68278463D01*
X165199000Y-68231425D01*
X165268037Y-68172550D01*
X165350962Y-68085852D01*
X165437545Y-67984136D01*
X165456226Y-67959870D01*
X165965346Y-67959870D01*
X165972178Y-68088210D01*
X166003704Y-68179496D01*
X166016193Y-68195950D01*
X166096224Y-68244943D01*
X166200925Y-68246524D01*
X166324917Y-68201063D01*
X166376507Y-68171192D01*
X166513863Y-68060839D01*
X166646656Y-67905491D01*
X166777940Y-67701103D01*
X166883525Y-67500408D01*
X167026082Y-67208542D01*
X166899245Y-67089104D01*
X166781957Y-66961221D01*
X166706884Y-66832821D01*
X166666208Y-66701762D01*
X166658591Y-66666440D01*
X166937148Y-66666440D01*
X166939366Y-66764316D01*
X166959740Y-66863431D01*
X166980216Y-66916012D01*
X167021177Y-66988432D01*
X167051607Y-67006374D01*
X167074813Y-66970080D01*
X167086361Y-66923805D01*
X167101145Y-66811859D01*
X167104078Y-66697088D01*
X167096024Y-66596128D01*
X167077850Y-66525616D01*
X167064657Y-66506481D01*
X167016841Y-66489825D01*
X166978145Y-66518238D01*
X166950827Y-66580762D01*
X166937148Y-66666440D01*
X166658591Y-66666440D01*
X166644951Y-66603191D01*
X166486420Y-66776300D01*
X166395183Y-66883124D01*
X166305352Y-67000132D01*
X166235650Y-67102873D01*
X166232914Y-67107388D01*
X166145712Y-67273129D01*
X166073392Y-67451105D01*
X166017916Y-67631459D01*
X165981247Y-67804334D01*
X165965346Y-67959870D01*
X165456226Y-67959870D01*
X165517556Y-67880205D01*
X165580766Y-67786867D01*
X165616944Y-67716924D01*
X165620804Y-67703444D01*
X165711690Y-67341007D01*
X165832148Y-67025038D01*
X165981831Y-66756094D01*
X166160396Y-66534728D01*
X166367499Y-66361498D01*
X166501688Y-66282725D01*
X166669227Y-66215507D01*
X166816864Y-66197452D01*
X166952489Y-66230210D01*
X167083993Y-66315429D01*
X167196266Y-66427869D01*
X167290888Y-66538930D01*
X167353366Y-66624052D01*
X167390316Y-66698326D01*
X167408357Y-66776843D01*
X167414105Y-66874695D01*
X167414445Y-66925478D01*
X167415459Y-67029283D01*
X167421391Y-67088890D01*
X167436572Y-67116543D01*
X167465334Y-67124484D01*
X167485000Y-67124889D01*
X167538066Y-67132627D01*
X167555556Y-67147467D01*
X167532419Y-67192745D01*
X167480629Y-67229059D01*
X167443425Y-67237778D01*
X167407457Y-67264750D01*
X167365140Y-67346239D01*
X167330785Y-67438225D01*
X167233199Y-67670452D01*
X167105408Y-67891649D01*
X166955721Y-68091005D01*
X166792447Y-68257711D01*
X166623896Y-68380957D01*
X166592953Y-68398050D01*
X166422371Y-68457582D01*
X166247441Y-68465449D01*
X166078357Y-68424527D01*
X165925311Y-68337691D01*
X165798498Y-68207816D01*
X165770234Y-68165994D01*
X165684240Y-68027658D01*
X165525028Y-68179520D01*
X165428842Y-68263937D01*
X165328378Y-68340524D01*
X165245046Y-68392989D01*
X165243529Y-68393769D01*
X165098192Y-68447290D01*
X164944617Y-68469486D01*
X164802945Y-68458663D01*
X164734173Y-68436592D01*
X164592634Y-68349749D01*
X164493853Y-68233763D01*
X164435017Y-68083574D01*
X164413317Y-67894121D01*
X164413111Y-67858667D01*
X164417733Y-67760282D01*
X164431910Y-67661165D01*
X164458263Y-67554235D01*
X164499415Y-67432411D01*
X164557990Y-67288610D01*
X164636609Y-67115752D01*
X164737896Y-66906754D01*
X164844420Y-66694119D01*
X164930470Y-66523047D01*
X164992891Y-66395711D01*
X165034120Y-66305782D01*
X165056597Y-66246932D01*
X165062759Y-66212831D01*
X165055046Y-66197152D01*
X165037297Y-66193555D01*
X164967529Y-66180074D01*
X164881324Y-66146246D01*
X164798374Y-66101994D01*
X164738369Y-66057240D01*
X164721653Y-66034490D01*
X164713536Y-65991090D01*
X164734251Y-65962907D01*
X164791536Y-65946974D01*
X164893133Y-65940327D01*
X164969494Y-65939555D01*
X165103421Y-65934946D01*
X165199761Y-65921952D01*
X165246045Y-65904278D01*
X165278221Y-65865943D01*
X165330108Y-65790709D01*
X165393565Y-65690773D01*
X165439130Y-65615000D01*
X165543686Y-65440905D01*
X165626111Y-65313824D01*
X165690021Y-65230543D01*
X165739033Y-65187845D01*
X165776763Y-65182516D01*
X165806829Y-65211341D01*
G36*
X162762142Y-64694457D02*
G01*
X162772902Y-64708501D01*
X162818392Y-64802102D01*
X162831323Y-64917489D01*
X162810693Y-65058590D01*
X162755497Y-65229330D01*
X162664732Y-65433637D01*
X162537393Y-65675437D01*
X162515870Y-65713778D01*
X162432890Y-65860595D01*
X162351914Y-66003863D01*
X162280605Y-66130028D01*
X162226624Y-66225534D01*
X162212795Y-66250000D01*
X162166526Y-66333083D01*
X162147029Y-66374751D01*
X162152999Y-66382553D01*
X162183132Y-66364040D01*
X162194474Y-66356052D01*
X162385054Y-66232488D01*
X162553914Y-66146270D01*
X162696411Y-66099343D01*
X162807899Y-66093650D01*
X162817261Y-66095445D01*
X162905382Y-66140398D01*
X162989633Y-66227174D01*
X163062270Y-66341283D01*
X163115548Y-66468235D01*
X163141725Y-66593542D01*
X163135990Y-66691795D01*
X163069849Y-66859350D01*
X162953910Y-67015476D01*
X162786356Y-67161913D01*
X162565371Y-67300402D01*
X162428085Y-67370164D01*
X162168948Y-67493551D01*
X162183341Y-67598498D01*
X162221590Y-67792424D01*
X162277959Y-67963831D01*
X162348308Y-68105438D01*
X162428498Y-68209964D01*
X162514387Y-68270128D01*
X162572012Y-68282000D01*
X162684905Y-68255654D01*
X162807204Y-68180052D01*
X162933298Y-68060347D01*
X163057576Y-67901695D01*
X163152889Y-67748472D01*
X163229250Y-67616610D01*
X163285435Y-67530303D01*
X163325987Y-67484365D01*
X163355448Y-67473606D01*
X163377661Y-67491778D01*
X163401102Y-67574040D01*
X163387568Y-67683759D01*
X163342386Y-67811020D01*
X163270884Y-67945912D01*
X163178392Y-68078521D01*
X163070235Y-68198936D01*
X162951744Y-68297243D01*
X162940718Y-68304692D01*
X162751792Y-68402027D01*
X162566099Y-68445617D01*
X162388678Y-68438133D01*
X162224569Y-68382247D01*
X162078809Y-68280627D01*
X161956437Y-68135946D01*
X161862493Y-67950874D01*
X161802016Y-67728083D01*
X161797191Y-67698577D01*
X161776312Y-67526393D01*
X161774549Y-67400755D01*
X161792779Y-67314791D01*
X161831877Y-67261631D01*
X161854667Y-67247465D01*
X161910944Y-67220307D01*
X162002551Y-67176410D01*
X162113838Y-67123265D01*
X162170345Y-67096341D01*
X162338552Y-67003358D01*
X162502320Y-66889656D01*
X162649475Y-66765480D01*
X162767844Y-66641073D01*
X162843763Y-66529638D01*
X162886701Y-66431201D01*
X162894427Y-66365766D01*
X162866905Y-66322192D01*
X162843024Y-66306754D01*
X162757474Y-66290978D01*
X162644874Y-66314680D01*
X162513039Y-66372949D01*
X162369782Y-66460873D01*
X162222917Y-66573540D01*
X162080260Y-66706039D01*
X161949625Y-66853459D01*
X161926997Y-66882501D01*
X161799989Y-67067690D01*
X161664311Y-67299650D01*
X161524306Y-67570230D01*
X161384316Y-67871277D01*
X161316808Y-68028000D01*
X161259113Y-68161657D01*
X161205669Y-68278703D01*
X161161760Y-68368019D01*
X161132675Y-68418487D01*
X161128943Y-68423111D01*
X161094590Y-68449179D01*
X161064481Y-68430934D01*
X161048968Y-68411152D01*
X161015131Y-68344601D01*
X160991081Y-68262843D01*
X160973443Y-68168826D01*
X160872211Y-68257709D01*
X160728732Y-68356890D01*
X160563531Y-68428094D01*
X160392720Y-68466982D01*
X160232410Y-68469215D01*
X160150589Y-68452006D01*
X160027705Y-68386016D01*
X159942551Y-68280749D01*
X159895882Y-68139569D01*
X159888451Y-67965844D01*
X159921011Y-67762940D01*
X159963859Y-67617344D01*
X160014596Y-67485387D01*
X160082958Y-67331552D01*
X160164561Y-67163530D01*
X160255021Y-66989016D01*
X160349954Y-66815702D01*
X160444976Y-66651282D01*
X160535702Y-66503449D01*
X160617750Y-66379895D01*
X160686734Y-66288314D01*
X160738270Y-66236400D01*
X160755728Y-66227790D01*
X160804441Y-66244621D01*
X160843671Y-66307599D01*
X160869481Y-66406699D01*
X160877929Y-66531895D01*
X160877828Y-66538460D01*
X160876602Y-66588032D01*
X160873192Y-66632089D01*
X160864887Y-66676934D01*
X160848978Y-66728873D01*
X160822756Y-66794211D01*
X160783511Y-66879252D01*
X160728535Y-66990300D01*
X160655117Y-67133661D01*
X160560547Y-67315640D01*
X160465893Y-67496998D01*
X160351064Y-67732140D01*
X160273852Y-67926068D01*
X160234182Y-68079584D01*
X160231978Y-68193490D01*
X160267165Y-68268588D01*
X160339667Y-68305678D01*
X160389448Y-68310222D01*
X160506519Y-68283609D01*
X160633050Y-68206813D01*
X160764754Y-68084393D01*
X160897349Y-67920913D01*
X161026550Y-67720933D01*
X161135000Y-67516391D01*
X161344206Y-67087634D01*
X161544637Y-66685078D01*
X161734820Y-66311395D01*
X161913284Y-65969257D01*
X162078559Y-65661334D01*
X162229174Y-65390299D01*
X162363656Y-65158822D01*
X162480535Y-64969576D01*
X162578339Y-64825231D01*
X162655598Y-64728460D01*
X162687309Y-64697706D01*
X162729408Y-64673104D01*
X162762142Y-64694457D01*
X162762142Y-64694457D01*
G37*
X162762142Y-64694457D02*
X162772902Y-64708501D01*
X162818392Y-64802102D01*
X162831323Y-64917489D01*
X162810693Y-65058590D01*
X162755497Y-65229330D01*
X162664732Y-65433637D01*
X162537393Y-65675437D01*
X162515870Y-65713778D01*
X162432890Y-65860595D01*
X162351914Y-66003863D01*
X162280605Y-66130028D01*
X162226624Y-66225534D01*
X162212795Y-66250000D01*
X162166526Y-66333083D01*
X162147029Y-66374751D01*
X162152999Y-66382553D01*
X162183132Y-66364040D01*
X162194474Y-66356052D01*
X162385054Y-66232488D01*
X162553914Y-66146270D01*
X162696411Y-66099343D01*
X162807899Y-66093650D01*
X162817261Y-66095445D01*
X162905382Y-66140398D01*
X162989633Y-66227174D01*
X163062270Y-66341283D01*
X163115548Y-66468235D01*
X163141725Y-66593542D01*
X163135990Y-66691795D01*
X163069849Y-66859350D01*
X162953910Y-67015476D01*
X162786356Y-67161913D01*
X162565371Y-67300402D01*
X162428085Y-67370164D01*
X162168948Y-67493551D01*
X162183341Y-67598498D01*
X162221590Y-67792424D01*
X162277959Y-67963831D01*
X162348308Y-68105438D01*
X162428498Y-68209964D01*
X162514387Y-68270128D01*
X162572012Y-68282000D01*
X162684905Y-68255654D01*
X162807204Y-68180052D01*
X162933298Y-68060347D01*
X163057576Y-67901695D01*
X163152889Y-67748472D01*
X163229250Y-67616610D01*
X163285435Y-67530303D01*
X163325987Y-67484365D01*
X163355448Y-67473606D01*
X163377661Y-67491778D01*
X163401102Y-67574040D01*
X163387568Y-67683759D01*
X163342386Y-67811020D01*
X163270884Y-67945912D01*
X163178392Y-68078521D01*
X163070235Y-68198936D01*
X162951744Y-68297243D01*
X162940718Y-68304692D01*
X162751792Y-68402027D01*
X162566099Y-68445617D01*
X162388678Y-68438133D01*
X162224569Y-68382247D01*
X162078809Y-68280627D01*
X161956437Y-68135946D01*
X161862493Y-67950874D01*
X161802016Y-67728083D01*
X161797191Y-67698577D01*
X161776312Y-67526393D01*
X161774549Y-67400755D01*
X161792779Y-67314791D01*
X161831877Y-67261631D01*
X161854667Y-67247465D01*
X161910944Y-67220307D01*
X162002551Y-67176410D01*
X162113838Y-67123265D01*
X162170345Y-67096341D01*
X162338552Y-67003358D01*
X162502320Y-66889656D01*
X162649475Y-66765480D01*
X162767844Y-66641073D01*
X162843763Y-66529638D01*
X162886701Y-66431201D01*
X162894427Y-66365766D01*
X162866905Y-66322192D01*
X162843024Y-66306754D01*
X162757474Y-66290978D01*
X162644874Y-66314680D01*
X162513039Y-66372949D01*
X162369782Y-66460873D01*
X162222917Y-66573540D01*
X162080260Y-66706039D01*
X161949625Y-66853459D01*
X161926997Y-66882501D01*
X161799989Y-67067690D01*
X161664311Y-67299650D01*
X161524306Y-67570230D01*
X161384316Y-67871277D01*
X161316808Y-68028000D01*
X161259113Y-68161657D01*
X161205669Y-68278703D01*
X161161760Y-68368019D01*
X161132675Y-68418487D01*
X161128943Y-68423111D01*
X161094590Y-68449179D01*
X161064481Y-68430934D01*
X161048968Y-68411152D01*
X161015131Y-68344601D01*
X160991081Y-68262843D01*
X160973443Y-68168826D01*
X160872211Y-68257709D01*
X160728732Y-68356890D01*
X160563531Y-68428094D01*
X160392720Y-68466982D01*
X160232410Y-68469215D01*
X160150589Y-68452006D01*
X160027705Y-68386016D01*
X159942551Y-68280749D01*
X159895882Y-68139569D01*
X159888451Y-67965844D01*
X159921011Y-67762940D01*
X159963859Y-67617344D01*
X160014596Y-67485387D01*
X160082958Y-67331552D01*
X160164561Y-67163530D01*
X160255021Y-66989016D01*
X160349954Y-66815702D01*
X160444976Y-66651282D01*
X160535702Y-66503449D01*
X160617750Y-66379895D01*
X160686734Y-66288314D01*
X160738270Y-66236400D01*
X160755728Y-66227790D01*
X160804441Y-66244621D01*
X160843671Y-66307599D01*
X160869481Y-66406699D01*
X160877929Y-66531895D01*
X160877828Y-66538460D01*
X160876602Y-66588032D01*
X160873192Y-66632089D01*
X160864887Y-66676934D01*
X160848978Y-66728873D01*
X160822756Y-66794211D01*
X160783511Y-66879252D01*
X160728535Y-66990300D01*
X160655117Y-67133661D01*
X160560547Y-67315640D01*
X160465893Y-67496998D01*
X160351064Y-67732140D01*
X160273852Y-67926068D01*
X160234182Y-68079584D01*
X160231978Y-68193490D01*
X160267165Y-68268588D01*
X160339667Y-68305678D01*
X160389448Y-68310222D01*
X160506519Y-68283609D01*
X160633050Y-68206813D01*
X160764754Y-68084393D01*
X160897349Y-67920913D01*
X161026550Y-67720933D01*
X161135000Y-67516391D01*
X161344206Y-67087634D01*
X161544637Y-66685078D01*
X161734820Y-66311395D01*
X161913284Y-65969257D01*
X162078559Y-65661334D01*
X162229174Y-65390299D01*
X162363656Y-65158822D01*
X162480535Y-64969576D01*
X162578339Y-64825231D01*
X162655598Y-64728460D01*
X162687309Y-64697706D01*
X162729408Y-64673104D01*
X162762142Y-64694457D01*
G36*
X160589815Y-64916606D02*
G01*
X160630146Y-64966729D01*
X160657141Y-65026147D01*
X160667046Y-65105454D01*
X160662399Y-65219112D01*
X160657172Y-65273449D01*
X160648967Y-65324564D01*
X160635058Y-65378207D01*
X160612724Y-65440129D01*
X160579239Y-65516080D01*
X160531880Y-65611811D01*
X160467924Y-65733071D01*
X160384647Y-65885613D01*
X160279325Y-66075184D01*
X160149234Y-66307538D01*
X160134018Y-66334667D01*
X160063558Y-66463468D01*
X159973585Y-66632900D01*
X159869315Y-66832858D01*
X159755965Y-67053234D01*
X159638754Y-67283922D01*
X159522899Y-67514816D01*
X159475514Y-67610201D01*
X159373540Y-67814237D01*
X159278254Y-68001249D01*
X159192768Y-68165409D01*
X159120193Y-68300888D01*
X159063641Y-68401859D01*
X159026223Y-68462490D01*
X159012260Y-68478035D01*
X158972044Y-68461570D01*
X158909701Y-68418152D01*
X158878122Y-68391893D01*
X158807056Y-68310474D01*
X158753623Y-68202428D01*
X158715108Y-68059268D01*
X158688795Y-67872508D01*
X158680358Y-67774000D01*
X158676136Y-67654445D01*
X158676755Y-67490904D01*
X158681644Y-67295572D01*
X158690227Y-67080647D01*
X158701931Y-66858325D01*
X158716183Y-66640804D01*
X158732408Y-66440279D01*
X158750032Y-66268949D01*
X158751888Y-66253578D01*
X158763874Y-66144759D01*
X158770677Y-66059554D01*
X158771303Y-66011663D01*
X158769827Y-66006197D01*
X158752576Y-66025258D01*
X158713048Y-66087815D01*
X158654863Y-66187213D01*
X158581641Y-66316794D01*
X158497000Y-66469902D01*
X158404560Y-66639880D01*
X158307940Y-66820072D01*
X158210760Y-67003820D01*
X158116639Y-67184469D01*
X158029197Y-67355360D01*
X157952052Y-67509838D01*
X157949942Y-67514133D01*
X157867529Y-67685344D01*
X157787637Y-67857307D01*
X157716250Y-68016707D01*
X157659348Y-68150231D01*
X157627143Y-68232594D01*
X157586328Y-68337662D01*
X157548895Y-68420146D01*
X157520933Y-68467123D01*
X157513861Y-68473046D01*
X157478673Y-68459342D01*
X157438781Y-68414322D01*
X157398353Y-68333388D01*
X157377238Y-68239363D01*
X157376670Y-68127974D01*
X157397881Y-67994947D01*
X157442103Y-67836009D01*
X157510568Y-67646886D01*
X157604509Y-67423305D01*
X157725158Y-67160993D01*
X157873748Y-66855676D01*
X157908217Y-66786496D01*
X158025628Y-66554679D01*
X158148185Y-66318189D01*
X158272730Y-66082667D01*
X158396108Y-65853752D01*
X158515162Y-65637085D01*
X158626734Y-65438306D01*
X158727669Y-65263055D01*
X158814810Y-65116973D01*
X158884999Y-65005699D01*
X158935081Y-64934874D01*
X158957461Y-64911747D01*
X158993013Y-64900964D01*
X159033774Y-64918983D01*
X159092429Y-64972669D01*
X159116257Y-64997655D01*
X159174234Y-65067248D01*
X159214657Y-65139231D01*
X159238605Y-65223031D01*
X159247161Y-65328076D01*
X159241404Y-65463793D01*
X159222417Y-65639608D01*
X159204849Y-65770222D01*
X159187787Y-65902432D01*
X159169322Y-66064083D01*
X159150102Y-66247468D01*
X159130774Y-66444881D01*
X159111985Y-66648616D01*
X159094385Y-66850965D01*
X159078620Y-67044223D01*
X159065338Y-67220683D01*
X159055188Y-67372638D01*
X159048816Y-67492383D01*
X159046870Y-67572210D01*
X159049999Y-67604413D01*
X159050655Y-67604718D01*
X159063789Y-67580570D01*
X159098466Y-67512792D01*
X159151186Y-67408340D01*
X159218447Y-67274167D01*
X159296749Y-67117228D01*
X159352582Y-67004944D01*
X159463525Y-66785170D01*
X159582680Y-66555577D01*
X159706991Y-66321514D01*
X159833405Y-66088329D01*
X159958866Y-65861372D01*
X160080318Y-65645991D01*
X160194707Y-65447536D01*
X160298979Y-65271354D01*
X160390077Y-65122795D01*
X160464946Y-65007207D01*
X160520533Y-64929940D01*
X160553781Y-64896342D01*
X160557503Y-64895333D01*
X160589815Y-64916606D01*
X160589815Y-64916606D01*
G37*
X160589815Y-64916606D02*
X160630146Y-64966729D01*
X160657141Y-65026147D01*
X160667046Y-65105454D01*
X160662399Y-65219112D01*
X160657172Y-65273449D01*
X160648967Y-65324564D01*
X160635058Y-65378207D01*
X160612724Y-65440129D01*
X160579239Y-65516080D01*
X160531880Y-65611811D01*
X160467924Y-65733071D01*
X160384647Y-65885613D01*
X160279325Y-66075184D01*
X160149234Y-66307538D01*
X160134018Y-66334667D01*
X160063558Y-66463468D01*
X159973585Y-66632900D01*
X159869315Y-66832858D01*
X159755965Y-67053234D01*
X159638754Y-67283922D01*
X159522899Y-67514816D01*
X159475514Y-67610201D01*
X159373540Y-67814237D01*
X159278254Y-68001249D01*
X159192768Y-68165409D01*
X159120193Y-68300888D01*
X159063641Y-68401859D01*
X159026223Y-68462490D01*
X159012260Y-68478035D01*
X158972044Y-68461570D01*
X158909701Y-68418152D01*
X158878122Y-68391893D01*
X158807056Y-68310474D01*
X158753623Y-68202428D01*
X158715108Y-68059268D01*
X158688795Y-67872508D01*
X158680358Y-67774000D01*
X158676136Y-67654445D01*
X158676755Y-67490904D01*
X158681644Y-67295572D01*
X158690227Y-67080647D01*
X158701931Y-66858325D01*
X158716183Y-66640804D01*
X158732408Y-66440279D01*
X158750032Y-66268949D01*
X158751888Y-66253578D01*
X158763874Y-66144759D01*
X158770677Y-66059554D01*
X158771303Y-66011663D01*
X158769827Y-66006197D01*
X158752576Y-66025258D01*
X158713048Y-66087815D01*
X158654863Y-66187213D01*
X158581641Y-66316794D01*
X158497000Y-66469902D01*
X158404560Y-66639880D01*
X158307940Y-66820072D01*
X158210760Y-67003820D01*
X158116639Y-67184469D01*
X158029197Y-67355360D01*
X157952052Y-67509838D01*
X157949942Y-67514133D01*
X157867529Y-67685344D01*
X157787637Y-67857307D01*
X157716250Y-68016707D01*
X157659348Y-68150231D01*
X157627143Y-68232594D01*
X157586328Y-68337662D01*
X157548895Y-68420146D01*
X157520933Y-68467123D01*
X157513861Y-68473046D01*
X157478673Y-68459342D01*
X157438781Y-68414322D01*
X157398353Y-68333388D01*
X157377238Y-68239363D01*
X157376670Y-68127974D01*
X157397881Y-67994947D01*
X157442103Y-67836009D01*
X157510568Y-67646886D01*
X157604509Y-67423305D01*
X157725158Y-67160993D01*
X157873748Y-66855676D01*
X157908217Y-66786496D01*
X158025628Y-66554679D01*
X158148185Y-66318189D01*
X158272730Y-66082667D01*
X158396108Y-65853752D01*
X158515162Y-65637085D01*
X158626734Y-65438306D01*
X158727669Y-65263055D01*
X158814810Y-65116973D01*
X158884999Y-65005699D01*
X158935081Y-64934874D01*
X158957461Y-64911747D01*
X158993013Y-64900964D01*
X159033774Y-64918983D01*
X159092429Y-64972669D01*
X159116257Y-64997655D01*
X159174234Y-65067248D01*
X159214657Y-65139231D01*
X159238605Y-65223031D01*
X159247161Y-65328076D01*
X159241404Y-65463793D01*
X159222417Y-65639608D01*
X159204849Y-65770222D01*
X159187787Y-65902432D01*
X159169322Y-66064083D01*
X159150102Y-66247468D01*
X159130774Y-66444881D01*
X159111985Y-66648616D01*
X159094385Y-66850965D01*
X159078620Y-67044223D01*
X159065338Y-67220683D01*
X159055188Y-67372638D01*
X159048816Y-67492383D01*
X159046870Y-67572210D01*
X159049999Y-67604413D01*
X159050655Y-67604718D01*
X159063789Y-67580570D01*
X159098466Y-67512792D01*
X159151186Y-67408340D01*
X159218447Y-67274167D01*
X159296749Y-67117228D01*
X159352582Y-67004944D01*
X159463525Y-66785170D01*
X159582680Y-66555577D01*
X159706991Y-66321514D01*
X159833405Y-66088329D01*
X159958866Y-65861372D01*
X160080318Y-65645991D01*
X160194707Y-65447536D01*
X160298979Y-65271354D01*
X160390077Y-65122795D01*
X160464946Y-65007207D01*
X160520533Y-64929940D01*
X160553781Y-64896342D01*
X160557503Y-64895333D01*
X160589815Y-64916606D01*
G36*
X156091201Y-64923087D02*
G01*
X156112653Y-64935863D01*
X156183974Y-65008476D01*
X156244614Y-65115910D01*
X156284347Y-65236542D01*
X156294269Y-65319793D01*
X156275186Y-65494789D01*
X156218540Y-65698261D01*
X156128165Y-65920314D01*
X156007898Y-66151054D01*
X155911597Y-66306963D01*
X155805615Y-66452080D01*
X155669671Y-66615114D01*
X155516664Y-66782398D01*
X155359494Y-66940264D01*
X155211063Y-67075043D01*
X155113467Y-67152585D01*
X155026336Y-67219032D01*
X154969374Y-67275475D01*
X154929392Y-67340479D01*
X154893202Y-67432610D01*
X154874091Y-67489529D01*
X154804609Y-67730606D01*
X154766902Y-67932906D01*
X154760292Y-68094929D01*
X154784098Y-68215174D01*
X154837644Y-68292139D01*
X154920250Y-68324324D01*
X155031236Y-68310227D01*
X155169926Y-68248348D01*
X155207211Y-68226249D01*
X155303654Y-68152008D01*
X155416185Y-68042616D01*
X155532553Y-67911738D01*
X155640508Y-67773040D01*
X155718565Y-67655796D01*
X155796308Y-67534336D01*
X155853797Y-67464018D01*
X155893279Y-67444215D01*
X155916998Y-67474300D01*
X155927200Y-67553649D01*
X155928000Y-67597422D01*
X155909560Y-67737980D01*
X155851168Y-67875017D01*
X155748221Y-68016956D01*
X155632570Y-68137894D01*
X155451793Y-68285468D01*
X155262507Y-68392473D01*
X155072873Y-68456018D01*
X154891051Y-68473211D01*
X154751564Y-68450098D01*
X154618612Y-68381986D01*
X154521172Y-68271879D01*
X154460057Y-68122303D01*
X154436080Y-67935783D01*
X154450055Y-67714845D01*
X154472982Y-67585345D01*
X154578412Y-67192297D01*
X154655998Y-66982441D01*
X155081334Y-66982441D01*
X155098253Y-66986852D01*
X155144383Y-66954914D01*
X155212780Y-66893625D01*
X155296501Y-66809982D01*
X155388605Y-66710985D01*
X155482147Y-66603629D01*
X155570186Y-66494914D01*
X155587726Y-66472037D01*
X155749137Y-66240363D01*
X155888431Y-66003057D01*
X155996766Y-65775958D01*
X156039344Y-65662959D01*
X156074174Y-65542276D01*
X156081894Y-65470358D01*
X156063211Y-65446857D01*
X156018836Y-65471427D01*
X155949477Y-65543721D01*
X155855843Y-65663390D01*
X155758976Y-65800233D01*
X155688913Y-65906517D01*
X155606718Y-66037591D01*
X155517137Y-66185177D01*
X155424917Y-66340992D01*
X155334804Y-66496758D01*
X155251543Y-66644195D01*
X155179882Y-66775022D01*
X155124565Y-66880959D01*
X155090339Y-66953727D01*
X155081334Y-66982441D01*
X154655998Y-66982441D01*
X154729157Y-66784560D01*
X154919917Y-66372432D01*
X155145392Y-65966207D01*
X155400285Y-65576182D01*
X155679294Y-65212653D01*
X155717579Y-65167269D01*
X155827092Y-65043724D01*
X155911678Y-64961946D01*
X155978870Y-64917521D01*
X156036200Y-64906039D01*
X156091201Y-64923087D01*
X156091201Y-64923087D01*
G37*
X156091201Y-64923087D02*
X156112653Y-64935863D01*
X156183974Y-65008476D01*
X156244614Y-65115910D01*
X156284347Y-65236542D01*
X156294269Y-65319793D01*
X156275186Y-65494789D01*
X156218540Y-65698261D01*
X156128165Y-65920314D01*
X156007898Y-66151054D01*
X155911597Y-66306963D01*
X155805615Y-66452080D01*
X155669671Y-66615114D01*
X155516664Y-66782398D01*
X155359494Y-66940264D01*
X155211063Y-67075043D01*
X155113467Y-67152585D01*
X155026336Y-67219032D01*
X154969374Y-67275475D01*
X154929392Y-67340479D01*
X154893202Y-67432610D01*
X154874091Y-67489529D01*
X154804609Y-67730606D01*
X154766902Y-67932906D01*
X154760292Y-68094929D01*
X154784098Y-68215174D01*
X154837644Y-68292139D01*
X154920250Y-68324324D01*
X155031236Y-68310227D01*
X155169926Y-68248348D01*
X155207211Y-68226249D01*
X155303654Y-68152008D01*
X155416185Y-68042616D01*
X155532553Y-67911738D01*
X155640508Y-67773040D01*
X155718565Y-67655796D01*
X155796308Y-67534336D01*
X155853797Y-67464018D01*
X155893279Y-67444215D01*
X155916998Y-67474300D01*
X155927200Y-67553649D01*
X155928000Y-67597422D01*
X155909560Y-67737980D01*
X155851168Y-67875017D01*
X155748221Y-68016956D01*
X155632570Y-68137894D01*
X155451793Y-68285468D01*
X155262507Y-68392473D01*
X155072873Y-68456018D01*
X154891051Y-68473211D01*
X154751564Y-68450098D01*
X154618612Y-68381986D01*
X154521172Y-68271879D01*
X154460057Y-68122303D01*
X154436080Y-67935783D01*
X154450055Y-67714845D01*
X154472982Y-67585345D01*
X154578412Y-67192297D01*
X154655998Y-66982441D01*
X155081334Y-66982441D01*
X155098253Y-66986852D01*
X155144383Y-66954914D01*
X155212780Y-66893625D01*
X155296501Y-66809982D01*
X155388605Y-66710985D01*
X155482147Y-66603629D01*
X155570186Y-66494914D01*
X155587726Y-66472037D01*
X155749137Y-66240363D01*
X155888431Y-66003057D01*
X155996766Y-65775958D01*
X156039344Y-65662959D01*
X156074174Y-65542276D01*
X156081894Y-65470358D01*
X156063211Y-65446857D01*
X156018836Y-65471427D01*
X155949477Y-65543721D01*
X155855843Y-65663390D01*
X155758976Y-65800233D01*
X155688913Y-65906517D01*
X155606718Y-66037591D01*
X155517137Y-66185177D01*
X155424917Y-66340992D01*
X155334804Y-66496758D01*
X155251543Y-66644195D01*
X155179882Y-66775022D01*
X155124565Y-66880959D01*
X155090339Y-66953727D01*
X155081334Y-66982441D01*
X154655998Y-66982441D01*
X154729157Y-66784560D01*
X154919917Y-66372432D01*
X155145392Y-65966207D01*
X155400285Y-65576182D01*
X155679294Y-65212653D01*
X155717579Y-65167269D01*
X155827092Y-65043724D01*
X155911678Y-64961946D01*
X155978870Y-64917521D01*
X156036200Y-64906039D01*
X156091201Y-64923087D01*
G36*
X153963413Y-63229645D02*
G01*
X154004290Y-63255814D01*
X154086260Y-63316206D01*
X154162993Y-63365324D01*
X154257377Y-63431628D01*
X154365599Y-63525248D01*
X154473034Y-63631610D01*
X154565056Y-63736139D01*
X154627039Y-63824262D01*
X154631120Y-63831800D01*
X154713094Y-64002539D01*
X154764060Y-64146902D01*
X154788374Y-64282506D01*
X154790393Y-64426968D01*
X154787953Y-64466140D01*
X154777450Y-64594084D01*
X154765401Y-64720397D01*
X154754414Y-64817722D01*
X154736983Y-64951778D01*
X154882338Y-64951778D01*
X155040973Y-64971183D01*
X155160105Y-65028842D01*
X155236078Y-65120187D01*
X155268615Y-65189219D01*
X155276616Y-65235688D01*
X155253060Y-65265003D01*
X155190925Y-65282572D01*
X155083187Y-65293803D01*
X155003723Y-65299126D01*
X154830804Y-65311402D01*
X154705095Y-65324929D01*
X154617372Y-65342207D01*
X154558414Y-65365734D01*
X154518998Y-65398009D01*
X154491952Y-65437783D01*
X154419838Y-65559211D01*
X154333819Y-65691224D01*
X154247086Y-65814411D01*
X154172831Y-65909359D01*
X154166646Y-65916501D01*
X154029314Y-66071873D01*
X153901052Y-66214812D01*
X153787375Y-66339342D01*
X153693797Y-66439493D01*
X153625830Y-66509289D01*
X153588989Y-66542759D01*
X153587898Y-66543475D01*
X153543828Y-66577253D01*
X153478844Y-66633628D01*
X153446505Y-66663343D01*
X153345667Y-66757846D01*
X153613778Y-66741827D01*
X153748134Y-66735717D01*
X153841573Y-66737468D01*
X153909259Y-66748543D01*
X153966356Y-66770408D01*
X153979707Y-66777182D01*
X154050066Y-66828226D01*
X154112365Y-66896751D01*
X154155743Y-66967352D01*
X154169341Y-67024623D01*
X154164591Y-67039446D01*
X154128028Y-67056466D01*
X154055429Y-67066896D01*
X154010761Y-67068444D01*
X153928255Y-67073451D01*
X153808251Y-67086950D01*
X153665034Y-67106656D01*
X153512887Y-67130288D01*
X153366095Y-67155562D01*
X153238941Y-67180195D01*
X153145710Y-67201903D01*
X153114038Y-67211780D01*
X153078767Y-67237681D01*
X153034863Y-67294782D01*
X152978785Y-67388834D01*
X152906987Y-67525586D01*
X152850575Y-67639353D01*
X152783530Y-67778622D01*
X152726328Y-67901230D01*
X152683228Y-67997747D01*
X152658485Y-68058742D01*
X152654223Y-68074277D01*
X152670845Y-68090156D01*
X152725923Y-68083711D01*
X152788278Y-68066670D01*
X152908552Y-68036029D01*
X153059864Y-68005548D01*
X153223116Y-67978270D01*
X153379208Y-67957240D01*
X153509043Y-67945503D01*
X153557334Y-67944066D01*
X153688352Y-67960692D01*
X153810362Y-68004344D01*
X153906062Y-68067235D01*
X153949139Y-68120391D01*
X153976034Y-68184351D01*
X153972215Y-68228882D01*
X153931299Y-68258519D01*
X153846899Y-68277797D01*
X153712632Y-68291250D01*
X153708078Y-68291588D01*
X153574337Y-68305761D01*
X153409473Y-68329561D01*
X153237219Y-68359307D01*
X153119889Y-68382782D01*
X152972574Y-68413124D01*
X152830340Y-68440112D01*
X152710548Y-68460582D01*
X152637559Y-68470684D01*
X152548796Y-68476658D01*
X152495018Y-68467003D01*
X152455654Y-68436049D01*
X152438971Y-68415971D01*
X152392147Y-68345021D01*
X152343100Y-68254215D01*
X152330892Y-68228273D01*
X152301926Y-68158453D01*
X152291960Y-68104560D01*
X152300690Y-68043346D01*
X152327266Y-67953285D01*
X152358410Y-67865798D01*
X152406746Y-67743266D01*
X152465707Y-67601843D01*
X152528722Y-67457684D01*
X152529619Y-67455686D01*
X152586134Y-67329218D01*
X152633209Y-67222811D01*
X152666561Y-67146227D01*
X152681909Y-67109224D01*
X152682445Y-67107375D01*
X152659437Y-67112098D01*
X152601922Y-67133398D01*
X152578115Y-67143138D01*
X152455506Y-67176988D01*
X152298524Y-67195879D01*
X152127293Y-67199559D01*
X151961933Y-67187780D01*
X151822566Y-67160290D01*
X151799424Y-67152829D01*
X151705464Y-67122432D01*
X151628108Y-67102037D01*
X151592974Y-67096667D01*
X151536158Y-67081513D01*
X151449967Y-67040882D01*
X151345429Y-66982020D01*
X151235577Y-66913424D01*
X151656844Y-66913424D01*
X151666533Y-66957908D01*
X151705699Y-66984449D01*
X151784438Y-67001889D01*
X151860965Y-67012450D01*
X151973492Y-67026765D01*
X152041332Y-67034147D01*
X152075790Y-67034794D01*
X152088170Y-67028901D01*
X152089778Y-67016664D01*
X152089778Y-67016418D01*
X152069593Y-66987256D01*
X152017101Y-66935365D01*
X151974120Y-66898074D01*
X152261096Y-66898074D01*
X152262511Y-66984796D01*
X152265587Y-67033796D01*
X152267594Y-67040222D01*
X152298079Y-67035523D01*
X152367784Y-67023315D01*
X152444428Y-67009392D01*
X152538607Y-66989462D01*
X152610850Y-66969447D01*
X152640111Y-66956839D01*
X152687088Y-66934460D01*
X152745945Y-66916576D01*
X152802052Y-66895165D01*
X152823556Y-66872273D01*
X152802679Y-66839935D01*
X152751829Y-66795723D01*
X152745945Y-66791476D01*
X152695247Y-66759290D01*
X152616205Y-66713076D01*
X152522470Y-66660332D01*
X152427696Y-66608554D01*
X152345535Y-66565240D01*
X152289641Y-66537889D01*
X152273849Y-66532222D01*
X152269624Y-66558345D01*
X152265679Y-66628317D01*
X152262621Y-66729543D01*
X152261637Y-66786222D01*
X152261096Y-66898074D01*
X151974120Y-66898074D01*
X151955723Y-66882113D01*
X151845853Y-66791734D01*
X151771962Y-66735185D01*
X151725728Y-66711316D01*
X151698831Y-66718978D01*
X151682951Y-66757022D01*
X151669766Y-66824297D01*
X151666538Y-66842156D01*
X151656844Y-66913424D01*
X151235577Y-66913424D01*
X151233571Y-66912172D01*
X151125421Y-66838583D01*
X151032007Y-66768500D01*
X150964357Y-66709167D01*
X150933498Y-66667830D01*
X150932701Y-66662846D01*
X150954795Y-66611343D01*
X150989476Y-66566359D01*
X151214889Y-66566359D01*
X151239680Y-66581290D01*
X151304081Y-66583618D01*
X151393136Y-66575175D01*
X151491889Y-66557797D01*
X151585384Y-66533318D01*
X151635567Y-66514765D01*
X151792212Y-66445259D01*
X151912640Y-66387908D01*
X152013147Y-66334172D01*
X152110029Y-66275510D01*
X152183040Y-66227860D01*
X152300154Y-66149917D01*
X152801343Y-66149917D01*
X152805687Y-66179127D01*
X152830071Y-66236142D01*
X152832187Y-66240322D01*
X152867911Y-66327338D01*
X152894301Y-66418407D01*
X152915115Y-66497573D01*
X152937004Y-66556927D01*
X152938329Y-66559518D01*
X152961478Y-66619605D01*
X152977611Y-66680389D01*
X152998941Y-66736620D01*
X153024304Y-66758000D01*
X153060391Y-66741935D01*
X153126811Y-66699665D01*
X153209686Y-66640072D01*
X153215932Y-66635338D01*
X153342625Y-66537628D01*
X153428578Y-66467789D01*
X153479164Y-66421145D01*
X153499756Y-66393019D01*
X153500889Y-66387319D01*
X153475916Y-66371344D01*
X153413063Y-66354078D01*
X153380945Y-66348067D01*
X153299885Y-66330662D01*
X153242123Y-66311038D01*
X153232125Y-66305111D01*
X153192330Y-66283989D01*
X153119586Y-66253472D01*
X153029436Y-66219160D01*
X152937424Y-66186652D01*
X152859092Y-66161547D01*
X152809985Y-66149447D01*
X152801343Y-66149917D01*
X152300154Y-66149917D01*
X152375080Y-66100052D01*
X152254828Y-65977524D01*
X152165065Y-65892519D01*
X152096282Y-65848711D01*
X152034924Y-65842649D01*
X151967437Y-65870884D01*
X151930006Y-65894844D01*
X151867498Y-65942477D01*
X151781444Y-66014992D01*
X151680119Y-66104620D01*
X151571799Y-66203588D01*
X151464759Y-66304127D01*
X151367273Y-66398466D01*
X151287617Y-66478835D01*
X151234067Y-66537463D01*
X151214889Y-66566359D01*
X150989476Y-66566359D01*
X151020082Y-66526663D01*
X151127181Y-66410260D01*
X151274712Y-66263586D01*
X151461295Y-66088095D01*
X151591200Y-65969766D01*
X151917649Y-65675421D01*
X151869658Y-65592478D01*
X151815741Y-65520100D01*
X151757162Y-65466641D01*
X151710052Y-65421188D01*
X151643820Y-65339456D01*
X151567178Y-65234273D01*
X151488837Y-65118464D01*
X151417508Y-65004857D01*
X151361902Y-64906278D01*
X151332750Y-64841733D01*
X151305016Y-64692395D01*
X151306776Y-64656591D01*
X151455665Y-64656591D01*
X151470616Y-64709656D01*
X151541674Y-64880177D01*
X151621371Y-65042406D01*
X151700780Y-65179110D01*
X151749591Y-65248111D01*
X151822016Y-65334280D01*
X151914637Y-65437417D01*
X152019863Y-65549866D01*
X152130108Y-65663967D01*
X152237782Y-65772062D01*
X152335296Y-65866493D01*
X152415062Y-65939602D01*
X152469491Y-65983729D01*
X152487960Y-65993265D01*
X152522169Y-65974668D01*
X152586935Y-65921555D01*
X152674546Y-65840900D01*
X152777290Y-65739675D01*
X152840738Y-65674326D01*
X152922313Y-65588047D01*
X153303334Y-65588047D01*
X153314252Y-65625328D01*
X153342085Y-65694525D01*
X153362320Y-65740145D01*
X153401885Y-65827854D01*
X153434427Y-65902182D01*
X153444174Y-65925444D01*
X153494068Y-66043806D01*
X153540120Y-66144536D01*
X153577010Y-66216657D01*
X153599418Y-66249194D01*
X153601466Y-66250000D01*
X153630731Y-66233815D01*
X153687572Y-66192658D01*
X153723331Y-66164621D01*
X153785326Y-66107056D01*
X153858832Y-66027385D01*
X153935647Y-65936151D01*
X154007568Y-65843894D01*
X154066392Y-65761156D01*
X154103918Y-65698479D01*
X154111943Y-65666405D01*
X154111447Y-65665817D01*
X154076717Y-65655315D01*
X153999709Y-65643020D01*
X153894459Y-65631005D01*
X153846345Y-65626637D01*
X153711158Y-65614285D01*
X153576643Y-65600381D01*
X153468053Y-65587566D01*
X153451500Y-65585342D01*
X153369215Y-65577877D01*
X153315416Y-65580554D01*
X153303334Y-65588047D01*
X152922313Y-65588047D01*
X152954192Y-65554330D01*
X153060550Y-65439546D01*
X153150488Y-65340200D01*
X153214681Y-65266519D01*
X153232778Y-65244341D01*
X153283984Y-65174370D01*
X153346290Y-65082833D01*
X153385945Y-65021932D01*
X153788163Y-65021932D01*
X153810316Y-65051601D01*
X153833773Y-65070122D01*
X153880431Y-65114765D01*
X153939864Y-65185029D01*
X153966167Y-65219889D01*
X154032525Y-65306479D01*
X154102980Y-65390493D01*
X154167220Y-65460524D01*
X154214933Y-65505165D01*
X154233148Y-65515192D01*
X154255807Y-65492821D01*
X154296787Y-65436673D01*
X154326450Y-65391492D01*
X154398840Y-65266185D01*
X154450742Y-65153989D01*
X154477582Y-65066210D01*
X154477197Y-65019039D01*
X154457470Y-65001643D01*
X154408722Y-64989967D01*
X154322942Y-64983127D01*
X154192119Y-64980244D01*
X154122664Y-64980000D01*
X153966214Y-64981891D01*
X153861433Y-64988537D01*
X153803642Y-65001397D01*
X153788163Y-65021932D01*
X153385945Y-65021932D01*
X153411984Y-64981944D01*
X153473352Y-64883918D01*
X153522682Y-64800968D01*
X153552260Y-64745309D01*
X153557327Y-64730381D01*
X153533737Y-64710331D01*
X153471213Y-64673813D01*
X153382119Y-64627917D01*
X153359417Y-64616899D01*
X153263787Y-64569143D01*
X153189655Y-64528650D01*
X153150505Y-64502872D01*
X153148024Y-64500081D01*
X153113261Y-64477863D01*
X153056762Y-64458733D01*
X152993469Y-64437027D01*
X152899019Y-64397978D01*
X152806757Y-64356005D01*
X153246732Y-64356005D01*
X153274205Y-64402519D01*
X153354863Y-64455615D01*
X153388897Y-64472420D01*
X153473815Y-64516116D01*
X153539014Y-64556721D01*
X153561686Y-64576022D01*
X153593708Y-64605367D01*
X153621846Y-64602017D01*
X153652719Y-64559646D01*
X153692948Y-64471930D01*
X153707466Y-64436722D01*
X154065450Y-64436722D01*
X154086001Y-64469458D01*
X154098214Y-64472000D01*
X154132219Y-64490448D01*
X154194860Y-64539708D01*
X154274887Y-64610659D01*
X154309641Y-64643449D01*
X154416201Y-64738667D01*
X154494328Y-64789881D01*
X154549262Y-64798388D01*
X154586242Y-64765482D01*
X154604807Y-64716455D01*
X154611718Y-64661135D01*
X154614441Y-64575498D01*
X154613430Y-64477307D01*
X154609142Y-64384327D01*
X154602031Y-64314322D01*
X154593777Y-64285811D01*
X154565458Y-64289191D01*
X154494551Y-64303192D01*
X154393364Y-64325292D01*
X154326506Y-64340626D01*
X154201008Y-64373459D01*
X154112373Y-64404140D01*
X154068653Y-64429707D01*
X154065450Y-64436722D01*
X153707466Y-64436722D01*
X153789937Y-64217817D01*
X153844093Y-64032052D01*
X153868583Y-63892275D01*
X154127077Y-63892275D01*
X154128406Y-63923657D01*
X154175141Y-63935778D01*
X154226237Y-63951434D01*
X154302786Y-63991893D01*
X154365641Y-64032829D01*
X154460407Y-64094227D01*
X154530777Y-64128475D01*
X154568846Y-64132152D01*
X154573334Y-64122669D01*
X154560598Y-64078673D01*
X154528702Y-64005466D01*
X154487109Y-63922483D01*
X154445284Y-63849160D01*
X154426548Y-63821250D01*
X154368367Y-63742556D01*
X154245073Y-63802457D01*
X154167309Y-63849315D01*
X154127077Y-63892275D01*
X153868583Y-63892275D01*
X153873223Y-63865797D01*
X153880743Y-63718261D01*
X153876549Y-63590889D01*
X153864713Y-63516366D01*
X153843734Y-63491434D01*
X153812114Y-63512832D01*
X153795945Y-63533926D01*
X153746779Y-63597413D01*
X153713453Y-63634516D01*
X153684229Y-63673255D01*
X153633444Y-63750022D01*
X153567977Y-63854087D01*
X153494707Y-63974723D01*
X153486836Y-63987922D01*
X153414741Y-64106949D01*
X153351267Y-64207858D01*
X153302721Y-64280890D01*
X153275415Y-64316287D01*
X153273644Y-64317684D01*
X153246732Y-64356005D01*
X152806757Y-64356005D01*
X152792684Y-64349603D01*
X152781329Y-64344172D01*
X152565842Y-64254636D01*
X152347628Y-64189550D01*
X152138926Y-64151211D01*
X151951975Y-64141912D01*
X151807611Y-64161541D01*
X151712931Y-64201162D01*
X151624029Y-64271854D01*
X151529586Y-64383226D01*
X151502204Y-64420764D01*
X151455693Y-64531646D01*
X151455665Y-64656591D01*
X151306776Y-64656591D01*
X151313090Y-64528218D01*
X151353214Y-64368405D01*
X151421633Y-64232158D01*
X151461716Y-64182536D01*
X151578929Y-64083137D01*
X151708515Y-64023207D01*
X151864468Y-63997880D01*
X151992680Y-63997940D01*
X152168258Y-64014925D01*
X152355694Y-64047750D01*
X152533275Y-64091731D01*
X152679286Y-64142184D01*
X152696556Y-64149763D01*
X152817654Y-64203342D01*
X152928828Y-64249824D01*
X153017594Y-64284220D01*
X153071469Y-64301543D01*
X153079166Y-64302667D01*
X153103118Y-64279554D01*
X153145670Y-64217796D01*
X153199263Y-64128766D01*
X153223304Y-64085870D01*
X153287712Y-63974398D01*
X153352738Y-63871532D01*
X153406637Y-63795628D01*
X153417459Y-63782481D01*
X153479171Y-63704206D01*
X153546460Y-63608590D01*
X153570723Y-63571105D01*
X153627036Y-63486489D01*
X153681019Y-63413837D01*
X153701531Y-63389741D01*
X153747931Y-63327677D01*
X153770559Y-63281757D01*
X153812775Y-63228106D01*
X153882862Y-63210092D01*
X153963413Y-63229645D01*
X153963413Y-63229645D01*
G37*
X153963413Y-63229645D02*
X154004290Y-63255814D01*
X154086260Y-63316206D01*
X154162993Y-63365324D01*
X154257377Y-63431628D01*
X154365599Y-63525248D01*
X154473034Y-63631610D01*
X154565056Y-63736139D01*
X154627039Y-63824262D01*
X154631120Y-63831800D01*
X154713094Y-64002539D01*
X154764060Y-64146902D01*
X154788374Y-64282506D01*
X154790393Y-64426968D01*
X154787953Y-64466140D01*
X154777450Y-64594084D01*
X154765401Y-64720397D01*
X154754414Y-64817722D01*
X154736983Y-64951778D01*
X154882338Y-64951778D01*
X155040973Y-64971183D01*
X155160105Y-65028842D01*
X155236078Y-65120187D01*
X155268615Y-65189219D01*
X155276616Y-65235688D01*
X155253060Y-65265003D01*
X155190925Y-65282572D01*
X155083187Y-65293803D01*
X155003723Y-65299126D01*
X154830804Y-65311402D01*
X154705095Y-65324929D01*
X154617372Y-65342207D01*
X154558414Y-65365734D01*
X154518998Y-65398009D01*
X154491952Y-65437783D01*
X154419838Y-65559211D01*
X154333819Y-65691224D01*
X154247086Y-65814411D01*
X154172831Y-65909359D01*
X154166646Y-65916501D01*
X154029314Y-66071873D01*
X153901052Y-66214812D01*
X153787375Y-66339342D01*
X153693797Y-66439493D01*
X153625830Y-66509289D01*
X153588989Y-66542759D01*
X153587898Y-66543475D01*
X153543828Y-66577253D01*
X153478844Y-66633628D01*
X153446505Y-66663343D01*
X153345667Y-66757846D01*
X153613778Y-66741827D01*
X153748134Y-66735717D01*
X153841573Y-66737468D01*
X153909259Y-66748543D01*
X153966356Y-66770408D01*
X153979707Y-66777182D01*
X154050066Y-66828226D01*
X154112365Y-66896751D01*
X154155743Y-66967352D01*
X154169341Y-67024623D01*
X154164591Y-67039446D01*
X154128028Y-67056466D01*
X154055429Y-67066896D01*
X154010761Y-67068444D01*
X153928255Y-67073451D01*
X153808251Y-67086950D01*
X153665034Y-67106656D01*
X153512887Y-67130288D01*
X153366095Y-67155562D01*
X153238941Y-67180195D01*
X153145710Y-67201903D01*
X153114038Y-67211780D01*
X153078767Y-67237681D01*
X153034863Y-67294782D01*
X152978785Y-67388834D01*
X152906987Y-67525586D01*
X152850575Y-67639353D01*
X152783530Y-67778622D01*
X152726328Y-67901230D01*
X152683228Y-67997747D01*
X152658485Y-68058742D01*
X152654223Y-68074277D01*
X152670845Y-68090156D01*
X152725923Y-68083711D01*
X152788278Y-68066670D01*
X152908552Y-68036029D01*
X153059864Y-68005548D01*
X153223116Y-67978270D01*
X153379208Y-67957240D01*
X153509043Y-67945503D01*
X153557334Y-67944066D01*
X153688352Y-67960692D01*
X153810362Y-68004344D01*
X153906062Y-68067235D01*
X153949139Y-68120391D01*
X153976034Y-68184351D01*
X153972215Y-68228882D01*
X153931299Y-68258519D01*
X153846899Y-68277797D01*
X153712632Y-68291250D01*
X153708078Y-68291588D01*
X153574337Y-68305761D01*
X153409473Y-68329561D01*
X153237219Y-68359307D01*
X153119889Y-68382782D01*
X152972574Y-68413124D01*
X152830340Y-68440112D01*
X152710548Y-68460582D01*
X152637559Y-68470684D01*
X152548796Y-68476658D01*
X152495018Y-68467003D01*
X152455654Y-68436049D01*
X152438971Y-68415971D01*
X152392147Y-68345021D01*
X152343100Y-68254215D01*
X152330892Y-68228273D01*
X152301926Y-68158453D01*
X152291960Y-68104560D01*
X152300690Y-68043346D01*
X152327266Y-67953285D01*
X152358410Y-67865798D01*
X152406746Y-67743266D01*
X152465707Y-67601843D01*
X152528722Y-67457684D01*
X152529619Y-67455686D01*
X152586134Y-67329218D01*
X152633209Y-67222811D01*
X152666561Y-67146227D01*
X152681909Y-67109224D01*
X152682445Y-67107375D01*
X152659437Y-67112098D01*
X152601922Y-67133398D01*
X152578115Y-67143138D01*
X152455506Y-67176988D01*
X152298524Y-67195879D01*
X152127293Y-67199559D01*
X151961933Y-67187780D01*
X151822566Y-67160290D01*
X151799424Y-67152829D01*
X151705464Y-67122432D01*
X151628108Y-67102037D01*
X151592974Y-67096667D01*
X151536158Y-67081513D01*
X151449967Y-67040882D01*
X151345429Y-66982020D01*
X151235577Y-66913424D01*
X151656844Y-66913424D01*
X151666533Y-66957908D01*
X151705699Y-66984449D01*
X151784438Y-67001889D01*
X151860965Y-67012450D01*
X151973492Y-67026765D01*
X152041332Y-67034147D01*
X152075790Y-67034794D01*
X152088170Y-67028901D01*
X152089778Y-67016664D01*
X152089778Y-67016418D01*
X152069593Y-66987256D01*
X152017101Y-66935365D01*
X151974120Y-66898074D01*
X152261096Y-66898074D01*
X152262511Y-66984796D01*
X152265587Y-67033796D01*
X152267594Y-67040222D01*
X152298079Y-67035523D01*
X152367784Y-67023315D01*
X152444428Y-67009392D01*
X152538607Y-66989462D01*
X152610850Y-66969447D01*
X152640111Y-66956839D01*
X152687088Y-66934460D01*
X152745945Y-66916576D01*
X152802052Y-66895165D01*
X152823556Y-66872273D01*
X152802679Y-66839935D01*
X152751829Y-66795723D01*
X152745945Y-66791476D01*
X152695247Y-66759290D01*
X152616205Y-66713076D01*
X152522470Y-66660332D01*
X152427696Y-66608554D01*
X152345535Y-66565240D01*
X152289641Y-66537889D01*
X152273849Y-66532222D01*
X152269624Y-66558345D01*
X152265679Y-66628317D01*
X152262621Y-66729543D01*
X152261637Y-66786222D01*
X152261096Y-66898074D01*
X151974120Y-66898074D01*
X151955723Y-66882113D01*
X151845853Y-66791734D01*
X151771962Y-66735185D01*
X151725728Y-66711316D01*
X151698831Y-66718978D01*
X151682951Y-66757022D01*
X151669766Y-66824297D01*
X151666538Y-66842156D01*
X151656844Y-66913424D01*
X151235577Y-66913424D01*
X151233571Y-66912172D01*
X151125421Y-66838583D01*
X151032007Y-66768500D01*
X150964357Y-66709167D01*
X150933498Y-66667830D01*
X150932701Y-66662846D01*
X150954795Y-66611343D01*
X150989476Y-66566359D01*
X151214889Y-66566359D01*
X151239680Y-66581290D01*
X151304081Y-66583618D01*
X151393136Y-66575175D01*
X151491889Y-66557797D01*
X151585384Y-66533318D01*
X151635567Y-66514765D01*
X151792212Y-66445259D01*
X151912640Y-66387908D01*
X152013147Y-66334172D01*
X152110029Y-66275510D01*
X152183040Y-66227860D01*
X152300154Y-66149917D01*
X152801343Y-66149917D01*
X152805687Y-66179127D01*
X152830071Y-66236142D01*
X152832187Y-66240322D01*
X152867911Y-66327338D01*
X152894301Y-66418407D01*
X152915115Y-66497573D01*
X152937004Y-66556927D01*
X152938329Y-66559518D01*
X152961478Y-66619605D01*
X152977611Y-66680389D01*
X152998941Y-66736620D01*
X153024304Y-66758000D01*
X153060391Y-66741935D01*
X153126811Y-66699665D01*
X153209686Y-66640072D01*
X153215932Y-66635338D01*
X153342625Y-66537628D01*
X153428578Y-66467789D01*
X153479164Y-66421145D01*
X153499756Y-66393019D01*
X153500889Y-66387319D01*
X153475916Y-66371344D01*
X153413063Y-66354078D01*
X153380945Y-66348067D01*
X153299885Y-66330662D01*
X153242123Y-66311038D01*
X153232125Y-66305111D01*
X153192330Y-66283989D01*
X153119586Y-66253472D01*
X153029436Y-66219160D01*
X152937424Y-66186652D01*
X152859092Y-66161547D01*
X152809985Y-66149447D01*
X152801343Y-66149917D01*
X152300154Y-66149917D01*
X152375080Y-66100052D01*
X152254828Y-65977524D01*
X152165065Y-65892519D01*
X152096282Y-65848711D01*
X152034924Y-65842649D01*
X151967437Y-65870884D01*
X151930006Y-65894844D01*
X151867498Y-65942477D01*
X151781444Y-66014992D01*
X151680119Y-66104620D01*
X151571799Y-66203588D01*
X151464759Y-66304127D01*
X151367273Y-66398466D01*
X151287617Y-66478835D01*
X151234067Y-66537463D01*
X151214889Y-66566359D01*
X150989476Y-66566359D01*
X151020082Y-66526663D01*
X151127181Y-66410260D01*
X151274712Y-66263586D01*
X151461295Y-66088095D01*
X151591200Y-65969766D01*
X151917649Y-65675421D01*
X151869658Y-65592478D01*
X151815741Y-65520100D01*
X151757162Y-65466641D01*
X151710052Y-65421188D01*
X151643820Y-65339456D01*
X151567178Y-65234273D01*
X151488837Y-65118464D01*
X151417508Y-65004857D01*
X151361902Y-64906278D01*
X151332750Y-64841733D01*
X151305016Y-64692395D01*
X151306776Y-64656591D01*
X151455665Y-64656591D01*
X151470616Y-64709656D01*
X151541674Y-64880177D01*
X151621371Y-65042406D01*
X151700780Y-65179110D01*
X151749591Y-65248111D01*
X151822016Y-65334280D01*
X151914637Y-65437417D01*
X152019863Y-65549866D01*
X152130108Y-65663967D01*
X152237782Y-65772062D01*
X152335296Y-65866493D01*
X152415062Y-65939602D01*
X152469491Y-65983729D01*
X152487960Y-65993265D01*
X152522169Y-65974668D01*
X152586935Y-65921555D01*
X152674546Y-65840900D01*
X152777290Y-65739675D01*
X152840738Y-65674326D01*
X152922313Y-65588047D01*
X153303334Y-65588047D01*
X153314252Y-65625328D01*
X153342085Y-65694525D01*
X153362320Y-65740145D01*
X153401885Y-65827854D01*
X153434427Y-65902182D01*
X153444174Y-65925444D01*
X153494068Y-66043806D01*
X153540120Y-66144536D01*
X153577010Y-66216657D01*
X153599418Y-66249194D01*
X153601466Y-66250000D01*
X153630731Y-66233815D01*
X153687572Y-66192658D01*
X153723331Y-66164621D01*
X153785326Y-66107056D01*
X153858832Y-66027385D01*
X153935647Y-65936151D01*
X154007568Y-65843894D01*
X154066392Y-65761156D01*
X154103918Y-65698479D01*
X154111943Y-65666405D01*
X154111447Y-65665817D01*
X154076717Y-65655315D01*
X153999709Y-65643020D01*
X153894459Y-65631005D01*
X153846345Y-65626637D01*
X153711158Y-65614285D01*
X153576643Y-65600381D01*
X153468053Y-65587566D01*
X153451500Y-65585342D01*
X153369215Y-65577877D01*
X153315416Y-65580554D01*
X153303334Y-65588047D01*
X152922313Y-65588047D01*
X152954192Y-65554330D01*
X153060550Y-65439546D01*
X153150488Y-65340200D01*
X153214681Y-65266519D01*
X153232778Y-65244341D01*
X153283984Y-65174370D01*
X153346290Y-65082833D01*
X153385945Y-65021932D01*
X153788163Y-65021932D01*
X153810316Y-65051601D01*
X153833773Y-65070122D01*
X153880431Y-65114765D01*
X153939864Y-65185029D01*
X153966167Y-65219889D01*
X154032525Y-65306479D01*
X154102980Y-65390493D01*
X154167220Y-65460524D01*
X154214933Y-65505165D01*
X154233148Y-65515192D01*
X154255807Y-65492821D01*
X154296787Y-65436673D01*
X154326450Y-65391492D01*
X154398840Y-65266185D01*
X154450742Y-65153989D01*
X154477582Y-65066210D01*
X154477197Y-65019039D01*
X154457470Y-65001643D01*
X154408722Y-64989967D01*
X154322942Y-64983127D01*
X154192119Y-64980244D01*
X154122664Y-64980000D01*
X153966214Y-64981891D01*
X153861433Y-64988537D01*
X153803642Y-65001397D01*
X153788163Y-65021932D01*
X153385945Y-65021932D01*
X153411984Y-64981944D01*
X153473352Y-64883918D01*
X153522682Y-64800968D01*
X153552260Y-64745309D01*
X153557327Y-64730381D01*
X153533737Y-64710331D01*
X153471213Y-64673813D01*
X153382119Y-64627917D01*
X153359417Y-64616899D01*
X153263787Y-64569143D01*
X153189655Y-64528650D01*
X153150505Y-64502872D01*
X153148024Y-64500081D01*
X153113261Y-64477863D01*
X153056762Y-64458733D01*
X152993469Y-64437027D01*
X152899019Y-64397978D01*
X152806757Y-64356005D01*
X153246732Y-64356005D01*
X153274205Y-64402519D01*
X153354863Y-64455615D01*
X153388897Y-64472420D01*
X153473815Y-64516116D01*
X153539014Y-64556721D01*
X153561686Y-64576022D01*
X153593708Y-64605367D01*
X153621846Y-64602017D01*
X153652719Y-64559646D01*
X153692948Y-64471930D01*
X153707466Y-64436722D01*
X154065450Y-64436722D01*
X154086001Y-64469458D01*
X154098214Y-64472000D01*
X154132219Y-64490448D01*
X154194860Y-64539708D01*
X154274887Y-64610659D01*
X154309641Y-64643449D01*
X154416201Y-64738667D01*
X154494328Y-64789881D01*
X154549262Y-64798388D01*
X154586242Y-64765482D01*
X154604807Y-64716455D01*
X154611718Y-64661135D01*
X154614441Y-64575498D01*
X154613430Y-64477307D01*
X154609142Y-64384327D01*
X154602031Y-64314322D01*
X154593777Y-64285811D01*
X154565458Y-64289191D01*
X154494551Y-64303192D01*
X154393364Y-64325292D01*
X154326506Y-64340626D01*
X154201008Y-64373459D01*
X154112373Y-64404140D01*
X154068653Y-64429707D01*
X154065450Y-64436722D01*
X153707466Y-64436722D01*
X153789937Y-64217817D01*
X153844093Y-64032052D01*
X153868583Y-63892275D01*
X154127077Y-63892275D01*
X154128406Y-63923657D01*
X154175141Y-63935778D01*
X154226237Y-63951434D01*
X154302786Y-63991893D01*
X154365641Y-64032829D01*
X154460407Y-64094227D01*
X154530777Y-64128475D01*
X154568846Y-64132152D01*
X154573334Y-64122669D01*
X154560598Y-64078673D01*
X154528702Y-64005466D01*
X154487109Y-63922483D01*
X154445284Y-63849160D01*
X154426548Y-63821250D01*
X154368367Y-63742556D01*
X154245073Y-63802457D01*
X154167309Y-63849315D01*
X154127077Y-63892275D01*
X153868583Y-63892275D01*
X153873223Y-63865797D01*
X153880743Y-63718261D01*
X153876549Y-63590889D01*
X153864713Y-63516366D01*
X153843734Y-63491434D01*
X153812114Y-63512832D01*
X153795945Y-63533926D01*
X153746779Y-63597413D01*
X153713453Y-63634516D01*
X153684229Y-63673255D01*
X153633444Y-63750022D01*
X153567977Y-63854087D01*
X153494707Y-63974723D01*
X153486836Y-63987922D01*
X153414741Y-64106949D01*
X153351267Y-64207858D01*
X153302721Y-64280890D01*
X153275415Y-64316287D01*
X153273644Y-64317684D01*
X153246732Y-64356005D01*
X152806757Y-64356005D01*
X152792684Y-64349603D01*
X152781329Y-64344172D01*
X152565842Y-64254636D01*
X152347628Y-64189550D01*
X152138926Y-64151211D01*
X151951975Y-64141912D01*
X151807611Y-64161541D01*
X151712931Y-64201162D01*
X151624029Y-64271854D01*
X151529586Y-64383226D01*
X151502204Y-64420764D01*
X151455693Y-64531646D01*
X151455665Y-64656591D01*
X151306776Y-64656591D01*
X151313090Y-64528218D01*
X151353214Y-64368405D01*
X151421633Y-64232158D01*
X151461716Y-64182536D01*
X151578929Y-64083137D01*
X151708515Y-64023207D01*
X151864468Y-63997880D01*
X151992680Y-63997940D01*
X152168258Y-64014925D01*
X152355694Y-64047750D01*
X152533275Y-64091731D01*
X152679286Y-64142184D01*
X152696556Y-64149763D01*
X152817654Y-64203342D01*
X152928828Y-64249824D01*
X153017594Y-64284220D01*
X153071469Y-64301543D01*
X153079166Y-64302667D01*
X153103118Y-64279554D01*
X153145670Y-64217796D01*
X153199263Y-64128766D01*
X153223304Y-64085870D01*
X153287712Y-63974398D01*
X153352738Y-63871532D01*
X153406637Y-63795628D01*
X153417459Y-63782481D01*
X153479171Y-63704206D01*
X153546460Y-63608590D01*
X153570723Y-63571105D01*
X153627036Y-63486489D01*
X153681019Y-63413837D01*
X153701531Y-63389741D01*
X153747931Y-63327677D01*
X153770559Y-63281757D01*
X153812775Y-63228106D01*
X153882862Y-63210092D01*
X153963413Y-63229645D01*
X184400000Y-64500000D02*
X185150000Y-64500000D01*
X185150000Y-67000000D02*
X184400000Y-67000000D01*
X180000000Y-67000000D02*
X180750000Y-67000000D01*
X185150000Y-64500000D02*
X185150000Y-65250000D01*
X185150000Y-66250000D02*
X185150000Y-67000000D01*
X180000000Y-66250000D02*
X180000000Y-67000000D01*
X180000000Y-64500000D02*
X180000000Y-65250000D01*
X180000000Y-64500000D02*
X180750000Y-64500000D01*
X173400000Y-69450000D02*
X173400000Y-69950000D01*
X171600000Y-69450000D02*
X171600000Y-69950000D01*
X171600000Y-69450000D02*
X173400000Y-69450000D01*
X173400000Y-72250000D02*
X173400000Y-71750000D01*
X171600000Y-72250000D02*
X173400000Y-72250000D01*
X171600000Y-72250000D02*
X171600000Y-71750000D01*
X194500000Y-74610000D02*
X194500000Y-75360000D01*
X192000000Y-75360000D02*
X192000000Y-74610000D01*
X192000000Y-67710000D02*
X192000000Y-68460000D01*
X194500000Y-75360000D02*
X193750000Y-75360000D01*
X192750000Y-75360000D02*
X192000000Y-75360000D01*
X192750000Y-67710000D02*
X192000000Y-67710000D01*
X194500000Y-67710000D02*
X193750000Y-67710000D01*
X194500000Y-67710000D02*
X194500000Y-68460000D01*
X179000000Y-76400000D02*
X179000000Y-77150000D01*
X176500000Y-77150000D02*
X176500000Y-76400000D01*
X176500000Y-72000000D02*
X176500000Y-72750000D01*
X179000000Y-77150000D02*
X178250000Y-77150000D01*
X177250000Y-77150000D02*
X176500000Y-77150000D01*
X177250000Y-72000000D02*
X176500000Y-72000000D01*
X179000000Y-72000000D02*
X178250000Y-72000000D01*
X179000000Y-72000000D02*
X179000000Y-72750000D01*
X195650000Y-71900000D02*
X195400000Y-71900000D01*
X195400000Y-71900000D02*
X195400000Y-71650000D01*
X196350000Y-71900000D02*
X196600000Y-71900000D01*
X196600000Y-71900000D02*
X196600000Y-71650000D01*
X195400000Y-70350000D02*
X195400000Y-70100000D01*
X195400000Y-70100000D02*
X195650000Y-70100000D01*
X196600000Y-70350000D02*
X196600000Y-70100000D01*
X196600000Y-70100000D02*
X196350000Y-70100000D01*
X183100000Y-73850000D02*
X183350000Y-73850000D01*
X183350000Y-73850000D02*
X183350000Y-74100000D01*
X182400000Y-73850000D02*
X182150000Y-73850000D01*
X182150000Y-73850000D02*
X182150000Y-74100000D01*
X183350000Y-75400000D02*
X183350000Y-75650000D01*
X183350000Y-75650000D02*
X183100000Y-75650000D01*
X182150000Y-75400000D02*
X182150000Y-75650000D01*
X182150000Y-75650000D02*
X182400000Y-75650000D01*
X175170000Y-67990000D02*
X175170000Y-69450000D01*
X178330000Y-67990000D02*
X178330000Y-69450000D01*
X175170000Y-67990000D02*
X176100000Y-67990000D01*
X178330000Y-67990000D02*
X177400000Y-67990000D01*
X187350000Y-72250000D02*
X186600000Y-72250000D01*
X187350000Y-72250000D02*
X187350000Y-73000000D01*
X183850000Y-72250000D02*
X184600000Y-72250000D01*
X183850000Y-72250000D02*
X183850000Y-73000000D01*
X187350000Y-77250000D02*
X186600000Y-77250000D01*
X187350000Y-77250000D02*
X187350000Y-76500000D01*
X183850000Y-76500000D02*
X183850000Y-77250000D01*
X183850000Y-77250000D02*
X184600000Y-77250000D01*
X168250000Y-73500000D02*
X168250000Y-74250000D01*
X168250000Y-73500000D02*
X169000000Y-73500000D01*
X168250000Y-77000000D02*
X168250000Y-76250000D01*
X168250000Y-77000000D02*
X169000000Y-77000000D01*
X173250000Y-73500000D02*
X173250000Y-74250000D01*
X173250000Y-73500000D02*
X172500000Y-73500000D01*
X172500000Y-77000000D02*
X173250000Y-77000000D01*
X173250000Y-77000000D02*
X173250000Y-76250000D01*
X195100000Y-76550000D02*
X195100000Y-76050000D01*
X196900000Y-76550000D02*
X196900000Y-76050000D01*
X196900000Y-76550000D02*
X195100000Y-76550000D01*
X195100000Y-73750000D02*
X195100000Y-74250000D01*
X196900000Y-73750000D02*
X195100000Y-73750000D01*
X196900000Y-73750000D02*
X196900000Y-74250000D01*
X174350000Y-76300000D02*
X174350000Y-75800000D01*
X176150000Y-76300000D02*
X176150000Y-75800000D01*
X176150000Y-76300000D02*
X174350000Y-76300000D01*
X174350000Y-73500000D02*
X174350000Y-74000000D01*
X176150000Y-73500000D02*
X174350000Y-73500000D01*
X176150000Y-73500000D02*
X176150000Y-74000000D01*
X175050000Y-67150000D02*
X174550000Y-67150000D01*
X175050000Y-65350000D02*
X174550000Y-65350000D01*
X175050000Y-65350000D02*
X175050000Y-67150000D01*
X172250000Y-67150000D02*
X172750000Y-67150000D01*
X172250000Y-65350000D02*
X172250000Y-67150000D01*
X172250000Y-65350000D02*
X172750000Y-65350000D01*
X190850000Y-65100000D02*
X190850000Y-66100000D01*
X190850000Y-68900000D02*
X190850000Y-67900000D01*
X188650000Y-68900000D02*
X188650000Y-67900000D01*
X188650000Y-65100000D02*
X188650000Y-66100000D01*
X190850000Y-68900000D02*
X188650000Y-68900000D01*
X188650000Y-65100000D02*
X190850000Y-65100000D01*
X189150000Y-66900000D02*
G75*
G03X189350000Y-67100000I200000J0D01*
G01*
X189350000Y-67100000D02*
G75*
G03X189550000Y-66900000I0J200000D01*
G01*
X189550000Y-66900000D02*
G75*
G03X189750000Y-67100000I200000J0D01*
G01*
X189750000Y-67100000D02*
G75*
G03X189950000Y-66900000I0J200000D01*
G01*
X190150000Y-67100000D02*
G75*
G03X190350000Y-66900000I0J200000D01*
G01*
X189950000Y-66900000D02*
G75*
G03X190150000Y-67100000I200000J0D01*
G01*
X179400000Y-76900000D02*
X179400000Y-75900000D01*
X179400000Y-73100000D02*
X179400000Y-74100000D01*
X181600000Y-73100000D02*
X181600000Y-74100000D01*
X181600000Y-76900000D02*
X181600000Y-75900000D01*
X179400000Y-73100000D02*
X181600000Y-73100000D01*
X181600000Y-76900000D02*
X179400000Y-76900000D01*
X181100000Y-75100000D02*
G75*
G03X180900000Y-74900000I-200000J0D01*
G01*
X180900000Y-74900000D02*
G75*
G03X180700000Y-75100000I0J-200000D01*
G01*
X180700000Y-75100000D02*
G75*
G03X180500000Y-74900000I-200000J0D01*
G01*
X180500000Y-74900000D02*
G75*
G03X180300000Y-75100000I0J-200000D01*
G01*
X180100000Y-74900000D02*
G75*
G03X179900000Y-75100000I0J-200000D01*
G01*
X180300000Y-75100000D02*
G75*
G03X180100000Y-74900000I-200000J0D01*
G01*
X188750000Y-71000000D02*
X188000000Y-71750000D01*
X190750000Y-71000000D02*
X191500000Y-71750000D01*
X191500000Y-76000000D02*
X191500000Y-75000000D01*
X191500000Y-76000000D02*
X190750000Y-76000000D01*
X188000000Y-76000000D02*
X188750000Y-76000000D01*
X188000000Y-76000000D02*
X188000000Y-75000000D01*
X188000000Y-71000000D02*
X188000000Y-71750000D01*
X188000000Y-71000000D02*
X188750000Y-71000000D01*
X191500000Y-71000000D02*
X191500000Y-71750000D01*
X191500000Y-71000000D02*
X190750000Y-71000000D01*
X180000000Y-70750000D02*
X180750000Y-71500000D01*
X180000000Y-68750000D02*
X180750000Y-68000000D01*
X185000000Y-68000000D02*
X184000000Y-68000000D01*
X185000000Y-68000000D02*
X185000000Y-68750000D01*
X185000000Y-71500000D02*
X185000000Y-70750000D01*
X185000000Y-71500000D02*
X184000000Y-71500000D01*
X180000000Y-71500000D02*
X180750000Y-71500000D01*
X180000000Y-71500000D02*
X180000000Y-70750000D01*
X180000000Y-68000000D02*
X180750000Y-68000000D01*
X180000000Y-68000000D02*
X180000000Y-68750000D01*
X117750000Y-71400000D02*
X117750000Y-72150000D01*
X115250000Y-72150000D02*
X115250000Y-71400000D01*
X115250000Y-64500000D02*
X115250000Y-65250000D01*
X117750000Y-72150000D02*
X117000000Y-72150000D01*
X116000000Y-72150000D02*
X115250000Y-72150000D01*
X116000000Y-64500000D02*
X115250000Y-64500000D01*
X117750000Y-64500000D02*
X117000000Y-64500000D01*
X117750000Y-64500000D02*
X117750000Y-65250000D01*
X149350000Y-72000000D02*
X148600000Y-72000000D01*
X149350000Y-72000000D02*
X149350000Y-72750000D01*
X145850000Y-72000000D02*
X146600000Y-72000000D01*
X145850000Y-72000000D02*
X145850000Y-72750000D01*
X149350000Y-77000000D02*
X148600000Y-77000000D01*
X149350000Y-77000000D02*
X149350000Y-76250000D01*
X145850000Y-76250000D02*
X145850000Y-77000000D01*
X145850000Y-77000000D02*
X146600000Y-77000000D01*
X131750000Y-71250000D02*
X132000000Y-71250000D01*
X131500000Y-71250000D02*
X131250000Y-71250000D01*
X131750000Y-71750000D02*
X131750000Y-70750000D01*
X131500000Y-70750000D02*
X131500000Y-71750000D01*
X133050000Y-72150000D02*
X132550000Y-72150000D01*
X133050000Y-70350000D02*
X132550000Y-70350000D01*
X130150000Y-72150000D02*
X130650000Y-72150000D01*
X130150000Y-70350000D02*
X130650000Y-70350000D01*
X130150000Y-70350000D02*
X130150000Y-72150000D01*
X133050000Y-70350000D02*
X133050000Y-72150000D01*
X156500000Y-77150000D02*
X156500000Y-77900000D01*
X154000000Y-77900000D02*
X154000000Y-77150000D01*
X154000000Y-70250000D02*
X154000000Y-71000000D01*
X156500000Y-77900000D02*
X155750000Y-77900000D01*
X154750000Y-77900000D02*
X154000000Y-77900000D01*
X154750000Y-70250000D02*
X154000000Y-70250000D01*
X156500000Y-70250000D02*
X155750000Y-70250000D01*
X156500000Y-70250000D02*
X156500000Y-71000000D01*
X141000000Y-76400000D02*
X141000000Y-77150000D01*
X138500000Y-77150000D02*
X138500000Y-76400000D01*
X138500000Y-72000000D02*
X138500000Y-72750000D01*
X141000000Y-77150000D02*
X140250000Y-77150000D01*
X139250000Y-77150000D02*
X138500000Y-77150000D01*
X139250000Y-72000000D02*
X138500000Y-72000000D01*
X141000000Y-72000000D02*
X140250000Y-72000000D01*
X141000000Y-72000000D02*
X141000000Y-72750000D01*
X145400000Y-64500000D02*
X146150000Y-64500000D01*
X146150000Y-67000000D02*
X145400000Y-67000000D01*
X141000000Y-67000000D02*
X141750000Y-67000000D01*
X146150000Y-64500000D02*
X146150000Y-65250000D01*
X146150000Y-66250000D02*
X146150000Y-67000000D01*
X141000000Y-66250000D02*
X141000000Y-67000000D01*
X141000000Y-64500000D02*
X141000000Y-65250000D01*
X141000000Y-64500000D02*
X141750000Y-64500000D01*
X157650000Y-71900000D02*
X157400000Y-71900000D01*
X157400000Y-71900000D02*
X157400000Y-71650000D01*
X158350000Y-71900000D02*
X158600000Y-71900000D01*
X158600000Y-71900000D02*
X158600000Y-71650000D01*
X157400000Y-70350000D02*
X157400000Y-70100000D01*
X157400000Y-70100000D02*
X157650000Y-70100000D01*
X158600000Y-70350000D02*
X158600000Y-70100000D01*
X158600000Y-70100000D02*
X158350000Y-70100000D01*
X145100000Y-73850000D02*
X145350000Y-73850000D01*
X145350000Y-73850000D02*
X145350000Y-74100000D01*
X144400000Y-73850000D02*
X144150000Y-73850000D01*
X144150000Y-73850000D02*
X144150000Y-74100000D01*
X145350000Y-75400000D02*
X145350000Y-75650000D01*
X145350000Y-75650000D02*
X145100000Y-75650000D01*
X144150000Y-75400000D02*
X144150000Y-75650000D01*
X144150000Y-75650000D02*
X144400000Y-75650000D01*
X137170000Y-67990000D02*
X137170000Y-69450000D01*
X140330000Y-67990000D02*
X140330000Y-69450000D01*
X137170000Y-67990000D02*
X138100000Y-67990000D01*
X140330000Y-67990000D02*
X139400000Y-67990000D01*
X130250000Y-73500000D02*
X130250000Y-74250000D01*
X130250000Y-73500000D02*
X131000000Y-73500000D01*
X130250000Y-77000000D02*
X130250000Y-76250000D01*
X130250000Y-77000000D02*
X131000000Y-77000000D01*
X135250000Y-73500000D02*
X135250000Y-74250000D01*
X135250000Y-73500000D02*
X134500000Y-73500000D01*
X134500000Y-77000000D02*
X135250000Y-77000000D01*
X135250000Y-77000000D02*
X135250000Y-76250000D01*
X157100000Y-76550000D02*
X157100000Y-76050000D01*
X158900000Y-76550000D02*
X158900000Y-76050000D01*
X158900000Y-76550000D02*
X157100000Y-76550000D01*
X157100000Y-73750000D02*
X157100000Y-74250000D01*
X158900000Y-73750000D02*
X157100000Y-73750000D01*
X158900000Y-73750000D02*
X158900000Y-74250000D01*
X136350000Y-76300000D02*
X136350000Y-75800000D01*
X138150000Y-76300000D02*
X138150000Y-75800000D01*
X138150000Y-76300000D02*
X136350000Y-76300000D01*
X136350000Y-73500000D02*
X136350000Y-74000000D01*
X138150000Y-73500000D02*
X136350000Y-73500000D01*
X138150000Y-73500000D02*
X138150000Y-74000000D01*
X137050000Y-67150000D02*
X136550000Y-67150000D01*
X137050000Y-65350000D02*
X136550000Y-65350000D01*
X137050000Y-65350000D02*
X137050000Y-67150000D01*
X134250000Y-67150000D02*
X134750000Y-67150000D01*
X134250000Y-65350000D02*
X134250000Y-67150000D01*
X134250000Y-65350000D02*
X134750000Y-65350000D01*
X135400000Y-69450000D02*
X135400000Y-69950000D01*
X133600000Y-69450000D02*
X133600000Y-69950000D01*
X133600000Y-69450000D02*
X135400000Y-69450000D01*
X135400000Y-72250000D02*
X135400000Y-71750000D01*
X133600000Y-72250000D02*
X135400000Y-72250000D01*
X133600000Y-72250000D02*
X133600000Y-71750000D01*
X127100000Y-77300000D02*
X127100000Y-76800000D01*
X128900000Y-77300000D02*
X128900000Y-76800000D01*
X128900000Y-77300000D02*
X127100000Y-77300000D01*
X127100000Y-74500000D02*
X127100000Y-75000000D01*
X128900000Y-74500000D02*
X127100000Y-74500000D01*
X128900000Y-74500000D02*
X128900000Y-75000000D01*
X146600000Y-64650000D02*
X147600000Y-64650000D01*
X150400000Y-64650000D02*
X149400000Y-64650000D01*
X150400000Y-66850000D02*
X149400000Y-66850000D01*
X146600000Y-66850000D02*
X147600000Y-66850000D01*
X150400000Y-64650000D02*
X150400000Y-66850000D01*
X146600000Y-66850000D02*
X146600000Y-64650000D01*
X148400000Y-66350000D02*
G75*
G03X148600000Y-66150000I0J200000D01*
G01*
X148600000Y-66150000D02*
G75*
G03X148400000Y-65950000I-200000J0D01*
G01*
X148400000Y-65950000D02*
G75*
G03X148600000Y-65750000I0J200000D01*
G01*
X148600000Y-65750000D02*
G75*
G03X148400000Y-65550000I-200000J0D01*
G01*
X148600000Y-65350000D02*
G75*
G03X148400000Y-65150000I-200000J0D01*
G01*
X148400000Y-65550000D02*
G75*
G03X148600000Y-65350000I0J200000D01*
G01*
X141400000Y-76900000D02*
X141400000Y-75900000D01*
X141400000Y-73100000D02*
X141400000Y-74100000D01*
X143600000Y-73100000D02*
X143600000Y-74100000D01*
X143600000Y-76900000D02*
X143600000Y-75900000D01*
X141400000Y-73100000D02*
X143600000Y-73100000D01*
X143600000Y-76900000D02*
X141400000Y-76900000D01*
X143100000Y-75100000D02*
G75*
G03X142900000Y-74900000I-200000J0D01*
G01*
X142900000Y-74900000D02*
G75*
G03X142700000Y-75100000I0J-200000D01*
G01*
X142700000Y-75100000D02*
G75*
G03X142500000Y-74900000I-200000J0D01*
G01*
X142500000Y-74900000D02*
G75*
G03X142300000Y-75100000I0J-200000D01*
G01*
X142100000Y-74900000D02*
G75*
G03X141900000Y-75100000I0J-200000D01*
G01*
X142300000Y-75100000D02*
G75*
G03X142100000Y-74900000I-200000J0D01*
G01*
X121350000Y-65400000D02*
X122350000Y-65400000D01*
X125150000Y-65400000D02*
X124150000Y-65400000D01*
X125150000Y-67600000D02*
X124150000Y-67600000D01*
X121350000Y-67600000D02*
X122350000Y-67600000D01*
X125150000Y-65400000D02*
X125150000Y-67600000D01*
X121350000Y-67600000D02*
X121350000Y-65400000D01*
X123150000Y-67100000D02*
G75*
G03X123350000Y-66900000I0J200000D01*
G01*
X123350000Y-66900000D02*
G75*
G03X123150000Y-66700000I-200000J0D01*
G01*
X123150000Y-66700000D02*
G75*
G03X123350000Y-66500000I0J200000D01*
G01*
X123350000Y-66500000D02*
G75*
G03X123150000Y-66300000I-200000J0D01*
G01*
X123350000Y-66100000D02*
G75*
G03X123150000Y-65900000I-200000J0D01*
G01*
X123150000Y-66300000D02*
G75*
G03X123350000Y-66100000I0J200000D01*
G01*
X150750000Y-71000000D02*
X150000000Y-71750000D01*
X152750000Y-71000000D02*
X153500000Y-71750000D01*
X153500000Y-76000000D02*
X153500000Y-75000000D01*
X153500000Y-76000000D02*
X152750000Y-76000000D01*
X150000000Y-76000000D02*
X150750000Y-76000000D01*
X150000000Y-76000000D02*
X150000000Y-75000000D01*
X150000000Y-71000000D02*
X150000000Y-71750000D01*
X150000000Y-71000000D02*
X150750000Y-71000000D01*
X153500000Y-71000000D02*
X153500000Y-71750000D01*
X153500000Y-71000000D02*
X152750000Y-71000000D01*
X142000000Y-70750000D02*
X142750000Y-71500000D01*
X142000000Y-68750000D02*
X142750000Y-68000000D01*
X147000000Y-68000000D02*
X146000000Y-68000000D01*
X147000000Y-68000000D02*
X147000000Y-68750000D01*
X147000000Y-71500000D02*
X147000000Y-70750000D01*
X147000000Y-71500000D02*
X146000000Y-71500000D01*
X142000000Y-71500000D02*
X142750000Y-71500000D01*
X142000000Y-71500000D02*
X142000000Y-70750000D01*
X142000000Y-68000000D02*
X142750000Y-68000000D01*
X142000000Y-68000000D02*
X142000000Y-68750000D01*
X127000000Y-67500000D02*
X126250000Y-68250000D01*
X129000000Y-67500000D02*
X129750000Y-68250000D01*
X129750000Y-72500000D02*
X129750000Y-71500000D01*
X129750000Y-72500000D02*
X129000000Y-72500000D01*
X126250000Y-72500000D02*
X127000000Y-72500000D01*
X126250000Y-72500000D02*
X126250000Y-71500000D01*
X126250000Y-67500000D02*
X126250000Y-68250000D01*
X126250000Y-67500000D02*
X127000000Y-67500000D01*
X129750000Y-67500000D02*
X129750000Y-68250000D01*
X129750000Y-67500000D02*
X129000000Y-67500000D01*
X170116666Y-68285714D02*
X170078571Y-68323809D01*
X169964285Y-68361904D01*
X169888095Y-68361904D01*
X169773809Y-68323809D01*
X169697619Y-68247619D01*
X169659523Y-68171428D01*
X169621428Y-68019047D01*
X169621428Y-67904761D01*
X169659523Y-67752380D01*
X169697619Y-67676190D01*
X169773809Y-67600000D01*
X169888095Y-67561904D01*
X169964285Y-67561904D01*
X170078571Y-67600000D01*
X170116666Y-67638095D01*
X170497619Y-68361904D02*
X170650000Y-68361904D01*
X170726190Y-68323809D01*
X170764285Y-68285714D01*
X170840476Y-68171428D01*
X170878571Y-68019047D01*
X170878571Y-67714285D01*
X170840476Y-67638095D01*
X170802380Y-67600000D01*
X170726190Y-67561904D01*
X170573809Y-67561904D01*
X170497619Y-67600000D01*
X170459523Y-67638095D01*
X170421428Y-67714285D01*
X170421428Y-67904761D01*
X170459523Y-67980952D01*
X170497619Y-68019047D01*
X170573809Y-68057142D01*
X170726190Y-68057142D01*
X170802380Y-68019047D01*
X170840476Y-67980952D01*
X170878571Y-67904761D01*
X131866666Y-65535714D02*
X131828571Y-65573809D01*
X131714285Y-65611904D01*
X131638095Y-65611904D01*
X131523809Y-65573809D01*
X131447619Y-65497619D01*
X131409523Y-65421428D01*
X131371428Y-65269047D01*
X131371428Y-65154761D01*
X131409523Y-65002380D01*
X131447619Y-64926190D01*
X131523809Y-64850000D01*
X131638095Y-64811904D01*
X131714285Y-64811904D01*
X131828571Y-64850000D01*
X131866666Y-64888095D01*
X132323809Y-65154761D02*
X132247619Y-65116666D01*
X132209523Y-65078571D01*
X132171428Y-65002380D01*
X132171428Y-64964285D01*
X132209523Y-64888095D01*
X132247619Y-64850000D01*
X132323809Y-64811904D01*
X132476190Y-64811904D01*
X132552380Y-64850000D01*
X132590476Y-64888095D01*
X132628571Y-64964285D01*
X132628571Y-65002380D01*
X132590476Y-65078571D01*
X132552380Y-65116666D01*
X132476190Y-65154761D01*
X132323809Y-65154761D01*
X132247619Y-65192857D01*
X132209523Y-65230952D01*
X132171428Y-65307142D01*
X132171428Y-65459523D01*
X132209523Y-65535714D01*
X132247619Y-65573809D01*
X132323809Y-65611904D01*
X132476190Y-65611904D01*
X132552380Y-65573809D01*
X132590476Y-65535714D01*
X132628571Y-65459523D01*
X132628571Y-65307142D01*
X132590476Y-65230952D01*
X132552380Y-65192857D01*
X132476190Y-65154761D01*
X115616666Y-73785714D02*
X115578571Y-73823809D01*
X115464285Y-73861904D01*
X115388095Y-73861904D01*
X115273809Y-73823809D01*
X115197619Y-73747619D01*
X115159523Y-73671428D01*
X115121428Y-73519047D01*
X115121428Y-73404761D01*
X115159523Y-73252380D01*
X115197619Y-73176190D01*
X115273809Y-73100000D01*
X115388095Y-73061904D01*
X115464285Y-73061904D01*
X115578571Y-73100000D01*
X115616666Y-73138095D01*
X115883333Y-73061904D02*
X116416666Y-73061904D01*
X116073809Y-73861904D01*
X181452380Y-63561904D02*
X181985714Y-64361904D01*
X181985714Y-63561904D02*
X181452380Y-64361904D01*
X182290476Y-64361904D02*
X182290476Y-63561904D01*
X182595238Y-63561904D01*
X182671428Y-63600000D01*
X182709523Y-63638095D01*
X182747619Y-63714285D01*
X182747619Y-63828571D01*
X182709523Y-63904761D01*
X182671428Y-63942857D01*
X182595238Y-63980952D01*
X182290476Y-63980952D01*
X183471428Y-63561904D02*
X183090476Y-63561904D01*
X183052380Y-63942857D01*
X183090476Y-63904761D01*
X183166666Y-63866666D01*
X183357142Y-63866666D01*
X183433333Y-63904761D01*
X183471428Y-63942857D01*
X183509523Y-64019047D01*
X183509523Y-64209523D01*
X183471428Y-64285714D01*
X183433333Y-64323809D01*
X183357142Y-64361904D01*
X183166666Y-64361904D01*
X183090476Y-64323809D01*
X183052380Y-64285714D01*
X172366666Y-69111904D02*
X172100000Y-68730952D01*
X171909523Y-69111904D02*
X171909523Y-68311904D01*
X172214285Y-68311904D01*
X172290476Y-68350000D01*
X172328571Y-68388095D01*
X172366666Y-68464285D01*
X172366666Y-68578571D01*
X172328571Y-68654761D01*
X172290476Y-68692857D01*
X172214285Y-68730952D01*
X171909523Y-68730952D01*
X173090476Y-68311904D02*
X172709523Y-68311904D01*
X172671428Y-68692857D01*
X172709523Y-68654761D01*
X172785714Y-68616666D01*
X172976190Y-68616666D01*
X173052380Y-68654761D01*
X173090476Y-68692857D01*
X173128571Y-68769047D01*
X173128571Y-68959523D01*
X173090476Y-69035714D01*
X173052380Y-69073809D01*
X172976190Y-69111904D01*
X172785714Y-69111904D01*
X172709523Y-69073809D01*
X172671428Y-69035714D01*
X200221428Y-67231904D02*
X200754761Y-68031904D01*
X200754761Y-67231904D02*
X200221428Y-68031904D01*
X201021428Y-67993809D02*
X201135714Y-68031904D01*
X201326190Y-68031904D01*
X201402380Y-67993809D01*
X201440476Y-67955714D01*
X201478571Y-67879523D01*
X201478571Y-67803333D01*
X201440476Y-67727142D01*
X201402380Y-67689047D01*
X201326190Y-67650952D01*
X201173809Y-67612857D01*
X201097619Y-67574761D01*
X201059523Y-67536666D01*
X201021428Y-67460476D01*
X201021428Y-67384285D01*
X201059523Y-67308095D01*
X201097619Y-67270000D01*
X201173809Y-67231904D01*
X201364285Y-67231904D01*
X201478571Y-67270000D01*
X201745238Y-67231904D02*
X202240476Y-67231904D01*
X201973809Y-67536666D01*
X202088095Y-67536666D01*
X202164285Y-67574761D01*
X202202380Y-67612857D01*
X202240476Y-67689047D01*
X202240476Y-67879523D01*
X202202380Y-67955714D01*
X202164285Y-67993809D01*
X202088095Y-68031904D01*
X201859523Y-68031904D01*
X201783333Y-67993809D01*
X201745238Y-67955714D01*
X162221428Y-69061904D02*
X162754761Y-69861904D01*
X162754761Y-69061904D02*
X162221428Y-69861904D01*
X163021428Y-69823809D02*
X163135714Y-69861904D01*
X163326190Y-69861904D01*
X163402380Y-69823809D01*
X163440476Y-69785714D01*
X163478571Y-69709523D01*
X163478571Y-69633333D01*
X163440476Y-69557142D01*
X163402380Y-69519047D01*
X163326190Y-69480952D01*
X163173809Y-69442857D01*
X163097619Y-69404761D01*
X163059523Y-69366666D01*
X163021428Y-69290476D01*
X163021428Y-69214285D01*
X163059523Y-69138095D01*
X163097619Y-69100000D01*
X163173809Y-69061904D01*
X163364285Y-69061904D01*
X163478571Y-69100000D01*
X163783333Y-69138095D02*
X163821428Y-69100000D01*
X163897619Y-69061904D01*
X164088095Y-69061904D01*
X164164285Y-69100000D01*
X164202380Y-69138095D01*
X164240476Y-69214285D01*
X164240476Y-69290476D01*
X164202380Y-69404761D01*
X163745238Y-69861904D01*
X164240476Y-69861904D01*
X192202380Y-66561904D02*
X192735714Y-67361904D01*
X192735714Y-66561904D02*
X192202380Y-67361904D01*
X193040476Y-67361904D02*
X193040476Y-66561904D01*
X193345238Y-66561904D01*
X193421428Y-66600000D01*
X193459523Y-66638095D01*
X193497619Y-66714285D01*
X193497619Y-66828571D01*
X193459523Y-66904761D01*
X193421428Y-66942857D01*
X193345238Y-66980952D01*
X193040476Y-66980952D01*
X193764285Y-66561904D02*
X194297619Y-66561904D01*
X193954761Y-67361904D01*
X176702380Y-70811904D02*
X177235714Y-71611904D01*
X177235714Y-70811904D02*
X176702380Y-71611904D01*
X177540476Y-71611904D02*
X177540476Y-70811904D01*
X177845238Y-70811904D01*
X177921428Y-70850000D01*
X177959523Y-70888095D01*
X177997619Y-70964285D01*
X177997619Y-71078571D01*
X177959523Y-71154761D01*
X177921428Y-71192857D01*
X177845238Y-71230952D01*
X177540476Y-71230952D01*
X178683333Y-70811904D02*
X178530952Y-70811904D01*
X178454761Y-70850000D01*
X178416666Y-70888095D01*
X178340476Y-71002380D01*
X178302380Y-71154761D01*
X178302380Y-71459523D01*
X178340476Y-71535714D01*
X178378571Y-71573809D01*
X178454761Y-71611904D01*
X178607142Y-71611904D01*
X178683333Y-71573809D01*
X178721428Y-71535714D01*
X178759523Y-71459523D01*
X178759523Y-71269047D01*
X178721428Y-71192857D01*
X178683333Y-71154761D01*
X178607142Y-71116666D01*
X178454761Y-71116666D01*
X178378571Y-71154761D01*
X178340476Y-71192857D01*
X178302380Y-71269047D01*
X195352380Y-68811904D02*
X195885714Y-69611904D01*
X195885714Y-68811904D02*
X195352380Y-69611904D01*
X196533333Y-69078571D02*
X196533333Y-69611904D01*
X196342857Y-68773809D02*
X196152380Y-69345238D01*
X196647619Y-69345238D01*
X182102380Y-72561904D02*
X182635714Y-73361904D01*
X182635714Y-72561904D02*
X182102380Y-73361904D01*
X182864285Y-72561904D02*
X183359523Y-72561904D01*
X183092857Y-72866666D01*
X183207142Y-72866666D01*
X183283333Y-72904761D01*
X183321428Y-72942857D01*
X183359523Y-73019047D01*
X183359523Y-73209523D01*
X183321428Y-73285714D01*
X183283333Y-73323809D01*
X183207142Y-73361904D01*
X182978571Y-73361904D01*
X182902380Y-73323809D01*
X182864285Y-73285714D01*
X176047619Y-65811904D02*
X176314285Y-66611904D01*
X176580952Y-65811904D01*
X176733333Y-65811904D02*
X177190476Y-65811904D01*
X176961904Y-66611904D02*
X176961904Y-65811904D01*
X177419047Y-65888095D02*
X177457142Y-65850000D01*
X177533333Y-65811904D01*
X177723809Y-65811904D01*
X177800000Y-65850000D01*
X177838095Y-65888095D01*
X177876190Y-65964285D01*
X177876190Y-66040476D01*
X177838095Y-66154761D01*
X177380952Y-66611904D01*
X177876190Y-66611904D01*
X185966666Y-71861904D02*
X185700000Y-71480952D01*
X185509523Y-71861904D02*
X185509523Y-71061904D01*
X185814285Y-71061904D01*
X185890476Y-71100000D01*
X185928571Y-71138095D01*
X185966666Y-71214285D01*
X185966666Y-71328571D01*
X185928571Y-71404761D01*
X185890476Y-71442857D01*
X185814285Y-71480952D01*
X185509523Y-71480952D01*
X186309523Y-71861904D02*
X186309523Y-71061904D01*
X186614285Y-71061904D01*
X186690476Y-71100000D01*
X186728571Y-71138095D01*
X186766666Y-71214285D01*
X186766666Y-71328571D01*
X186728571Y-71404761D01*
X186690476Y-71442857D01*
X186614285Y-71480952D01*
X186309523Y-71480952D01*
X187452380Y-71328571D02*
X187452380Y-71861904D01*
X187261904Y-71023809D02*
X187071428Y-71595238D01*
X187566666Y-71595238D01*
X170216666Y-73361904D02*
X169950000Y-72980952D01*
X169759523Y-73361904D02*
X169759523Y-72561904D01*
X170064285Y-72561904D01*
X170140476Y-72600000D01*
X170178571Y-72638095D01*
X170216666Y-72714285D01*
X170216666Y-72828571D01*
X170178571Y-72904761D01*
X170140476Y-72942857D01*
X170064285Y-72980952D01*
X169759523Y-72980952D01*
X170559523Y-73361904D02*
X170559523Y-72561904D01*
X170864285Y-72561904D01*
X170940476Y-72600000D01*
X170978571Y-72638095D01*
X171016666Y-72714285D01*
X171016666Y-72828571D01*
X170978571Y-72904761D01*
X170940476Y-72942857D01*
X170864285Y-72980952D01*
X170559523Y-72980952D01*
X171283333Y-72561904D02*
X171778571Y-72561904D01*
X171511904Y-72866666D01*
X171626190Y-72866666D01*
X171702380Y-72904761D01*
X171740476Y-72942857D01*
X171778571Y-73019047D01*
X171778571Y-73209523D01*
X171740476Y-73285714D01*
X171702380Y-73323809D01*
X171626190Y-73361904D01*
X171397619Y-73361904D01*
X171321428Y-73323809D01*
X171283333Y-73285714D01*
X195866666Y-73361904D02*
X195600000Y-72980952D01*
X195409523Y-73361904D02*
X195409523Y-72561904D01*
X195714285Y-72561904D01*
X195790476Y-72600000D01*
X195828571Y-72638095D01*
X195866666Y-72714285D01*
X195866666Y-72828571D01*
X195828571Y-72904761D01*
X195790476Y-72942857D01*
X195714285Y-72980952D01*
X195409523Y-72980952D01*
X196247619Y-73361904D02*
X196400000Y-73361904D01*
X196476190Y-73323809D01*
X196514285Y-73285714D01*
X196590476Y-73171428D01*
X196628571Y-73019047D01*
X196628571Y-72714285D01*
X196590476Y-72638095D01*
X196552380Y-72600000D01*
X196476190Y-72561904D01*
X196323809Y-72561904D01*
X196247619Y-72600000D01*
X196209523Y-72638095D01*
X196171428Y-72714285D01*
X196171428Y-72904761D01*
X196209523Y-72980952D01*
X196247619Y-73019047D01*
X196323809Y-73057142D01*
X196476190Y-73057142D01*
X196552380Y-73019047D01*
X196590476Y-72980952D01*
X196628571Y-72904761D01*
X175116666Y-73111904D02*
X174850000Y-72730952D01*
X174659523Y-73111904D02*
X174659523Y-72311904D01*
X174964285Y-72311904D01*
X175040476Y-72350000D01*
X175078571Y-72388095D01*
X175116666Y-72464285D01*
X175116666Y-72578571D01*
X175078571Y-72654761D01*
X175040476Y-72692857D01*
X174964285Y-72730952D01*
X174659523Y-72730952D01*
X175573809Y-72654761D02*
X175497619Y-72616666D01*
X175459523Y-72578571D01*
X175421428Y-72502380D01*
X175421428Y-72464285D01*
X175459523Y-72388095D01*
X175497619Y-72350000D01*
X175573809Y-72311904D01*
X175726190Y-72311904D01*
X175802380Y-72350000D01*
X175840476Y-72388095D01*
X175878571Y-72464285D01*
X175878571Y-72502380D01*
X175840476Y-72578571D01*
X175802380Y-72616666D01*
X175726190Y-72654761D01*
X175573809Y-72654761D01*
X175497619Y-72692857D01*
X175459523Y-72730952D01*
X175421428Y-72807142D01*
X175421428Y-72959523D01*
X175459523Y-73035714D01*
X175497619Y-73073809D01*
X175573809Y-73111904D01*
X175726190Y-73111904D01*
X175802380Y-73073809D01*
X175840476Y-73035714D01*
X175878571Y-72959523D01*
X175878571Y-72807142D01*
X175840476Y-72730952D01*
X175802380Y-72692857D01*
X175726190Y-72654761D01*
X173616666Y-65111904D02*
X173350000Y-64730952D01*
X173159523Y-65111904D02*
X173159523Y-64311904D01*
X173464285Y-64311904D01*
X173540476Y-64350000D01*
X173578571Y-64388095D01*
X173616666Y-64464285D01*
X173616666Y-64578571D01*
X173578571Y-64654761D01*
X173540476Y-64692857D01*
X173464285Y-64730952D01*
X173159523Y-64730952D01*
X173883333Y-64311904D02*
X174416666Y-64311904D01*
X174073809Y-65111904D01*
X189616666Y-64611904D02*
X189235714Y-64611904D01*
X189235714Y-63811904D01*
X190264285Y-63811904D02*
X189883333Y-63811904D01*
X189845238Y-64192857D01*
X189883333Y-64154761D01*
X189959523Y-64116666D01*
X190150000Y-64116666D01*
X190226190Y-64154761D01*
X190264285Y-64192857D01*
X190302380Y-64269047D01*
X190302380Y-64459523D01*
X190264285Y-64535714D01*
X190226190Y-64573809D01*
X190150000Y-64611904D01*
X189959523Y-64611904D01*
X189883333Y-64573809D01*
X189845238Y-64535714D01*
X180366666Y-72611904D02*
X179985714Y-72611904D01*
X179985714Y-71811904D01*
X180976190Y-72078571D02*
X180976190Y-72611904D01*
X180785714Y-71773809D02*
X180595238Y-72345238D01*
X181090476Y-72345238D01*
X189616666Y-70035714D02*
X189578571Y-70073809D01*
X189464285Y-70111904D01*
X189388095Y-70111904D01*
X189273809Y-70073809D01*
X189197619Y-69997619D01*
X189159523Y-69921428D01*
X189121428Y-69769047D01*
X189121428Y-69654761D01*
X189159523Y-69502380D01*
X189197619Y-69426190D01*
X189273809Y-69350000D01*
X189388095Y-69311904D01*
X189464285Y-69311904D01*
X189578571Y-69350000D01*
X189616666Y-69388095D01*
X190302380Y-69311904D02*
X190150000Y-69311904D01*
X190073809Y-69350000D01*
X190035714Y-69388095D01*
X189959523Y-69502380D01*
X189921428Y-69654761D01*
X189921428Y-69959523D01*
X189959523Y-70035714D01*
X189997619Y-70073809D01*
X190073809Y-70111904D01*
X190226190Y-70111904D01*
X190302380Y-70073809D01*
X190340476Y-70035714D01*
X190378571Y-69959523D01*
X190378571Y-69769047D01*
X190340476Y-69692857D01*
X190302380Y-69654761D01*
X190226190Y-69616666D01*
X190073809Y-69616666D01*
X189997619Y-69654761D01*
X189959523Y-69692857D01*
X189921428Y-69769047D01*
X182366666Y-68035714D02*
X182328571Y-68073809D01*
X182214285Y-68111904D01*
X182138095Y-68111904D01*
X182023809Y-68073809D01*
X181947619Y-67997619D01*
X181909523Y-67921428D01*
X181871428Y-67769047D01*
X181871428Y-67654761D01*
X181909523Y-67502380D01*
X181947619Y-67426190D01*
X182023809Y-67350000D01*
X182138095Y-67311904D01*
X182214285Y-67311904D01*
X182328571Y-67350000D01*
X182366666Y-67388095D01*
X183090476Y-67311904D02*
X182709523Y-67311904D01*
X182671428Y-67692857D01*
X182709523Y-67654761D01*
X182785714Y-67616666D01*
X182976190Y-67616666D01*
X183052380Y-67654761D01*
X183090476Y-67692857D01*
X183128571Y-67769047D01*
X183128571Y-67959523D01*
X183090476Y-68035714D01*
X183052380Y-68073809D01*
X182976190Y-68111904D01*
X182785714Y-68111904D01*
X182709523Y-68073809D01*
X182671428Y-68035714D01*
X115452380Y-63311904D02*
X115985714Y-64111904D01*
X115985714Y-63311904D02*
X115452380Y-64111904D01*
X116290476Y-64111904D02*
X116290476Y-63311904D01*
X116595238Y-63311904D01*
X116671428Y-63350000D01*
X116709523Y-63388095D01*
X116747619Y-63464285D01*
X116747619Y-63578571D01*
X116709523Y-63654761D01*
X116671428Y-63692857D01*
X116595238Y-63730952D01*
X116290476Y-63730952D01*
X117509523Y-64111904D02*
X117052380Y-64111904D01*
X117280952Y-64111904D02*
X117280952Y-63311904D01*
X117204761Y-63426190D01*
X117128571Y-63502380D01*
X117052380Y-63540476D01*
X120931428Y-69561904D02*
X121464761Y-70361904D01*
X121464761Y-69561904D02*
X120931428Y-70361904D01*
X121731428Y-70323809D02*
X121845714Y-70361904D01*
X122036190Y-70361904D01*
X122112380Y-70323809D01*
X122150476Y-70285714D01*
X122188571Y-70209523D01*
X122188571Y-70133333D01*
X122150476Y-70057142D01*
X122112380Y-70019047D01*
X122036190Y-69980952D01*
X121883809Y-69942857D01*
X121807619Y-69904761D01*
X121769523Y-69866666D01*
X121731428Y-69790476D01*
X121731428Y-69714285D01*
X121769523Y-69638095D01*
X121807619Y-69600000D01*
X121883809Y-69561904D01*
X122074285Y-69561904D01*
X122188571Y-69600000D01*
X122950476Y-70361904D02*
X122493333Y-70361904D01*
X122721904Y-70361904D02*
X122721904Y-69561904D01*
X122645714Y-69676190D01*
X122569523Y-69752380D01*
X122493333Y-69790476D01*
X147966666Y-71611904D02*
X147700000Y-71230952D01*
X147509523Y-71611904D02*
X147509523Y-70811904D01*
X147814285Y-70811904D01*
X147890476Y-70850000D01*
X147928571Y-70888095D01*
X147966666Y-70964285D01*
X147966666Y-71078571D01*
X147928571Y-71154761D01*
X147890476Y-71192857D01*
X147814285Y-71230952D01*
X147509523Y-71230952D01*
X148309523Y-71611904D02*
X148309523Y-70811904D01*
X148614285Y-70811904D01*
X148690476Y-70850000D01*
X148728571Y-70888095D01*
X148766666Y-70964285D01*
X148766666Y-71078571D01*
X148728571Y-71154761D01*
X148690476Y-71192857D01*
X148614285Y-71230952D01*
X148309523Y-71230952D01*
X149071428Y-70888095D02*
X149109523Y-70850000D01*
X149185714Y-70811904D01*
X149376190Y-70811904D01*
X149452380Y-70850000D01*
X149490476Y-70888095D01*
X149528571Y-70964285D01*
X149528571Y-71040476D01*
X149490476Y-71154761D01*
X149033333Y-71611904D01*
X149528571Y-71611904D01*
X131366666Y-70035714D02*
X131328571Y-70073809D01*
X131214285Y-70111904D01*
X131138095Y-70111904D01*
X131023809Y-70073809D01*
X130947619Y-69997619D01*
X130909523Y-69921428D01*
X130871428Y-69769047D01*
X130871428Y-69654761D01*
X130909523Y-69502380D01*
X130947619Y-69426190D01*
X131023809Y-69350000D01*
X131138095Y-69311904D01*
X131214285Y-69311904D01*
X131328571Y-69350000D01*
X131366666Y-69388095D01*
X132052380Y-69578571D02*
X132052380Y-70111904D01*
X131861904Y-69273809D02*
X131671428Y-69845238D01*
X132166666Y-69845238D01*
X154202380Y-69061904D02*
X154735714Y-69861904D01*
X154735714Y-69061904D02*
X154202380Y-69861904D01*
X155040476Y-69861904D02*
X155040476Y-69061904D01*
X155345238Y-69061904D01*
X155421428Y-69100000D01*
X155459523Y-69138095D01*
X155497619Y-69214285D01*
X155497619Y-69328571D01*
X155459523Y-69404761D01*
X155421428Y-69442857D01*
X155345238Y-69480952D01*
X155040476Y-69480952D01*
X156183333Y-69328571D02*
X156183333Y-69861904D01*
X155992857Y-69023809D02*
X155802380Y-69595238D01*
X156297619Y-69595238D01*
X138702380Y-70811904D02*
X139235714Y-71611904D01*
X139235714Y-70811904D02*
X138702380Y-71611904D01*
X139540476Y-71611904D02*
X139540476Y-70811904D01*
X139845238Y-70811904D01*
X139921428Y-70850000D01*
X139959523Y-70888095D01*
X139997619Y-70964285D01*
X139997619Y-71078571D01*
X139959523Y-71154761D01*
X139921428Y-71192857D01*
X139845238Y-71230952D01*
X139540476Y-71230952D01*
X140264285Y-70811904D02*
X140759523Y-70811904D01*
X140492857Y-71116666D01*
X140607142Y-71116666D01*
X140683333Y-71154761D01*
X140721428Y-71192857D01*
X140759523Y-71269047D01*
X140759523Y-71459523D01*
X140721428Y-71535714D01*
X140683333Y-71573809D01*
X140607142Y-71611904D01*
X140378571Y-71611904D01*
X140302380Y-71573809D01*
X140264285Y-71535714D01*
X142452380Y-63561904D02*
X142985714Y-64361904D01*
X142985714Y-63561904D02*
X142452380Y-64361904D01*
X143290476Y-64361904D02*
X143290476Y-63561904D01*
X143595238Y-63561904D01*
X143671428Y-63600000D01*
X143709523Y-63638095D01*
X143747619Y-63714285D01*
X143747619Y-63828571D01*
X143709523Y-63904761D01*
X143671428Y-63942857D01*
X143595238Y-63980952D01*
X143290476Y-63980952D01*
X144052380Y-63638095D02*
X144090476Y-63600000D01*
X144166666Y-63561904D01*
X144357142Y-63561904D01*
X144433333Y-63600000D01*
X144471428Y-63638095D01*
X144509523Y-63714285D01*
X144509523Y-63790476D01*
X144471428Y-63904761D01*
X144014285Y-64361904D01*
X144509523Y-64361904D01*
X157352380Y-69061904D02*
X157885714Y-69861904D01*
X157885714Y-69061904D02*
X157352380Y-69861904D01*
X158152380Y-69138095D02*
X158190476Y-69100000D01*
X158266666Y-69061904D01*
X158457142Y-69061904D01*
X158533333Y-69100000D01*
X158571428Y-69138095D01*
X158609523Y-69214285D01*
X158609523Y-69290476D01*
X158571428Y-69404761D01*
X158114285Y-69861904D01*
X158609523Y-69861904D01*
X144102380Y-72561904D02*
X144635714Y-73361904D01*
X144635714Y-72561904D02*
X144102380Y-73361904D01*
X145359523Y-73361904D02*
X144902380Y-73361904D01*
X145130952Y-73361904D02*
X145130952Y-72561904D01*
X145054761Y-72676190D01*
X144978571Y-72752380D01*
X144902380Y-72790476D01*
X138047619Y-65811904D02*
X138314285Y-66611904D01*
X138580952Y-65811904D01*
X138733333Y-65811904D02*
X139190476Y-65811904D01*
X138961904Y-66611904D02*
X138961904Y-65811904D01*
X139876190Y-66611904D02*
X139419047Y-66611904D01*
X139647619Y-66611904D02*
X139647619Y-65811904D01*
X139571428Y-65926190D01*
X139495238Y-66002380D01*
X139419047Y-66040476D01*
X132216666Y-73361904D02*
X131950000Y-72980952D01*
X131759523Y-73361904D02*
X131759523Y-72561904D01*
X132064285Y-72561904D01*
X132140476Y-72600000D01*
X132178571Y-72638095D01*
X132216666Y-72714285D01*
X132216666Y-72828571D01*
X132178571Y-72904761D01*
X132140476Y-72942857D01*
X132064285Y-72980952D01*
X131759523Y-72980952D01*
X132559523Y-73361904D02*
X132559523Y-72561904D01*
X132864285Y-72561904D01*
X132940476Y-72600000D01*
X132978571Y-72638095D01*
X133016666Y-72714285D01*
X133016666Y-72828571D01*
X132978571Y-72904761D01*
X132940476Y-72942857D01*
X132864285Y-72980952D01*
X132559523Y-72980952D01*
X133778571Y-73361904D02*
X133321428Y-73361904D01*
X133550000Y-73361904D02*
X133550000Y-72561904D01*
X133473809Y-72676190D01*
X133397619Y-72752380D01*
X133321428Y-72790476D01*
X157866666Y-73361904D02*
X157600000Y-72980952D01*
X157409523Y-73361904D02*
X157409523Y-72561904D01*
X157714285Y-72561904D01*
X157790476Y-72600000D01*
X157828571Y-72638095D01*
X157866666Y-72714285D01*
X157866666Y-72828571D01*
X157828571Y-72904761D01*
X157790476Y-72942857D01*
X157714285Y-72980952D01*
X157409523Y-72980952D01*
X158552380Y-72561904D02*
X158400000Y-72561904D01*
X158323809Y-72600000D01*
X158285714Y-72638095D01*
X158209523Y-72752380D01*
X158171428Y-72904761D01*
X158171428Y-73209523D01*
X158209523Y-73285714D01*
X158247619Y-73323809D01*
X158323809Y-73361904D01*
X158476190Y-73361904D01*
X158552380Y-73323809D01*
X158590476Y-73285714D01*
X158628571Y-73209523D01*
X158628571Y-73019047D01*
X158590476Y-72942857D01*
X158552380Y-72904761D01*
X158476190Y-72866666D01*
X158323809Y-72866666D01*
X158247619Y-72904761D01*
X158209523Y-72942857D01*
X158171428Y-73019047D01*
X137116666Y-73111904D02*
X136850000Y-72730952D01*
X136659523Y-73111904D02*
X136659523Y-72311904D01*
X136964285Y-72311904D01*
X137040476Y-72350000D01*
X137078571Y-72388095D01*
X137116666Y-72464285D01*
X137116666Y-72578571D01*
X137078571Y-72654761D01*
X137040476Y-72692857D01*
X136964285Y-72730952D01*
X136659523Y-72730952D01*
X137802380Y-72578571D02*
X137802380Y-73111904D01*
X137611904Y-72273809D02*
X137421428Y-72845238D01*
X137916666Y-72845238D01*
X135616666Y-65111904D02*
X135350000Y-64730952D01*
X135159523Y-65111904D02*
X135159523Y-64311904D01*
X135464285Y-64311904D01*
X135540476Y-64350000D01*
X135578571Y-64388095D01*
X135616666Y-64464285D01*
X135616666Y-64578571D01*
X135578571Y-64654761D01*
X135540476Y-64692857D01*
X135464285Y-64730952D01*
X135159523Y-64730952D01*
X135883333Y-64311904D02*
X136378571Y-64311904D01*
X136111904Y-64616666D01*
X136226190Y-64616666D01*
X136302380Y-64654761D01*
X136340476Y-64692857D01*
X136378571Y-64769047D01*
X136378571Y-64959523D01*
X136340476Y-65035714D01*
X136302380Y-65073809D01*
X136226190Y-65111904D01*
X135997619Y-65111904D01*
X135921428Y-65073809D01*
X135883333Y-65035714D01*
X134366666Y-69111904D02*
X134100000Y-68730952D01*
X133909523Y-69111904D02*
X133909523Y-68311904D01*
X134214285Y-68311904D01*
X134290476Y-68350000D01*
X134328571Y-68388095D01*
X134366666Y-68464285D01*
X134366666Y-68578571D01*
X134328571Y-68654761D01*
X134290476Y-68692857D01*
X134214285Y-68730952D01*
X133909523Y-68730952D01*
X134671428Y-68388095D02*
X134709523Y-68350000D01*
X134785714Y-68311904D01*
X134976190Y-68311904D01*
X135052380Y-68350000D01*
X135090476Y-68388095D01*
X135128571Y-68464285D01*
X135128571Y-68540476D01*
X135090476Y-68654761D01*
X134633333Y-69111904D01*
X135128571Y-69111904D01*
X127866666Y-74111904D02*
X127600000Y-73730952D01*
X127409523Y-74111904D02*
X127409523Y-73311904D01*
X127714285Y-73311904D01*
X127790476Y-73350000D01*
X127828571Y-73388095D01*
X127866666Y-73464285D01*
X127866666Y-73578571D01*
X127828571Y-73654761D01*
X127790476Y-73692857D01*
X127714285Y-73730952D01*
X127409523Y-73730952D01*
X128628571Y-74111904D02*
X128171428Y-74111904D01*
X128400000Y-74111904D02*
X128400000Y-73311904D01*
X128323809Y-73426190D01*
X128247619Y-73502380D01*
X128171428Y-73540476D01*
X148366666Y-64611904D02*
X147985714Y-64611904D01*
X147985714Y-63811904D01*
X148557142Y-63811904D02*
X149052380Y-63811904D01*
X148785714Y-64116666D01*
X148900000Y-64116666D01*
X148976190Y-64154761D01*
X149014285Y-64192857D01*
X149052380Y-64269047D01*
X149052380Y-64459523D01*
X149014285Y-64535714D01*
X148976190Y-64573809D01*
X148900000Y-64611904D01*
X148671428Y-64611904D01*
X148595238Y-64573809D01*
X148557142Y-64535714D01*
X142366666Y-72611904D02*
X141985714Y-72611904D01*
X141985714Y-71811904D01*
X142595238Y-71888095D02*
X142633333Y-71850000D01*
X142709523Y-71811904D01*
X142900000Y-71811904D01*
X142976190Y-71850000D01*
X143014285Y-71888095D01*
X143052380Y-71964285D01*
X143052380Y-72040476D01*
X143014285Y-72154761D01*
X142557142Y-72611904D01*
X143052380Y-72611904D01*
X123116666Y-65111904D02*
X122735714Y-65111904D01*
X122735714Y-64311904D01*
X123802380Y-65111904D02*
X123345238Y-65111904D01*
X123573809Y-65111904D02*
X123573809Y-64311904D01*
X123497619Y-64426190D01*
X123421428Y-64502380D01*
X123345238Y-64540476D01*
X151616666Y-70035714D02*
X151578571Y-70073809D01*
X151464285Y-70111904D01*
X151388095Y-70111904D01*
X151273809Y-70073809D01*
X151197619Y-69997619D01*
X151159523Y-69921428D01*
X151121428Y-69769047D01*
X151121428Y-69654761D01*
X151159523Y-69502380D01*
X151197619Y-69426190D01*
X151273809Y-69350000D01*
X151388095Y-69311904D01*
X151464285Y-69311904D01*
X151578571Y-69350000D01*
X151616666Y-69388095D01*
X151883333Y-69311904D02*
X152378571Y-69311904D01*
X152111904Y-69616666D01*
X152226190Y-69616666D01*
X152302380Y-69654761D01*
X152340476Y-69692857D01*
X152378571Y-69769047D01*
X152378571Y-69959523D01*
X152340476Y-70035714D01*
X152302380Y-70073809D01*
X152226190Y-70111904D01*
X151997619Y-70111904D01*
X151921428Y-70073809D01*
X151883333Y-70035714D01*
X144366666Y-68035714D02*
X144328571Y-68073809D01*
X144214285Y-68111904D01*
X144138095Y-68111904D01*
X144023809Y-68073809D01*
X143947619Y-67997619D01*
X143909523Y-67921428D01*
X143871428Y-67769047D01*
X143871428Y-67654761D01*
X143909523Y-67502380D01*
X143947619Y-67426190D01*
X144023809Y-67350000D01*
X144138095Y-67311904D01*
X144214285Y-67311904D01*
X144328571Y-67350000D01*
X144366666Y-67388095D01*
X144671428Y-67388095D02*
X144709523Y-67350000D01*
X144785714Y-67311904D01*
X144976190Y-67311904D01*
X145052380Y-67350000D01*
X145090476Y-67388095D01*
X145128571Y-67464285D01*
X145128571Y-67540476D01*
X145090476Y-67654761D01*
X144633333Y-68111904D01*
X145128571Y-68111904D01*
X128116666Y-66535714D02*
X128078571Y-66573809D01*
X127964285Y-66611904D01*
X127888095Y-66611904D01*
X127773809Y-66573809D01*
X127697619Y-66497619D01*
X127659523Y-66421428D01*
X127621428Y-66269047D01*
X127621428Y-66154761D01*
X127659523Y-66002380D01*
X127697619Y-65926190D01*
X127773809Y-65850000D01*
X127888095Y-65811904D01*
X127964285Y-65811904D01*
X128078571Y-65850000D01*
X128116666Y-65888095D01*
X128878571Y-66611904D02*
X128421428Y-66611904D01*
X128650000Y-66611904D02*
X128650000Y-65811904D01*
X128573809Y-65926190D01*
X128497619Y-66002380D01*
X128421428Y-66040476D01*
M02*
