M48
; DRILL file {KiCad (5.1.4)-1} date 24.05.2020 22:22:14
; FORMAT={3:3/ absolute / metric / keep zeros}
; #@! TF.CreationDate,2020-05-24T22:22:14+03:00
; #@! TF.GenerationSoftware,Kicad,Pcbnew,(5.1.4)-1
; #@! TF.FileFunction,Plated,1,2,PTH
FMAT,2
METRIC
T1C0.400
T2C1.000
T3C1.600
%
G90
G05
T1
X130000Y-077750
X137250Y-077750
X147750Y-077750
X158000Y-077750
X168000Y-077750
X169000Y-072750
X175250Y-077750
X185750Y-077750
X196000Y-077750
T2
X181250Y-065750
X183790Y-065750
X116250Y-065750
X116250Y-068290
X116250Y-070830
X177750Y-073250
X177750Y-075790
X143250Y-065750
X145790Y-065750
X155250Y-071500
X155250Y-074040
X155250Y-076580
X193250Y-068960
X193250Y-071500
X193250Y-074040
X139750Y-073250
X139750Y-075790
T3
X198710Y-070210
X198710Y-075290
X201250Y-072750
X203790Y-070210
X203790Y-075290
X160710Y-071210
X160710Y-076290
X163250Y-073750
X165790Y-071210
X165790Y-076290
X119420Y-071750
X119420Y-076830
X121960Y-074290
X124500Y-071750
X124500Y-076830
T0
M30
