G04 #@! TF.GenerationSoftware,KiCad,Pcbnew,(5.1.4)-1*
G04 #@! TF.CreationDate,2020-06-21T20:29:22+03:00*
G04 #@! TF.ProjectId,naa_g,6e61615f-672e-46b6-9963-61645f706362,rev?*
G04 #@! TF.SameCoordinates,Original*
G04 #@! TF.FileFunction,Copper,L1,Top*
G04 #@! TF.FilePolarity,Positive*
%FSLAX46Y46*%
G04 Gerber Fmt 4.6, Leading zero omitted, Abs format (unit mm)*
G04 Created by KiCad (PCBNEW (5.1.4)-1) date 2020-06-21 20:29:22*
%MOMM*%
%LPD*%
G04 APERTURE LIST*
%ADD10C,0.100000*%
%ADD11O,0.500000X1.000000*%
%ADD12R,0.500000X1.250000*%
%ADD13R,2.000000X2.000000*%
%ADD14C,2.000000*%
%ADD15R,2.400000X2.400000*%
%ADD16C,2.400000*%
%ADD17R,1.700000X1.700000*%
%ADD18C,1.700000*%
%ADD19R,0.800000X1.000000*%
%ADD20R,1.000000X0.800000*%
%ADD21R,1.000000X1.500000*%
%ADD22R,1.500000X1.000000*%
%ADD23R,1.250000X0.500000*%
%ADD24R,0.800000X0.400000*%
%ADD25R,1.500000X1.500000*%
%ADD26C,0.800000*%
%ADD27C,0.250000*%
%ADD28C,0.200000*%
G04 APERTURE END LIST*
D10*
G36*
X125000000Y-80000000D02*
G01*
X126000000Y-80000000D01*
X126000000Y-81000000D01*
X125000000Y-81000000D01*
X125000000Y-80000000D01*
G37*
G36*
X108000000Y-88500000D02*
G01*
X107000000Y-88500000D01*
X107000000Y-87500000D01*
X108000000Y-87500000D01*
X108000000Y-88500000D01*
G37*
G36*
X125000000Y-77750000D02*
G01*
X126000000Y-77750000D01*
X126000000Y-78750000D01*
X125000000Y-78750000D01*
X125000000Y-77750000D01*
G37*
D11*
X126000000Y-80500000D03*
X125000000Y-80500000D03*
D12*
X119500000Y-79750000D03*
X121250000Y-79750000D03*
D13*
X99500000Y-79500000D03*
D14*
X99500000Y-74500000D03*
D15*
X102540000Y-94040000D03*
X97460000Y-94040000D03*
D16*
X100000000Y-91500000D03*
D15*
X102540000Y-88960000D03*
X97460000Y-88960000D03*
D17*
X107750000Y-82250000D03*
D18*
X107750000Y-84790000D03*
D17*
X120500000Y-72750000D03*
D18*
X123040000Y-72750000D03*
D11*
X107000000Y-88000000D03*
X108000000Y-88000000D03*
X126000000Y-78250000D03*
X125000000Y-78250000D03*
D19*
X111500000Y-91750000D03*
X112500000Y-94250000D03*
X110500000Y-94250000D03*
D20*
X107500000Y-73250000D03*
X110000000Y-72250000D03*
X110000000Y-74250000D03*
X110000000Y-77750000D03*
X107500000Y-78750000D03*
X107500000Y-76750000D03*
D21*
X122400000Y-92500000D03*
X123300000Y-89500000D03*
X121500000Y-89500000D03*
D22*
X115250000Y-94400000D03*
X118250000Y-95300000D03*
X118250000Y-93500000D03*
D21*
X111100000Y-85000000D03*
X112000000Y-82000000D03*
X110200000Y-82000000D03*
D22*
X112250000Y-73250000D03*
X115250000Y-74150000D03*
X115250000Y-72350000D03*
X112250000Y-77750000D03*
X115250000Y-78650000D03*
X115250000Y-76850000D03*
D23*
X125500000Y-75500000D03*
X125500000Y-73750000D03*
D21*
X112250000Y-88250000D03*
X110250000Y-88250000D03*
X121500000Y-82750000D03*
X123500000Y-82750000D03*
D24*
X119100000Y-75850000D03*
X121400000Y-75850000D03*
X119100000Y-76500000D03*
X121400000Y-76500000D03*
X119100000Y-77150000D03*
X121400000Y-77150000D03*
D23*
X106000000Y-93500000D03*
X106000000Y-91750000D03*
X108250000Y-91750000D03*
X108250000Y-93500000D03*
D12*
X121500000Y-85750000D03*
X123250000Y-85750000D03*
D25*
X119000000Y-87250000D03*
X114500000Y-87250000D03*
D12*
X117750000Y-90750000D03*
X116000000Y-90750000D03*
D23*
X117750000Y-74000000D03*
X117750000Y-72250000D03*
D25*
X114500000Y-82750000D03*
X119000000Y-82750000D03*
D12*
X102500000Y-85000000D03*
X100750000Y-85000000D03*
D26*
X103750000Y-85000000D03*
X118000000Y-79500000D03*
X114500000Y-80250000D03*
X126000000Y-82500000D03*
X122750000Y-79750000D03*
X122750000Y-76250000D03*
X116500000Y-71000000D03*
X113500000Y-85250000D03*
X124250000Y-85750000D03*
X108250000Y-94750000D03*
X113750000Y-94500000D03*
X106000000Y-89750000D03*
X127000000Y-75500000D03*
X122000000Y-74750000D03*
X118750000Y-78000000D03*
X106500000Y-78750000D03*
X124000000Y-78000000D03*
X110500000Y-95500000D03*
X120250000Y-95250000D03*
D27*
X119100000Y-76500000D02*
X118250000Y-76500000D01*
X118250000Y-76500000D02*
X117750000Y-77000000D01*
X118500000Y-79750000D02*
X119500000Y-79750000D01*
X118250000Y-79750000D02*
X118000000Y-79500000D01*
X119500000Y-79750000D02*
X118250000Y-79750000D01*
X111500000Y-91750000D02*
X111500000Y-91000000D01*
X108250000Y-91000000D02*
X108250000Y-91750000D01*
X102500000Y-85000000D02*
X103750000Y-85000000D01*
X117750000Y-78684315D02*
X117750000Y-78250000D01*
X118000000Y-78934315D02*
X117750000Y-78684315D01*
X118000000Y-79500000D02*
X118000000Y-78934315D01*
X117750000Y-77000000D02*
X117750000Y-78250000D01*
X117750000Y-78250000D02*
X117750000Y-78500000D01*
X104750000Y-86000000D02*
X103750000Y-85000000D01*
X104750000Y-88500000D02*
X104750000Y-86000000D01*
X105250000Y-89000000D02*
X104750000Y-88500000D01*
X111500000Y-91750000D02*
X111500000Y-90750000D01*
X111500000Y-90750000D02*
X111250000Y-90500000D01*
X111250000Y-90500000D02*
X108500000Y-90500000D01*
X107000000Y-89000000D02*
X108500000Y-90500000D01*
X106250000Y-89000000D02*
X107000000Y-89000000D01*
X106250000Y-89000000D02*
X105250000Y-89000000D01*
X106750000Y-89000000D02*
X106250000Y-89000000D01*
X108250000Y-90750000D02*
X108500000Y-90500000D01*
X108250000Y-91750000D02*
X108250000Y-90750000D01*
X123300000Y-89500000D02*
X123300000Y-88050000D01*
X99750000Y-85000000D02*
X100750000Y-85000000D01*
X99500000Y-84750000D02*
X99750000Y-85000000D01*
X121250000Y-79750000D02*
X122750000Y-79750000D01*
X121400000Y-76500000D02*
X122500000Y-76500000D01*
X122500000Y-76500000D02*
X122750000Y-76250000D01*
X117750000Y-72250000D02*
X117750000Y-71250000D01*
X117750000Y-71250000D02*
X117500000Y-71000000D01*
X117500000Y-71000000D02*
X116500000Y-71000000D01*
X111100000Y-85000000D02*
X111100000Y-86100000D01*
X111100000Y-86100000D02*
X111250000Y-86250000D01*
X111250000Y-86250000D02*
X113250000Y-86250000D01*
X113250000Y-86250000D02*
X113500000Y-86000000D01*
X113500000Y-86000000D02*
X113500000Y-85250000D01*
X123250000Y-85750000D02*
X124250000Y-85750000D01*
X108250000Y-93500000D02*
X108250000Y-94750000D01*
X115250000Y-94400000D02*
X114100000Y-94400000D01*
X114100000Y-94400000D02*
X114000000Y-94500000D01*
X113850000Y-94400000D02*
X113750000Y-94500000D01*
X115250000Y-94400000D02*
X113850000Y-94400000D01*
X99500000Y-79500000D02*
X99500000Y-81750000D01*
X99500000Y-81500000D02*
X99500000Y-81750000D01*
X99500000Y-83250000D02*
X99500000Y-84750000D01*
X99500000Y-81750000D02*
X99500000Y-83250000D01*
X106000000Y-91750000D02*
X106000000Y-89750000D01*
X125500000Y-76000000D02*
X125750000Y-76250000D01*
X125500000Y-75500000D02*
X125500000Y-76000000D01*
X125750000Y-76250000D02*
X126250000Y-76250000D01*
X126250000Y-76250000D02*
X126750000Y-76250000D01*
X126750000Y-76250000D02*
X127000000Y-76000000D01*
X127000000Y-76000000D02*
X127000000Y-75500000D01*
X116250000Y-74150000D02*
X115250000Y-74150000D01*
X116500000Y-74400000D02*
X116250000Y-74150000D01*
X116250000Y-78650000D02*
X116500000Y-78400000D01*
X115250000Y-78650000D02*
X116250000Y-78650000D01*
X116500000Y-75250000D02*
X116500000Y-74400000D01*
X116500000Y-78400000D02*
X116500000Y-75250000D01*
X117750000Y-74750000D02*
X117750000Y-74000000D01*
X117500000Y-75000000D02*
X117750000Y-74750000D01*
X116500000Y-75250000D02*
X116750000Y-75000000D01*
X116500000Y-74750000D02*
X116750000Y-75000000D01*
X116500000Y-74400000D02*
X116500000Y-74750000D01*
X116750000Y-75000000D02*
X117500000Y-75000000D01*
X119400000Y-72750000D02*
X120500000Y-72750000D01*
X119000000Y-73150000D02*
X119400000Y-72750000D01*
X119000000Y-74500000D02*
X119000000Y-73150000D01*
X118500000Y-75000000D02*
X119000000Y-74500000D01*
X118000000Y-75000000D02*
X118500000Y-75000000D01*
X117750000Y-74750000D02*
X118000000Y-75000000D01*
X112000000Y-81000000D02*
X112000000Y-82000000D01*
X113250000Y-81000000D02*
X113000000Y-80750000D01*
X113000000Y-80750000D02*
X112250000Y-80750000D01*
X112250000Y-80750000D02*
X112000000Y-81000000D01*
X111750000Y-80750000D02*
X112000000Y-81000000D01*
X108150000Y-80750000D02*
X111750000Y-80750000D01*
X107750000Y-82250000D02*
X107750000Y-81150000D01*
X107750000Y-81150000D02*
X108150000Y-80750000D01*
X114500000Y-82750000D02*
X113500000Y-82750000D01*
X113250000Y-82500000D02*
X113250000Y-81750000D01*
X113500000Y-82750000D02*
X113250000Y-82500000D01*
X113250000Y-81750000D02*
X113250000Y-81000000D01*
X106500000Y-88000000D02*
X107000000Y-88000000D01*
X106250000Y-87750000D02*
X106500000Y-88000000D01*
X106250000Y-82500000D02*
X106250000Y-87750000D01*
X107750000Y-82250000D02*
X106500000Y-82250000D01*
X106500000Y-82250000D02*
X106250000Y-82500000D01*
X119000000Y-82750000D02*
X121500000Y-82750000D01*
X109000000Y-86040000D02*
X107750000Y-84790000D01*
X116000000Y-90750000D02*
X115250000Y-90750000D01*
X115250000Y-90750000D02*
X114250000Y-89750000D01*
X109250000Y-89750000D02*
X109000000Y-89500000D01*
X114250000Y-89750000D02*
X109250000Y-89750000D01*
X109000000Y-89250000D02*
X109000000Y-88500000D01*
X109000000Y-89500000D02*
X109000000Y-89250000D01*
X109250000Y-88250000D02*
X110250000Y-88250000D01*
X109000000Y-88500000D02*
X109250000Y-88250000D01*
X109000000Y-88000000D02*
X109250000Y-88250000D01*
X109000000Y-87250000D02*
X109000000Y-88000000D01*
X109000000Y-87250000D02*
X109000000Y-86040000D01*
X124500000Y-82750000D02*
X123500000Y-82750000D01*
X124750000Y-81750000D02*
X124750000Y-82500000D01*
X124750000Y-82500000D02*
X124500000Y-82750000D01*
X124250000Y-81250000D02*
X124750000Y-81750000D01*
X125000000Y-80500000D02*
X123750000Y-80500000D01*
X123750000Y-80500000D02*
X123500000Y-80750000D01*
X123500000Y-80750000D02*
X123500000Y-81000000D01*
X123250000Y-81250000D02*
X123500000Y-81000000D01*
X123750000Y-81250000D02*
X123500000Y-81000000D01*
X123750000Y-81250000D02*
X124250000Y-81250000D01*
X123250000Y-81250000D02*
X123750000Y-81250000D01*
X117900000Y-75850000D02*
X119100000Y-75850000D01*
X117250000Y-76500000D02*
X117900000Y-75850000D01*
X117250000Y-80500000D02*
X117250000Y-76500000D01*
X118000000Y-81250000D02*
X117250000Y-80500000D01*
X123250000Y-81250000D02*
X118000000Y-81250000D01*
X119100000Y-77150000D02*
X118350000Y-77150000D01*
X118350000Y-77150000D02*
X118250000Y-77250000D01*
X118250000Y-77250000D02*
X118250000Y-77750000D01*
X118250000Y-77750000D02*
X118500000Y-78000000D01*
X118500000Y-78000000D02*
X118750000Y-78000000D01*
X121400000Y-75850000D02*
X122050000Y-75850000D01*
X107500000Y-78750000D02*
X106750000Y-78750000D01*
X106750000Y-78750000D02*
X106500000Y-78500000D01*
X106500000Y-78500000D02*
X106500000Y-77000000D01*
X106750000Y-76750000D02*
X107500000Y-76750000D01*
X106500000Y-77000000D02*
X106750000Y-76750000D01*
X107500000Y-73250000D02*
X106750000Y-73250000D01*
X106750000Y-73250000D02*
X106500000Y-73500000D01*
X106500000Y-76500000D02*
X106750000Y-76750000D01*
X106500000Y-73500000D02*
X106500000Y-76500000D01*
X122325000Y-75075000D02*
X122250000Y-75000000D01*
X122325000Y-75575000D02*
X122325000Y-75075000D01*
X122250000Y-75000000D02*
X122000000Y-74750000D01*
X122050000Y-75850000D02*
X122325000Y-75575000D01*
X125000000Y-78250000D02*
X124250000Y-78250000D01*
X124250000Y-78250000D02*
X124000000Y-78000000D01*
X123040000Y-72750000D02*
X125000000Y-72750000D01*
X125500000Y-73250000D02*
X125500000Y-73750000D01*
X125000000Y-72750000D02*
X125500000Y-73250000D01*
X123040000Y-74210000D02*
X123040000Y-72750000D01*
X123040000Y-74790000D02*
X123040000Y-74210000D01*
X123750000Y-75500000D02*
X123040000Y-74790000D01*
X123750000Y-76750000D02*
X123750000Y-75500000D01*
X123350000Y-77150000D02*
X123750000Y-76750000D01*
X121400000Y-77150000D02*
X123350000Y-77150000D01*
X110000000Y-77750000D02*
X110750000Y-77750000D01*
X110750000Y-77750000D02*
X112250000Y-77750000D01*
X110000000Y-74250000D02*
X110750000Y-74250000D01*
X110750000Y-74250000D02*
X111000000Y-74000000D01*
X111000000Y-74000000D02*
X111000000Y-73500000D01*
X111250000Y-73250000D02*
X112250000Y-73250000D01*
X111000000Y-73500000D02*
X111250000Y-73250000D01*
X110000000Y-72250000D02*
X110750000Y-72250000D01*
X110750000Y-72250000D02*
X111000000Y-72500000D01*
X111000000Y-73000000D02*
X111250000Y-73250000D01*
X111000000Y-72500000D02*
X111000000Y-73000000D01*
X111000000Y-73500000D02*
X111000000Y-73000000D01*
X120000000Y-87250000D02*
X119000000Y-87250000D01*
X117750000Y-90750000D02*
X120000000Y-90750000D01*
X120250000Y-87500000D02*
X120250000Y-90500000D01*
X120000000Y-90750000D02*
X120250000Y-90500000D01*
X120250000Y-87500000D02*
X120000000Y-87250000D01*
X120250000Y-86250000D02*
X120750000Y-85750000D01*
X120000000Y-87250000D02*
X120250000Y-87000000D01*
X120250000Y-87000000D02*
X120250000Y-86250000D01*
X120750000Y-85750000D02*
X121500000Y-85750000D01*
X122400000Y-94350000D02*
X122400000Y-92500000D01*
X121450000Y-95300000D02*
X122400000Y-94350000D01*
X120250000Y-95100000D02*
X120050000Y-95300000D01*
X120250000Y-91000000D02*
X120250000Y-95100000D01*
X120000000Y-90750000D02*
X120250000Y-91000000D01*
X118250000Y-95300000D02*
X120050000Y-95300000D01*
X120450000Y-95300000D02*
X120250000Y-95100000D01*
X121200000Y-95300000D02*
X120450000Y-95300000D01*
X121200000Y-95300000D02*
X121450000Y-95300000D01*
X120050000Y-95300000D02*
X121200000Y-95300000D01*
X110500000Y-94250000D02*
X110500000Y-95500000D01*
X112250000Y-88250000D02*
X113000000Y-88250000D01*
X113000000Y-88250000D02*
X113250000Y-88000000D01*
X113250000Y-88000000D02*
X113250000Y-87500000D01*
X113500000Y-87250000D02*
X114500000Y-87250000D01*
X113250000Y-87500000D02*
X113500000Y-87250000D01*
X112500000Y-95250000D02*
X112500000Y-94250000D01*
X111500000Y-96250000D02*
X112500000Y-95250000D01*
X107000000Y-96250000D02*
X111500000Y-96250000D01*
X106000000Y-95250000D02*
X107000000Y-96250000D01*
X106000000Y-93500000D02*
X106000000Y-95250000D01*
X100000000Y-91500000D02*
X104000000Y-91500000D01*
X104000000Y-91500000D02*
X104500000Y-92000000D01*
X104500000Y-92000000D02*
X104500000Y-95250000D01*
X104500000Y-95250000D02*
X104750000Y-95500000D01*
X105750000Y-95500000D02*
X106000000Y-95250000D01*
X104750000Y-95500000D02*
X105750000Y-95500000D01*
D28*
G36*
X128400000Y-96400000D02*
G01*
X112021750Y-96400000D01*
X112819377Y-95602375D01*
X112837501Y-95587501D01*
X112896859Y-95515173D01*
X112940966Y-95432654D01*
X112968127Y-95343116D01*
X112975000Y-95273332D01*
X112975000Y-95273331D01*
X112977298Y-95250000D01*
X112975000Y-95226668D01*
X112975000Y-95092997D01*
X113034587Y-95074922D01*
X113095390Y-95042422D01*
X113148685Y-94998685D01*
X113166604Y-94976850D01*
X113167437Y-94978097D01*
X113271903Y-95082563D01*
X113394742Y-95164641D01*
X113531233Y-95221178D01*
X113676131Y-95250000D01*
X113823869Y-95250000D01*
X113968767Y-95221178D01*
X114105258Y-95164641D01*
X114208046Y-95095960D01*
X114251315Y-95148685D01*
X114304610Y-95192422D01*
X114365413Y-95224922D01*
X114431388Y-95244935D01*
X114500000Y-95251693D01*
X115150000Y-95251693D01*
X115150000Y-96000000D01*
X115151921Y-96019509D01*
X115157612Y-96038268D01*
X115166853Y-96055557D01*
X115179289Y-96070711D01*
X115194443Y-96083147D01*
X115211732Y-96092388D01*
X115230491Y-96098079D01*
X115250000Y-96100000D01*
X117318787Y-96100000D01*
X117365413Y-96124922D01*
X117431388Y-96144935D01*
X117500000Y-96151693D01*
X119000000Y-96151693D01*
X119068612Y-96144935D01*
X119134587Y-96124922D01*
X119195390Y-96092422D01*
X119248685Y-96048685D01*
X119292422Y-95995390D01*
X119324922Y-95934587D01*
X119344935Y-95868612D01*
X119351693Y-95800000D01*
X119351693Y-95775000D01*
X119714340Y-95775000D01*
X119771903Y-95832563D01*
X119894742Y-95914641D01*
X120031233Y-95971178D01*
X120176131Y-96000000D01*
X120323869Y-96000000D01*
X120468767Y-95971178D01*
X120605258Y-95914641D01*
X120728097Y-95832563D01*
X120785660Y-95775000D01*
X121426668Y-95775000D01*
X121450000Y-95777298D01*
X121473332Y-95775000D01*
X121543116Y-95768127D01*
X121632654Y-95740966D01*
X121715173Y-95696859D01*
X121787501Y-95637501D01*
X121802384Y-95619366D01*
X122719377Y-94702375D01*
X122737501Y-94687501D01*
X122796859Y-94615173D01*
X122830992Y-94551315D01*
X122840966Y-94532655D01*
X122868127Y-94443116D01*
X122877298Y-94350000D01*
X122875000Y-94326668D01*
X122875000Y-93601693D01*
X122900000Y-93601693D01*
X122968612Y-93594935D01*
X123034587Y-93574922D01*
X123095390Y-93542422D01*
X123148685Y-93498685D01*
X123192422Y-93445390D01*
X123224922Y-93384587D01*
X123244935Y-93318612D01*
X123251693Y-93250000D01*
X123251693Y-92600000D01*
X124000000Y-92600000D01*
X124019509Y-92598079D01*
X124038268Y-92592388D01*
X124055557Y-92583147D01*
X124070711Y-92570711D01*
X124083147Y-92555557D01*
X124092388Y-92538268D01*
X124098079Y-92519509D01*
X124100000Y-92500000D01*
X124100000Y-90713285D01*
X124107042Y-90709521D01*
X124190790Y-90640790D01*
X124259521Y-90557042D01*
X124310592Y-90461494D01*
X124342042Y-90357819D01*
X124352661Y-90250000D01*
X124350000Y-89662500D01*
X124212500Y-89525000D01*
X124100000Y-89525000D01*
X124100000Y-89475000D01*
X124212500Y-89475000D01*
X124350000Y-89337500D01*
X124352661Y-88750000D01*
X124342042Y-88642181D01*
X124310592Y-88538506D01*
X124259521Y-88442958D01*
X124190790Y-88359210D01*
X124107042Y-88290479D01*
X124011494Y-88239408D01*
X123907819Y-88207958D01*
X123800000Y-88197339D01*
X123462500Y-88200000D01*
X123325000Y-88337500D01*
X123325000Y-89150000D01*
X123275000Y-89150000D01*
X123275000Y-88337500D01*
X123137500Y-88200000D01*
X122800000Y-88197339D01*
X122692181Y-88207958D01*
X122588506Y-88239408D01*
X122492958Y-88290479D01*
X122409210Y-88359210D01*
X122340479Y-88442958D01*
X122289408Y-88538506D01*
X122286655Y-88547582D01*
X122248685Y-88501315D01*
X122195390Y-88457578D01*
X122134587Y-88425078D01*
X122068612Y-88405065D01*
X122000000Y-88398307D01*
X121000000Y-88398307D01*
X120931388Y-88405065D01*
X120865413Y-88425078D01*
X120804610Y-88457578D01*
X120751315Y-88501315D01*
X120725000Y-88533381D01*
X120725000Y-87523331D01*
X120727298Y-87499999D01*
X120718127Y-87406883D01*
X120706601Y-87368888D01*
X120690966Y-87317346D01*
X120654969Y-87250000D01*
X120690966Y-87182654D01*
X120718127Y-87093116D01*
X120725000Y-87023332D01*
X120725000Y-87023331D01*
X120727298Y-87000001D01*
X120725000Y-86976669D01*
X120725000Y-86446751D01*
X120898307Y-86273444D01*
X120898307Y-86375000D01*
X120905065Y-86443612D01*
X120925078Y-86509587D01*
X120957578Y-86570390D01*
X121001315Y-86623685D01*
X121054610Y-86667422D01*
X121115413Y-86699922D01*
X121181388Y-86719935D01*
X121250000Y-86726693D01*
X121650000Y-86726693D01*
X121650000Y-86750000D01*
X121651921Y-86769509D01*
X121657612Y-86788268D01*
X121666853Y-86805557D01*
X121679289Y-86820711D01*
X121694443Y-86833147D01*
X121711732Y-86842388D01*
X121730491Y-86848079D01*
X121750000Y-86850000D01*
X123000000Y-86850000D01*
X123019509Y-86848079D01*
X123038268Y-86842388D01*
X123055557Y-86833147D01*
X123070711Y-86820711D01*
X123083147Y-86805557D01*
X123092388Y-86788268D01*
X123098079Y-86769509D01*
X123100000Y-86750000D01*
X123100000Y-86726693D01*
X123500000Y-86726693D01*
X123568612Y-86719935D01*
X123634587Y-86699922D01*
X123695390Y-86667422D01*
X123748685Y-86623685D01*
X123792422Y-86570390D01*
X123824922Y-86509587D01*
X123844935Y-86443612D01*
X123850688Y-86385205D01*
X123894742Y-86414641D01*
X124031233Y-86471178D01*
X124176131Y-86500000D01*
X124323869Y-86500000D01*
X124468767Y-86471178D01*
X124605258Y-86414641D01*
X124728097Y-86332563D01*
X124832563Y-86228097D01*
X124914641Y-86105258D01*
X124971178Y-85968767D01*
X125000000Y-85823869D01*
X125000000Y-85676131D01*
X124971178Y-85531233D01*
X124914641Y-85394742D01*
X124832563Y-85271903D01*
X124728097Y-85167437D01*
X124605258Y-85085359D01*
X124468767Y-85028822D01*
X124323869Y-85000000D01*
X124176131Y-85000000D01*
X124031233Y-85028822D01*
X123894742Y-85085359D01*
X123850688Y-85114795D01*
X123844935Y-85056388D01*
X123824922Y-84990413D01*
X123792422Y-84929610D01*
X123748685Y-84876315D01*
X123695390Y-84832578D01*
X123634587Y-84800078D01*
X123568612Y-84780065D01*
X123500000Y-84773307D01*
X123100000Y-84773307D01*
X123100000Y-84750000D01*
X123098079Y-84730491D01*
X123092388Y-84711732D01*
X123083147Y-84694443D01*
X123070711Y-84679289D01*
X123055557Y-84666853D01*
X123038268Y-84657612D01*
X123019509Y-84651921D01*
X123000000Y-84650000D01*
X121750000Y-84650000D01*
X121730491Y-84651921D01*
X121711732Y-84657612D01*
X121694443Y-84666853D01*
X121679289Y-84679289D01*
X121666853Y-84694443D01*
X121657612Y-84711732D01*
X121651921Y-84730491D01*
X121650000Y-84750000D01*
X121650000Y-84773307D01*
X121250000Y-84773307D01*
X121181388Y-84780065D01*
X121115413Y-84800078D01*
X121054610Y-84832578D01*
X121001315Y-84876315D01*
X120957578Y-84929610D01*
X120925078Y-84990413D01*
X120905065Y-85056388D01*
X120898307Y-85125000D01*
X120898307Y-85275000D01*
X120773332Y-85275000D01*
X120750000Y-85272702D01*
X120656884Y-85281873D01*
X120567345Y-85309034D01*
X120539591Y-85323869D01*
X120484827Y-85353141D01*
X120412499Y-85412499D01*
X120397625Y-85430624D01*
X119930629Y-85897621D01*
X119912500Y-85912499D01*
X119853142Y-85984827D01*
X119823652Y-86040000D01*
X119809035Y-86067346D01*
X119783475Y-86151604D01*
X119750000Y-86148307D01*
X119100000Y-86148307D01*
X119100000Y-85750000D01*
X119098079Y-85730491D01*
X119092388Y-85711732D01*
X119083147Y-85694443D01*
X119070711Y-85679289D01*
X119055557Y-85666853D01*
X119038268Y-85657612D01*
X119019509Y-85651921D01*
X119000000Y-85650000D01*
X114500000Y-85650000D01*
X114480491Y-85651921D01*
X114461732Y-85657612D01*
X114444443Y-85666853D01*
X114429289Y-85679289D01*
X114416853Y-85694443D01*
X114407612Y-85711732D01*
X114401921Y-85730491D01*
X114400000Y-85750000D01*
X114400000Y-86148307D01*
X113951385Y-86148307D01*
X113966039Y-86100000D01*
X113968127Y-86093117D01*
X113977298Y-86000001D01*
X113975000Y-85976669D01*
X113975000Y-85834632D01*
X113978097Y-85832563D01*
X114082563Y-85728097D01*
X114164641Y-85605258D01*
X114221178Y-85468767D01*
X114250000Y-85323869D01*
X114250000Y-85176131D01*
X114221178Y-85031233D01*
X114164641Y-84894742D01*
X114082563Y-84771903D01*
X113978097Y-84667437D01*
X113855258Y-84585359D01*
X113718767Y-84528822D01*
X113573869Y-84500000D01*
X113426131Y-84500000D01*
X113281233Y-84528822D01*
X113144742Y-84585359D01*
X113021903Y-84667437D01*
X112917437Y-84771903D01*
X112850000Y-84872830D01*
X112850000Y-82767189D01*
X112850656Y-82760525D01*
X112853141Y-82765173D01*
X112912499Y-82837501D01*
X112930634Y-82852384D01*
X113147616Y-83069366D01*
X113162499Y-83087501D01*
X113234827Y-83146859D01*
X113317346Y-83190966D01*
X113379722Y-83209888D01*
X113398307Y-83215525D01*
X113398307Y-83500000D01*
X113405065Y-83568612D01*
X113425078Y-83634587D01*
X113457578Y-83695390D01*
X113501315Y-83748685D01*
X113554610Y-83792422D01*
X113615413Y-83824922D01*
X113681388Y-83844935D01*
X113750000Y-83851693D01*
X114400000Y-83851693D01*
X114400000Y-84250000D01*
X114401921Y-84269509D01*
X114407612Y-84288268D01*
X114416853Y-84305557D01*
X114429289Y-84320711D01*
X114444443Y-84333147D01*
X114461732Y-84342388D01*
X114480491Y-84348079D01*
X114500000Y-84350000D01*
X119000000Y-84350000D01*
X119019509Y-84348079D01*
X119038268Y-84342388D01*
X119055557Y-84333147D01*
X119070711Y-84320711D01*
X119083147Y-84305557D01*
X119092388Y-84288268D01*
X119098079Y-84269509D01*
X119100000Y-84250000D01*
X119100000Y-83851693D01*
X119750000Y-83851693D01*
X119818612Y-83844935D01*
X119884587Y-83824922D01*
X119945390Y-83792422D01*
X119998685Y-83748685D01*
X120042422Y-83695390D01*
X120074922Y-83634587D01*
X120094935Y-83568612D01*
X120101693Y-83500000D01*
X120101693Y-83225000D01*
X120648307Y-83225000D01*
X120648307Y-83500000D01*
X120655065Y-83568612D01*
X120675078Y-83634587D01*
X120707578Y-83695390D01*
X120751315Y-83748685D01*
X120804610Y-83792422D01*
X120865413Y-83824922D01*
X120931388Y-83844935D01*
X121000000Y-83851693D01*
X122000000Y-83851693D01*
X122017189Y-83850000D01*
X122982811Y-83850000D01*
X123000000Y-83851693D01*
X124000000Y-83851693D01*
X124068612Y-83844935D01*
X124134587Y-83824922D01*
X124195390Y-83792422D01*
X124248685Y-83748685D01*
X124292422Y-83695390D01*
X124324922Y-83634587D01*
X124344935Y-83568612D01*
X124351693Y-83500000D01*
X124351693Y-83225000D01*
X124476668Y-83225000D01*
X124500000Y-83227298D01*
X124523332Y-83225000D01*
X124593116Y-83218127D01*
X124682654Y-83190966D01*
X124765173Y-83146859D01*
X124837501Y-83087501D01*
X124852384Y-83069366D01*
X125069366Y-82852384D01*
X125087501Y-82837501D01*
X125146859Y-82765173D01*
X125190966Y-82682654D01*
X125218127Y-82593116D01*
X125225000Y-82523332D01*
X125225000Y-82523331D01*
X125227298Y-82500001D01*
X125225000Y-82476668D01*
X125225000Y-81773331D01*
X125227298Y-81750000D01*
X125218127Y-81656884D01*
X125190966Y-81567345D01*
X125163079Y-81515173D01*
X125146859Y-81484827D01*
X125087501Y-81412499D01*
X125069376Y-81397625D01*
X125022444Y-81350692D01*
X125029474Y-81350000D01*
X125970526Y-81350000D01*
X126000000Y-81352903D01*
X126117621Y-81341318D01*
X126230721Y-81307010D01*
X126334955Y-81251296D01*
X126426317Y-81176317D01*
X126501296Y-81084955D01*
X126557010Y-80980721D01*
X126591318Y-80867621D01*
X126600000Y-80779474D01*
X126600000Y-80220526D01*
X126591318Y-80132379D01*
X126557010Y-80019279D01*
X126501296Y-79915045D01*
X126426317Y-79823683D01*
X126334954Y-79748704D01*
X126230720Y-79692990D01*
X126117620Y-79658682D01*
X126000000Y-79647097D01*
X125970526Y-79650000D01*
X125029474Y-79650000D01*
X125000000Y-79647097D01*
X124882379Y-79658682D01*
X124769279Y-79692990D01*
X124665045Y-79748704D01*
X124573683Y-79823683D01*
X124498704Y-79915046D01*
X124442990Y-80019280D01*
X124441255Y-80025000D01*
X123773331Y-80025000D01*
X123749999Y-80022702D01*
X123656883Y-80031873D01*
X123629722Y-80040112D01*
X123567346Y-80059034D01*
X123484827Y-80103141D01*
X123412499Y-80162499D01*
X123397616Y-80180634D01*
X123180634Y-80397616D01*
X123162499Y-80412499D01*
X123103141Y-80484827D01*
X123059034Y-80567347D01*
X123051217Y-80593116D01*
X123031873Y-80656884D01*
X123022702Y-80750000D01*
X123025000Y-80773332D01*
X123025000Y-80775000D01*
X121096413Y-80775000D01*
X121098079Y-80769509D01*
X121100000Y-80750000D01*
X121100000Y-80726693D01*
X121500000Y-80726693D01*
X121568612Y-80719935D01*
X121634587Y-80699922D01*
X121695390Y-80667422D01*
X121748685Y-80623685D01*
X121792422Y-80570390D01*
X121824922Y-80509587D01*
X121844935Y-80443612D01*
X121851693Y-80375000D01*
X121851693Y-80225000D01*
X122165368Y-80225000D01*
X122167437Y-80228097D01*
X122271903Y-80332563D01*
X122394742Y-80414641D01*
X122531233Y-80471178D01*
X122676131Y-80500000D01*
X122823869Y-80500000D01*
X122968767Y-80471178D01*
X123105258Y-80414641D01*
X123228097Y-80332563D01*
X123332563Y-80228097D01*
X123414641Y-80105258D01*
X123471178Y-79968767D01*
X123500000Y-79823869D01*
X123500000Y-79676131D01*
X123471178Y-79531233D01*
X123414641Y-79394742D01*
X123332563Y-79271903D01*
X123228097Y-79167437D01*
X123105258Y-79085359D01*
X122968767Y-79028822D01*
X122823869Y-79000000D01*
X122676131Y-79000000D01*
X122531233Y-79028822D01*
X122394742Y-79085359D01*
X122271903Y-79167437D01*
X122167437Y-79271903D01*
X122165368Y-79275000D01*
X121851693Y-79275000D01*
X121851693Y-79125000D01*
X121844935Y-79056388D01*
X121824922Y-78990413D01*
X121792422Y-78929610D01*
X121748685Y-78876315D01*
X121695390Y-78832578D01*
X121634587Y-78800078D01*
X121568612Y-78780065D01*
X121500000Y-78773307D01*
X121100000Y-78773307D01*
X121100000Y-78750000D01*
X121098079Y-78730491D01*
X121092388Y-78711732D01*
X121083147Y-78694443D01*
X121070711Y-78679289D01*
X121055557Y-78666853D01*
X121038268Y-78657612D01*
X121019509Y-78651921D01*
X121000000Y-78650000D01*
X120028083Y-78650000D01*
X119961494Y-78614408D01*
X119857819Y-78582958D01*
X119750000Y-78572339D01*
X119662500Y-78575000D01*
X119587500Y-78650000D01*
X119412500Y-78650000D01*
X119337500Y-78575000D01*
X119250000Y-78572339D01*
X119237045Y-78573615D01*
X119332563Y-78478097D01*
X119414641Y-78355258D01*
X119471178Y-78218767D01*
X119500000Y-78073869D01*
X119500000Y-77926131D01*
X119484554Y-77848479D01*
X119500000Y-77850000D01*
X121000000Y-77850000D01*
X121019509Y-77848079D01*
X121038268Y-77842388D01*
X121055557Y-77833147D01*
X121070711Y-77820711D01*
X121083147Y-77805557D01*
X121092388Y-77788268D01*
X121098079Y-77769509D01*
X121100000Y-77750000D01*
X121100000Y-77701693D01*
X121800000Y-77701693D01*
X121868612Y-77694935D01*
X121934587Y-77674922D01*
X121995390Y-77642422D01*
X122016619Y-77625000D01*
X123326668Y-77625000D01*
X123347199Y-77627022D01*
X123335359Y-77644742D01*
X123278822Y-77781233D01*
X123250000Y-77926131D01*
X123250000Y-78073869D01*
X123278822Y-78218767D01*
X123335359Y-78355258D01*
X123417437Y-78478097D01*
X123521903Y-78582563D01*
X123644742Y-78664641D01*
X123781233Y-78721178D01*
X123926131Y-78750000D01*
X124073869Y-78750000D01*
X124208532Y-78723214D01*
X124249999Y-78727298D01*
X124273331Y-78725000D01*
X124441255Y-78725000D01*
X124442990Y-78730721D01*
X124498705Y-78834955D01*
X124573684Y-78926317D01*
X124665046Y-79001296D01*
X124769280Y-79057010D01*
X124882380Y-79091318D01*
X125000000Y-79102903D01*
X125029474Y-79100000D01*
X125970526Y-79100000D01*
X126000000Y-79102903D01*
X126117621Y-79091318D01*
X126230721Y-79057010D01*
X126334955Y-79001296D01*
X126426317Y-78926317D01*
X126501296Y-78834955D01*
X126557010Y-78730721D01*
X126591318Y-78617621D01*
X126600000Y-78529474D01*
X126600000Y-77970526D01*
X126591318Y-77882379D01*
X126557010Y-77769279D01*
X126501296Y-77665045D01*
X126426317Y-77573683D01*
X126334954Y-77498704D01*
X126230720Y-77442990D01*
X126117620Y-77408682D01*
X126000000Y-77397097D01*
X125970526Y-77400000D01*
X125029474Y-77400000D01*
X125000000Y-77397097D01*
X124882379Y-77408682D01*
X124769279Y-77442990D01*
X124665045Y-77498704D01*
X124601763Y-77550638D01*
X124582563Y-77521903D01*
X124478097Y-77417437D01*
X124355258Y-77335359D01*
X124218767Y-77278822D01*
X124073869Y-77250000D01*
X123926131Y-77250000D01*
X123920663Y-77251088D01*
X124069371Y-77102380D01*
X124087501Y-77087501D01*
X124146859Y-77015173D01*
X124190966Y-76932654D01*
X124218127Y-76843116D01*
X124219166Y-76832563D01*
X124227298Y-76750001D01*
X124225000Y-76726669D01*
X124225000Y-75523332D01*
X124227298Y-75500000D01*
X124218127Y-75406884D01*
X124190966Y-75317346D01*
X124184402Y-75305065D01*
X124146859Y-75234827D01*
X124087501Y-75162499D01*
X124069377Y-75147625D01*
X123515000Y-74593250D01*
X123515000Y-73852119D01*
X123608413Y-73813426D01*
X123804955Y-73682101D01*
X123972101Y-73514955D01*
X124103426Y-73318413D01*
X124142119Y-73225000D01*
X124658381Y-73225000D01*
X124626315Y-73251315D01*
X124582578Y-73304610D01*
X124550078Y-73365413D01*
X124530065Y-73431388D01*
X124523307Y-73500000D01*
X124523307Y-73900000D01*
X124500000Y-73900000D01*
X124480491Y-73901921D01*
X124461732Y-73907612D01*
X124444443Y-73916853D01*
X124429289Y-73929289D01*
X124416853Y-73944443D01*
X124407612Y-73961732D01*
X124401921Y-73980491D01*
X124400000Y-74000000D01*
X124400000Y-75250000D01*
X124401921Y-75269509D01*
X124407612Y-75288268D01*
X124416853Y-75305557D01*
X124429289Y-75320711D01*
X124444443Y-75333147D01*
X124461732Y-75342388D01*
X124480491Y-75348079D01*
X124500000Y-75350000D01*
X124523307Y-75350000D01*
X124523307Y-75750000D01*
X124530065Y-75818612D01*
X124550078Y-75884587D01*
X124582578Y-75945390D01*
X124626315Y-75998685D01*
X124679610Y-76042422D01*
X124740413Y-76074922D01*
X124806388Y-76094935D01*
X124875000Y-76101693D01*
X125034475Y-76101693D01*
X125052921Y-76162499D01*
X125059035Y-76182654D01*
X125103142Y-76265173D01*
X125162500Y-76337501D01*
X125180629Y-76352379D01*
X125397616Y-76569366D01*
X125412499Y-76587501D01*
X125484827Y-76646859D01*
X125567346Y-76690966D01*
X125626908Y-76709034D01*
X125656883Y-76718127D01*
X125749999Y-76727298D01*
X125773331Y-76725000D01*
X126726668Y-76725000D01*
X126750000Y-76727298D01*
X126773332Y-76725000D01*
X126843116Y-76718127D01*
X126932654Y-76690966D01*
X127015173Y-76646859D01*
X127087501Y-76587501D01*
X127102384Y-76569366D01*
X127319366Y-76352384D01*
X127337501Y-76337501D01*
X127396859Y-76265173D01*
X127440966Y-76182654D01*
X127461436Y-76115172D01*
X127468127Y-76093117D01*
X127468537Y-76088951D01*
X127478097Y-76082563D01*
X127582563Y-75978097D01*
X127664641Y-75855258D01*
X127721178Y-75718767D01*
X127750000Y-75573869D01*
X127750000Y-75426131D01*
X127721178Y-75281233D01*
X127664641Y-75144742D01*
X127582563Y-75021903D01*
X127478097Y-74917437D01*
X127355258Y-74835359D01*
X127218767Y-74778822D01*
X127073869Y-74750000D01*
X126926131Y-74750000D01*
X126781233Y-74778822D01*
X126644742Y-74835359D01*
X126600000Y-74865255D01*
X126600000Y-74000000D01*
X126598079Y-73980491D01*
X126592388Y-73961732D01*
X126583147Y-73944443D01*
X126570711Y-73929289D01*
X126555557Y-73916853D01*
X126538268Y-73907612D01*
X126519509Y-73901921D01*
X126500000Y-73900000D01*
X126476693Y-73900000D01*
X126476693Y-73500000D01*
X126469935Y-73431388D01*
X126449922Y-73365413D01*
X126417422Y-73304610D01*
X126373685Y-73251315D01*
X126320390Y-73207578D01*
X126259587Y-73175078D01*
X126193612Y-73155065D01*
X126125000Y-73148307D01*
X125965525Y-73148307D01*
X125940966Y-73067345D01*
X125917103Y-73022702D01*
X125896859Y-72984827D01*
X125837501Y-72912499D01*
X125819376Y-72897625D01*
X125352383Y-72430633D01*
X125337501Y-72412499D01*
X125265173Y-72353141D01*
X125182654Y-72309034D01*
X125093116Y-72281873D01*
X125023332Y-72275000D01*
X125000000Y-72272702D01*
X124976668Y-72275000D01*
X124142119Y-72275000D01*
X124103426Y-72181587D01*
X123972101Y-71985045D01*
X123804955Y-71817899D01*
X123608413Y-71686574D01*
X123390027Y-71596116D01*
X123158190Y-71550000D01*
X122921810Y-71550000D01*
X122689973Y-71596116D01*
X122471587Y-71686574D01*
X122275045Y-71817899D01*
X122107899Y-71985045D01*
X121976574Y-72181587D01*
X121886116Y-72399973D01*
X121840000Y-72631810D01*
X121840000Y-72868190D01*
X121886116Y-73100027D01*
X121976574Y-73318413D01*
X122107899Y-73514955D01*
X122275045Y-73682101D01*
X122471587Y-73813426D01*
X122565000Y-73852119D01*
X122565000Y-74233331D01*
X122565001Y-74233340D01*
X122565001Y-74254341D01*
X122478097Y-74167437D01*
X122355258Y-74085359D01*
X122218767Y-74028822D01*
X122073869Y-74000000D01*
X121926131Y-74000000D01*
X121781233Y-74028822D01*
X121644742Y-74085359D01*
X121521903Y-74167437D01*
X121417437Y-74271903D01*
X121335359Y-74394742D01*
X121278822Y-74531233D01*
X121250000Y-74676131D01*
X121250000Y-74823869D01*
X121278822Y-74968767D01*
X121335359Y-75105258D01*
X121417437Y-75228097D01*
X121487647Y-75298307D01*
X121100000Y-75298307D01*
X121100000Y-75250000D01*
X121098079Y-75230491D01*
X121092388Y-75211732D01*
X121083147Y-75194443D01*
X121070711Y-75179289D01*
X121055557Y-75166853D01*
X121038268Y-75157612D01*
X121019509Y-75151921D01*
X121000000Y-75150000D01*
X119500000Y-75150000D01*
X119480491Y-75151921D01*
X119461732Y-75157612D01*
X119444443Y-75166853D01*
X119429289Y-75179289D01*
X119416853Y-75194443D01*
X119407612Y-75211732D01*
X119401921Y-75230491D01*
X119400000Y-75250000D01*
X119400000Y-75298307D01*
X118873443Y-75298307D01*
X119319376Y-74852375D01*
X119337501Y-74837501D01*
X119396859Y-74765173D01*
X119433360Y-74696884D01*
X119440966Y-74682655D01*
X119468127Y-74593116D01*
X119477298Y-74500000D01*
X119475000Y-74476668D01*
X119475000Y-73903321D01*
X119515413Y-73924922D01*
X119581388Y-73944935D01*
X119650000Y-73951693D01*
X121350000Y-73951693D01*
X121418612Y-73944935D01*
X121484587Y-73924922D01*
X121545390Y-73892422D01*
X121598685Y-73848685D01*
X121642422Y-73795390D01*
X121674922Y-73734587D01*
X121694935Y-73668612D01*
X121701693Y-73600000D01*
X121701693Y-71900000D01*
X121694935Y-71831388D01*
X121674922Y-71765413D01*
X121642422Y-71704610D01*
X121598685Y-71651315D01*
X121545390Y-71607578D01*
X121484587Y-71575078D01*
X121418612Y-71555065D01*
X121350000Y-71548307D01*
X119650000Y-71548307D01*
X119581388Y-71555065D01*
X119515413Y-71575078D01*
X119454610Y-71607578D01*
X119401315Y-71651315D01*
X119357578Y-71704610D01*
X119325078Y-71765413D01*
X119305065Y-71831388D01*
X119298307Y-71900000D01*
X119298307Y-72284475D01*
X119279722Y-72290112D01*
X119217346Y-72309034D01*
X119134827Y-72353141D01*
X119062499Y-72412499D01*
X119047620Y-72430629D01*
X118850000Y-72628250D01*
X118850000Y-72500000D01*
X118848079Y-72480491D01*
X118842388Y-72461732D01*
X118833147Y-72444443D01*
X118820711Y-72429289D01*
X118805557Y-72416853D01*
X118788268Y-72407612D01*
X118769509Y-72401921D01*
X118750000Y-72400000D01*
X118726693Y-72400000D01*
X118726693Y-72000000D01*
X118719935Y-71931388D01*
X118699922Y-71865413D01*
X118667422Y-71804610D01*
X118623685Y-71751315D01*
X118570390Y-71707578D01*
X118509587Y-71675078D01*
X118443612Y-71655065D01*
X118375000Y-71648307D01*
X118225000Y-71648307D01*
X118225000Y-71273331D01*
X118227298Y-71249999D01*
X118218127Y-71156883D01*
X118198783Y-71093116D01*
X118190966Y-71067346D01*
X118146859Y-70984827D01*
X118087501Y-70912499D01*
X118069366Y-70897616D01*
X117852384Y-70680634D01*
X117837501Y-70662499D01*
X117765173Y-70603141D01*
X117759297Y-70600000D01*
X128400000Y-70600000D01*
X128400000Y-96400000D01*
X128400000Y-96400000D01*
G37*
X128400000Y-96400000D02*
X112021750Y-96400000D01*
X112819377Y-95602375D01*
X112837501Y-95587501D01*
X112896859Y-95515173D01*
X112940966Y-95432654D01*
X112968127Y-95343116D01*
X112975000Y-95273332D01*
X112975000Y-95273331D01*
X112977298Y-95250000D01*
X112975000Y-95226668D01*
X112975000Y-95092997D01*
X113034587Y-95074922D01*
X113095390Y-95042422D01*
X113148685Y-94998685D01*
X113166604Y-94976850D01*
X113167437Y-94978097D01*
X113271903Y-95082563D01*
X113394742Y-95164641D01*
X113531233Y-95221178D01*
X113676131Y-95250000D01*
X113823869Y-95250000D01*
X113968767Y-95221178D01*
X114105258Y-95164641D01*
X114208046Y-95095960D01*
X114251315Y-95148685D01*
X114304610Y-95192422D01*
X114365413Y-95224922D01*
X114431388Y-95244935D01*
X114500000Y-95251693D01*
X115150000Y-95251693D01*
X115150000Y-96000000D01*
X115151921Y-96019509D01*
X115157612Y-96038268D01*
X115166853Y-96055557D01*
X115179289Y-96070711D01*
X115194443Y-96083147D01*
X115211732Y-96092388D01*
X115230491Y-96098079D01*
X115250000Y-96100000D01*
X117318787Y-96100000D01*
X117365413Y-96124922D01*
X117431388Y-96144935D01*
X117500000Y-96151693D01*
X119000000Y-96151693D01*
X119068612Y-96144935D01*
X119134587Y-96124922D01*
X119195390Y-96092422D01*
X119248685Y-96048685D01*
X119292422Y-95995390D01*
X119324922Y-95934587D01*
X119344935Y-95868612D01*
X119351693Y-95800000D01*
X119351693Y-95775000D01*
X119714340Y-95775000D01*
X119771903Y-95832563D01*
X119894742Y-95914641D01*
X120031233Y-95971178D01*
X120176131Y-96000000D01*
X120323869Y-96000000D01*
X120468767Y-95971178D01*
X120605258Y-95914641D01*
X120728097Y-95832563D01*
X120785660Y-95775000D01*
X121426668Y-95775000D01*
X121450000Y-95777298D01*
X121473332Y-95775000D01*
X121543116Y-95768127D01*
X121632654Y-95740966D01*
X121715173Y-95696859D01*
X121787501Y-95637501D01*
X121802384Y-95619366D01*
X122719377Y-94702375D01*
X122737501Y-94687501D01*
X122796859Y-94615173D01*
X122830992Y-94551315D01*
X122840966Y-94532655D01*
X122868127Y-94443116D01*
X122877298Y-94350000D01*
X122875000Y-94326668D01*
X122875000Y-93601693D01*
X122900000Y-93601693D01*
X122968612Y-93594935D01*
X123034587Y-93574922D01*
X123095390Y-93542422D01*
X123148685Y-93498685D01*
X123192422Y-93445390D01*
X123224922Y-93384587D01*
X123244935Y-93318612D01*
X123251693Y-93250000D01*
X123251693Y-92600000D01*
X124000000Y-92600000D01*
X124019509Y-92598079D01*
X124038268Y-92592388D01*
X124055557Y-92583147D01*
X124070711Y-92570711D01*
X124083147Y-92555557D01*
X124092388Y-92538268D01*
X124098079Y-92519509D01*
X124100000Y-92500000D01*
X124100000Y-90713285D01*
X124107042Y-90709521D01*
X124190790Y-90640790D01*
X124259521Y-90557042D01*
X124310592Y-90461494D01*
X124342042Y-90357819D01*
X124352661Y-90250000D01*
X124350000Y-89662500D01*
X124212500Y-89525000D01*
X124100000Y-89525000D01*
X124100000Y-89475000D01*
X124212500Y-89475000D01*
X124350000Y-89337500D01*
X124352661Y-88750000D01*
X124342042Y-88642181D01*
X124310592Y-88538506D01*
X124259521Y-88442958D01*
X124190790Y-88359210D01*
X124107042Y-88290479D01*
X124011494Y-88239408D01*
X123907819Y-88207958D01*
X123800000Y-88197339D01*
X123462500Y-88200000D01*
X123325000Y-88337500D01*
X123325000Y-89150000D01*
X123275000Y-89150000D01*
X123275000Y-88337500D01*
X123137500Y-88200000D01*
X122800000Y-88197339D01*
X122692181Y-88207958D01*
X122588506Y-88239408D01*
X122492958Y-88290479D01*
X122409210Y-88359210D01*
X122340479Y-88442958D01*
X122289408Y-88538506D01*
X122286655Y-88547582D01*
X122248685Y-88501315D01*
X122195390Y-88457578D01*
X122134587Y-88425078D01*
X122068612Y-88405065D01*
X122000000Y-88398307D01*
X121000000Y-88398307D01*
X120931388Y-88405065D01*
X120865413Y-88425078D01*
X120804610Y-88457578D01*
X120751315Y-88501315D01*
X120725000Y-88533381D01*
X120725000Y-87523331D01*
X120727298Y-87499999D01*
X120718127Y-87406883D01*
X120706601Y-87368888D01*
X120690966Y-87317346D01*
X120654969Y-87250000D01*
X120690966Y-87182654D01*
X120718127Y-87093116D01*
X120725000Y-87023332D01*
X120725000Y-87023331D01*
X120727298Y-87000001D01*
X120725000Y-86976669D01*
X120725000Y-86446751D01*
X120898307Y-86273444D01*
X120898307Y-86375000D01*
X120905065Y-86443612D01*
X120925078Y-86509587D01*
X120957578Y-86570390D01*
X121001315Y-86623685D01*
X121054610Y-86667422D01*
X121115413Y-86699922D01*
X121181388Y-86719935D01*
X121250000Y-86726693D01*
X121650000Y-86726693D01*
X121650000Y-86750000D01*
X121651921Y-86769509D01*
X121657612Y-86788268D01*
X121666853Y-86805557D01*
X121679289Y-86820711D01*
X121694443Y-86833147D01*
X121711732Y-86842388D01*
X121730491Y-86848079D01*
X121750000Y-86850000D01*
X123000000Y-86850000D01*
X123019509Y-86848079D01*
X123038268Y-86842388D01*
X123055557Y-86833147D01*
X123070711Y-86820711D01*
X123083147Y-86805557D01*
X123092388Y-86788268D01*
X123098079Y-86769509D01*
X123100000Y-86750000D01*
X123100000Y-86726693D01*
X123500000Y-86726693D01*
X123568612Y-86719935D01*
X123634587Y-86699922D01*
X123695390Y-86667422D01*
X123748685Y-86623685D01*
X123792422Y-86570390D01*
X123824922Y-86509587D01*
X123844935Y-86443612D01*
X123850688Y-86385205D01*
X123894742Y-86414641D01*
X124031233Y-86471178D01*
X124176131Y-86500000D01*
X124323869Y-86500000D01*
X124468767Y-86471178D01*
X124605258Y-86414641D01*
X124728097Y-86332563D01*
X124832563Y-86228097D01*
X124914641Y-86105258D01*
X124971178Y-85968767D01*
X125000000Y-85823869D01*
X125000000Y-85676131D01*
X124971178Y-85531233D01*
X124914641Y-85394742D01*
X124832563Y-85271903D01*
X124728097Y-85167437D01*
X124605258Y-85085359D01*
X124468767Y-85028822D01*
X124323869Y-85000000D01*
X124176131Y-85000000D01*
X124031233Y-85028822D01*
X123894742Y-85085359D01*
X123850688Y-85114795D01*
X123844935Y-85056388D01*
X123824922Y-84990413D01*
X123792422Y-84929610D01*
X123748685Y-84876315D01*
X123695390Y-84832578D01*
X123634587Y-84800078D01*
X123568612Y-84780065D01*
X123500000Y-84773307D01*
X123100000Y-84773307D01*
X123100000Y-84750000D01*
X123098079Y-84730491D01*
X123092388Y-84711732D01*
X123083147Y-84694443D01*
X123070711Y-84679289D01*
X123055557Y-84666853D01*
X123038268Y-84657612D01*
X123019509Y-84651921D01*
X123000000Y-84650000D01*
X121750000Y-84650000D01*
X121730491Y-84651921D01*
X121711732Y-84657612D01*
X121694443Y-84666853D01*
X121679289Y-84679289D01*
X121666853Y-84694443D01*
X121657612Y-84711732D01*
X121651921Y-84730491D01*
X121650000Y-84750000D01*
X121650000Y-84773307D01*
X121250000Y-84773307D01*
X121181388Y-84780065D01*
X121115413Y-84800078D01*
X121054610Y-84832578D01*
X121001315Y-84876315D01*
X120957578Y-84929610D01*
X120925078Y-84990413D01*
X120905065Y-85056388D01*
X120898307Y-85125000D01*
X120898307Y-85275000D01*
X120773332Y-85275000D01*
X120750000Y-85272702D01*
X120656884Y-85281873D01*
X120567345Y-85309034D01*
X120539591Y-85323869D01*
X120484827Y-85353141D01*
X120412499Y-85412499D01*
X120397625Y-85430624D01*
X119930629Y-85897621D01*
X119912500Y-85912499D01*
X119853142Y-85984827D01*
X119823652Y-86040000D01*
X119809035Y-86067346D01*
X119783475Y-86151604D01*
X119750000Y-86148307D01*
X119100000Y-86148307D01*
X119100000Y-85750000D01*
X119098079Y-85730491D01*
X119092388Y-85711732D01*
X119083147Y-85694443D01*
X119070711Y-85679289D01*
X119055557Y-85666853D01*
X119038268Y-85657612D01*
X119019509Y-85651921D01*
X119000000Y-85650000D01*
X114500000Y-85650000D01*
X114480491Y-85651921D01*
X114461732Y-85657612D01*
X114444443Y-85666853D01*
X114429289Y-85679289D01*
X114416853Y-85694443D01*
X114407612Y-85711732D01*
X114401921Y-85730491D01*
X114400000Y-85750000D01*
X114400000Y-86148307D01*
X113951385Y-86148307D01*
X113966039Y-86100000D01*
X113968127Y-86093117D01*
X113977298Y-86000001D01*
X113975000Y-85976669D01*
X113975000Y-85834632D01*
X113978097Y-85832563D01*
X114082563Y-85728097D01*
X114164641Y-85605258D01*
X114221178Y-85468767D01*
X114250000Y-85323869D01*
X114250000Y-85176131D01*
X114221178Y-85031233D01*
X114164641Y-84894742D01*
X114082563Y-84771903D01*
X113978097Y-84667437D01*
X113855258Y-84585359D01*
X113718767Y-84528822D01*
X113573869Y-84500000D01*
X113426131Y-84500000D01*
X113281233Y-84528822D01*
X113144742Y-84585359D01*
X113021903Y-84667437D01*
X112917437Y-84771903D01*
X112850000Y-84872830D01*
X112850000Y-82767189D01*
X112850656Y-82760525D01*
X112853141Y-82765173D01*
X112912499Y-82837501D01*
X112930634Y-82852384D01*
X113147616Y-83069366D01*
X113162499Y-83087501D01*
X113234827Y-83146859D01*
X113317346Y-83190966D01*
X113379722Y-83209888D01*
X113398307Y-83215525D01*
X113398307Y-83500000D01*
X113405065Y-83568612D01*
X113425078Y-83634587D01*
X113457578Y-83695390D01*
X113501315Y-83748685D01*
X113554610Y-83792422D01*
X113615413Y-83824922D01*
X113681388Y-83844935D01*
X113750000Y-83851693D01*
X114400000Y-83851693D01*
X114400000Y-84250000D01*
X114401921Y-84269509D01*
X114407612Y-84288268D01*
X114416853Y-84305557D01*
X114429289Y-84320711D01*
X114444443Y-84333147D01*
X114461732Y-84342388D01*
X114480491Y-84348079D01*
X114500000Y-84350000D01*
X119000000Y-84350000D01*
X119019509Y-84348079D01*
X119038268Y-84342388D01*
X119055557Y-84333147D01*
X119070711Y-84320711D01*
X119083147Y-84305557D01*
X119092388Y-84288268D01*
X119098079Y-84269509D01*
X119100000Y-84250000D01*
X119100000Y-83851693D01*
X119750000Y-83851693D01*
X119818612Y-83844935D01*
X119884587Y-83824922D01*
X119945390Y-83792422D01*
X119998685Y-83748685D01*
X120042422Y-83695390D01*
X120074922Y-83634587D01*
X120094935Y-83568612D01*
X120101693Y-83500000D01*
X120101693Y-83225000D01*
X120648307Y-83225000D01*
X120648307Y-83500000D01*
X120655065Y-83568612D01*
X120675078Y-83634587D01*
X120707578Y-83695390D01*
X120751315Y-83748685D01*
X120804610Y-83792422D01*
X120865413Y-83824922D01*
X120931388Y-83844935D01*
X121000000Y-83851693D01*
X122000000Y-83851693D01*
X122017189Y-83850000D01*
X122982811Y-83850000D01*
X123000000Y-83851693D01*
X124000000Y-83851693D01*
X124068612Y-83844935D01*
X124134587Y-83824922D01*
X124195390Y-83792422D01*
X124248685Y-83748685D01*
X124292422Y-83695390D01*
X124324922Y-83634587D01*
X124344935Y-83568612D01*
X124351693Y-83500000D01*
X124351693Y-83225000D01*
X124476668Y-83225000D01*
X124500000Y-83227298D01*
X124523332Y-83225000D01*
X124593116Y-83218127D01*
X124682654Y-83190966D01*
X124765173Y-83146859D01*
X124837501Y-83087501D01*
X124852384Y-83069366D01*
X125069366Y-82852384D01*
X125087501Y-82837501D01*
X125146859Y-82765173D01*
X125190966Y-82682654D01*
X125218127Y-82593116D01*
X125225000Y-82523332D01*
X125225000Y-82523331D01*
X125227298Y-82500001D01*
X125225000Y-82476668D01*
X125225000Y-81773331D01*
X125227298Y-81750000D01*
X125218127Y-81656884D01*
X125190966Y-81567345D01*
X125163079Y-81515173D01*
X125146859Y-81484827D01*
X125087501Y-81412499D01*
X125069376Y-81397625D01*
X125022444Y-81350692D01*
X125029474Y-81350000D01*
X125970526Y-81350000D01*
X126000000Y-81352903D01*
X126117621Y-81341318D01*
X126230721Y-81307010D01*
X126334955Y-81251296D01*
X126426317Y-81176317D01*
X126501296Y-81084955D01*
X126557010Y-80980721D01*
X126591318Y-80867621D01*
X126600000Y-80779474D01*
X126600000Y-80220526D01*
X126591318Y-80132379D01*
X126557010Y-80019279D01*
X126501296Y-79915045D01*
X126426317Y-79823683D01*
X126334954Y-79748704D01*
X126230720Y-79692990D01*
X126117620Y-79658682D01*
X126000000Y-79647097D01*
X125970526Y-79650000D01*
X125029474Y-79650000D01*
X125000000Y-79647097D01*
X124882379Y-79658682D01*
X124769279Y-79692990D01*
X124665045Y-79748704D01*
X124573683Y-79823683D01*
X124498704Y-79915046D01*
X124442990Y-80019280D01*
X124441255Y-80025000D01*
X123773331Y-80025000D01*
X123749999Y-80022702D01*
X123656883Y-80031873D01*
X123629722Y-80040112D01*
X123567346Y-80059034D01*
X123484827Y-80103141D01*
X123412499Y-80162499D01*
X123397616Y-80180634D01*
X123180634Y-80397616D01*
X123162499Y-80412499D01*
X123103141Y-80484827D01*
X123059034Y-80567347D01*
X123051217Y-80593116D01*
X123031873Y-80656884D01*
X123022702Y-80750000D01*
X123025000Y-80773332D01*
X123025000Y-80775000D01*
X121096413Y-80775000D01*
X121098079Y-80769509D01*
X121100000Y-80750000D01*
X121100000Y-80726693D01*
X121500000Y-80726693D01*
X121568612Y-80719935D01*
X121634587Y-80699922D01*
X121695390Y-80667422D01*
X121748685Y-80623685D01*
X121792422Y-80570390D01*
X121824922Y-80509587D01*
X121844935Y-80443612D01*
X121851693Y-80375000D01*
X121851693Y-80225000D01*
X122165368Y-80225000D01*
X122167437Y-80228097D01*
X122271903Y-80332563D01*
X122394742Y-80414641D01*
X122531233Y-80471178D01*
X122676131Y-80500000D01*
X122823869Y-80500000D01*
X122968767Y-80471178D01*
X123105258Y-80414641D01*
X123228097Y-80332563D01*
X123332563Y-80228097D01*
X123414641Y-80105258D01*
X123471178Y-79968767D01*
X123500000Y-79823869D01*
X123500000Y-79676131D01*
X123471178Y-79531233D01*
X123414641Y-79394742D01*
X123332563Y-79271903D01*
X123228097Y-79167437D01*
X123105258Y-79085359D01*
X122968767Y-79028822D01*
X122823869Y-79000000D01*
X122676131Y-79000000D01*
X122531233Y-79028822D01*
X122394742Y-79085359D01*
X122271903Y-79167437D01*
X122167437Y-79271903D01*
X122165368Y-79275000D01*
X121851693Y-79275000D01*
X121851693Y-79125000D01*
X121844935Y-79056388D01*
X121824922Y-78990413D01*
X121792422Y-78929610D01*
X121748685Y-78876315D01*
X121695390Y-78832578D01*
X121634587Y-78800078D01*
X121568612Y-78780065D01*
X121500000Y-78773307D01*
X121100000Y-78773307D01*
X121100000Y-78750000D01*
X121098079Y-78730491D01*
X121092388Y-78711732D01*
X121083147Y-78694443D01*
X121070711Y-78679289D01*
X121055557Y-78666853D01*
X121038268Y-78657612D01*
X121019509Y-78651921D01*
X121000000Y-78650000D01*
X120028083Y-78650000D01*
X119961494Y-78614408D01*
X119857819Y-78582958D01*
X119750000Y-78572339D01*
X119662500Y-78575000D01*
X119587500Y-78650000D01*
X119412500Y-78650000D01*
X119337500Y-78575000D01*
X119250000Y-78572339D01*
X119237045Y-78573615D01*
X119332563Y-78478097D01*
X119414641Y-78355258D01*
X119471178Y-78218767D01*
X119500000Y-78073869D01*
X119500000Y-77926131D01*
X119484554Y-77848479D01*
X119500000Y-77850000D01*
X121000000Y-77850000D01*
X121019509Y-77848079D01*
X121038268Y-77842388D01*
X121055557Y-77833147D01*
X121070711Y-77820711D01*
X121083147Y-77805557D01*
X121092388Y-77788268D01*
X121098079Y-77769509D01*
X121100000Y-77750000D01*
X121100000Y-77701693D01*
X121800000Y-77701693D01*
X121868612Y-77694935D01*
X121934587Y-77674922D01*
X121995390Y-77642422D01*
X122016619Y-77625000D01*
X123326668Y-77625000D01*
X123347199Y-77627022D01*
X123335359Y-77644742D01*
X123278822Y-77781233D01*
X123250000Y-77926131D01*
X123250000Y-78073869D01*
X123278822Y-78218767D01*
X123335359Y-78355258D01*
X123417437Y-78478097D01*
X123521903Y-78582563D01*
X123644742Y-78664641D01*
X123781233Y-78721178D01*
X123926131Y-78750000D01*
X124073869Y-78750000D01*
X124208532Y-78723214D01*
X124249999Y-78727298D01*
X124273331Y-78725000D01*
X124441255Y-78725000D01*
X124442990Y-78730721D01*
X124498705Y-78834955D01*
X124573684Y-78926317D01*
X124665046Y-79001296D01*
X124769280Y-79057010D01*
X124882380Y-79091318D01*
X125000000Y-79102903D01*
X125029474Y-79100000D01*
X125970526Y-79100000D01*
X126000000Y-79102903D01*
X126117621Y-79091318D01*
X126230721Y-79057010D01*
X126334955Y-79001296D01*
X126426317Y-78926317D01*
X126501296Y-78834955D01*
X126557010Y-78730721D01*
X126591318Y-78617621D01*
X126600000Y-78529474D01*
X126600000Y-77970526D01*
X126591318Y-77882379D01*
X126557010Y-77769279D01*
X126501296Y-77665045D01*
X126426317Y-77573683D01*
X126334954Y-77498704D01*
X126230720Y-77442990D01*
X126117620Y-77408682D01*
X126000000Y-77397097D01*
X125970526Y-77400000D01*
X125029474Y-77400000D01*
X125000000Y-77397097D01*
X124882379Y-77408682D01*
X124769279Y-77442990D01*
X124665045Y-77498704D01*
X124601763Y-77550638D01*
X124582563Y-77521903D01*
X124478097Y-77417437D01*
X124355258Y-77335359D01*
X124218767Y-77278822D01*
X124073869Y-77250000D01*
X123926131Y-77250000D01*
X123920663Y-77251088D01*
X124069371Y-77102380D01*
X124087501Y-77087501D01*
X124146859Y-77015173D01*
X124190966Y-76932654D01*
X124218127Y-76843116D01*
X124219166Y-76832563D01*
X124227298Y-76750001D01*
X124225000Y-76726669D01*
X124225000Y-75523332D01*
X124227298Y-75500000D01*
X124218127Y-75406884D01*
X124190966Y-75317346D01*
X124184402Y-75305065D01*
X124146859Y-75234827D01*
X124087501Y-75162499D01*
X124069377Y-75147625D01*
X123515000Y-74593250D01*
X123515000Y-73852119D01*
X123608413Y-73813426D01*
X123804955Y-73682101D01*
X123972101Y-73514955D01*
X124103426Y-73318413D01*
X124142119Y-73225000D01*
X124658381Y-73225000D01*
X124626315Y-73251315D01*
X124582578Y-73304610D01*
X124550078Y-73365413D01*
X124530065Y-73431388D01*
X124523307Y-73500000D01*
X124523307Y-73900000D01*
X124500000Y-73900000D01*
X124480491Y-73901921D01*
X124461732Y-73907612D01*
X124444443Y-73916853D01*
X124429289Y-73929289D01*
X124416853Y-73944443D01*
X124407612Y-73961732D01*
X124401921Y-73980491D01*
X124400000Y-74000000D01*
X124400000Y-75250000D01*
X124401921Y-75269509D01*
X124407612Y-75288268D01*
X124416853Y-75305557D01*
X124429289Y-75320711D01*
X124444443Y-75333147D01*
X124461732Y-75342388D01*
X124480491Y-75348079D01*
X124500000Y-75350000D01*
X124523307Y-75350000D01*
X124523307Y-75750000D01*
X124530065Y-75818612D01*
X124550078Y-75884587D01*
X124582578Y-75945390D01*
X124626315Y-75998685D01*
X124679610Y-76042422D01*
X124740413Y-76074922D01*
X124806388Y-76094935D01*
X124875000Y-76101693D01*
X125034475Y-76101693D01*
X125052921Y-76162499D01*
X125059035Y-76182654D01*
X125103142Y-76265173D01*
X125162500Y-76337501D01*
X125180629Y-76352379D01*
X125397616Y-76569366D01*
X125412499Y-76587501D01*
X125484827Y-76646859D01*
X125567346Y-76690966D01*
X125626908Y-76709034D01*
X125656883Y-76718127D01*
X125749999Y-76727298D01*
X125773331Y-76725000D01*
X126726668Y-76725000D01*
X126750000Y-76727298D01*
X126773332Y-76725000D01*
X126843116Y-76718127D01*
X126932654Y-76690966D01*
X127015173Y-76646859D01*
X127087501Y-76587501D01*
X127102384Y-76569366D01*
X127319366Y-76352384D01*
X127337501Y-76337501D01*
X127396859Y-76265173D01*
X127440966Y-76182654D01*
X127461436Y-76115172D01*
X127468127Y-76093117D01*
X127468537Y-76088951D01*
X127478097Y-76082563D01*
X127582563Y-75978097D01*
X127664641Y-75855258D01*
X127721178Y-75718767D01*
X127750000Y-75573869D01*
X127750000Y-75426131D01*
X127721178Y-75281233D01*
X127664641Y-75144742D01*
X127582563Y-75021903D01*
X127478097Y-74917437D01*
X127355258Y-74835359D01*
X127218767Y-74778822D01*
X127073869Y-74750000D01*
X126926131Y-74750000D01*
X126781233Y-74778822D01*
X126644742Y-74835359D01*
X126600000Y-74865255D01*
X126600000Y-74000000D01*
X126598079Y-73980491D01*
X126592388Y-73961732D01*
X126583147Y-73944443D01*
X126570711Y-73929289D01*
X126555557Y-73916853D01*
X126538268Y-73907612D01*
X126519509Y-73901921D01*
X126500000Y-73900000D01*
X126476693Y-73900000D01*
X126476693Y-73500000D01*
X126469935Y-73431388D01*
X126449922Y-73365413D01*
X126417422Y-73304610D01*
X126373685Y-73251315D01*
X126320390Y-73207578D01*
X126259587Y-73175078D01*
X126193612Y-73155065D01*
X126125000Y-73148307D01*
X125965525Y-73148307D01*
X125940966Y-73067345D01*
X125917103Y-73022702D01*
X125896859Y-72984827D01*
X125837501Y-72912499D01*
X125819376Y-72897625D01*
X125352383Y-72430633D01*
X125337501Y-72412499D01*
X125265173Y-72353141D01*
X125182654Y-72309034D01*
X125093116Y-72281873D01*
X125023332Y-72275000D01*
X125000000Y-72272702D01*
X124976668Y-72275000D01*
X124142119Y-72275000D01*
X124103426Y-72181587D01*
X123972101Y-71985045D01*
X123804955Y-71817899D01*
X123608413Y-71686574D01*
X123390027Y-71596116D01*
X123158190Y-71550000D01*
X122921810Y-71550000D01*
X122689973Y-71596116D01*
X122471587Y-71686574D01*
X122275045Y-71817899D01*
X122107899Y-71985045D01*
X121976574Y-72181587D01*
X121886116Y-72399973D01*
X121840000Y-72631810D01*
X121840000Y-72868190D01*
X121886116Y-73100027D01*
X121976574Y-73318413D01*
X122107899Y-73514955D01*
X122275045Y-73682101D01*
X122471587Y-73813426D01*
X122565000Y-73852119D01*
X122565000Y-74233331D01*
X122565001Y-74233340D01*
X122565001Y-74254341D01*
X122478097Y-74167437D01*
X122355258Y-74085359D01*
X122218767Y-74028822D01*
X122073869Y-74000000D01*
X121926131Y-74000000D01*
X121781233Y-74028822D01*
X121644742Y-74085359D01*
X121521903Y-74167437D01*
X121417437Y-74271903D01*
X121335359Y-74394742D01*
X121278822Y-74531233D01*
X121250000Y-74676131D01*
X121250000Y-74823869D01*
X121278822Y-74968767D01*
X121335359Y-75105258D01*
X121417437Y-75228097D01*
X121487647Y-75298307D01*
X121100000Y-75298307D01*
X121100000Y-75250000D01*
X121098079Y-75230491D01*
X121092388Y-75211732D01*
X121083147Y-75194443D01*
X121070711Y-75179289D01*
X121055557Y-75166853D01*
X121038268Y-75157612D01*
X121019509Y-75151921D01*
X121000000Y-75150000D01*
X119500000Y-75150000D01*
X119480491Y-75151921D01*
X119461732Y-75157612D01*
X119444443Y-75166853D01*
X119429289Y-75179289D01*
X119416853Y-75194443D01*
X119407612Y-75211732D01*
X119401921Y-75230491D01*
X119400000Y-75250000D01*
X119400000Y-75298307D01*
X118873443Y-75298307D01*
X119319376Y-74852375D01*
X119337501Y-74837501D01*
X119396859Y-74765173D01*
X119433360Y-74696884D01*
X119440966Y-74682655D01*
X119468127Y-74593116D01*
X119477298Y-74500000D01*
X119475000Y-74476668D01*
X119475000Y-73903321D01*
X119515413Y-73924922D01*
X119581388Y-73944935D01*
X119650000Y-73951693D01*
X121350000Y-73951693D01*
X121418612Y-73944935D01*
X121484587Y-73924922D01*
X121545390Y-73892422D01*
X121598685Y-73848685D01*
X121642422Y-73795390D01*
X121674922Y-73734587D01*
X121694935Y-73668612D01*
X121701693Y-73600000D01*
X121701693Y-71900000D01*
X121694935Y-71831388D01*
X121674922Y-71765413D01*
X121642422Y-71704610D01*
X121598685Y-71651315D01*
X121545390Y-71607578D01*
X121484587Y-71575078D01*
X121418612Y-71555065D01*
X121350000Y-71548307D01*
X119650000Y-71548307D01*
X119581388Y-71555065D01*
X119515413Y-71575078D01*
X119454610Y-71607578D01*
X119401315Y-71651315D01*
X119357578Y-71704610D01*
X119325078Y-71765413D01*
X119305065Y-71831388D01*
X119298307Y-71900000D01*
X119298307Y-72284475D01*
X119279722Y-72290112D01*
X119217346Y-72309034D01*
X119134827Y-72353141D01*
X119062499Y-72412499D01*
X119047620Y-72430629D01*
X118850000Y-72628250D01*
X118850000Y-72500000D01*
X118848079Y-72480491D01*
X118842388Y-72461732D01*
X118833147Y-72444443D01*
X118820711Y-72429289D01*
X118805557Y-72416853D01*
X118788268Y-72407612D01*
X118769509Y-72401921D01*
X118750000Y-72400000D01*
X118726693Y-72400000D01*
X118726693Y-72000000D01*
X118719935Y-71931388D01*
X118699922Y-71865413D01*
X118667422Y-71804610D01*
X118623685Y-71751315D01*
X118570390Y-71707578D01*
X118509587Y-71675078D01*
X118443612Y-71655065D01*
X118375000Y-71648307D01*
X118225000Y-71648307D01*
X118225000Y-71273331D01*
X118227298Y-71249999D01*
X118218127Y-71156883D01*
X118198783Y-71093116D01*
X118190966Y-71067346D01*
X118146859Y-70984827D01*
X118087501Y-70912499D01*
X118069366Y-70897616D01*
X117852384Y-70680634D01*
X117837501Y-70662499D01*
X117765173Y-70603141D01*
X117759297Y-70600000D01*
X128400000Y-70600000D01*
X128400000Y-96400000D01*
G36*
X115835359Y-70644742D02*
G01*
X115778822Y-70781233D01*
X115750000Y-70926131D01*
X115750000Y-71073869D01*
X115778822Y-71218767D01*
X115835359Y-71355258D01*
X115917437Y-71478097D01*
X115937647Y-71498307D01*
X114500000Y-71498307D01*
X114431388Y-71505065D01*
X114365413Y-71525078D01*
X114304610Y-71557578D01*
X114251315Y-71601315D01*
X114211361Y-71650000D01*
X112250000Y-71650000D01*
X112230491Y-71651921D01*
X112211732Y-71657612D01*
X112194443Y-71666853D01*
X112179289Y-71679289D01*
X112166853Y-71694443D01*
X112157612Y-71711732D01*
X112151921Y-71730491D01*
X112150000Y-71750000D01*
X112150000Y-72398307D01*
X111500000Y-72398307D01*
X111466526Y-72401604D01*
X111459888Y-72379722D01*
X111440966Y-72317346D01*
X111396859Y-72234827D01*
X111337501Y-72162499D01*
X111319366Y-72147616D01*
X111102384Y-71930634D01*
X111087501Y-71912499D01*
X111015173Y-71853141D01*
X110932654Y-71809034D01*
X110845040Y-71782457D01*
X110844935Y-71781388D01*
X110824922Y-71715413D01*
X110792422Y-71654610D01*
X110748685Y-71601315D01*
X110695390Y-71557578D01*
X110634587Y-71525078D01*
X110568612Y-71505065D01*
X110500000Y-71498307D01*
X109500000Y-71498307D01*
X109431388Y-71505065D01*
X109365413Y-71525078D01*
X109304610Y-71557578D01*
X109251315Y-71601315D01*
X109211361Y-71650000D01*
X107500000Y-71650000D01*
X107480491Y-71651921D01*
X107461732Y-71657612D01*
X107444443Y-71666853D01*
X107429289Y-71679289D01*
X107416853Y-71694443D01*
X107407612Y-71711732D01*
X107401921Y-71730491D01*
X107400000Y-71750000D01*
X107400000Y-72498307D01*
X107000000Y-72498307D01*
X106931388Y-72505065D01*
X106865413Y-72525078D01*
X106804610Y-72557578D01*
X106751315Y-72601315D01*
X106707578Y-72654610D01*
X106675078Y-72715413D01*
X106655065Y-72781388D01*
X106654960Y-72782456D01*
X106629722Y-72790112D01*
X106567346Y-72809034D01*
X106484827Y-72853141D01*
X106412499Y-72912499D01*
X106397616Y-72930634D01*
X106180634Y-73147616D01*
X106162499Y-73162499D01*
X106103141Y-73234827D01*
X106059034Y-73317347D01*
X106040112Y-73379723D01*
X106031873Y-73406884D01*
X106022702Y-73500000D01*
X106025000Y-73523331D01*
X106025001Y-76476658D01*
X106022702Y-76500000D01*
X106031873Y-76593116D01*
X106051218Y-76656885D01*
X106059035Y-76682654D01*
X106095032Y-76750000D01*
X106082561Y-76773332D01*
X106059035Y-76817346D01*
X106031873Y-76906884D01*
X106022702Y-77000000D01*
X106025001Y-77023342D01*
X106025000Y-78165368D01*
X106021903Y-78167437D01*
X105917437Y-78271903D01*
X105835359Y-78394742D01*
X105778822Y-78531233D01*
X105750000Y-78676131D01*
X105750000Y-78823869D01*
X105778822Y-78968767D01*
X105835359Y-79105258D01*
X105917437Y-79228097D01*
X106021903Y-79332563D01*
X106144742Y-79414641D01*
X106281233Y-79471178D01*
X106426131Y-79500000D01*
X106573869Y-79500000D01*
X106718767Y-79471178D01*
X106799102Y-79437902D01*
X106804610Y-79442422D01*
X106865413Y-79474922D01*
X106931388Y-79494935D01*
X107000000Y-79501693D01*
X108000000Y-79501693D01*
X108068612Y-79494935D01*
X108134587Y-79474922D01*
X108195390Y-79442422D01*
X108248685Y-79398685D01*
X108288639Y-79350000D01*
X110000000Y-79350000D01*
X110019509Y-79348079D01*
X110038268Y-79342388D01*
X110055557Y-79333147D01*
X110070711Y-79320711D01*
X110083147Y-79305557D01*
X110092388Y-79288268D01*
X110098079Y-79269509D01*
X110100000Y-79250000D01*
X110100000Y-78501693D01*
X110500000Y-78501693D01*
X110568612Y-78494935D01*
X110634587Y-78474922D01*
X110695390Y-78442422D01*
X110748685Y-78398685D01*
X110792422Y-78345390D01*
X110824922Y-78284587D01*
X110842997Y-78225000D01*
X111148307Y-78225000D01*
X111148307Y-78250000D01*
X111155065Y-78318612D01*
X111175078Y-78384587D01*
X111207578Y-78445390D01*
X111251315Y-78498685D01*
X111304610Y-78542422D01*
X111365413Y-78574922D01*
X111431388Y-78594935D01*
X111500000Y-78601693D01*
X112150000Y-78601693D01*
X112150000Y-79250000D01*
X112151921Y-79269509D01*
X112157612Y-79288268D01*
X112166853Y-79305557D01*
X112179289Y-79320711D01*
X112194443Y-79333147D01*
X112211732Y-79342388D01*
X112230491Y-79348079D01*
X112250000Y-79350000D01*
X114211361Y-79350000D01*
X114251315Y-79398685D01*
X114304610Y-79442422D01*
X114365413Y-79474922D01*
X114431388Y-79494935D01*
X114500000Y-79501693D01*
X116000000Y-79501693D01*
X116068612Y-79494935D01*
X116134587Y-79474922D01*
X116195390Y-79442422D01*
X116248685Y-79398685D01*
X116292422Y-79345390D01*
X116324922Y-79284587D01*
X116344935Y-79218612D01*
X116351693Y-79150000D01*
X116351693Y-79115525D01*
X116432654Y-79090966D01*
X116515173Y-79046859D01*
X116587501Y-78987501D01*
X116602384Y-78969366D01*
X116775000Y-78796750D01*
X116775000Y-80476668D01*
X116772702Y-80500000D01*
X116781873Y-80593116D01*
X116790112Y-80620277D01*
X116809034Y-80682653D01*
X116853141Y-80765173D01*
X116912499Y-80837501D01*
X116930634Y-80852384D01*
X117228250Y-81150000D01*
X114500000Y-81150000D01*
X114480491Y-81151921D01*
X114461732Y-81157612D01*
X114444443Y-81166853D01*
X114429289Y-81179289D01*
X114416853Y-81194443D01*
X114407612Y-81211732D01*
X114401921Y-81230491D01*
X114400000Y-81250000D01*
X114400000Y-81648307D01*
X113750000Y-81648307D01*
X113725000Y-81650769D01*
X113725000Y-81023331D01*
X113727298Y-80999999D01*
X113718127Y-80906883D01*
X113706217Y-80867621D01*
X113690966Y-80817346D01*
X113646859Y-80734827D01*
X113587501Y-80662499D01*
X113569366Y-80647616D01*
X113352384Y-80430634D01*
X113337501Y-80412499D01*
X113265173Y-80353141D01*
X113182654Y-80309034D01*
X113093116Y-80281873D01*
X113023332Y-80275000D01*
X113000000Y-80272702D01*
X112976668Y-80275000D01*
X112273331Y-80275000D01*
X112249999Y-80272702D01*
X112156883Y-80281873D01*
X112129722Y-80290112D01*
X112067346Y-80309034D01*
X112000000Y-80345031D01*
X111932654Y-80309034D01*
X111843116Y-80281873D01*
X111773332Y-80275000D01*
X111750000Y-80272702D01*
X111726668Y-80275000D01*
X108173331Y-80275000D01*
X108149999Y-80272702D01*
X108056883Y-80281873D01*
X108029722Y-80290112D01*
X107967346Y-80309034D01*
X107884827Y-80353141D01*
X107812499Y-80412499D01*
X107797620Y-80430629D01*
X107430629Y-80797621D01*
X107412500Y-80812499D01*
X107353142Y-80884827D01*
X107331628Y-80925078D01*
X107309035Y-80967346D01*
X107284475Y-81048307D01*
X106900000Y-81048307D01*
X106831388Y-81055065D01*
X106765413Y-81075078D01*
X106704610Y-81107578D01*
X106651315Y-81151315D01*
X106607578Y-81204610D01*
X106575078Y-81265413D01*
X106555065Y-81331388D01*
X106548307Y-81400000D01*
X106548307Y-81775000D01*
X106523331Y-81775000D01*
X106499999Y-81772702D01*
X106406883Y-81781873D01*
X106379722Y-81790112D01*
X106317346Y-81809034D01*
X106234827Y-81853141D01*
X106162499Y-81912499D01*
X106147616Y-81930634D01*
X105930634Y-82147616D01*
X105912499Y-82162499D01*
X105853141Y-82234827D01*
X105809034Y-82317347D01*
X105801217Y-82343116D01*
X105781873Y-82406884D01*
X105772702Y-82500000D01*
X105775000Y-82523331D01*
X105775001Y-87726658D01*
X105772702Y-87750000D01*
X105781873Y-87843116D01*
X105801218Y-87906885D01*
X105809035Y-87932654D01*
X105853142Y-88015173D01*
X105912500Y-88087501D01*
X105930629Y-88102379D01*
X106147616Y-88319366D01*
X106162499Y-88337501D01*
X106234827Y-88396859D01*
X106317346Y-88440966D01*
X106372109Y-88457578D01*
X106406883Y-88468127D01*
X106440164Y-88471405D01*
X106442990Y-88480720D01*
X106498704Y-88584954D01*
X106573683Y-88676317D01*
X106665045Y-88751296D01*
X106769279Y-88807010D01*
X106882379Y-88841318D01*
X107000000Y-88852903D01*
X107029474Y-88850000D01*
X107970526Y-88850000D01*
X108000000Y-88852903D01*
X108117620Y-88841318D01*
X108230720Y-88807010D01*
X108334954Y-88751296D01*
X108426317Y-88676317D01*
X108501296Y-88584955D01*
X108525001Y-88540606D01*
X108525000Y-89226667D01*
X108525000Y-89476668D01*
X108522702Y-89500000D01*
X108525000Y-89523331D01*
X108531873Y-89593115D01*
X108559034Y-89682653D01*
X108603141Y-89765173D01*
X108662499Y-89837501D01*
X108680634Y-89852384D01*
X108897616Y-90069366D01*
X108912499Y-90087501D01*
X108984827Y-90146859D01*
X109067346Y-90190966D01*
X109129722Y-90209888D01*
X109156883Y-90218127D01*
X109249999Y-90227298D01*
X109273331Y-90225000D01*
X114053250Y-90225000D01*
X114897625Y-91069377D01*
X114912499Y-91087501D01*
X114931558Y-91103142D01*
X114984827Y-91146859D01*
X115067346Y-91190966D01*
X115156884Y-91218127D01*
X115250000Y-91227298D01*
X115273332Y-91225000D01*
X115398307Y-91225000D01*
X115398307Y-91375000D01*
X115405065Y-91443612D01*
X115425078Y-91509587D01*
X115457578Y-91570390D01*
X115501315Y-91623685D01*
X115554610Y-91667422D01*
X115615413Y-91699922D01*
X115681388Y-91719935D01*
X115750000Y-91726693D01*
X116150000Y-91726693D01*
X116150000Y-91750000D01*
X116151921Y-91769509D01*
X116157612Y-91788268D01*
X116166853Y-91805557D01*
X116179289Y-91820711D01*
X116194443Y-91833147D01*
X116211732Y-91842388D01*
X116230491Y-91848079D01*
X116250000Y-91850000D01*
X117500000Y-91850000D01*
X117519509Y-91848079D01*
X117538268Y-91842388D01*
X117555557Y-91833147D01*
X117570711Y-91820711D01*
X117583147Y-91805557D01*
X117592388Y-91788268D01*
X117598079Y-91769509D01*
X117600000Y-91750000D01*
X117600000Y-91726693D01*
X118000000Y-91726693D01*
X118068612Y-91719935D01*
X118134587Y-91699922D01*
X118195390Y-91667422D01*
X118248685Y-91623685D01*
X118292422Y-91570390D01*
X118324922Y-91509587D01*
X118344935Y-91443612D01*
X118351693Y-91375000D01*
X118351693Y-91225000D01*
X119775000Y-91225000D01*
X119775001Y-94665367D01*
X119771903Y-94667437D01*
X119667437Y-94771903D01*
X119631959Y-94825000D01*
X119351693Y-94825000D01*
X119351693Y-94800000D01*
X119344935Y-94731388D01*
X119324922Y-94665413D01*
X119292422Y-94604610D01*
X119248685Y-94551315D01*
X119195390Y-94507578D01*
X119134587Y-94475078D01*
X119068612Y-94455065D01*
X119000000Y-94448307D01*
X118600000Y-94448307D01*
X118600000Y-94351693D01*
X119000000Y-94351693D01*
X119068612Y-94344935D01*
X119134587Y-94324922D01*
X119195390Y-94292422D01*
X119248685Y-94248685D01*
X119292422Y-94195390D01*
X119324922Y-94134587D01*
X119344935Y-94068612D01*
X119351693Y-94000000D01*
X119351693Y-93000000D01*
X119344935Y-92931388D01*
X119324922Y-92865413D01*
X119292422Y-92804610D01*
X119248685Y-92751315D01*
X119195390Y-92707578D01*
X119134587Y-92675078D01*
X119068612Y-92655065D01*
X119000000Y-92648307D01*
X117500000Y-92648307D01*
X117482811Y-92650000D01*
X115250000Y-92650000D01*
X115230491Y-92651921D01*
X115211732Y-92657612D01*
X115194443Y-92666853D01*
X115179289Y-92679289D01*
X115166853Y-92694443D01*
X115157612Y-92711732D01*
X115151921Y-92730491D01*
X115150000Y-92750000D01*
X115150000Y-93548307D01*
X114500000Y-93548307D01*
X114431388Y-93555065D01*
X114365413Y-93575078D01*
X114304610Y-93607578D01*
X114251315Y-93651315D01*
X114207578Y-93704610D01*
X114175078Y-93765413D01*
X114155065Y-93831388D01*
X114151623Y-93866339D01*
X114105258Y-93835359D01*
X113968767Y-93778822D01*
X113823869Y-93750000D01*
X113676131Y-93750000D01*
X113531233Y-93778822D01*
X113394742Y-93835359D01*
X113271903Y-93917437D01*
X113251693Y-93937647D01*
X113251693Y-93750000D01*
X113244935Y-93681388D01*
X113224922Y-93615413D01*
X113192422Y-93554610D01*
X113148685Y-93501315D01*
X113100000Y-93461361D01*
X113100000Y-91750000D01*
X113098079Y-91730491D01*
X113092388Y-91711732D01*
X113083147Y-91694443D01*
X113070711Y-91679289D01*
X113055557Y-91666853D01*
X113038268Y-91657612D01*
X113019509Y-91651921D01*
X113000000Y-91650000D01*
X112387500Y-91650000D01*
X112450000Y-91587500D01*
X112452661Y-91250000D01*
X112442042Y-91142181D01*
X112410592Y-91038506D01*
X112359521Y-90942958D01*
X112290790Y-90859210D01*
X112207042Y-90790479D01*
X112111494Y-90739408D01*
X112007819Y-90707958D01*
X111900000Y-90697339D01*
X111662500Y-90700000D01*
X111525000Y-90837500D01*
X111525000Y-91650000D01*
X111475000Y-91650000D01*
X111475000Y-90837500D01*
X111337500Y-90700000D01*
X111100000Y-90697339D01*
X110992181Y-90707958D01*
X110888506Y-90739408D01*
X110792958Y-90790479D01*
X110709210Y-90859210D01*
X110640479Y-90942958D01*
X110589408Y-91038506D01*
X110557958Y-91142181D01*
X110547339Y-91250000D01*
X110550000Y-91587500D01*
X110612500Y-91650000D01*
X110000000Y-91650000D01*
X109980491Y-91651921D01*
X109961732Y-91657612D01*
X109944443Y-91666853D01*
X109929289Y-91679289D01*
X109916853Y-91694443D01*
X109907612Y-91711732D01*
X109901921Y-91730491D01*
X109900000Y-91750000D01*
X109900000Y-93461361D01*
X109851315Y-93501315D01*
X109807578Y-93554610D01*
X109775078Y-93615413D01*
X109755065Y-93681388D01*
X109748307Y-93750000D01*
X109748307Y-94750000D01*
X109755065Y-94818612D01*
X109775078Y-94884587D01*
X109807578Y-94945390D01*
X109851315Y-94998685D01*
X109904040Y-95041954D01*
X109835359Y-95144742D01*
X109778822Y-95281233D01*
X109750000Y-95426131D01*
X109750000Y-95573869D01*
X109778822Y-95718767D01*
X109802115Y-95775000D01*
X107196752Y-95775000D01*
X106475000Y-95053250D01*
X106475000Y-94101693D01*
X106625000Y-94101693D01*
X106693612Y-94094935D01*
X106759587Y-94074922D01*
X106820390Y-94042422D01*
X106873685Y-93998685D01*
X106917422Y-93945390D01*
X106949922Y-93884587D01*
X106969935Y-93818612D01*
X106976693Y-93750000D01*
X106976693Y-93350000D01*
X107000000Y-93350000D01*
X107019509Y-93348079D01*
X107038268Y-93342388D01*
X107055557Y-93333147D01*
X107070711Y-93320711D01*
X107083147Y-93305557D01*
X107092388Y-93288268D01*
X107098079Y-93269509D01*
X107100000Y-93250000D01*
X107100000Y-92163998D01*
X107114408Y-92211494D01*
X107150000Y-92278083D01*
X107150000Y-93250000D01*
X107151921Y-93269509D01*
X107157612Y-93288268D01*
X107166853Y-93305557D01*
X107179289Y-93320711D01*
X107194443Y-93333147D01*
X107211732Y-93342388D01*
X107230491Y-93348079D01*
X107250000Y-93350000D01*
X107273307Y-93350000D01*
X107273307Y-93750000D01*
X107280065Y-93818612D01*
X107300078Y-93884587D01*
X107332578Y-93945390D01*
X107376315Y-93998685D01*
X107429610Y-94042422D01*
X107490413Y-94074922D01*
X107556388Y-94094935D01*
X107625000Y-94101693D01*
X107775000Y-94101693D01*
X107775001Y-94165367D01*
X107771903Y-94167437D01*
X107667437Y-94271903D01*
X107585359Y-94394742D01*
X107528822Y-94531233D01*
X107500000Y-94676131D01*
X107500000Y-94823869D01*
X107528822Y-94968767D01*
X107585359Y-95105258D01*
X107667437Y-95228097D01*
X107771903Y-95332563D01*
X107894742Y-95414641D01*
X108031233Y-95471178D01*
X108176131Y-95500000D01*
X108323869Y-95500000D01*
X108468767Y-95471178D01*
X108605258Y-95414641D01*
X108728097Y-95332563D01*
X108832563Y-95228097D01*
X108914641Y-95105258D01*
X108971178Y-94968767D01*
X109000000Y-94823869D01*
X109000000Y-94676131D01*
X108971178Y-94531233D01*
X108914641Y-94394742D01*
X108832563Y-94271903D01*
X108728097Y-94167437D01*
X108725000Y-94165368D01*
X108725000Y-94101693D01*
X108875000Y-94101693D01*
X108943612Y-94094935D01*
X109009587Y-94074922D01*
X109070390Y-94042422D01*
X109123685Y-93998685D01*
X109167422Y-93945390D01*
X109199922Y-93884587D01*
X109219935Y-93818612D01*
X109226693Y-93750000D01*
X109226693Y-93350000D01*
X109250000Y-93350000D01*
X109269509Y-93348079D01*
X109288268Y-93342388D01*
X109305557Y-93333147D01*
X109320711Y-93320711D01*
X109333147Y-93305557D01*
X109342388Y-93288268D01*
X109348079Y-93269509D01*
X109350000Y-93250000D01*
X109350000Y-92278083D01*
X109385592Y-92211494D01*
X109417042Y-92107819D01*
X109427661Y-92000000D01*
X109425000Y-91912500D01*
X109350000Y-91837500D01*
X109350000Y-91662500D01*
X109425000Y-91587500D01*
X109427661Y-91500000D01*
X109417042Y-91392181D01*
X109385592Y-91288506D01*
X109334521Y-91192958D01*
X109265790Y-91109210D01*
X109182042Y-91040479D01*
X109086494Y-90989408D01*
X108982819Y-90957958D01*
X108875000Y-90947339D01*
X108412500Y-90950000D01*
X108275000Y-91087500D01*
X108275000Y-91725000D01*
X108633578Y-91725000D01*
X108583578Y-91775000D01*
X108275000Y-91775000D01*
X108275000Y-91795000D01*
X108225000Y-91795000D01*
X108225000Y-91775000D01*
X107916422Y-91775000D01*
X107866422Y-91725000D01*
X108225000Y-91725000D01*
X108225000Y-91087500D01*
X108087500Y-90950000D01*
X107625000Y-90947339D01*
X107517181Y-90957958D01*
X107413506Y-90989408D01*
X107317958Y-91040479D01*
X107234210Y-91109210D01*
X107165479Y-91192958D01*
X107114408Y-91288506D01*
X107082958Y-91392181D01*
X107072339Y-91500000D01*
X107075000Y-91587500D01*
X107150000Y-91662500D01*
X107150000Y-91837500D01*
X107075000Y-91912500D01*
X107074354Y-91933729D01*
X107070711Y-91929289D01*
X107055557Y-91916853D01*
X107038268Y-91907612D01*
X107019509Y-91901921D01*
X107000000Y-91900000D01*
X106976693Y-91900000D01*
X106976693Y-91500000D01*
X106969935Y-91431388D01*
X106949922Y-91365413D01*
X106917422Y-91304610D01*
X106873685Y-91251315D01*
X106820390Y-91207578D01*
X106759587Y-91175078D01*
X106693612Y-91155065D01*
X106625000Y-91148307D01*
X106475000Y-91148307D01*
X106475000Y-90334632D01*
X106478097Y-90332563D01*
X106582563Y-90228097D01*
X106664641Y-90105258D01*
X106721178Y-89968767D01*
X106750000Y-89823869D01*
X106750000Y-89676131D01*
X106721178Y-89531233D01*
X106664641Y-89394742D01*
X106582563Y-89271903D01*
X106478097Y-89167437D01*
X106355258Y-89085359D01*
X106218767Y-89028822D01*
X106073869Y-89000000D01*
X105926131Y-89000000D01*
X105781233Y-89028822D01*
X105644742Y-89085359D01*
X105521903Y-89167437D01*
X105417437Y-89271903D01*
X105335359Y-89394742D01*
X105278822Y-89531233D01*
X105250000Y-89676131D01*
X105250000Y-89823869D01*
X105278822Y-89968767D01*
X105335359Y-90105258D01*
X105417437Y-90228097D01*
X105521903Y-90332563D01*
X105525001Y-90334633D01*
X105525000Y-91148307D01*
X105375000Y-91148307D01*
X105306388Y-91155065D01*
X105240413Y-91175078D01*
X105179610Y-91207578D01*
X105126315Y-91251315D01*
X105082578Y-91304610D01*
X105050078Y-91365413D01*
X105030065Y-91431388D01*
X105023307Y-91500000D01*
X105023307Y-91900000D01*
X105000000Y-91900000D01*
X104980491Y-91901921D01*
X104967790Y-91905774D01*
X104940966Y-91817345D01*
X104917440Y-91773332D01*
X104896859Y-91734827D01*
X104837501Y-91662499D01*
X104819376Y-91647625D01*
X104352383Y-91180633D01*
X104337501Y-91162499D01*
X104265173Y-91103141D01*
X104182654Y-91059034D01*
X104093116Y-91031873D01*
X104023332Y-91025000D01*
X104000000Y-91022702D01*
X103976668Y-91025000D01*
X101480957Y-91025000D01*
X101373592Y-90765800D01*
X101203964Y-90511932D01*
X101143740Y-90451708D01*
X101144610Y-90452422D01*
X101205413Y-90484922D01*
X101271388Y-90504935D01*
X101340000Y-90511693D01*
X103740000Y-90511693D01*
X103808612Y-90504935D01*
X103874587Y-90484922D01*
X103935390Y-90452422D01*
X103988685Y-90408685D01*
X104032422Y-90355390D01*
X104064922Y-90294587D01*
X104084935Y-90228612D01*
X104091693Y-90160000D01*
X104091693Y-87760000D01*
X104084935Y-87691388D01*
X104064922Y-87625413D01*
X104032422Y-87564610D01*
X103988685Y-87511315D01*
X103935390Y-87467578D01*
X103874587Y-87435078D01*
X103808612Y-87415065D01*
X103740000Y-87408307D01*
X101340000Y-87408307D01*
X101271388Y-87415065D01*
X101205413Y-87435078D01*
X101144610Y-87467578D01*
X101091315Y-87511315D01*
X101047578Y-87564610D01*
X101015078Y-87625413D01*
X100995065Y-87691388D01*
X100988307Y-87760000D01*
X100988307Y-90160000D01*
X100995065Y-90228612D01*
X101015078Y-90294587D01*
X101047578Y-90355390D01*
X101048292Y-90356260D01*
X100988068Y-90296036D01*
X100734200Y-90126408D01*
X100452118Y-90009565D01*
X100152662Y-89950000D01*
X99847338Y-89950000D01*
X99547882Y-90009565D01*
X99265800Y-90126408D01*
X99011932Y-90296036D01*
X98951708Y-90356260D01*
X98952422Y-90355390D01*
X98984922Y-90294587D01*
X99004935Y-90228612D01*
X99011693Y-90160000D01*
X99011693Y-87760000D01*
X99004935Y-87691388D01*
X98984922Y-87625413D01*
X98952422Y-87564610D01*
X98908685Y-87511315D01*
X98855390Y-87467578D01*
X98794587Y-87435078D01*
X98728612Y-87415065D01*
X98660000Y-87408307D01*
X96260000Y-87408307D01*
X96191388Y-87415065D01*
X96125413Y-87435078D01*
X96064610Y-87467578D01*
X96011315Y-87511315D01*
X95967578Y-87564610D01*
X95935078Y-87625413D01*
X95915065Y-87691388D01*
X95908307Y-87760000D01*
X95908307Y-90160000D01*
X95915065Y-90228612D01*
X95935078Y-90294587D01*
X95967578Y-90355390D01*
X96011315Y-90408685D01*
X96064610Y-90452422D01*
X96125413Y-90484922D01*
X96191388Y-90504935D01*
X96260000Y-90511693D01*
X98660000Y-90511693D01*
X98728612Y-90504935D01*
X98794587Y-90484922D01*
X98855390Y-90452422D01*
X98856260Y-90451708D01*
X98796036Y-90511932D01*
X98626408Y-90765800D01*
X98509565Y-91047882D01*
X98450000Y-91347338D01*
X98450000Y-91652662D01*
X98509565Y-91952118D01*
X98626408Y-92234200D01*
X98796036Y-92488068D01*
X98856260Y-92548292D01*
X98855390Y-92547578D01*
X98794587Y-92515078D01*
X98728612Y-92495065D01*
X98660000Y-92488307D01*
X96260000Y-92488307D01*
X96191388Y-92495065D01*
X96125413Y-92515078D01*
X96064610Y-92547578D01*
X96011315Y-92591315D01*
X95967578Y-92644610D01*
X95935078Y-92705413D01*
X95915065Y-92771388D01*
X95908307Y-92840000D01*
X95908307Y-95240000D01*
X95915065Y-95308612D01*
X95935078Y-95374587D01*
X95967578Y-95435390D01*
X96011315Y-95488685D01*
X96064610Y-95532422D01*
X96125413Y-95564922D01*
X96191388Y-95584935D01*
X96260000Y-95591693D01*
X98660000Y-95591693D01*
X98728612Y-95584935D01*
X98794587Y-95564922D01*
X98855390Y-95532422D01*
X98908685Y-95488685D01*
X98952422Y-95435390D01*
X98984922Y-95374587D01*
X99004935Y-95308612D01*
X99011693Y-95240000D01*
X99011693Y-92840000D01*
X99004935Y-92771388D01*
X98984922Y-92705413D01*
X98952422Y-92644610D01*
X98951708Y-92643740D01*
X99011932Y-92703964D01*
X99265800Y-92873592D01*
X99547882Y-92990435D01*
X99847338Y-93050000D01*
X100152662Y-93050000D01*
X100452118Y-92990435D01*
X100734200Y-92873592D01*
X100988068Y-92703964D01*
X101048292Y-92643740D01*
X101047578Y-92644610D01*
X101015078Y-92705413D01*
X100995065Y-92771388D01*
X100988307Y-92840000D01*
X100988307Y-95240000D01*
X100995065Y-95308612D01*
X101015078Y-95374587D01*
X101047578Y-95435390D01*
X101091315Y-95488685D01*
X101144610Y-95532422D01*
X101205413Y-95564922D01*
X101271388Y-95584935D01*
X101340000Y-95591693D01*
X103740000Y-95591693D01*
X103808612Y-95584935D01*
X103874587Y-95564922D01*
X103935390Y-95532422D01*
X103988685Y-95488685D01*
X104032422Y-95435390D01*
X104049929Y-95402637D01*
X104053571Y-95414641D01*
X104059035Y-95432654D01*
X104103142Y-95515173D01*
X104162500Y-95587501D01*
X104180629Y-95602379D01*
X104397616Y-95819366D01*
X104412499Y-95837501D01*
X104484827Y-95896859D01*
X104567346Y-95940966D01*
X104629722Y-95959888D01*
X104656883Y-95968127D01*
X104749999Y-95977298D01*
X104773331Y-95975000D01*
X105726668Y-95975000D01*
X105750000Y-95977298D01*
X105773332Y-95975000D01*
X105843116Y-95968127D01*
X105932654Y-95940966D01*
X105989064Y-95910815D01*
X106478248Y-96400000D01*
X95600000Y-96400000D01*
X95600000Y-78500000D01*
X98148307Y-78500000D01*
X98148307Y-80500000D01*
X98155065Y-80568612D01*
X98175078Y-80634587D01*
X98207578Y-80695390D01*
X98251315Y-80748685D01*
X98304610Y-80792422D01*
X98365413Y-80824922D01*
X98431388Y-80844935D01*
X98500000Y-80851693D01*
X99025001Y-80851693D01*
X99025001Y-81476660D01*
X99025000Y-81476669D01*
X99025000Y-81726669D01*
X99025001Y-83226659D01*
X99025000Y-83226669D01*
X99025001Y-84726658D01*
X99022702Y-84750000D01*
X99031873Y-84843116D01*
X99051218Y-84906885D01*
X99059035Y-84932654D01*
X99103142Y-85015173D01*
X99162500Y-85087501D01*
X99180629Y-85102379D01*
X99397616Y-85319366D01*
X99412499Y-85337501D01*
X99484827Y-85396859D01*
X99567346Y-85440966D01*
X99629722Y-85459888D01*
X99656883Y-85468127D01*
X99749999Y-85477298D01*
X99773331Y-85475000D01*
X100148307Y-85475000D01*
X100148307Y-85625000D01*
X100155065Y-85693612D01*
X100175078Y-85759587D01*
X100207578Y-85820390D01*
X100251315Y-85873685D01*
X100304610Y-85917422D01*
X100365413Y-85949922D01*
X100431388Y-85969935D01*
X100500000Y-85976693D01*
X100900000Y-85976693D01*
X100900000Y-86000000D01*
X100901921Y-86019509D01*
X100907612Y-86038268D01*
X100916853Y-86055557D01*
X100929289Y-86070711D01*
X100944443Y-86083147D01*
X100961732Y-86092388D01*
X100980491Y-86098079D01*
X101000000Y-86100000D01*
X101971917Y-86100000D01*
X102038506Y-86135592D01*
X102142181Y-86167042D01*
X102250000Y-86177661D01*
X102337500Y-86175000D01*
X102412500Y-86100000D01*
X102587500Y-86100000D01*
X102662500Y-86175000D01*
X102750000Y-86177661D01*
X102857819Y-86167042D01*
X102961494Y-86135592D01*
X103057042Y-86084521D01*
X103140790Y-86015790D01*
X103209521Y-85932042D01*
X103260592Y-85836494D01*
X103292042Y-85732819D01*
X103302661Y-85625000D01*
X103300000Y-85162500D01*
X103162500Y-85025000D01*
X102525000Y-85025000D01*
X102525000Y-85383578D01*
X102475000Y-85333578D01*
X102475000Y-85025000D01*
X102455000Y-85025000D01*
X102455000Y-84975000D01*
X102475000Y-84975000D01*
X102475000Y-84666422D01*
X102525000Y-84616422D01*
X102525000Y-84975000D01*
X103162500Y-84975000D01*
X103300000Y-84837500D01*
X103302661Y-84375000D01*
X103292042Y-84267181D01*
X103260592Y-84163506D01*
X103209521Y-84067958D01*
X103140790Y-83984210D01*
X103057042Y-83915479D01*
X102961494Y-83864408D01*
X102857819Y-83832958D01*
X102750000Y-83822339D01*
X102662500Y-83825000D01*
X102587500Y-83900000D01*
X102412500Y-83900000D01*
X102337500Y-83825000D01*
X102250000Y-83822339D01*
X102142181Y-83832958D01*
X102038506Y-83864408D01*
X101971917Y-83900000D01*
X101000000Y-83900000D01*
X100980491Y-83901921D01*
X100961732Y-83907612D01*
X100944443Y-83916853D01*
X100929289Y-83929289D01*
X100916853Y-83944443D01*
X100907612Y-83961732D01*
X100901921Y-83980491D01*
X100900000Y-84000000D01*
X100900000Y-84023307D01*
X100500000Y-84023307D01*
X100431388Y-84030065D01*
X100365413Y-84050078D01*
X100304610Y-84082578D01*
X100251315Y-84126315D01*
X100207578Y-84179610D01*
X100175078Y-84240413D01*
X100155065Y-84306388D01*
X100148307Y-84375000D01*
X100148307Y-84525000D01*
X99975000Y-84525000D01*
X99975000Y-80851693D01*
X100500000Y-80851693D01*
X100568612Y-80844935D01*
X100634587Y-80824922D01*
X100695390Y-80792422D01*
X100748685Y-80748685D01*
X100792422Y-80695390D01*
X100824922Y-80634587D01*
X100844935Y-80568612D01*
X100851693Y-80500000D01*
X100851693Y-78500000D01*
X100844935Y-78431388D01*
X100824922Y-78365413D01*
X100792422Y-78304610D01*
X100748685Y-78251315D01*
X100695390Y-78207578D01*
X100634587Y-78175078D01*
X100568612Y-78155065D01*
X100500000Y-78148307D01*
X98500000Y-78148307D01*
X98431388Y-78155065D01*
X98365413Y-78175078D01*
X98304610Y-78207578D01*
X98251315Y-78251315D01*
X98207578Y-78304610D01*
X98175078Y-78365413D01*
X98155065Y-78431388D01*
X98148307Y-78500000D01*
X95600000Y-78500000D01*
X95600000Y-75521614D01*
X98513742Y-75521614D01*
X98604868Y-75774576D01*
X98870725Y-75924716D01*
X99160765Y-76020106D01*
X99463841Y-76057080D01*
X99768307Y-76034215D01*
X100062462Y-75952391D01*
X100335002Y-75814753D01*
X100395132Y-75774576D01*
X100486258Y-75521614D01*
X99500000Y-74535355D01*
X98513742Y-75521614D01*
X95600000Y-75521614D01*
X95600000Y-74463841D01*
X97942920Y-74463841D01*
X97965785Y-74768307D01*
X98047609Y-75062462D01*
X98185247Y-75335002D01*
X98225424Y-75395132D01*
X98478386Y-75486258D01*
X99464645Y-74500000D01*
X99535355Y-74500000D01*
X100521614Y-75486258D01*
X100774576Y-75395132D01*
X100924716Y-75129275D01*
X101020106Y-74839235D01*
X101057080Y-74536159D01*
X101034215Y-74231693D01*
X100952391Y-73937538D01*
X100814753Y-73664998D01*
X100774576Y-73604868D01*
X100521614Y-73513742D01*
X99535355Y-74500000D01*
X99464645Y-74500000D01*
X98478386Y-73513742D01*
X98225424Y-73604868D01*
X98075284Y-73870725D01*
X97979894Y-74160765D01*
X97942920Y-74463841D01*
X95600000Y-74463841D01*
X95600000Y-73478386D01*
X98513742Y-73478386D01*
X99500000Y-74464645D01*
X100486258Y-73478386D01*
X100395132Y-73225424D01*
X100129275Y-73075284D01*
X99839235Y-72979894D01*
X99536159Y-72942920D01*
X99231693Y-72965785D01*
X98937538Y-73047609D01*
X98664998Y-73185247D01*
X98604868Y-73225424D01*
X98513742Y-73478386D01*
X95600000Y-73478386D01*
X95600000Y-70600000D01*
X115865255Y-70600000D01*
X115835359Y-70644742D01*
X115835359Y-70644742D01*
G37*
X115835359Y-70644742D02*
X115778822Y-70781233D01*
X115750000Y-70926131D01*
X115750000Y-71073869D01*
X115778822Y-71218767D01*
X115835359Y-71355258D01*
X115917437Y-71478097D01*
X115937647Y-71498307D01*
X114500000Y-71498307D01*
X114431388Y-71505065D01*
X114365413Y-71525078D01*
X114304610Y-71557578D01*
X114251315Y-71601315D01*
X114211361Y-71650000D01*
X112250000Y-71650000D01*
X112230491Y-71651921D01*
X112211732Y-71657612D01*
X112194443Y-71666853D01*
X112179289Y-71679289D01*
X112166853Y-71694443D01*
X112157612Y-71711732D01*
X112151921Y-71730491D01*
X112150000Y-71750000D01*
X112150000Y-72398307D01*
X111500000Y-72398307D01*
X111466526Y-72401604D01*
X111459888Y-72379722D01*
X111440966Y-72317346D01*
X111396859Y-72234827D01*
X111337501Y-72162499D01*
X111319366Y-72147616D01*
X111102384Y-71930634D01*
X111087501Y-71912499D01*
X111015173Y-71853141D01*
X110932654Y-71809034D01*
X110845040Y-71782457D01*
X110844935Y-71781388D01*
X110824922Y-71715413D01*
X110792422Y-71654610D01*
X110748685Y-71601315D01*
X110695390Y-71557578D01*
X110634587Y-71525078D01*
X110568612Y-71505065D01*
X110500000Y-71498307D01*
X109500000Y-71498307D01*
X109431388Y-71505065D01*
X109365413Y-71525078D01*
X109304610Y-71557578D01*
X109251315Y-71601315D01*
X109211361Y-71650000D01*
X107500000Y-71650000D01*
X107480491Y-71651921D01*
X107461732Y-71657612D01*
X107444443Y-71666853D01*
X107429289Y-71679289D01*
X107416853Y-71694443D01*
X107407612Y-71711732D01*
X107401921Y-71730491D01*
X107400000Y-71750000D01*
X107400000Y-72498307D01*
X107000000Y-72498307D01*
X106931388Y-72505065D01*
X106865413Y-72525078D01*
X106804610Y-72557578D01*
X106751315Y-72601315D01*
X106707578Y-72654610D01*
X106675078Y-72715413D01*
X106655065Y-72781388D01*
X106654960Y-72782456D01*
X106629722Y-72790112D01*
X106567346Y-72809034D01*
X106484827Y-72853141D01*
X106412499Y-72912499D01*
X106397616Y-72930634D01*
X106180634Y-73147616D01*
X106162499Y-73162499D01*
X106103141Y-73234827D01*
X106059034Y-73317347D01*
X106040112Y-73379723D01*
X106031873Y-73406884D01*
X106022702Y-73500000D01*
X106025000Y-73523331D01*
X106025001Y-76476658D01*
X106022702Y-76500000D01*
X106031873Y-76593116D01*
X106051218Y-76656885D01*
X106059035Y-76682654D01*
X106095032Y-76750000D01*
X106082561Y-76773332D01*
X106059035Y-76817346D01*
X106031873Y-76906884D01*
X106022702Y-77000000D01*
X106025001Y-77023342D01*
X106025000Y-78165368D01*
X106021903Y-78167437D01*
X105917437Y-78271903D01*
X105835359Y-78394742D01*
X105778822Y-78531233D01*
X105750000Y-78676131D01*
X105750000Y-78823869D01*
X105778822Y-78968767D01*
X105835359Y-79105258D01*
X105917437Y-79228097D01*
X106021903Y-79332563D01*
X106144742Y-79414641D01*
X106281233Y-79471178D01*
X106426131Y-79500000D01*
X106573869Y-79500000D01*
X106718767Y-79471178D01*
X106799102Y-79437902D01*
X106804610Y-79442422D01*
X106865413Y-79474922D01*
X106931388Y-79494935D01*
X107000000Y-79501693D01*
X108000000Y-79501693D01*
X108068612Y-79494935D01*
X108134587Y-79474922D01*
X108195390Y-79442422D01*
X108248685Y-79398685D01*
X108288639Y-79350000D01*
X110000000Y-79350000D01*
X110019509Y-79348079D01*
X110038268Y-79342388D01*
X110055557Y-79333147D01*
X110070711Y-79320711D01*
X110083147Y-79305557D01*
X110092388Y-79288268D01*
X110098079Y-79269509D01*
X110100000Y-79250000D01*
X110100000Y-78501693D01*
X110500000Y-78501693D01*
X110568612Y-78494935D01*
X110634587Y-78474922D01*
X110695390Y-78442422D01*
X110748685Y-78398685D01*
X110792422Y-78345390D01*
X110824922Y-78284587D01*
X110842997Y-78225000D01*
X111148307Y-78225000D01*
X111148307Y-78250000D01*
X111155065Y-78318612D01*
X111175078Y-78384587D01*
X111207578Y-78445390D01*
X111251315Y-78498685D01*
X111304610Y-78542422D01*
X111365413Y-78574922D01*
X111431388Y-78594935D01*
X111500000Y-78601693D01*
X112150000Y-78601693D01*
X112150000Y-79250000D01*
X112151921Y-79269509D01*
X112157612Y-79288268D01*
X112166853Y-79305557D01*
X112179289Y-79320711D01*
X112194443Y-79333147D01*
X112211732Y-79342388D01*
X112230491Y-79348079D01*
X112250000Y-79350000D01*
X114211361Y-79350000D01*
X114251315Y-79398685D01*
X114304610Y-79442422D01*
X114365413Y-79474922D01*
X114431388Y-79494935D01*
X114500000Y-79501693D01*
X116000000Y-79501693D01*
X116068612Y-79494935D01*
X116134587Y-79474922D01*
X116195390Y-79442422D01*
X116248685Y-79398685D01*
X116292422Y-79345390D01*
X116324922Y-79284587D01*
X116344935Y-79218612D01*
X116351693Y-79150000D01*
X116351693Y-79115525D01*
X116432654Y-79090966D01*
X116515173Y-79046859D01*
X116587501Y-78987501D01*
X116602384Y-78969366D01*
X116775000Y-78796750D01*
X116775000Y-80476668D01*
X116772702Y-80500000D01*
X116781873Y-80593116D01*
X116790112Y-80620277D01*
X116809034Y-80682653D01*
X116853141Y-80765173D01*
X116912499Y-80837501D01*
X116930634Y-80852384D01*
X117228250Y-81150000D01*
X114500000Y-81150000D01*
X114480491Y-81151921D01*
X114461732Y-81157612D01*
X114444443Y-81166853D01*
X114429289Y-81179289D01*
X114416853Y-81194443D01*
X114407612Y-81211732D01*
X114401921Y-81230491D01*
X114400000Y-81250000D01*
X114400000Y-81648307D01*
X113750000Y-81648307D01*
X113725000Y-81650769D01*
X113725000Y-81023331D01*
X113727298Y-80999999D01*
X113718127Y-80906883D01*
X113706217Y-80867621D01*
X113690966Y-80817346D01*
X113646859Y-80734827D01*
X113587501Y-80662499D01*
X113569366Y-80647616D01*
X113352384Y-80430634D01*
X113337501Y-80412499D01*
X113265173Y-80353141D01*
X113182654Y-80309034D01*
X113093116Y-80281873D01*
X113023332Y-80275000D01*
X113000000Y-80272702D01*
X112976668Y-80275000D01*
X112273331Y-80275000D01*
X112249999Y-80272702D01*
X112156883Y-80281873D01*
X112129722Y-80290112D01*
X112067346Y-80309034D01*
X112000000Y-80345031D01*
X111932654Y-80309034D01*
X111843116Y-80281873D01*
X111773332Y-80275000D01*
X111750000Y-80272702D01*
X111726668Y-80275000D01*
X108173331Y-80275000D01*
X108149999Y-80272702D01*
X108056883Y-80281873D01*
X108029722Y-80290112D01*
X107967346Y-80309034D01*
X107884827Y-80353141D01*
X107812499Y-80412499D01*
X107797620Y-80430629D01*
X107430629Y-80797621D01*
X107412500Y-80812499D01*
X107353142Y-80884827D01*
X107331628Y-80925078D01*
X107309035Y-80967346D01*
X107284475Y-81048307D01*
X106900000Y-81048307D01*
X106831388Y-81055065D01*
X106765413Y-81075078D01*
X106704610Y-81107578D01*
X106651315Y-81151315D01*
X106607578Y-81204610D01*
X106575078Y-81265413D01*
X106555065Y-81331388D01*
X106548307Y-81400000D01*
X106548307Y-81775000D01*
X106523331Y-81775000D01*
X106499999Y-81772702D01*
X106406883Y-81781873D01*
X106379722Y-81790112D01*
X106317346Y-81809034D01*
X106234827Y-81853141D01*
X106162499Y-81912499D01*
X106147616Y-81930634D01*
X105930634Y-82147616D01*
X105912499Y-82162499D01*
X105853141Y-82234827D01*
X105809034Y-82317347D01*
X105801217Y-82343116D01*
X105781873Y-82406884D01*
X105772702Y-82500000D01*
X105775000Y-82523331D01*
X105775001Y-87726658D01*
X105772702Y-87750000D01*
X105781873Y-87843116D01*
X105801218Y-87906885D01*
X105809035Y-87932654D01*
X105853142Y-88015173D01*
X105912500Y-88087501D01*
X105930629Y-88102379D01*
X106147616Y-88319366D01*
X106162499Y-88337501D01*
X106234827Y-88396859D01*
X106317346Y-88440966D01*
X106372109Y-88457578D01*
X106406883Y-88468127D01*
X106440164Y-88471405D01*
X106442990Y-88480720D01*
X106498704Y-88584954D01*
X106573683Y-88676317D01*
X106665045Y-88751296D01*
X106769279Y-88807010D01*
X106882379Y-88841318D01*
X107000000Y-88852903D01*
X107029474Y-88850000D01*
X107970526Y-88850000D01*
X108000000Y-88852903D01*
X108117620Y-88841318D01*
X108230720Y-88807010D01*
X108334954Y-88751296D01*
X108426317Y-88676317D01*
X108501296Y-88584955D01*
X108525001Y-88540606D01*
X108525000Y-89226667D01*
X108525000Y-89476668D01*
X108522702Y-89500000D01*
X108525000Y-89523331D01*
X108531873Y-89593115D01*
X108559034Y-89682653D01*
X108603141Y-89765173D01*
X108662499Y-89837501D01*
X108680634Y-89852384D01*
X108897616Y-90069366D01*
X108912499Y-90087501D01*
X108984827Y-90146859D01*
X109067346Y-90190966D01*
X109129722Y-90209888D01*
X109156883Y-90218127D01*
X109249999Y-90227298D01*
X109273331Y-90225000D01*
X114053250Y-90225000D01*
X114897625Y-91069377D01*
X114912499Y-91087501D01*
X114931558Y-91103142D01*
X114984827Y-91146859D01*
X115067346Y-91190966D01*
X115156884Y-91218127D01*
X115250000Y-91227298D01*
X115273332Y-91225000D01*
X115398307Y-91225000D01*
X115398307Y-91375000D01*
X115405065Y-91443612D01*
X115425078Y-91509587D01*
X115457578Y-91570390D01*
X115501315Y-91623685D01*
X115554610Y-91667422D01*
X115615413Y-91699922D01*
X115681388Y-91719935D01*
X115750000Y-91726693D01*
X116150000Y-91726693D01*
X116150000Y-91750000D01*
X116151921Y-91769509D01*
X116157612Y-91788268D01*
X116166853Y-91805557D01*
X116179289Y-91820711D01*
X116194443Y-91833147D01*
X116211732Y-91842388D01*
X116230491Y-91848079D01*
X116250000Y-91850000D01*
X117500000Y-91850000D01*
X117519509Y-91848079D01*
X117538268Y-91842388D01*
X117555557Y-91833147D01*
X117570711Y-91820711D01*
X117583147Y-91805557D01*
X117592388Y-91788268D01*
X117598079Y-91769509D01*
X117600000Y-91750000D01*
X117600000Y-91726693D01*
X118000000Y-91726693D01*
X118068612Y-91719935D01*
X118134587Y-91699922D01*
X118195390Y-91667422D01*
X118248685Y-91623685D01*
X118292422Y-91570390D01*
X118324922Y-91509587D01*
X118344935Y-91443612D01*
X118351693Y-91375000D01*
X118351693Y-91225000D01*
X119775000Y-91225000D01*
X119775001Y-94665367D01*
X119771903Y-94667437D01*
X119667437Y-94771903D01*
X119631959Y-94825000D01*
X119351693Y-94825000D01*
X119351693Y-94800000D01*
X119344935Y-94731388D01*
X119324922Y-94665413D01*
X119292422Y-94604610D01*
X119248685Y-94551315D01*
X119195390Y-94507578D01*
X119134587Y-94475078D01*
X119068612Y-94455065D01*
X119000000Y-94448307D01*
X118600000Y-94448307D01*
X118600000Y-94351693D01*
X119000000Y-94351693D01*
X119068612Y-94344935D01*
X119134587Y-94324922D01*
X119195390Y-94292422D01*
X119248685Y-94248685D01*
X119292422Y-94195390D01*
X119324922Y-94134587D01*
X119344935Y-94068612D01*
X119351693Y-94000000D01*
X119351693Y-93000000D01*
X119344935Y-92931388D01*
X119324922Y-92865413D01*
X119292422Y-92804610D01*
X119248685Y-92751315D01*
X119195390Y-92707578D01*
X119134587Y-92675078D01*
X119068612Y-92655065D01*
X119000000Y-92648307D01*
X117500000Y-92648307D01*
X117482811Y-92650000D01*
X115250000Y-92650000D01*
X115230491Y-92651921D01*
X115211732Y-92657612D01*
X115194443Y-92666853D01*
X115179289Y-92679289D01*
X115166853Y-92694443D01*
X115157612Y-92711732D01*
X115151921Y-92730491D01*
X115150000Y-92750000D01*
X115150000Y-93548307D01*
X114500000Y-93548307D01*
X114431388Y-93555065D01*
X114365413Y-93575078D01*
X114304610Y-93607578D01*
X114251315Y-93651315D01*
X114207578Y-93704610D01*
X114175078Y-93765413D01*
X114155065Y-93831388D01*
X114151623Y-93866339D01*
X114105258Y-93835359D01*
X113968767Y-93778822D01*
X113823869Y-93750000D01*
X113676131Y-93750000D01*
X113531233Y-93778822D01*
X113394742Y-93835359D01*
X113271903Y-93917437D01*
X113251693Y-93937647D01*
X113251693Y-93750000D01*
X113244935Y-93681388D01*
X113224922Y-93615413D01*
X113192422Y-93554610D01*
X113148685Y-93501315D01*
X113100000Y-93461361D01*
X113100000Y-91750000D01*
X113098079Y-91730491D01*
X113092388Y-91711732D01*
X113083147Y-91694443D01*
X113070711Y-91679289D01*
X113055557Y-91666853D01*
X113038268Y-91657612D01*
X113019509Y-91651921D01*
X113000000Y-91650000D01*
X112387500Y-91650000D01*
X112450000Y-91587500D01*
X112452661Y-91250000D01*
X112442042Y-91142181D01*
X112410592Y-91038506D01*
X112359521Y-90942958D01*
X112290790Y-90859210D01*
X112207042Y-90790479D01*
X112111494Y-90739408D01*
X112007819Y-90707958D01*
X111900000Y-90697339D01*
X111662500Y-90700000D01*
X111525000Y-90837500D01*
X111525000Y-91650000D01*
X111475000Y-91650000D01*
X111475000Y-90837500D01*
X111337500Y-90700000D01*
X111100000Y-90697339D01*
X110992181Y-90707958D01*
X110888506Y-90739408D01*
X110792958Y-90790479D01*
X110709210Y-90859210D01*
X110640479Y-90942958D01*
X110589408Y-91038506D01*
X110557958Y-91142181D01*
X110547339Y-91250000D01*
X110550000Y-91587500D01*
X110612500Y-91650000D01*
X110000000Y-91650000D01*
X109980491Y-91651921D01*
X109961732Y-91657612D01*
X109944443Y-91666853D01*
X109929289Y-91679289D01*
X109916853Y-91694443D01*
X109907612Y-91711732D01*
X109901921Y-91730491D01*
X109900000Y-91750000D01*
X109900000Y-93461361D01*
X109851315Y-93501315D01*
X109807578Y-93554610D01*
X109775078Y-93615413D01*
X109755065Y-93681388D01*
X109748307Y-93750000D01*
X109748307Y-94750000D01*
X109755065Y-94818612D01*
X109775078Y-94884587D01*
X109807578Y-94945390D01*
X109851315Y-94998685D01*
X109904040Y-95041954D01*
X109835359Y-95144742D01*
X109778822Y-95281233D01*
X109750000Y-95426131D01*
X109750000Y-95573869D01*
X109778822Y-95718767D01*
X109802115Y-95775000D01*
X107196752Y-95775000D01*
X106475000Y-95053250D01*
X106475000Y-94101693D01*
X106625000Y-94101693D01*
X106693612Y-94094935D01*
X106759587Y-94074922D01*
X106820390Y-94042422D01*
X106873685Y-93998685D01*
X106917422Y-93945390D01*
X106949922Y-93884587D01*
X106969935Y-93818612D01*
X106976693Y-93750000D01*
X106976693Y-93350000D01*
X107000000Y-93350000D01*
X107019509Y-93348079D01*
X107038268Y-93342388D01*
X107055557Y-93333147D01*
X107070711Y-93320711D01*
X107083147Y-93305557D01*
X107092388Y-93288268D01*
X107098079Y-93269509D01*
X107100000Y-93250000D01*
X107100000Y-92163998D01*
X107114408Y-92211494D01*
X107150000Y-92278083D01*
X107150000Y-93250000D01*
X107151921Y-93269509D01*
X107157612Y-93288268D01*
X107166853Y-93305557D01*
X107179289Y-93320711D01*
X107194443Y-93333147D01*
X107211732Y-93342388D01*
X107230491Y-93348079D01*
X107250000Y-93350000D01*
X107273307Y-93350000D01*
X107273307Y-93750000D01*
X107280065Y-93818612D01*
X107300078Y-93884587D01*
X107332578Y-93945390D01*
X107376315Y-93998685D01*
X107429610Y-94042422D01*
X107490413Y-94074922D01*
X107556388Y-94094935D01*
X107625000Y-94101693D01*
X107775000Y-94101693D01*
X107775001Y-94165367D01*
X107771903Y-94167437D01*
X107667437Y-94271903D01*
X107585359Y-94394742D01*
X107528822Y-94531233D01*
X107500000Y-94676131D01*
X107500000Y-94823869D01*
X107528822Y-94968767D01*
X107585359Y-95105258D01*
X107667437Y-95228097D01*
X107771903Y-95332563D01*
X107894742Y-95414641D01*
X108031233Y-95471178D01*
X108176131Y-95500000D01*
X108323869Y-95500000D01*
X108468767Y-95471178D01*
X108605258Y-95414641D01*
X108728097Y-95332563D01*
X108832563Y-95228097D01*
X108914641Y-95105258D01*
X108971178Y-94968767D01*
X109000000Y-94823869D01*
X109000000Y-94676131D01*
X108971178Y-94531233D01*
X108914641Y-94394742D01*
X108832563Y-94271903D01*
X108728097Y-94167437D01*
X108725000Y-94165368D01*
X108725000Y-94101693D01*
X108875000Y-94101693D01*
X108943612Y-94094935D01*
X109009587Y-94074922D01*
X109070390Y-94042422D01*
X109123685Y-93998685D01*
X109167422Y-93945390D01*
X109199922Y-93884587D01*
X109219935Y-93818612D01*
X109226693Y-93750000D01*
X109226693Y-93350000D01*
X109250000Y-93350000D01*
X109269509Y-93348079D01*
X109288268Y-93342388D01*
X109305557Y-93333147D01*
X109320711Y-93320711D01*
X109333147Y-93305557D01*
X109342388Y-93288268D01*
X109348079Y-93269509D01*
X109350000Y-93250000D01*
X109350000Y-92278083D01*
X109385592Y-92211494D01*
X109417042Y-92107819D01*
X109427661Y-92000000D01*
X109425000Y-91912500D01*
X109350000Y-91837500D01*
X109350000Y-91662500D01*
X109425000Y-91587500D01*
X109427661Y-91500000D01*
X109417042Y-91392181D01*
X109385592Y-91288506D01*
X109334521Y-91192958D01*
X109265790Y-91109210D01*
X109182042Y-91040479D01*
X109086494Y-90989408D01*
X108982819Y-90957958D01*
X108875000Y-90947339D01*
X108412500Y-90950000D01*
X108275000Y-91087500D01*
X108275000Y-91725000D01*
X108633578Y-91725000D01*
X108583578Y-91775000D01*
X108275000Y-91775000D01*
X108275000Y-91795000D01*
X108225000Y-91795000D01*
X108225000Y-91775000D01*
X107916422Y-91775000D01*
X107866422Y-91725000D01*
X108225000Y-91725000D01*
X108225000Y-91087500D01*
X108087500Y-90950000D01*
X107625000Y-90947339D01*
X107517181Y-90957958D01*
X107413506Y-90989408D01*
X107317958Y-91040479D01*
X107234210Y-91109210D01*
X107165479Y-91192958D01*
X107114408Y-91288506D01*
X107082958Y-91392181D01*
X107072339Y-91500000D01*
X107075000Y-91587500D01*
X107150000Y-91662500D01*
X107150000Y-91837500D01*
X107075000Y-91912500D01*
X107074354Y-91933729D01*
X107070711Y-91929289D01*
X107055557Y-91916853D01*
X107038268Y-91907612D01*
X107019509Y-91901921D01*
X107000000Y-91900000D01*
X106976693Y-91900000D01*
X106976693Y-91500000D01*
X106969935Y-91431388D01*
X106949922Y-91365413D01*
X106917422Y-91304610D01*
X106873685Y-91251315D01*
X106820390Y-91207578D01*
X106759587Y-91175078D01*
X106693612Y-91155065D01*
X106625000Y-91148307D01*
X106475000Y-91148307D01*
X106475000Y-90334632D01*
X106478097Y-90332563D01*
X106582563Y-90228097D01*
X106664641Y-90105258D01*
X106721178Y-89968767D01*
X106750000Y-89823869D01*
X106750000Y-89676131D01*
X106721178Y-89531233D01*
X106664641Y-89394742D01*
X106582563Y-89271903D01*
X106478097Y-89167437D01*
X106355258Y-89085359D01*
X106218767Y-89028822D01*
X106073869Y-89000000D01*
X105926131Y-89000000D01*
X105781233Y-89028822D01*
X105644742Y-89085359D01*
X105521903Y-89167437D01*
X105417437Y-89271903D01*
X105335359Y-89394742D01*
X105278822Y-89531233D01*
X105250000Y-89676131D01*
X105250000Y-89823869D01*
X105278822Y-89968767D01*
X105335359Y-90105258D01*
X105417437Y-90228097D01*
X105521903Y-90332563D01*
X105525001Y-90334633D01*
X105525000Y-91148307D01*
X105375000Y-91148307D01*
X105306388Y-91155065D01*
X105240413Y-91175078D01*
X105179610Y-91207578D01*
X105126315Y-91251315D01*
X105082578Y-91304610D01*
X105050078Y-91365413D01*
X105030065Y-91431388D01*
X105023307Y-91500000D01*
X105023307Y-91900000D01*
X105000000Y-91900000D01*
X104980491Y-91901921D01*
X104967790Y-91905774D01*
X104940966Y-91817345D01*
X104917440Y-91773332D01*
X104896859Y-91734827D01*
X104837501Y-91662499D01*
X104819376Y-91647625D01*
X104352383Y-91180633D01*
X104337501Y-91162499D01*
X104265173Y-91103141D01*
X104182654Y-91059034D01*
X104093116Y-91031873D01*
X104023332Y-91025000D01*
X104000000Y-91022702D01*
X103976668Y-91025000D01*
X101480957Y-91025000D01*
X101373592Y-90765800D01*
X101203964Y-90511932D01*
X101143740Y-90451708D01*
X101144610Y-90452422D01*
X101205413Y-90484922D01*
X101271388Y-90504935D01*
X101340000Y-90511693D01*
X103740000Y-90511693D01*
X103808612Y-90504935D01*
X103874587Y-90484922D01*
X103935390Y-90452422D01*
X103988685Y-90408685D01*
X104032422Y-90355390D01*
X104064922Y-90294587D01*
X104084935Y-90228612D01*
X104091693Y-90160000D01*
X104091693Y-87760000D01*
X104084935Y-87691388D01*
X104064922Y-87625413D01*
X104032422Y-87564610D01*
X103988685Y-87511315D01*
X103935390Y-87467578D01*
X103874587Y-87435078D01*
X103808612Y-87415065D01*
X103740000Y-87408307D01*
X101340000Y-87408307D01*
X101271388Y-87415065D01*
X101205413Y-87435078D01*
X101144610Y-87467578D01*
X101091315Y-87511315D01*
X101047578Y-87564610D01*
X101015078Y-87625413D01*
X100995065Y-87691388D01*
X100988307Y-87760000D01*
X100988307Y-90160000D01*
X100995065Y-90228612D01*
X101015078Y-90294587D01*
X101047578Y-90355390D01*
X101048292Y-90356260D01*
X100988068Y-90296036D01*
X100734200Y-90126408D01*
X100452118Y-90009565D01*
X100152662Y-89950000D01*
X99847338Y-89950000D01*
X99547882Y-90009565D01*
X99265800Y-90126408D01*
X99011932Y-90296036D01*
X98951708Y-90356260D01*
X98952422Y-90355390D01*
X98984922Y-90294587D01*
X99004935Y-90228612D01*
X99011693Y-90160000D01*
X99011693Y-87760000D01*
X99004935Y-87691388D01*
X98984922Y-87625413D01*
X98952422Y-87564610D01*
X98908685Y-87511315D01*
X98855390Y-87467578D01*
X98794587Y-87435078D01*
X98728612Y-87415065D01*
X98660000Y-87408307D01*
X96260000Y-87408307D01*
X96191388Y-87415065D01*
X96125413Y-87435078D01*
X96064610Y-87467578D01*
X96011315Y-87511315D01*
X95967578Y-87564610D01*
X95935078Y-87625413D01*
X95915065Y-87691388D01*
X95908307Y-87760000D01*
X95908307Y-90160000D01*
X95915065Y-90228612D01*
X95935078Y-90294587D01*
X95967578Y-90355390D01*
X96011315Y-90408685D01*
X96064610Y-90452422D01*
X96125413Y-90484922D01*
X96191388Y-90504935D01*
X96260000Y-90511693D01*
X98660000Y-90511693D01*
X98728612Y-90504935D01*
X98794587Y-90484922D01*
X98855390Y-90452422D01*
X98856260Y-90451708D01*
X98796036Y-90511932D01*
X98626408Y-90765800D01*
X98509565Y-91047882D01*
X98450000Y-91347338D01*
X98450000Y-91652662D01*
X98509565Y-91952118D01*
X98626408Y-92234200D01*
X98796036Y-92488068D01*
X98856260Y-92548292D01*
X98855390Y-92547578D01*
X98794587Y-92515078D01*
X98728612Y-92495065D01*
X98660000Y-92488307D01*
X96260000Y-92488307D01*
X96191388Y-92495065D01*
X96125413Y-92515078D01*
X96064610Y-92547578D01*
X96011315Y-92591315D01*
X95967578Y-92644610D01*
X95935078Y-92705413D01*
X95915065Y-92771388D01*
X95908307Y-92840000D01*
X95908307Y-95240000D01*
X95915065Y-95308612D01*
X95935078Y-95374587D01*
X95967578Y-95435390D01*
X96011315Y-95488685D01*
X96064610Y-95532422D01*
X96125413Y-95564922D01*
X96191388Y-95584935D01*
X96260000Y-95591693D01*
X98660000Y-95591693D01*
X98728612Y-95584935D01*
X98794587Y-95564922D01*
X98855390Y-95532422D01*
X98908685Y-95488685D01*
X98952422Y-95435390D01*
X98984922Y-95374587D01*
X99004935Y-95308612D01*
X99011693Y-95240000D01*
X99011693Y-92840000D01*
X99004935Y-92771388D01*
X98984922Y-92705413D01*
X98952422Y-92644610D01*
X98951708Y-92643740D01*
X99011932Y-92703964D01*
X99265800Y-92873592D01*
X99547882Y-92990435D01*
X99847338Y-93050000D01*
X100152662Y-93050000D01*
X100452118Y-92990435D01*
X100734200Y-92873592D01*
X100988068Y-92703964D01*
X101048292Y-92643740D01*
X101047578Y-92644610D01*
X101015078Y-92705413D01*
X100995065Y-92771388D01*
X100988307Y-92840000D01*
X100988307Y-95240000D01*
X100995065Y-95308612D01*
X101015078Y-95374587D01*
X101047578Y-95435390D01*
X101091315Y-95488685D01*
X101144610Y-95532422D01*
X101205413Y-95564922D01*
X101271388Y-95584935D01*
X101340000Y-95591693D01*
X103740000Y-95591693D01*
X103808612Y-95584935D01*
X103874587Y-95564922D01*
X103935390Y-95532422D01*
X103988685Y-95488685D01*
X104032422Y-95435390D01*
X104049929Y-95402637D01*
X104053571Y-95414641D01*
X104059035Y-95432654D01*
X104103142Y-95515173D01*
X104162500Y-95587501D01*
X104180629Y-95602379D01*
X104397616Y-95819366D01*
X104412499Y-95837501D01*
X104484827Y-95896859D01*
X104567346Y-95940966D01*
X104629722Y-95959888D01*
X104656883Y-95968127D01*
X104749999Y-95977298D01*
X104773331Y-95975000D01*
X105726668Y-95975000D01*
X105750000Y-95977298D01*
X105773332Y-95975000D01*
X105843116Y-95968127D01*
X105932654Y-95940966D01*
X105989064Y-95910815D01*
X106478248Y-96400000D01*
X95600000Y-96400000D01*
X95600000Y-78500000D01*
X98148307Y-78500000D01*
X98148307Y-80500000D01*
X98155065Y-80568612D01*
X98175078Y-80634587D01*
X98207578Y-80695390D01*
X98251315Y-80748685D01*
X98304610Y-80792422D01*
X98365413Y-80824922D01*
X98431388Y-80844935D01*
X98500000Y-80851693D01*
X99025001Y-80851693D01*
X99025001Y-81476660D01*
X99025000Y-81476669D01*
X99025000Y-81726669D01*
X99025001Y-83226659D01*
X99025000Y-83226669D01*
X99025001Y-84726658D01*
X99022702Y-84750000D01*
X99031873Y-84843116D01*
X99051218Y-84906885D01*
X99059035Y-84932654D01*
X99103142Y-85015173D01*
X99162500Y-85087501D01*
X99180629Y-85102379D01*
X99397616Y-85319366D01*
X99412499Y-85337501D01*
X99484827Y-85396859D01*
X99567346Y-85440966D01*
X99629722Y-85459888D01*
X99656883Y-85468127D01*
X99749999Y-85477298D01*
X99773331Y-85475000D01*
X100148307Y-85475000D01*
X100148307Y-85625000D01*
X100155065Y-85693612D01*
X100175078Y-85759587D01*
X100207578Y-85820390D01*
X100251315Y-85873685D01*
X100304610Y-85917422D01*
X100365413Y-85949922D01*
X100431388Y-85969935D01*
X100500000Y-85976693D01*
X100900000Y-85976693D01*
X100900000Y-86000000D01*
X100901921Y-86019509D01*
X100907612Y-86038268D01*
X100916853Y-86055557D01*
X100929289Y-86070711D01*
X100944443Y-86083147D01*
X100961732Y-86092388D01*
X100980491Y-86098079D01*
X101000000Y-86100000D01*
X101971917Y-86100000D01*
X102038506Y-86135592D01*
X102142181Y-86167042D01*
X102250000Y-86177661D01*
X102337500Y-86175000D01*
X102412500Y-86100000D01*
X102587500Y-86100000D01*
X102662500Y-86175000D01*
X102750000Y-86177661D01*
X102857819Y-86167042D01*
X102961494Y-86135592D01*
X103057042Y-86084521D01*
X103140790Y-86015790D01*
X103209521Y-85932042D01*
X103260592Y-85836494D01*
X103292042Y-85732819D01*
X103302661Y-85625000D01*
X103300000Y-85162500D01*
X103162500Y-85025000D01*
X102525000Y-85025000D01*
X102525000Y-85383578D01*
X102475000Y-85333578D01*
X102475000Y-85025000D01*
X102455000Y-85025000D01*
X102455000Y-84975000D01*
X102475000Y-84975000D01*
X102475000Y-84666422D01*
X102525000Y-84616422D01*
X102525000Y-84975000D01*
X103162500Y-84975000D01*
X103300000Y-84837500D01*
X103302661Y-84375000D01*
X103292042Y-84267181D01*
X103260592Y-84163506D01*
X103209521Y-84067958D01*
X103140790Y-83984210D01*
X103057042Y-83915479D01*
X102961494Y-83864408D01*
X102857819Y-83832958D01*
X102750000Y-83822339D01*
X102662500Y-83825000D01*
X102587500Y-83900000D01*
X102412500Y-83900000D01*
X102337500Y-83825000D01*
X102250000Y-83822339D01*
X102142181Y-83832958D01*
X102038506Y-83864408D01*
X101971917Y-83900000D01*
X101000000Y-83900000D01*
X100980491Y-83901921D01*
X100961732Y-83907612D01*
X100944443Y-83916853D01*
X100929289Y-83929289D01*
X100916853Y-83944443D01*
X100907612Y-83961732D01*
X100901921Y-83980491D01*
X100900000Y-84000000D01*
X100900000Y-84023307D01*
X100500000Y-84023307D01*
X100431388Y-84030065D01*
X100365413Y-84050078D01*
X100304610Y-84082578D01*
X100251315Y-84126315D01*
X100207578Y-84179610D01*
X100175078Y-84240413D01*
X100155065Y-84306388D01*
X100148307Y-84375000D01*
X100148307Y-84525000D01*
X99975000Y-84525000D01*
X99975000Y-80851693D01*
X100500000Y-80851693D01*
X100568612Y-80844935D01*
X100634587Y-80824922D01*
X100695390Y-80792422D01*
X100748685Y-80748685D01*
X100792422Y-80695390D01*
X100824922Y-80634587D01*
X100844935Y-80568612D01*
X100851693Y-80500000D01*
X100851693Y-78500000D01*
X100844935Y-78431388D01*
X100824922Y-78365413D01*
X100792422Y-78304610D01*
X100748685Y-78251315D01*
X100695390Y-78207578D01*
X100634587Y-78175078D01*
X100568612Y-78155065D01*
X100500000Y-78148307D01*
X98500000Y-78148307D01*
X98431388Y-78155065D01*
X98365413Y-78175078D01*
X98304610Y-78207578D01*
X98251315Y-78251315D01*
X98207578Y-78304610D01*
X98175078Y-78365413D01*
X98155065Y-78431388D01*
X98148307Y-78500000D01*
X95600000Y-78500000D01*
X95600000Y-75521614D01*
X98513742Y-75521614D01*
X98604868Y-75774576D01*
X98870725Y-75924716D01*
X99160765Y-76020106D01*
X99463841Y-76057080D01*
X99768307Y-76034215D01*
X100062462Y-75952391D01*
X100335002Y-75814753D01*
X100395132Y-75774576D01*
X100486258Y-75521614D01*
X99500000Y-74535355D01*
X98513742Y-75521614D01*
X95600000Y-75521614D01*
X95600000Y-74463841D01*
X97942920Y-74463841D01*
X97965785Y-74768307D01*
X98047609Y-75062462D01*
X98185247Y-75335002D01*
X98225424Y-75395132D01*
X98478386Y-75486258D01*
X99464645Y-74500000D01*
X99535355Y-74500000D01*
X100521614Y-75486258D01*
X100774576Y-75395132D01*
X100924716Y-75129275D01*
X101020106Y-74839235D01*
X101057080Y-74536159D01*
X101034215Y-74231693D01*
X100952391Y-73937538D01*
X100814753Y-73664998D01*
X100774576Y-73604868D01*
X100521614Y-73513742D01*
X99535355Y-74500000D01*
X99464645Y-74500000D01*
X98478386Y-73513742D01*
X98225424Y-73604868D01*
X98075284Y-73870725D01*
X97979894Y-74160765D01*
X97942920Y-74463841D01*
X95600000Y-74463841D01*
X95600000Y-73478386D01*
X98513742Y-73478386D01*
X99500000Y-74464645D01*
X100486258Y-73478386D01*
X100395132Y-73225424D01*
X100129275Y-73075284D01*
X99839235Y-72979894D01*
X99536159Y-72942920D01*
X99231693Y-72965785D01*
X98937538Y-73047609D01*
X98664998Y-73185247D01*
X98604868Y-73225424D01*
X98513742Y-73478386D01*
X95600000Y-73478386D01*
X95600000Y-70600000D01*
X115865255Y-70600000D01*
X115835359Y-70644742D01*
G36*
X118150000Y-76337500D02*
G01*
X118287500Y-76475000D01*
X119075000Y-76475000D01*
X119075000Y-76455000D01*
X119125000Y-76455000D01*
X119125000Y-76475000D01*
X119145000Y-76475000D01*
X119145000Y-76525000D01*
X119125000Y-76525000D01*
X119125000Y-76545000D01*
X119075000Y-76545000D01*
X119075000Y-76525000D01*
X118287500Y-76525000D01*
X118150000Y-76662500D01*
X118147339Y-76700000D01*
X118149185Y-76718741D01*
X118084827Y-76753141D01*
X118012499Y-76812499D01*
X117997616Y-76830634D01*
X117930634Y-76897616D01*
X117912499Y-76912499D01*
X117853141Y-76984827D01*
X117809034Y-77067347D01*
X117790112Y-77129723D01*
X117781873Y-77156884D01*
X117772702Y-77250000D01*
X117775000Y-77273333D01*
X117775001Y-77726658D01*
X117772702Y-77750000D01*
X117781873Y-77843116D01*
X117802921Y-77912499D01*
X117809035Y-77932654D01*
X117853142Y-78015173D01*
X117912500Y-78087501D01*
X117930629Y-78102379D01*
X118024304Y-78196054D01*
X118028822Y-78218767D01*
X118085359Y-78355258D01*
X118167437Y-78478097D01*
X118271903Y-78582563D01*
X118394742Y-78664641D01*
X118531233Y-78721178D01*
X118676131Y-78750000D01*
X118823869Y-78750000D01*
X118850618Y-78744679D01*
X118790479Y-78817958D01*
X118739408Y-78913506D01*
X118707958Y-79017181D01*
X118697339Y-79125000D01*
X118700000Y-79587500D01*
X118837500Y-79725000D01*
X119475000Y-79725000D01*
X119475000Y-79366422D01*
X119525000Y-79416422D01*
X119525000Y-79725000D01*
X119545000Y-79725000D01*
X119545000Y-79775000D01*
X119525000Y-79775000D01*
X119525000Y-79795000D01*
X119475000Y-79795000D01*
X119475000Y-79775000D01*
X118837500Y-79775000D01*
X118700000Y-79912500D01*
X118697339Y-80375000D01*
X118707958Y-80482819D01*
X118739408Y-80586494D01*
X118790479Y-80682042D01*
X118859210Y-80765790D01*
X118870432Y-80775000D01*
X118196751Y-80775000D01*
X117725000Y-80303250D01*
X117725000Y-76696750D01*
X118096752Y-76325000D01*
X118149113Y-76325000D01*
X118150000Y-76337500D01*
X118150000Y-76337500D01*
G37*
X118150000Y-76337500D02*
X118287500Y-76475000D01*
X119075000Y-76475000D01*
X119075000Y-76455000D01*
X119125000Y-76455000D01*
X119125000Y-76475000D01*
X119145000Y-76475000D01*
X119145000Y-76525000D01*
X119125000Y-76525000D01*
X119125000Y-76545000D01*
X119075000Y-76545000D01*
X119075000Y-76525000D01*
X118287500Y-76525000D01*
X118150000Y-76662500D01*
X118147339Y-76700000D01*
X118149185Y-76718741D01*
X118084827Y-76753141D01*
X118012499Y-76812499D01*
X117997616Y-76830634D01*
X117930634Y-76897616D01*
X117912499Y-76912499D01*
X117853141Y-76984827D01*
X117809034Y-77067347D01*
X117790112Y-77129723D01*
X117781873Y-77156884D01*
X117772702Y-77250000D01*
X117775000Y-77273333D01*
X117775001Y-77726658D01*
X117772702Y-77750000D01*
X117781873Y-77843116D01*
X117802921Y-77912499D01*
X117809035Y-77932654D01*
X117853142Y-78015173D01*
X117912500Y-78087501D01*
X117930629Y-78102379D01*
X118024304Y-78196054D01*
X118028822Y-78218767D01*
X118085359Y-78355258D01*
X118167437Y-78478097D01*
X118271903Y-78582563D01*
X118394742Y-78664641D01*
X118531233Y-78721178D01*
X118676131Y-78750000D01*
X118823869Y-78750000D01*
X118850618Y-78744679D01*
X118790479Y-78817958D01*
X118739408Y-78913506D01*
X118707958Y-79017181D01*
X118697339Y-79125000D01*
X118700000Y-79587500D01*
X118837500Y-79725000D01*
X119475000Y-79725000D01*
X119475000Y-79366422D01*
X119525000Y-79416422D01*
X119525000Y-79725000D01*
X119545000Y-79725000D01*
X119545000Y-79775000D01*
X119525000Y-79775000D01*
X119525000Y-79795000D01*
X119475000Y-79795000D01*
X119475000Y-79775000D01*
X118837500Y-79775000D01*
X118700000Y-79912500D01*
X118697339Y-80375000D01*
X118707958Y-80482819D01*
X118739408Y-80586494D01*
X118790479Y-80682042D01*
X118859210Y-80765790D01*
X118870432Y-80775000D01*
X118196751Y-80775000D01*
X117725000Y-80303250D01*
X117725000Y-76696750D01*
X118096752Y-76325000D01*
X118149113Y-76325000D01*
X118150000Y-76337500D01*
M02*
