G04 #@! TF.GenerationSoftware,KiCad,Pcbnew,(5.1.4)-1*
G04 #@! TF.CreationDate,2020-06-21T20:29:22+03:00*
G04 #@! TF.ProjectId,naa_g,6e61615f-672e-46b6-9963-61645f706362,rev?*
G04 #@! TF.SameCoordinates,Original*
G04 #@! TF.FileFunction,Soldermask,Bot*
G04 #@! TF.FilePolarity,Negative*
%FSLAX46Y46*%
G04 Gerber Fmt 4.6, Leading zero omitted, Abs format (unit mm)*
G04 Created by KiCad (PCBNEW (5.1.4)-1) date 2020-06-21 20:29:22*
%MOMM*%
%LPD*%
G04 APERTURE LIST*
%ADD10C,0.100000*%
G04 APERTURE END LIST*
D10*
G36*
X98711000Y-95291000D02*
G01*
X96209000Y-95291000D01*
X96209000Y-92789000D01*
X98711000Y-92789000D01*
X98711000Y-95291000D01*
X98711000Y-95291000D01*
G37*
G36*
X103791000Y-95291000D02*
G01*
X101289000Y-95291000D01*
X101289000Y-92789000D01*
X103791000Y-92789000D01*
X103791000Y-95291000D01*
X103791000Y-95291000D01*
G37*
G36*
X100364903Y-90297075D02*
G01*
X100592571Y-90391378D01*
X100797466Y-90528285D01*
X100971715Y-90702534D01*
X101108622Y-90907429D01*
X101202925Y-91135097D01*
X101251000Y-91376787D01*
X101251000Y-91623213D01*
X101202925Y-91864903D01*
X101108622Y-92092571D01*
X100971715Y-92297466D01*
X100797466Y-92471715D01*
X100592571Y-92608622D01*
X100592570Y-92608623D01*
X100592569Y-92608623D01*
X100364903Y-92702925D01*
X100123214Y-92751000D01*
X99876786Y-92751000D01*
X99635097Y-92702925D01*
X99407431Y-92608623D01*
X99407430Y-92608623D01*
X99407429Y-92608622D01*
X99202534Y-92471715D01*
X99028285Y-92297466D01*
X98891378Y-92092571D01*
X98797075Y-91864903D01*
X98749000Y-91623213D01*
X98749000Y-91376787D01*
X98797075Y-91135097D01*
X98891378Y-90907429D01*
X99028285Y-90702534D01*
X99202534Y-90528285D01*
X99407429Y-90391378D01*
X99635097Y-90297075D01*
X99876786Y-90249000D01*
X100123214Y-90249000D01*
X100364903Y-90297075D01*
X100364903Y-90297075D01*
G37*
G36*
X103791000Y-90211000D02*
G01*
X101289000Y-90211000D01*
X101289000Y-87709000D01*
X103791000Y-87709000D01*
X103791000Y-90211000D01*
X103791000Y-90211000D01*
G37*
G36*
X98711000Y-90211000D02*
G01*
X96209000Y-90211000D01*
X96209000Y-87709000D01*
X98711000Y-87709000D01*
X98711000Y-90211000D01*
X98711000Y-90211000D01*
G37*
G36*
X107863512Y-83893927D02*
G01*
X108012812Y-83923624D01*
X108176784Y-83991544D01*
X108324354Y-84090147D01*
X108449853Y-84215646D01*
X108548456Y-84363216D01*
X108616376Y-84527188D01*
X108651000Y-84701259D01*
X108651000Y-84878741D01*
X108616376Y-85052812D01*
X108548456Y-85216784D01*
X108449853Y-85364354D01*
X108324354Y-85489853D01*
X108176784Y-85588456D01*
X108012812Y-85656376D01*
X107863512Y-85686073D01*
X107838742Y-85691000D01*
X107661258Y-85691000D01*
X107636488Y-85686073D01*
X107487188Y-85656376D01*
X107323216Y-85588456D01*
X107175646Y-85489853D01*
X107050147Y-85364354D01*
X106951544Y-85216784D01*
X106883624Y-85052812D01*
X106849000Y-84878741D01*
X106849000Y-84701259D01*
X106883624Y-84527188D01*
X106951544Y-84363216D01*
X107050147Y-84215646D01*
X107175646Y-84090147D01*
X107323216Y-83991544D01*
X107487188Y-83923624D01*
X107636488Y-83893927D01*
X107661258Y-83889000D01*
X107838742Y-83889000D01*
X107863512Y-83893927D01*
X107863512Y-83893927D01*
G37*
G36*
X108651000Y-83151000D02*
G01*
X106849000Y-83151000D01*
X106849000Y-81349000D01*
X108651000Y-81349000D01*
X108651000Y-83151000D01*
X108651000Y-83151000D01*
G37*
G36*
X100551000Y-80551000D02*
G01*
X98449000Y-80551000D01*
X98449000Y-78449000D01*
X100551000Y-78449000D01*
X100551000Y-80551000D01*
X100551000Y-80551000D01*
G37*
G36*
X99806564Y-73489389D02*
G01*
X99997833Y-73568615D01*
X99997835Y-73568616D01*
X100069311Y-73616375D01*
X100169973Y-73683635D01*
X100316365Y-73830027D01*
X100431385Y-74002167D01*
X100510611Y-74193436D01*
X100551000Y-74396484D01*
X100551000Y-74603516D01*
X100510611Y-74806564D01*
X100431385Y-74997833D01*
X100431384Y-74997835D01*
X100316365Y-75169973D01*
X100169973Y-75316365D01*
X99997835Y-75431384D01*
X99997834Y-75431385D01*
X99997833Y-75431385D01*
X99806564Y-75510611D01*
X99603516Y-75551000D01*
X99396484Y-75551000D01*
X99193436Y-75510611D01*
X99002167Y-75431385D01*
X99002166Y-75431385D01*
X99002165Y-75431384D01*
X98830027Y-75316365D01*
X98683635Y-75169973D01*
X98568616Y-74997835D01*
X98568615Y-74997833D01*
X98489389Y-74806564D01*
X98449000Y-74603516D01*
X98449000Y-74396484D01*
X98489389Y-74193436D01*
X98568615Y-74002167D01*
X98683635Y-73830027D01*
X98830027Y-73683635D01*
X98930689Y-73616375D01*
X99002165Y-73568616D01*
X99002167Y-73568615D01*
X99193436Y-73489389D01*
X99396484Y-73449000D01*
X99603516Y-73449000D01*
X99806564Y-73489389D01*
X99806564Y-73489389D01*
G37*
G36*
X121401000Y-73651000D02*
G01*
X119599000Y-73651000D01*
X119599000Y-71849000D01*
X121401000Y-71849000D01*
X121401000Y-73651000D01*
X121401000Y-73651000D01*
G37*
G36*
X123153512Y-71853927D02*
G01*
X123302812Y-71883624D01*
X123466784Y-71951544D01*
X123614354Y-72050147D01*
X123739853Y-72175646D01*
X123838456Y-72323216D01*
X123906376Y-72487188D01*
X123941000Y-72661259D01*
X123941000Y-72838741D01*
X123906376Y-73012812D01*
X123838456Y-73176784D01*
X123739853Y-73324354D01*
X123614354Y-73449853D01*
X123466784Y-73548456D01*
X123302812Y-73616376D01*
X123153512Y-73646073D01*
X123128742Y-73651000D01*
X122951258Y-73651000D01*
X122926488Y-73646073D01*
X122777188Y-73616376D01*
X122613216Y-73548456D01*
X122465646Y-73449853D01*
X122340147Y-73324354D01*
X122241544Y-73176784D01*
X122173624Y-73012812D01*
X122139000Y-72838741D01*
X122139000Y-72661259D01*
X122173624Y-72487188D01*
X122241544Y-72323216D01*
X122340147Y-72175646D01*
X122465646Y-72050147D01*
X122613216Y-71951544D01*
X122777188Y-71883624D01*
X122926488Y-71853927D01*
X122951258Y-71849000D01*
X123128742Y-71849000D01*
X123153512Y-71853927D01*
X123153512Y-71853927D01*
G37*
M02*
