M48
; DRILL file {KiCad (5.1.4)-1} date 21.06.2020 20:29:29
; FORMAT={3:3/ absolute / metric / keep zeros}
; #@! TF.CreationDate,2020-06-21T20:29:29+03:00
; #@! TF.GenerationSoftware,Kicad,Pcbnew,(5.1.4)-1
; #@! TF.FileFunction,Plated,1,2,PTH
FMAT,2
METRIC
T1C0.400
T2C1.000
T3C1.200
T4C1.600
%
G90
G05
T1
X103750Y-085000
X106000Y-089750
X106500Y-078750
X108250Y-094750
X110500Y-095500
X113500Y-085250
X113750Y-094500
X114500Y-080250
X116500Y-071000
X118000Y-079500
X118750Y-078000
X120250Y-095250
X122000Y-074750
X122750Y-076250
X122750Y-079750
X124000Y-078000
X124250Y-085750
X126000Y-082500
X127000Y-075500
T2
X120500Y-072750
X123040Y-072750
X107750Y-082250
X107750Y-084790
T3
X099500Y-074500
X099500Y-079500
T4
X097460Y-088960
X097460Y-094040
X100000Y-091500
X102540Y-088960
X102540Y-094040
T0
M30
