G04 #@! TF.GenerationSoftware,KiCad,Pcbnew,(5.1.4)-1*
G04 #@! TF.CreationDate,2020-06-21T20:29:22+03:00*
G04 #@! TF.ProjectId,naa_g,6e61615f-672e-46b6-9963-61645f706362,rev?*
G04 #@! TF.SameCoordinates,Original*
G04 #@! TF.FileFunction,Copper,L2,Bot*
G04 #@! TF.FilePolarity,Positive*
%FSLAX46Y46*%
G04 Gerber Fmt 4.6, Leading zero omitted, Abs format (unit mm)*
G04 Created by KiCad (PCBNEW (5.1.4)-1) date 2020-06-21 20:29:22*
%MOMM*%
%LPD*%
G04 APERTURE LIST*
%ADD10R,2.000000X2.000000*%
%ADD11C,2.000000*%
%ADD12R,2.400000X2.400000*%
%ADD13C,2.400000*%
%ADD14R,1.700000X1.700000*%
%ADD15C,1.700000*%
%ADD16C,0.800000*%
%ADD17C,0.250000*%
%ADD18C,0.200000*%
G04 APERTURE END LIST*
D10*
X99500000Y-79500000D03*
D11*
X99500000Y-74500000D03*
D12*
X102540000Y-94040000D03*
X97460000Y-94040000D03*
D13*
X100000000Y-91500000D03*
D12*
X102540000Y-88960000D03*
X97460000Y-88960000D03*
D14*
X107750000Y-82250000D03*
D15*
X107750000Y-84790000D03*
D14*
X120500000Y-72750000D03*
D15*
X123040000Y-72750000D03*
D16*
X103750000Y-85000000D03*
X118000000Y-79500000D03*
X114500000Y-80250000D03*
X126000000Y-82500000D03*
X122750000Y-79750000D03*
X122750000Y-76250000D03*
X116500000Y-71000000D03*
X113500000Y-85250000D03*
X124250000Y-85750000D03*
X108250000Y-94750000D03*
X113750000Y-94500000D03*
X106000000Y-89750000D03*
X127000000Y-75500000D03*
X122000000Y-74750000D03*
X118750000Y-78000000D03*
X106500000Y-78750000D03*
X124000000Y-78000000D03*
X110500000Y-95500000D03*
X120250000Y-95250000D03*
D17*
X118000000Y-79500000D02*
X117500000Y-80000000D01*
X117500000Y-80000000D02*
X117250000Y-80250000D01*
X117250000Y-80250000D02*
X114500000Y-80250000D01*
X118475001Y-79024999D02*
X118000000Y-79500000D01*
X124524999Y-79024999D02*
X118475001Y-79024999D01*
X126000000Y-80500000D02*
X124524999Y-79024999D01*
X126000000Y-82500000D02*
X126000000Y-80500000D01*
X107250000Y-78000000D02*
X106500000Y-78750000D01*
X118750000Y-78000000D02*
X122000000Y-74750000D01*
X118750000Y-78000000D02*
X124000000Y-78000000D01*
X110250000Y-78000000D02*
X107250000Y-78000000D01*
X118750000Y-78000000D02*
X110250000Y-78000000D01*
X110750000Y-95500000D02*
X111000000Y-95250000D01*
X110500000Y-95500000D02*
X110750000Y-95500000D01*
X120250000Y-95250000D02*
X111000000Y-95250000D01*
D18*
G36*
X128400000Y-96400000D02*
G01*
X95600000Y-96400000D01*
X95600000Y-95240000D01*
X95707339Y-95240000D01*
X95717958Y-95347819D01*
X95749408Y-95451494D01*
X95800479Y-95547042D01*
X95869210Y-95630790D01*
X95952958Y-95699521D01*
X96048506Y-95750592D01*
X96152181Y-95782042D01*
X96260000Y-95792661D01*
X97297500Y-95790000D01*
X97435000Y-95652500D01*
X97435000Y-94065000D01*
X95847500Y-94065000D01*
X95710000Y-94202500D01*
X95707339Y-95240000D01*
X95600000Y-95240000D01*
X95600000Y-93850000D01*
X95709929Y-93850000D01*
X95710000Y-93877500D01*
X95847500Y-94015000D01*
X97435000Y-94015000D01*
X97435000Y-93995000D01*
X97485000Y-93995000D01*
X97485000Y-94015000D01*
X97505000Y-94015000D01*
X97505000Y-94065000D01*
X97485000Y-94065000D01*
X97485000Y-95652500D01*
X97622500Y-95790000D01*
X97668404Y-95790118D01*
X97676656Y-95805557D01*
X97689092Y-95820711D01*
X97704246Y-95833147D01*
X97721535Y-95842388D01*
X97740294Y-95848079D01*
X97759803Y-95850000D01*
X102259803Y-95850000D01*
X102279312Y-95848079D01*
X102298071Y-95842388D01*
X102315360Y-95833147D01*
X102330514Y-95820711D01*
X102342950Y-95805557D01*
X102351229Y-95790067D01*
X102377500Y-95790000D01*
X102515000Y-95652500D01*
X102515000Y-94065000D01*
X102565000Y-94065000D01*
X102565000Y-95652500D01*
X102702500Y-95790000D01*
X103740000Y-95792661D01*
X103847819Y-95782042D01*
X103951494Y-95750592D01*
X104047042Y-95699521D01*
X104130790Y-95630790D01*
X104199521Y-95547042D01*
X104250592Y-95451494D01*
X104258285Y-95426131D01*
X109750000Y-95426131D01*
X109750000Y-95573869D01*
X109778822Y-95718767D01*
X109835359Y-95855258D01*
X109917437Y-95978097D01*
X110021903Y-96082563D01*
X110144742Y-96164641D01*
X110281233Y-96221178D01*
X110426131Y-96250000D01*
X110573869Y-96250000D01*
X110718767Y-96221178D01*
X110855258Y-96164641D01*
X110978097Y-96082563D01*
X111082563Y-95978097D01*
X111164641Y-95855258D01*
X111218596Y-95725000D01*
X119665368Y-95725000D01*
X119667437Y-95728097D01*
X119771903Y-95832563D01*
X119894742Y-95914641D01*
X120031233Y-95971178D01*
X120176131Y-96000000D01*
X120323869Y-96000000D01*
X120468767Y-95971178D01*
X120605258Y-95914641D01*
X120728097Y-95832563D01*
X120832563Y-95728097D01*
X120914641Y-95605258D01*
X120971178Y-95468767D01*
X121000000Y-95323869D01*
X121000000Y-95176131D01*
X120971178Y-95031233D01*
X120914641Y-94894742D01*
X120832563Y-94771903D01*
X120728097Y-94667437D01*
X120605258Y-94585359D01*
X120468767Y-94528822D01*
X120323869Y-94500000D01*
X120176131Y-94500000D01*
X120031233Y-94528822D01*
X119894742Y-94585359D01*
X119771903Y-94667437D01*
X119667437Y-94771903D01*
X119665368Y-94775000D01*
X111023331Y-94775000D01*
X110999999Y-94772702D01*
X110906883Y-94781873D01*
X110879722Y-94790112D01*
X110817346Y-94809034D01*
X110806151Y-94815018D01*
X110718767Y-94778822D01*
X110573869Y-94750000D01*
X110426131Y-94750000D01*
X110281233Y-94778822D01*
X110144742Y-94835359D01*
X110021903Y-94917437D01*
X109917437Y-95021903D01*
X109835359Y-95144742D01*
X109778822Y-95281233D01*
X109750000Y-95426131D01*
X104258285Y-95426131D01*
X104282042Y-95347819D01*
X104292661Y-95240000D01*
X104290000Y-94202500D01*
X104152500Y-94065000D01*
X102565000Y-94065000D01*
X102515000Y-94065000D01*
X102495000Y-94065000D01*
X102495000Y-94015000D01*
X102515000Y-94015000D01*
X102515000Y-93995000D01*
X102565000Y-93995000D01*
X102565000Y-94015000D01*
X104152500Y-94015000D01*
X104290000Y-93877500D01*
X104290735Y-93591070D01*
X104305557Y-93583147D01*
X104320711Y-93570711D01*
X104333147Y-93555557D01*
X104342388Y-93538268D01*
X104348079Y-93519509D01*
X104350000Y-93500000D01*
X104350000Y-92250000D01*
X104348079Y-92230491D01*
X104342388Y-92211732D01*
X104333147Y-92194443D01*
X104320711Y-92179289D01*
X104305557Y-92166853D01*
X104288268Y-92157612D01*
X104269509Y-92151921D01*
X104250000Y-92150000D01*
X101408469Y-92150000D01*
X101490435Y-91952118D01*
X101550000Y-91652662D01*
X101550000Y-91347338D01*
X101490435Y-91047882D01*
X101382578Y-90787494D01*
X104250000Y-90787494D01*
X104269509Y-90785573D01*
X104288268Y-90779882D01*
X104305557Y-90770641D01*
X104320711Y-90758205D01*
X104333147Y-90743051D01*
X104342388Y-90725762D01*
X104348079Y-90707003D01*
X104350000Y-90687494D01*
X104350000Y-89437494D01*
X104348079Y-89417985D01*
X104342388Y-89399226D01*
X104333147Y-89381937D01*
X104320711Y-89366783D01*
X104305557Y-89354347D01*
X104290574Y-89346339D01*
X104290000Y-89122500D01*
X104152500Y-88985000D01*
X102565000Y-88985000D01*
X102565000Y-89005000D01*
X102515000Y-89005000D01*
X102515000Y-88985000D01*
X102495000Y-88985000D01*
X102495000Y-88935000D01*
X102515000Y-88935000D01*
X102515000Y-87347500D01*
X102565000Y-87347500D01*
X102565000Y-88935000D01*
X104152500Y-88935000D01*
X104290000Y-88797500D01*
X104292661Y-87760000D01*
X104282042Y-87652181D01*
X104250592Y-87548506D01*
X104199521Y-87452958D01*
X104130790Y-87369210D01*
X104047042Y-87300479D01*
X103951494Y-87249408D01*
X103847819Y-87217958D01*
X103740000Y-87207339D01*
X102702500Y-87210000D01*
X102565000Y-87347500D01*
X102515000Y-87347500D01*
X102377500Y-87210000D01*
X102341413Y-87209907D01*
X102333147Y-87194443D01*
X102320711Y-87179289D01*
X102305557Y-87166853D01*
X102288268Y-87157612D01*
X102269509Y-87151921D01*
X102250000Y-87150000D01*
X97750000Y-87150000D01*
X97730491Y-87151921D01*
X97711732Y-87157612D01*
X97694443Y-87166853D01*
X97679289Y-87179289D01*
X97666853Y-87194443D01*
X97658587Y-87209907D01*
X97622500Y-87210000D01*
X97485000Y-87347500D01*
X97485000Y-88935000D01*
X97505000Y-88935000D01*
X97505000Y-88985000D01*
X97485000Y-88985000D01*
X97485000Y-89005000D01*
X97435000Y-89005000D01*
X97435000Y-88985000D01*
X95847500Y-88985000D01*
X95710000Y-89122500D01*
X95709929Y-89150000D01*
X95600000Y-89150000D01*
X95600000Y-87760000D01*
X95707339Y-87760000D01*
X95710000Y-88797500D01*
X95847500Y-88935000D01*
X97435000Y-88935000D01*
X97435000Y-87347500D01*
X97297500Y-87210000D01*
X96260000Y-87207339D01*
X96152181Y-87217958D01*
X96048506Y-87249408D01*
X95952958Y-87300479D01*
X95869210Y-87369210D01*
X95800479Y-87452958D01*
X95749408Y-87548506D01*
X95717958Y-87652181D01*
X95707339Y-87760000D01*
X95600000Y-87760000D01*
X95600000Y-84926131D01*
X103000000Y-84926131D01*
X103000000Y-85073869D01*
X103028822Y-85218767D01*
X103085359Y-85355258D01*
X103167437Y-85478097D01*
X103271903Y-85582563D01*
X103394742Y-85664641D01*
X103531233Y-85721178D01*
X103676131Y-85750000D01*
X103823869Y-85750000D01*
X103968767Y-85721178D01*
X104105258Y-85664641D01*
X104228097Y-85582563D01*
X104332563Y-85478097D01*
X104414641Y-85355258D01*
X104471178Y-85218767D01*
X104500000Y-85073869D01*
X104500000Y-84926131D01*
X104471178Y-84781233D01*
X104425854Y-84671810D01*
X106550000Y-84671810D01*
X106550000Y-84908190D01*
X106596116Y-85140027D01*
X106686574Y-85358413D01*
X106817899Y-85554955D01*
X106985045Y-85722101D01*
X107181587Y-85853426D01*
X107399973Y-85943884D01*
X107631810Y-85990000D01*
X107868190Y-85990000D01*
X108100027Y-85943884D01*
X108318413Y-85853426D01*
X108514955Y-85722101D01*
X108682101Y-85554955D01*
X108813426Y-85358413D01*
X108903884Y-85140027D01*
X108950000Y-84908190D01*
X108950000Y-84671810D01*
X108903884Y-84439973D01*
X108813426Y-84221587D01*
X108682101Y-84025045D01*
X108514955Y-83857899D01*
X108318413Y-83726574D01*
X108100027Y-83636116D01*
X107868190Y-83590000D01*
X107631810Y-83590000D01*
X107399973Y-83636116D01*
X107181587Y-83726574D01*
X106985045Y-83857899D01*
X106817899Y-84025045D01*
X106686574Y-84221587D01*
X106596116Y-84439973D01*
X106550000Y-84671810D01*
X104425854Y-84671810D01*
X104414641Y-84644742D01*
X104332563Y-84521903D01*
X104228097Y-84417437D01*
X104105258Y-84335359D01*
X103968767Y-84278822D01*
X103823869Y-84250000D01*
X103676131Y-84250000D01*
X103531233Y-84278822D01*
X103394742Y-84335359D01*
X103271903Y-84417437D01*
X103167437Y-84521903D01*
X103085359Y-84644742D01*
X103028822Y-84781233D01*
X103000000Y-84926131D01*
X95600000Y-84926131D01*
X95600000Y-81400000D01*
X106548307Y-81400000D01*
X106548307Y-83100000D01*
X106555065Y-83168612D01*
X106575078Y-83234587D01*
X106607578Y-83295390D01*
X106651315Y-83348685D01*
X106704610Y-83392422D01*
X106765413Y-83424922D01*
X106831388Y-83444935D01*
X106900000Y-83451693D01*
X108600000Y-83451693D01*
X108668612Y-83444935D01*
X108734587Y-83424922D01*
X108795390Y-83392422D01*
X108848685Y-83348685D01*
X108892422Y-83295390D01*
X108924922Y-83234587D01*
X108944935Y-83168612D01*
X108951693Y-83100000D01*
X108951693Y-81400000D01*
X108944935Y-81331388D01*
X108924922Y-81265413D01*
X108892422Y-81204610D01*
X108848685Y-81151315D01*
X108795390Y-81107578D01*
X108734587Y-81075078D01*
X108668612Y-81055065D01*
X108600000Y-81048307D01*
X106900000Y-81048307D01*
X106831388Y-81055065D01*
X106765413Y-81075078D01*
X106704610Y-81107578D01*
X106651315Y-81151315D01*
X106607578Y-81204610D01*
X106575078Y-81265413D01*
X106555065Y-81331388D01*
X106548307Y-81400000D01*
X95600000Y-81400000D01*
X95600000Y-80500000D01*
X97947339Y-80500000D01*
X97957958Y-80607819D01*
X97989408Y-80711494D01*
X98040479Y-80807042D01*
X98109210Y-80890790D01*
X98192958Y-80959521D01*
X98288506Y-81010592D01*
X98392181Y-81042042D01*
X98500000Y-81052661D01*
X99337500Y-81050000D01*
X99475000Y-80912500D01*
X99475000Y-79525000D01*
X99525000Y-79525000D01*
X99525000Y-80912500D01*
X99662500Y-81050000D01*
X100500000Y-81052661D01*
X100607819Y-81042042D01*
X100711494Y-81010592D01*
X100807042Y-80959521D01*
X100890790Y-80890790D01*
X100959521Y-80807042D01*
X101010592Y-80711494D01*
X101042042Y-80607819D01*
X101052661Y-80500000D01*
X101050000Y-79662500D01*
X100912500Y-79525000D01*
X99525000Y-79525000D01*
X99475000Y-79525000D01*
X98087500Y-79525000D01*
X97950000Y-79662500D01*
X97947339Y-80500000D01*
X95600000Y-80500000D01*
X95600000Y-78500000D01*
X97947339Y-78500000D01*
X97950000Y-79337500D01*
X98087500Y-79475000D01*
X99475000Y-79475000D01*
X99475000Y-78087500D01*
X99525000Y-78087500D01*
X99525000Y-79475000D01*
X100912500Y-79475000D01*
X101050000Y-79337500D01*
X101052101Y-78676131D01*
X105750000Y-78676131D01*
X105750000Y-78823869D01*
X105778822Y-78968767D01*
X105835359Y-79105258D01*
X105917437Y-79228097D01*
X106021903Y-79332563D01*
X106144742Y-79414641D01*
X106281233Y-79471178D01*
X106426131Y-79500000D01*
X106573869Y-79500000D01*
X106718767Y-79471178D01*
X106855258Y-79414641D01*
X106978097Y-79332563D01*
X107082563Y-79228097D01*
X107164641Y-79105258D01*
X107221178Y-78968767D01*
X107250000Y-78823869D01*
X107250000Y-78676131D01*
X107249273Y-78672477D01*
X107446751Y-78475000D01*
X118165368Y-78475000D01*
X118167437Y-78478097D01*
X118271903Y-78582563D01*
X118282211Y-78589450D01*
X118263603Y-78599397D01*
X118209828Y-78628140D01*
X118137500Y-78687498D01*
X118122626Y-78705623D01*
X118077522Y-78750727D01*
X118073869Y-78750000D01*
X117926131Y-78750000D01*
X117781233Y-78778822D01*
X117644742Y-78835359D01*
X117521903Y-78917437D01*
X117417437Y-79021903D01*
X117335359Y-79144742D01*
X117278822Y-79281233D01*
X117250000Y-79426131D01*
X117250000Y-79573869D01*
X117250727Y-79577523D01*
X117053250Y-79775000D01*
X115084632Y-79775000D01*
X115082563Y-79771903D01*
X114978097Y-79667437D01*
X114855258Y-79585359D01*
X114718767Y-79528822D01*
X114573869Y-79500000D01*
X114426131Y-79500000D01*
X114281233Y-79528822D01*
X114144742Y-79585359D01*
X114021903Y-79667437D01*
X113917437Y-79771903D01*
X113835359Y-79894742D01*
X113778822Y-80031233D01*
X113750000Y-80176131D01*
X113750000Y-80323869D01*
X113778822Y-80468767D01*
X113835359Y-80605258D01*
X113917437Y-80728097D01*
X114021903Y-80832563D01*
X114144742Y-80914641D01*
X114281233Y-80971178D01*
X114426131Y-81000000D01*
X114573869Y-81000000D01*
X114718767Y-80971178D01*
X114855258Y-80914641D01*
X114978097Y-80832563D01*
X115082563Y-80728097D01*
X115084632Y-80725000D01*
X117226668Y-80725000D01*
X117250000Y-80727298D01*
X117273332Y-80725000D01*
X117343116Y-80718127D01*
X117432654Y-80690966D01*
X117515173Y-80646859D01*
X117587501Y-80587501D01*
X117602384Y-80569366D01*
X117922477Y-80249273D01*
X117926131Y-80250000D01*
X118073869Y-80250000D01*
X118218767Y-80221178D01*
X118355258Y-80164641D01*
X118478097Y-80082563D01*
X118582563Y-79978097D01*
X118664641Y-79855258D01*
X118721178Y-79718767D01*
X118750000Y-79573869D01*
X118750000Y-79499999D01*
X124328249Y-79499999D01*
X125525001Y-80696752D01*
X125525000Y-81915367D01*
X125521903Y-81917437D01*
X125417437Y-82021903D01*
X125335359Y-82144742D01*
X125278822Y-82281233D01*
X125250000Y-82426131D01*
X125250000Y-82573869D01*
X125278822Y-82718767D01*
X125335359Y-82855258D01*
X125417437Y-82978097D01*
X125521903Y-83082563D01*
X125644742Y-83164641D01*
X125781233Y-83221178D01*
X125926131Y-83250000D01*
X126073869Y-83250000D01*
X126218767Y-83221178D01*
X126355258Y-83164641D01*
X126478097Y-83082563D01*
X126582563Y-82978097D01*
X126664641Y-82855258D01*
X126721178Y-82718767D01*
X126750000Y-82573869D01*
X126750000Y-82426131D01*
X126721178Y-82281233D01*
X126664641Y-82144742D01*
X126582563Y-82021903D01*
X126478097Y-81917437D01*
X126475000Y-81915368D01*
X126475000Y-80523331D01*
X126477298Y-80499999D01*
X126468127Y-80406883D01*
X126448783Y-80343116D01*
X126440966Y-80317346D01*
X126396859Y-80234827D01*
X126337501Y-80162499D01*
X126319371Y-80147620D01*
X124877383Y-78705633D01*
X124862500Y-78687498D01*
X124790172Y-78628140D01*
X124707653Y-78584033D01*
X124618115Y-78556872D01*
X124548331Y-78549999D01*
X124524999Y-78547701D01*
X124511644Y-78549016D01*
X124582563Y-78478097D01*
X124664641Y-78355258D01*
X124721178Y-78218767D01*
X124750000Y-78073869D01*
X124750000Y-77926131D01*
X124721178Y-77781233D01*
X124664641Y-77644742D01*
X124582563Y-77521903D01*
X124478097Y-77417437D01*
X124355258Y-77335359D01*
X124218767Y-77278822D01*
X124073869Y-77250000D01*
X123926131Y-77250000D01*
X123781233Y-77278822D01*
X123644742Y-77335359D01*
X123521903Y-77417437D01*
X123417437Y-77521903D01*
X123415368Y-77525000D01*
X119896750Y-77525000D01*
X121922478Y-75499273D01*
X121926131Y-75500000D01*
X122073869Y-75500000D01*
X122218767Y-75471178D01*
X122355258Y-75414641D01*
X122478097Y-75332563D01*
X122582563Y-75228097D01*
X122664641Y-75105258D01*
X122721178Y-74968767D01*
X122750000Y-74823869D01*
X122750000Y-74676131D01*
X122721178Y-74531233D01*
X122664641Y-74394742D01*
X122582563Y-74271903D01*
X122478097Y-74167437D01*
X122355258Y-74085359D01*
X122218767Y-74028822D01*
X122073869Y-74000000D01*
X121926131Y-74000000D01*
X121781233Y-74028822D01*
X121644742Y-74085359D01*
X121521903Y-74167437D01*
X121417437Y-74271903D01*
X121335359Y-74394742D01*
X121278822Y-74531233D01*
X121250000Y-74676131D01*
X121250000Y-74823869D01*
X121250727Y-74827522D01*
X118827523Y-77250727D01*
X118823869Y-77250000D01*
X118676131Y-77250000D01*
X118531233Y-77278822D01*
X118394742Y-77335359D01*
X118271903Y-77417437D01*
X118167437Y-77521903D01*
X118165368Y-77525000D01*
X107273331Y-77525000D01*
X107249999Y-77522702D01*
X107156883Y-77531873D01*
X107129722Y-77540112D01*
X107067346Y-77559034D01*
X106984827Y-77603141D01*
X106912499Y-77662499D01*
X106897620Y-77680629D01*
X106577523Y-78000727D01*
X106573869Y-78000000D01*
X106426131Y-78000000D01*
X106281233Y-78028822D01*
X106144742Y-78085359D01*
X106021903Y-78167437D01*
X105917437Y-78271903D01*
X105835359Y-78394742D01*
X105778822Y-78531233D01*
X105750000Y-78676131D01*
X101052101Y-78676131D01*
X101052661Y-78500000D01*
X101042042Y-78392181D01*
X101010592Y-78288506D01*
X100959521Y-78192958D01*
X100890790Y-78109210D01*
X100807042Y-78040479D01*
X100711494Y-77989408D01*
X100607819Y-77957958D01*
X100500000Y-77947339D01*
X99662500Y-77950000D01*
X99525000Y-78087500D01*
X99475000Y-78087500D01*
X99337500Y-77950000D01*
X98500000Y-77947339D01*
X98392181Y-77957958D01*
X98288506Y-77989408D01*
X98192958Y-78040479D01*
X98109210Y-78109210D01*
X98040479Y-78192958D01*
X97989408Y-78288506D01*
X97957958Y-78392181D01*
X97947339Y-78500000D01*
X95600000Y-78500000D01*
X95600000Y-74367037D01*
X98150000Y-74367037D01*
X98150000Y-74632963D01*
X98201880Y-74893780D01*
X98303646Y-75139465D01*
X98451387Y-75360575D01*
X98639425Y-75548613D01*
X98860535Y-75696354D01*
X99106220Y-75798120D01*
X99367037Y-75850000D01*
X99632963Y-75850000D01*
X99893780Y-75798120D01*
X100139465Y-75696354D01*
X100360575Y-75548613D01*
X100548613Y-75360575D01*
X100696354Y-75139465D01*
X100798120Y-74893780D01*
X100850000Y-74632963D01*
X100850000Y-74367037D01*
X100798120Y-74106220D01*
X100696354Y-73860535D01*
X100548613Y-73639425D01*
X100360575Y-73451387D01*
X100139465Y-73303646D01*
X99893780Y-73201880D01*
X99632963Y-73150000D01*
X99367037Y-73150000D01*
X99106220Y-73201880D01*
X98860535Y-73303646D01*
X98639425Y-73451387D01*
X98451387Y-73639425D01*
X98303646Y-73860535D01*
X98201880Y-74106220D01*
X98150000Y-74367037D01*
X95600000Y-74367037D01*
X95600000Y-71900000D01*
X119298307Y-71900000D01*
X119298307Y-73600000D01*
X119305065Y-73668612D01*
X119325078Y-73734587D01*
X119357578Y-73795390D01*
X119401315Y-73848685D01*
X119454610Y-73892422D01*
X119515413Y-73924922D01*
X119581388Y-73944935D01*
X119650000Y-73951693D01*
X121350000Y-73951693D01*
X121418612Y-73944935D01*
X121484587Y-73924922D01*
X121545390Y-73892422D01*
X121598685Y-73848685D01*
X121642422Y-73795390D01*
X121674922Y-73734587D01*
X121694935Y-73668612D01*
X121701693Y-73600000D01*
X121701693Y-72631810D01*
X121840000Y-72631810D01*
X121840000Y-72868190D01*
X121886116Y-73100027D01*
X121976574Y-73318413D01*
X122107899Y-73514955D01*
X122275045Y-73682101D01*
X122471587Y-73813426D01*
X122689973Y-73903884D01*
X122921810Y-73950000D01*
X123158190Y-73950000D01*
X123390027Y-73903884D01*
X123608413Y-73813426D01*
X123804955Y-73682101D01*
X123972101Y-73514955D01*
X124103426Y-73318413D01*
X124193884Y-73100027D01*
X124240000Y-72868190D01*
X124240000Y-72631810D01*
X124193884Y-72399973D01*
X124103426Y-72181587D01*
X123972101Y-71985045D01*
X123804955Y-71817899D01*
X123608413Y-71686574D01*
X123390027Y-71596116D01*
X123158190Y-71550000D01*
X122921810Y-71550000D01*
X122689973Y-71596116D01*
X122471587Y-71686574D01*
X122275045Y-71817899D01*
X122107899Y-71985045D01*
X121976574Y-72181587D01*
X121886116Y-72399973D01*
X121840000Y-72631810D01*
X121701693Y-72631810D01*
X121701693Y-71900000D01*
X121694935Y-71831388D01*
X121674922Y-71765413D01*
X121642422Y-71704610D01*
X121598685Y-71651315D01*
X121545390Y-71607578D01*
X121484587Y-71575078D01*
X121418612Y-71555065D01*
X121350000Y-71548307D01*
X119650000Y-71548307D01*
X119581388Y-71555065D01*
X119515413Y-71575078D01*
X119454610Y-71607578D01*
X119401315Y-71651315D01*
X119357578Y-71704610D01*
X119325078Y-71765413D01*
X119305065Y-71831388D01*
X119298307Y-71900000D01*
X95600000Y-71900000D01*
X95600000Y-70600000D01*
X128400000Y-70600000D01*
X128400000Y-96400000D01*
X128400000Y-96400000D01*
G37*
X128400000Y-96400000D02*
X95600000Y-96400000D01*
X95600000Y-95240000D01*
X95707339Y-95240000D01*
X95717958Y-95347819D01*
X95749408Y-95451494D01*
X95800479Y-95547042D01*
X95869210Y-95630790D01*
X95952958Y-95699521D01*
X96048506Y-95750592D01*
X96152181Y-95782042D01*
X96260000Y-95792661D01*
X97297500Y-95790000D01*
X97435000Y-95652500D01*
X97435000Y-94065000D01*
X95847500Y-94065000D01*
X95710000Y-94202500D01*
X95707339Y-95240000D01*
X95600000Y-95240000D01*
X95600000Y-93850000D01*
X95709929Y-93850000D01*
X95710000Y-93877500D01*
X95847500Y-94015000D01*
X97435000Y-94015000D01*
X97435000Y-93995000D01*
X97485000Y-93995000D01*
X97485000Y-94015000D01*
X97505000Y-94015000D01*
X97505000Y-94065000D01*
X97485000Y-94065000D01*
X97485000Y-95652500D01*
X97622500Y-95790000D01*
X97668404Y-95790118D01*
X97676656Y-95805557D01*
X97689092Y-95820711D01*
X97704246Y-95833147D01*
X97721535Y-95842388D01*
X97740294Y-95848079D01*
X97759803Y-95850000D01*
X102259803Y-95850000D01*
X102279312Y-95848079D01*
X102298071Y-95842388D01*
X102315360Y-95833147D01*
X102330514Y-95820711D01*
X102342950Y-95805557D01*
X102351229Y-95790067D01*
X102377500Y-95790000D01*
X102515000Y-95652500D01*
X102515000Y-94065000D01*
X102565000Y-94065000D01*
X102565000Y-95652500D01*
X102702500Y-95790000D01*
X103740000Y-95792661D01*
X103847819Y-95782042D01*
X103951494Y-95750592D01*
X104047042Y-95699521D01*
X104130790Y-95630790D01*
X104199521Y-95547042D01*
X104250592Y-95451494D01*
X104258285Y-95426131D01*
X109750000Y-95426131D01*
X109750000Y-95573869D01*
X109778822Y-95718767D01*
X109835359Y-95855258D01*
X109917437Y-95978097D01*
X110021903Y-96082563D01*
X110144742Y-96164641D01*
X110281233Y-96221178D01*
X110426131Y-96250000D01*
X110573869Y-96250000D01*
X110718767Y-96221178D01*
X110855258Y-96164641D01*
X110978097Y-96082563D01*
X111082563Y-95978097D01*
X111164641Y-95855258D01*
X111218596Y-95725000D01*
X119665368Y-95725000D01*
X119667437Y-95728097D01*
X119771903Y-95832563D01*
X119894742Y-95914641D01*
X120031233Y-95971178D01*
X120176131Y-96000000D01*
X120323869Y-96000000D01*
X120468767Y-95971178D01*
X120605258Y-95914641D01*
X120728097Y-95832563D01*
X120832563Y-95728097D01*
X120914641Y-95605258D01*
X120971178Y-95468767D01*
X121000000Y-95323869D01*
X121000000Y-95176131D01*
X120971178Y-95031233D01*
X120914641Y-94894742D01*
X120832563Y-94771903D01*
X120728097Y-94667437D01*
X120605258Y-94585359D01*
X120468767Y-94528822D01*
X120323869Y-94500000D01*
X120176131Y-94500000D01*
X120031233Y-94528822D01*
X119894742Y-94585359D01*
X119771903Y-94667437D01*
X119667437Y-94771903D01*
X119665368Y-94775000D01*
X111023331Y-94775000D01*
X110999999Y-94772702D01*
X110906883Y-94781873D01*
X110879722Y-94790112D01*
X110817346Y-94809034D01*
X110806151Y-94815018D01*
X110718767Y-94778822D01*
X110573869Y-94750000D01*
X110426131Y-94750000D01*
X110281233Y-94778822D01*
X110144742Y-94835359D01*
X110021903Y-94917437D01*
X109917437Y-95021903D01*
X109835359Y-95144742D01*
X109778822Y-95281233D01*
X109750000Y-95426131D01*
X104258285Y-95426131D01*
X104282042Y-95347819D01*
X104292661Y-95240000D01*
X104290000Y-94202500D01*
X104152500Y-94065000D01*
X102565000Y-94065000D01*
X102515000Y-94065000D01*
X102495000Y-94065000D01*
X102495000Y-94015000D01*
X102515000Y-94015000D01*
X102515000Y-93995000D01*
X102565000Y-93995000D01*
X102565000Y-94015000D01*
X104152500Y-94015000D01*
X104290000Y-93877500D01*
X104290735Y-93591070D01*
X104305557Y-93583147D01*
X104320711Y-93570711D01*
X104333147Y-93555557D01*
X104342388Y-93538268D01*
X104348079Y-93519509D01*
X104350000Y-93500000D01*
X104350000Y-92250000D01*
X104348079Y-92230491D01*
X104342388Y-92211732D01*
X104333147Y-92194443D01*
X104320711Y-92179289D01*
X104305557Y-92166853D01*
X104288268Y-92157612D01*
X104269509Y-92151921D01*
X104250000Y-92150000D01*
X101408469Y-92150000D01*
X101490435Y-91952118D01*
X101550000Y-91652662D01*
X101550000Y-91347338D01*
X101490435Y-91047882D01*
X101382578Y-90787494D01*
X104250000Y-90787494D01*
X104269509Y-90785573D01*
X104288268Y-90779882D01*
X104305557Y-90770641D01*
X104320711Y-90758205D01*
X104333147Y-90743051D01*
X104342388Y-90725762D01*
X104348079Y-90707003D01*
X104350000Y-90687494D01*
X104350000Y-89437494D01*
X104348079Y-89417985D01*
X104342388Y-89399226D01*
X104333147Y-89381937D01*
X104320711Y-89366783D01*
X104305557Y-89354347D01*
X104290574Y-89346339D01*
X104290000Y-89122500D01*
X104152500Y-88985000D01*
X102565000Y-88985000D01*
X102565000Y-89005000D01*
X102515000Y-89005000D01*
X102515000Y-88985000D01*
X102495000Y-88985000D01*
X102495000Y-88935000D01*
X102515000Y-88935000D01*
X102515000Y-87347500D01*
X102565000Y-87347500D01*
X102565000Y-88935000D01*
X104152500Y-88935000D01*
X104290000Y-88797500D01*
X104292661Y-87760000D01*
X104282042Y-87652181D01*
X104250592Y-87548506D01*
X104199521Y-87452958D01*
X104130790Y-87369210D01*
X104047042Y-87300479D01*
X103951494Y-87249408D01*
X103847819Y-87217958D01*
X103740000Y-87207339D01*
X102702500Y-87210000D01*
X102565000Y-87347500D01*
X102515000Y-87347500D01*
X102377500Y-87210000D01*
X102341413Y-87209907D01*
X102333147Y-87194443D01*
X102320711Y-87179289D01*
X102305557Y-87166853D01*
X102288268Y-87157612D01*
X102269509Y-87151921D01*
X102250000Y-87150000D01*
X97750000Y-87150000D01*
X97730491Y-87151921D01*
X97711732Y-87157612D01*
X97694443Y-87166853D01*
X97679289Y-87179289D01*
X97666853Y-87194443D01*
X97658587Y-87209907D01*
X97622500Y-87210000D01*
X97485000Y-87347500D01*
X97485000Y-88935000D01*
X97505000Y-88935000D01*
X97505000Y-88985000D01*
X97485000Y-88985000D01*
X97485000Y-89005000D01*
X97435000Y-89005000D01*
X97435000Y-88985000D01*
X95847500Y-88985000D01*
X95710000Y-89122500D01*
X95709929Y-89150000D01*
X95600000Y-89150000D01*
X95600000Y-87760000D01*
X95707339Y-87760000D01*
X95710000Y-88797500D01*
X95847500Y-88935000D01*
X97435000Y-88935000D01*
X97435000Y-87347500D01*
X97297500Y-87210000D01*
X96260000Y-87207339D01*
X96152181Y-87217958D01*
X96048506Y-87249408D01*
X95952958Y-87300479D01*
X95869210Y-87369210D01*
X95800479Y-87452958D01*
X95749408Y-87548506D01*
X95717958Y-87652181D01*
X95707339Y-87760000D01*
X95600000Y-87760000D01*
X95600000Y-84926131D01*
X103000000Y-84926131D01*
X103000000Y-85073869D01*
X103028822Y-85218767D01*
X103085359Y-85355258D01*
X103167437Y-85478097D01*
X103271903Y-85582563D01*
X103394742Y-85664641D01*
X103531233Y-85721178D01*
X103676131Y-85750000D01*
X103823869Y-85750000D01*
X103968767Y-85721178D01*
X104105258Y-85664641D01*
X104228097Y-85582563D01*
X104332563Y-85478097D01*
X104414641Y-85355258D01*
X104471178Y-85218767D01*
X104500000Y-85073869D01*
X104500000Y-84926131D01*
X104471178Y-84781233D01*
X104425854Y-84671810D01*
X106550000Y-84671810D01*
X106550000Y-84908190D01*
X106596116Y-85140027D01*
X106686574Y-85358413D01*
X106817899Y-85554955D01*
X106985045Y-85722101D01*
X107181587Y-85853426D01*
X107399973Y-85943884D01*
X107631810Y-85990000D01*
X107868190Y-85990000D01*
X108100027Y-85943884D01*
X108318413Y-85853426D01*
X108514955Y-85722101D01*
X108682101Y-85554955D01*
X108813426Y-85358413D01*
X108903884Y-85140027D01*
X108950000Y-84908190D01*
X108950000Y-84671810D01*
X108903884Y-84439973D01*
X108813426Y-84221587D01*
X108682101Y-84025045D01*
X108514955Y-83857899D01*
X108318413Y-83726574D01*
X108100027Y-83636116D01*
X107868190Y-83590000D01*
X107631810Y-83590000D01*
X107399973Y-83636116D01*
X107181587Y-83726574D01*
X106985045Y-83857899D01*
X106817899Y-84025045D01*
X106686574Y-84221587D01*
X106596116Y-84439973D01*
X106550000Y-84671810D01*
X104425854Y-84671810D01*
X104414641Y-84644742D01*
X104332563Y-84521903D01*
X104228097Y-84417437D01*
X104105258Y-84335359D01*
X103968767Y-84278822D01*
X103823869Y-84250000D01*
X103676131Y-84250000D01*
X103531233Y-84278822D01*
X103394742Y-84335359D01*
X103271903Y-84417437D01*
X103167437Y-84521903D01*
X103085359Y-84644742D01*
X103028822Y-84781233D01*
X103000000Y-84926131D01*
X95600000Y-84926131D01*
X95600000Y-81400000D01*
X106548307Y-81400000D01*
X106548307Y-83100000D01*
X106555065Y-83168612D01*
X106575078Y-83234587D01*
X106607578Y-83295390D01*
X106651315Y-83348685D01*
X106704610Y-83392422D01*
X106765413Y-83424922D01*
X106831388Y-83444935D01*
X106900000Y-83451693D01*
X108600000Y-83451693D01*
X108668612Y-83444935D01*
X108734587Y-83424922D01*
X108795390Y-83392422D01*
X108848685Y-83348685D01*
X108892422Y-83295390D01*
X108924922Y-83234587D01*
X108944935Y-83168612D01*
X108951693Y-83100000D01*
X108951693Y-81400000D01*
X108944935Y-81331388D01*
X108924922Y-81265413D01*
X108892422Y-81204610D01*
X108848685Y-81151315D01*
X108795390Y-81107578D01*
X108734587Y-81075078D01*
X108668612Y-81055065D01*
X108600000Y-81048307D01*
X106900000Y-81048307D01*
X106831388Y-81055065D01*
X106765413Y-81075078D01*
X106704610Y-81107578D01*
X106651315Y-81151315D01*
X106607578Y-81204610D01*
X106575078Y-81265413D01*
X106555065Y-81331388D01*
X106548307Y-81400000D01*
X95600000Y-81400000D01*
X95600000Y-80500000D01*
X97947339Y-80500000D01*
X97957958Y-80607819D01*
X97989408Y-80711494D01*
X98040479Y-80807042D01*
X98109210Y-80890790D01*
X98192958Y-80959521D01*
X98288506Y-81010592D01*
X98392181Y-81042042D01*
X98500000Y-81052661D01*
X99337500Y-81050000D01*
X99475000Y-80912500D01*
X99475000Y-79525000D01*
X99525000Y-79525000D01*
X99525000Y-80912500D01*
X99662500Y-81050000D01*
X100500000Y-81052661D01*
X100607819Y-81042042D01*
X100711494Y-81010592D01*
X100807042Y-80959521D01*
X100890790Y-80890790D01*
X100959521Y-80807042D01*
X101010592Y-80711494D01*
X101042042Y-80607819D01*
X101052661Y-80500000D01*
X101050000Y-79662500D01*
X100912500Y-79525000D01*
X99525000Y-79525000D01*
X99475000Y-79525000D01*
X98087500Y-79525000D01*
X97950000Y-79662500D01*
X97947339Y-80500000D01*
X95600000Y-80500000D01*
X95600000Y-78500000D01*
X97947339Y-78500000D01*
X97950000Y-79337500D01*
X98087500Y-79475000D01*
X99475000Y-79475000D01*
X99475000Y-78087500D01*
X99525000Y-78087500D01*
X99525000Y-79475000D01*
X100912500Y-79475000D01*
X101050000Y-79337500D01*
X101052101Y-78676131D01*
X105750000Y-78676131D01*
X105750000Y-78823869D01*
X105778822Y-78968767D01*
X105835359Y-79105258D01*
X105917437Y-79228097D01*
X106021903Y-79332563D01*
X106144742Y-79414641D01*
X106281233Y-79471178D01*
X106426131Y-79500000D01*
X106573869Y-79500000D01*
X106718767Y-79471178D01*
X106855258Y-79414641D01*
X106978097Y-79332563D01*
X107082563Y-79228097D01*
X107164641Y-79105258D01*
X107221178Y-78968767D01*
X107250000Y-78823869D01*
X107250000Y-78676131D01*
X107249273Y-78672477D01*
X107446751Y-78475000D01*
X118165368Y-78475000D01*
X118167437Y-78478097D01*
X118271903Y-78582563D01*
X118282211Y-78589450D01*
X118263603Y-78599397D01*
X118209828Y-78628140D01*
X118137500Y-78687498D01*
X118122626Y-78705623D01*
X118077522Y-78750727D01*
X118073869Y-78750000D01*
X117926131Y-78750000D01*
X117781233Y-78778822D01*
X117644742Y-78835359D01*
X117521903Y-78917437D01*
X117417437Y-79021903D01*
X117335359Y-79144742D01*
X117278822Y-79281233D01*
X117250000Y-79426131D01*
X117250000Y-79573869D01*
X117250727Y-79577523D01*
X117053250Y-79775000D01*
X115084632Y-79775000D01*
X115082563Y-79771903D01*
X114978097Y-79667437D01*
X114855258Y-79585359D01*
X114718767Y-79528822D01*
X114573869Y-79500000D01*
X114426131Y-79500000D01*
X114281233Y-79528822D01*
X114144742Y-79585359D01*
X114021903Y-79667437D01*
X113917437Y-79771903D01*
X113835359Y-79894742D01*
X113778822Y-80031233D01*
X113750000Y-80176131D01*
X113750000Y-80323869D01*
X113778822Y-80468767D01*
X113835359Y-80605258D01*
X113917437Y-80728097D01*
X114021903Y-80832563D01*
X114144742Y-80914641D01*
X114281233Y-80971178D01*
X114426131Y-81000000D01*
X114573869Y-81000000D01*
X114718767Y-80971178D01*
X114855258Y-80914641D01*
X114978097Y-80832563D01*
X115082563Y-80728097D01*
X115084632Y-80725000D01*
X117226668Y-80725000D01*
X117250000Y-80727298D01*
X117273332Y-80725000D01*
X117343116Y-80718127D01*
X117432654Y-80690966D01*
X117515173Y-80646859D01*
X117587501Y-80587501D01*
X117602384Y-80569366D01*
X117922477Y-80249273D01*
X117926131Y-80250000D01*
X118073869Y-80250000D01*
X118218767Y-80221178D01*
X118355258Y-80164641D01*
X118478097Y-80082563D01*
X118582563Y-79978097D01*
X118664641Y-79855258D01*
X118721178Y-79718767D01*
X118750000Y-79573869D01*
X118750000Y-79499999D01*
X124328249Y-79499999D01*
X125525001Y-80696752D01*
X125525000Y-81915367D01*
X125521903Y-81917437D01*
X125417437Y-82021903D01*
X125335359Y-82144742D01*
X125278822Y-82281233D01*
X125250000Y-82426131D01*
X125250000Y-82573869D01*
X125278822Y-82718767D01*
X125335359Y-82855258D01*
X125417437Y-82978097D01*
X125521903Y-83082563D01*
X125644742Y-83164641D01*
X125781233Y-83221178D01*
X125926131Y-83250000D01*
X126073869Y-83250000D01*
X126218767Y-83221178D01*
X126355258Y-83164641D01*
X126478097Y-83082563D01*
X126582563Y-82978097D01*
X126664641Y-82855258D01*
X126721178Y-82718767D01*
X126750000Y-82573869D01*
X126750000Y-82426131D01*
X126721178Y-82281233D01*
X126664641Y-82144742D01*
X126582563Y-82021903D01*
X126478097Y-81917437D01*
X126475000Y-81915368D01*
X126475000Y-80523331D01*
X126477298Y-80499999D01*
X126468127Y-80406883D01*
X126448783Y-80343116D01*
X126440966Y-80317346D01*
X126396859Y-80234827D01*
X126337501Y-80162499D01*
X126319371Y-80147620D01*
X124877383Y-78705633D01*
X124862500Y-78687498D01*
X124790172Y-78628140D01*
X124707653Y-78584033D01*
X124618115Y-78556872D01*
X124548331Y-78549999D01*
X124524999Y-78547701D01*
X124511644Y-78549016D01*
X124582563Y-78478097D01*
X124664641Y-78355258D01*
X124721178Y-78218767D01*
X124750000Y-78073869D01*
X124750000Y-77926131D01*
X124721178Y-77781233D01*
X124664641Y-77644742D01*
X124582563Y-77521903D01*
X124478097Y-77417437D01*
X124355258Y-77335359D01*
X124218767Y-77278822D01*
X124073869Y-77250000D01*
X123926131Y-77250000D01*
X123781233Y-77278822D01*
X123644742Y-77335359D01*
X123521903Y-77417437D01*
X123417437Y-77521903D01*
X123415368Y-77525000D01*
X119896750Y-77525000D01*
X121922478Y-75499273D01*
X121926131Y-75500000D01*
X122073869Y-75500000D01*
X122218767Y-75471178D01*
X122355258Y-75414641D01*
X122478097Y-75332563D01*
X122582563Y-75228097D01*
X122664641Y-75105258D01*
X122721178Y-74968767D01*
X122750000Y-74823869D01*
X122750000Y-74676131D01*
X122721178Y-74531233D01*
X122664641Y-74394742D01*
X122582563Y-74271903D01*
X122478097Y-74167437D01*
X122355258Y-74085359D01*
X122218767Y-74028822D01*
X122073869Y-74000000D01*
X121926131Y-74000000D01*
X121781233Y-74028822D01*
X121644742Y-74085359D01*
X121521903Y-74167437D01*
X121417437Y-74271903D01*
X121335359Y-74394742D01*
X121278822Y-74531233D01*
X121250000Y-74676131D01*
X121250000Y-74823869D01*
X121250727Y-74827522D01*
X118827523Y-77250727D01*
X118823869Y-77250000D01*
X118676131Y-77250000D01*
X118531233Y-77278822D01*
X118394742Y-77335359D01*
X118271903Y-77417437D01*
X118167437Y-77521903D01*
X118165368Y-77525000D01*
X107273331Y-77525000D01*
X107249999Y-77522702D01*
X107156883Y-77531873D01*
X107129722Y-77540112D01*
X107067346Y-77559034D01*
X106984827Y-77603141D01*
X106912499Y-77662499D01*
X106897620Y-77680629D01*
X106577523Y-78000727D01*
X106573869Y-78000000D01*
X106426131Y-78000000D01*
X106281233Y-78028822D01*
X106144742Y-78085359D01*
X106021903Y-78167437D01*
X105917437Y-78271903D01*
X105835359Y-78394742D01*
X105778822Y-78531233D01*
X105750000Y-78676131D01*
X101052101Y-78676131D01*
X101052661Y-78500000D01*
X101042042Y-78392181D01*
X101010592Y-78288506D01*
X100959521Y-78192958D01*
X100890790Y-78109210D01*
X100807042Y-78040479D01*
X100711494Y-77989408D01*
X100607819Y-77957958D01*
X100500000Y-77947339D01*
X99662500Y-77950000D01*
X99525000Y-78087500D01*
X99475000Y-78087500D01*
X99337500Y-77950000D01*
X98500000Y-77947339D01*
X98392181Y-77957958D01*
X98288506Y-77989408D01*
X98192958Y-78040479D01*
X98109210Y-78109210D01*
X98040479Y-78192958D01*
X97989408Y-78288506D01*
X97957958Y-78392181D01*
X97947339Y-78500000D01*
X95600000Y-78500000D01*
X95600000Y-74367037D01*
X98150000Y-74367037D01*
X98150000Y-74632963D01*
X98201880Y-74893780D01*
X98303646Y-75139465D01*
X98451387Y-75360575D01*
X98639425Y-75548613D01*
X98860535Y-75696354D01*
X99106220Y-75798120D01*
X99367037Y-75850000D01*
X99632963Y-75850000D01*
X99893780Y-75798120D01*
X100139465Y-75696354D01*
X100360575Y-75548613D01*
X100548613Y-75360575D01*
X100696354Y-75139465D01*
X100798120Y-74893780D01*
X100850000Y-74632963D01*
X100850000Y-74367037D01*
X100798120Y-74106220D01*
X100696354Y-73860535D01*
X100548613Y-73639425D01*
X100360575Y-73451387D01*
X100139465Y-73303646D01*
X99893780Y-73201880D01*
X99632963Y-73150000D01*
X99367037Y-73150000D01*
X99106220Y-73201880D01*
X98860535Y-73303646D01*
X98639425Y-73451387D01*
X98451387Y-73639425D01*
X98303646Y-73860535D01*
X98201880Y-74106220D01*
X98150000Y-74367037D01*
X95600000Y-74367037D01*
X95600000Y-71900000D01*
X119298307Y-71900000D01*
X119298307Y-73600000D01*
X119305065Y-73668612D01*
X119325078Y-73734587D01*
X119357578Y-73795390D01*
X119401315Y-73848685D01*
X119454610Y-73892422D01*
X119515413Y-73924922D01*
X119581388Y-73944935D01*
X119650000Y-73951693D01*
X121350000Y-73951693D01*
X121418612Y-73944935D01*
X121484587Y-73924922D01*
X121545390Y-73892422D01*
X121598685Y-73848685D01*
X121642422Y-73795390D01*
X121674922Y-73734587D01*
X121694935Y-73668612D01*
X121701693Y-73600000D01*
X121701693Y-72631810D01*
X121840000Y-72631810D01*
X121840000Y-72868190D01*
X121886116Y-73100027D01*
X121976574Y-73318413D01*
X122107899Y-73514955D01*
X122275045Y-73682101D01*
X122471587Y-73813426D01*
X122689973Y-73903884D01*
X122921810Y-73950000D01*
X123158190Y-73950000D01*
X123390027Y-73903884D01*
X123608413Y-73813426D01*
X123804955Y-73682101D01*
X123972101Y-73514955D01*
X124103426Y-73318413D01*
X124193884Y-73100027D01*
X124240000Y-72868190D01*
X124240000Y-72631810D01*
X124193884Y-72399973D01*
X124103426Y-72181587D01*
X123972101Y-71985045D01*
X123804955Y-71817899D01*
X123608413Y-71686574D01*
X123390027Y-71596116D01*
X123158190Y-71550000D01*
X122921810Y-71550000D01*
X122689973Y-71596116D01*
X122471587Y-71686574D01*
X122275045Y-71817899D01*
X122107899Y-71985045D01*
X121976574Y-72181587D01*
X121886116Y-72399973D01*
X121840000Y-72631810D01*
X121701693Y-72631810D01*
X121701693Y-71900000D01*
X121694935Y-71831388D01*
X121674922Y-71765413D01*
X121642422Y-71704610D01*
X121598685Y-71651315D01*
X121545390Y-71607578D01*
X121484587Y-71575078D01*
X121418612Y-71555065D01*
X121350000Y-71548307D01*
X119650000Y-71548307D01*
X119581388Y-71555065D01*
X119515413Y-71575078D01*
X119454610Y-71607578D01*
X119401315Y-71651315D01*
X119357578Y-71704610D01*
X119325078Y-71765413D01*
X119305065Y-71831388D01*
X119298307Y-71900000D01*
X95600000Y-71900000D01*
X95600000Y-70600000D01*
X128400000Y-70600000D01*
X128400000Y-96400000D01*
M02*
