G04 #@! TF.GenerationSoftware,KiCad,Pcbnew,(5.1.4)-1*
G04 #@! TF.CreationDate,2020-06-21T20:29:22+03:00*
G04 #@! TF.ProjectId,naa_g,6e61615f-672e-46b6-9963-61645f706362,rev?*
G04 #@! TF.SameCoordinates,Original*
G04 #@! TF.FileFunction,Soldermask,Top*
G04 #@! TF.FilePolarity,Negative*
%FSLAX46Y46*%
G04 Gerber Fmt 4.6, Leading zero omitted, Abs format (unit mm)*
G04 Created by KiCad (PCBNEW (5.1.4)-1) date 2020-06-21 20:29:22*
%MOMM*%
%LPD*%
G04 APERTURE LIST*
%ADD10C,0.100000*%
G04 APERTURE END LIST*
D10*
G36*
X124750000Y-80000000D02*
G01*
X126250000Y-80000000D01*
X126250000Y-81000000D01*
X124750000Y-81000000D01*
X124750000Y-80000000D01*
G37*
X124750000Y-80000000D02*
X126250000Y-80000000D01*
X126250000Y-81000000D01*
X124750000Y-81000000D01*
X124750000Y-80000000D01*
G36*
X108250000Y-88500000D02*
G01*
X106750000Y-88500000D01*
X106750000Y-87500000D01*
X108250000Y-87500000D01*
X108250000Y-88500000D01*
G37*
X108250000Y-88500000D02*
X106750000Y-88500000D01*
X106750000Y-87500000D01*
X108250000Y-87500000D01*
X108250000Y-88500000D01*
G36*
X124750000Y-77750000D02*
G01*
X126250000Y-77750000D01*
X126250000Y-78750000D01*
X124750000Y-78750000D01*
X124750000Y-77750000D01*
G37*
X124750000Y-77750000D02*
X126250000Y-77750000D01*
X126250000Y-78750000D01*
X124750000Y-78750000D01*
X124750000Y-77750000D01*
G36*
X119051000Y-95851000D02*
G01*
X117449000Y-95851000D01*
X117449000Y-94749000D01*
X119051000Y-94749000D01*
X119051000Y-95851000D01*
X119051000Y-95851000D01*
G37*
G36*
X103791000Y-95291000D02*
G01*
X101289000Y-95291000D01*
X101289000Y-92789000D01*
X103791000Y-92789000D01*
X103791000Y-95291000D01*
X103791000Y-95291000D01*
G37*
G36*
X98711000Y-95291000D02*
G01*
X96209000Y-95291000D01*
X96209000Y-92789000D01*
X98711000Y-92789000D01*
X98711000Y-95291000D01*
X98711000Y-95291000D01*
G37*
G36*
X116051000Y-94951000D02*
G01*
X114449000Y-94951000D01*
X114449000Y-93849000D01*
X116051000Y-93849000D01*
X116051000Y-94951000D01*
X116051000Y-94951000D01*
G37*
G36*
X112951000Y-94801000D02*
G01*
X112049000Y-94801000D01*
X112049000Y-93699000D01*
X112951000Y-93699000D01*
X112951000Y-94801000D01*
X112951000Y-94801000D01*
G37*
G36*
X110951000Y-94801000D02*
G01*
X110049000Y-94801000D01*
X110049000Y-93699000D01*
X110951000Y-93699000D01*
X110951000Y-94801000D01*
X110951000Y-94801000D01*
G37*
G36*
X119051000Y-94051000D02*
G01*
X117449000Y-94051000D01*
X117449000Y-92949000D01*
X119051000Y-92949000D01*
X119051000Y-94051000D01*
X119051000Y-94051000D01*
G37*
G36*
X106676000Y-93801000D02*
G01*
X105324000Y-93801000D01*
X105324000Y-93199000D01*
X106676000Y-93199000D01*
X106676000Y-93801000D01*
X106676000Y-93801000D01*
G37*
G36*
X108926000Y-93801000D02*
G01*
X107574000Y-93801000D01*
X107574000Y-93199000D01*
X108926000Y-93199000D01*
X108926000Y-93801000D01*
X108926000Y-93801000D01*
G37*
G36*
X122951000Y-93301000D02*
G01*
X121849000Y-93301000D01*
X121849000Y-91699000D01*
X122951000Y-91699000D01*
X122951000Y-93301000D01*
X122951000Y-93301000D01*
G37*
G36*
X100364903Y-90297075D02*
G01*
X100592571Y-90391378D01*
X100797466Y-90528285D01*
X100971715Y-90702534D01*
X101108622Y-90907429D01*
X101202925Y-91135097D01*
X101251000Y-91376787D01*
X101251000Y-91623213D01*
X101202925Y-91864903D01*
X101108622Y-92092571D01*
X100971715Y-92297466D01*
X100797466Y-92471715D01*
X100592571Y-92608622D01*
X100592570Y-92608623D01*
X100592569Y-92608623D01*
X100364903Y-92702925D01*
X100123214Y-92751000D01*
X99876786Y-92751000D01*
X99635097Y-92702925D01*
X99407431Y-92608623D01*
X99407430Y-92608623D01*
X99407429Y-92608622D01*
X99202534Y-92471715D01*
X99028285Y-92297466D01*
X98891378Y-92092571D01*
X98797075Y-91864903D01*
X98749000Y-91623213D01*
X98749000Y-91376787D01*
X98797075Y-91135097D01*
X98891378Y-90907429D01*
X99028285Y-90702534D01*
X99202534Y-90528285D01*
X99407429Y-90391378D01*
X99635097Y-90297075D01*
X99876786Y-90249000D01*
X100123214Y-90249000D01*
X100364903Y-90297075D01*
X100364903Y-90297075D01*
G37*
G36*
X111951000Y-92301000D02*
G01*
X111049000Y-92301000D01*
X111049000Y-91199000D01*
X111951000Y-91199000D01*
X111951000Y-92301000D01*
X111951000Y-92301000D01*
G37*
G36*
X108926000Y-92051000D02*
G01*
X107574000Y-92051000D01*
X107574000Y-91449000D01*
X108926000Y-91449000D01*
X108926000Y-92051000D01*
X108926000Y-92051000D01*
G37*
G36*
X106676000Y-92051000D02*
G01*
X105324000Y-92051000D01*
X105324000Y-91449000D01*
X106676000Y-91449000D01*
X106676000Y-92051000D01*
X106676000Y-92051000D01*
G37*
G36*
X118051000Y-91426000D02*
G01*
X117449000Y-91426000D01*
X117449000Y-90074000D01*
X118051000Y-90074000D01*
X118051000Y-91426000D01*
X118051000Y-91426000D01*
G37*
G36*
X116301000Y-91426000D02*
G01*
X115699000Y-91426000D01*
X115699000Y-90074000D01*
X116301000Y-90074000D01*
X116301000Y-91426000D01*
X116301000Y-91426000D01*
G37*
G36*
X122051000Y-90301000D02*
G01*
X120949000Y-90301000D01*
X120949000Y-88699000D01*
X122051000Y-88699000D01*
X122051000Y-90301000D01*
X122051000Y-90301000D01*
G37*
G36*
X123851000Y-90301000D02*
G01*
X122749000Y-90301000D01*
X122749000Y-88699000D01*
X123851000Y-88699000D01*
X123851000Y-90301000D01*
X123851000Y-90301000D01*
G37*
G36*
X103791000Y-90211000D02*
G01*
X101289000Y-90211000D01*
X101289000Y-87709000D01*
X103791000Y-87709000D01*
X103791000Y-90211000D01*
X103791000Y-90211000D01*
G37*
G36*
X98711000Y-90211000D02*
G01*
X96209000Y-90211000D01*
X96209000Y-87709000D01*
X98711000Y-87709000D01*
X98711000Y-90211000D01*
X98711000Y-90211000D01*
G37*
G36*
X110801000Y-89051000D02*
G01*
X109699000Y-89051000D01*
X109699000Y-87449000D01*
X110801000Y-87449000D01*
X110801000Y-89051000D01*
X110801000Y-89051000D01*
G37*
G36*
X112801000Y-89051000D02*
G01*
X111699000Y-89051000D01*
X111699000Y-87449000D01*
X112801000Y-87449000D01*
X112801000Y-89051000D01*
X112801000Y-89051000D01*
G37*
G36*
X108059004Y-87453355D02*
G01*
X108087376Y-87461962D01*
X108115745Y-87470567D01*
X108115747Y-87470568D01*
X108168031Y-87498514D01*
X108168032Y-87498515D01*
X108168036Y-87498517D01*
X108213869Y-87536131D01*
X108251483Y-87581964D01*
X108251485Y-87581968D01*
X108251486Y-87581969D01*
X108279432Y-87634253D01*
X108296645Y-87690996D01*
X108301000Y-87735214D01*
X108301000Y-88264786D01*
X108296645Y-88309004D01*
X108296644Y-88309006D01*
X108279433Y-88365745D01*
X108251483Y-88418036D01*
X108213869Y-88463869D01*
X108168035Y-88501483D01*
X108115744Y-88529433D01*
X108087375Y-88538038D01*
X108059003Y-88546645D01*
X108000000Y-88552456D01*
X107940996Y-88546645D01*
X107912624Y-88538038D01*
X107884255Y-88529433D01*
X107884253Y-88529432D01*
X107831969Y-88501486D01*
X107831968Y-88501485D01*
X107831964Y-88501483D01*
X107786131Y-88463869D01*
X107748517Y-88418035D01*
X107720567Y-88365744D01*
X107703356Y-88309005D01*
X107703355Y-88309003D01*
X107699000Y-88264785D01*
X107699001Y-87735214D01*
X107703356Y-87690996D01*
X107720569Y-87634253D01*
X107748515Y-87581969D01*
X107748516Y-87581968D01*
X107748518Y-87581964D01*
X107786132Y-87536131D01*
X107831965Y-87498517D01*
X107831969Y-87498515D01*
X107831970Y-87498514D01*
X107884254Y-87470568D01*
X107884256Y-87470567D01*
X107912625Y-87461962D01*
X107940997Y-87453355D01*
X108000000Y-87447544D01*
X108059004Y-87453355D01*
X108059004Y-87453355D01*
G37*
G36*
X107059004Y-87453355D02*
G01*
X107087376Y-87461962D01*
X107115745Y-87470567D01*
X107115747Y-87470568D01*
X107168031Y-87498514D01*
X107168032Y-87498515D01*
X107168036Y-87498517D01*
X107213869Y-87536131D01*
X107251483Y-87581964D01*
X107251485Y-87581968D01*
X107251486Y-87581969D01*
X107279432Y-87634253D01*
X107296645Y-87690996D01*
X107301000Y-87735214D01*
X107301000Y-88264786D01*
X107296645Y-88309004D01*
X107296644Y-88309006D01*
X107279433Y-88365745D01*
X107251483Y-88418036D01*
X107213869Y-88463869D01*
X107168035Y-88501483D01*
X107115744Y-88529433D01*
X107087375Y-88538038D01*
X107059003Y-88546645D01*
X107000000Y-88552456D01*
X106940996Y-88546645D01*
X106912624Y-88538038D01*
X106884255Y-88529433D01*
X106884253Y-88529432D01*
X106831969Y-88501486D01*
X106831968Y-88501485D01*
X106831964Y-88501483D01*
X106786131Y-88463869D01*
X106748517Y-88418035D01*
X106720567Y-88365744D01*
X106703356Y-88309005D01*
X106703355Y-88309003D01*
X106699000Y-88264785D01*
X106699001Y-87735214D01*
X106703356Y-87690996D01*
X106720569Y-87634253D01*
X106748515Y-87581969D01*
X106748516Y-87581968D01*
X106748518Y-87581964D01*
X106786132Y-87536131D01*
X106831965Y-87498517D01*
X106831969Y-87498515D01*
X106831970Y-87498514D01*
X106884254Y-87470568D01*
X106884256Y-87470567D01*
X106912625Y-87461962D01*
X106940997Y-87453355D01*
X107000000Y-87447544D01*
X107059004Y-87453355D01*
X107059004Y-87453355D01*
G37*
G36*
X119801000Y-88051000D02*
G01*
X118199000Y-88051000D01*
X118199000Y-86449000D01*
X119801000Y-86449000D01*
X119801000Y-88051000D01*
X119801000Y-88051000D01*
G37*
G36*
X115301000Y-88051000D02*
G01*
X113699000Y-88051000D01*
X113699000Y-86449000D01*
X115301000Y-86449000D01*
X115301000Y-88051000D01*
X115301000Y-88051000D01*
G37*
G36*
X123551000Y-86426000D02*
G01*
X122949000Y-86426000D01*
X122949000Y-85074000D01*
X123551000Y-85074000D01*
X123551000Y-86426000D01*
X123551000Y-86426000D01*
G37*
G36*
X121801000Y-86426000D02*
G01*
X121199000Y-86426000D01*
X121199000Y-85074000D01*
X121801000Y-85074000D01*
X121801000Y-86426000D01*
X121801000Y-86426000D01*
G37*
G36*
X111651000Y-85801000D02*
G01*
X110549000Y-85801000D01*
X110549000Y-84199000D01*
X111651000Y-84199000D01*
X111651000Y-85801000D01*
X111651000Y-85801000D01*
G37*
G36*
X107863512Y-83893927D02*
G01*
X108012812Y-83923624D01*
X108176784Y-83991544D01*
X108324354Y-84090147D01*
X108449853Y-84215646D01*
X108548456Y-84363216D01*
X108616376Y-84527188D01*
X108651000Y-84701259D01*
X108651000Y-84878741D01*
X108616376Y-85052812D01*
X108548456Y-85216784D01*
X108449853Y-85364354D01*
X108324354Y-85489853D01*
X108176784Y-85588456D01*
X108012812Y-85656376D01*
X107863512Y-85686073D01*
X107838742Y-85691000D01*
X107661258Y-85691000D01*
X107636488Y-85686073D01*
X107487188Y-85656376D01*
X107323216Y-85588456D01*
X107175646Y-85489853D01*
X107050147Y-85364354D01*
X106951544Y-85216784D01*
X106883624Y-85052812D01*
X106849000Y-84878741D01*
X106849000Y-84701259D01*
X106883624Y-84527188D01*
X106951544Y-84363216D01*
X107050147Y-84215646D01*
X107175646Y-84090147D01*
X107323216Y-83991544D01*
X107487188Y-83923624D01*
X107636488Y-83893927D01*
X107661258Y-83889000D01*
X107838742Y-83889000D01*
X107863512Y-83893927D01*
X107863512Y-83893927D01*
G37*
G36*
X101051000Y-85676000D02*
G01*
X100449000Y-85676000D01*
X100449000Y-84324000D01*
X101051000Y-84324000D01*
X101051000Y-85676000D01*
X101051000Y-85676000D01*
G37*
G36*
X102801000Y-85676000D02*
G01*
X102199000Y-85676000D01*
X102199000Y-84324000D01*
X102801000Y-84324000D01*
X102801000Y-85676000D01*
X102801000Y-85676000D01*
G37*
G36*
X124051000Y-83551000D02*
G01*
X122949000Y-83551000D01*
X122949000Y-81949000D01*
X124051000Y-81949000D01*
X124051000Y-83551000D01*
X124051000Y-83551000D01*
G37*
G36*
X115301000Y-83551000D02*
G01*
X113699000Y-83551000D01*
X113699000Y-81949000D01*
X115301000Y-81949000D01*
X115301000Y-83551000D01*
X115301000Y-83551000D01*
G37*
G36*
X119801000Y-83551000D02*
G01*
X118199000Y-83551000D01*
X118199000Y-81949000D01*
X119801000Y-81949000D01*
X119801000Y-83551000D01*
X119801000Y-83551000D01*
G37*
G36*
X122051000Y-83551000D02*
G01*
X120949000Y-83551000D01*
X120949000Y-81949000D01*
X122051000Y-81949000D01*
X122051000Y-83551000D01*
X122051000Y-83551000D01*
G37*
G36*
X108651000Y-83151000D02*
G01*
X106849000Y-83151000D01*
X106849000Y-81349000D01*
X108651000Y-81349000D01*
X108651000Y-83151000D01*
X108651000Y-83151000D01*
G37*
G36*
X112551000Y-82801000D02*
G01*
X111449000Y-82801000D01*
X111449000Y-81199000D01*
X112551000Y-81199000D01*
X112551000Y-82801000D01*
X112551000Y-82801000D01*
G37*
G36*
X110751000Y-82801000D02*
G01*
X109649000Y-82801000D01*
X109649000Y-81199000D01*
X110751000Y-81199000D01*
X110751000Y-82801000D01*
X110751000Y-82801000D01*
G37*
G36*
X125059003Y-79953355D02*
G01*
X125087374Y-79961961D01*
X125115744Y-79970567D01*
X125168035Y-79998517D01*
X125213869Y-80036131D01*
X125251483Y-80081964D01*
X125251485Y-80081968D01*
X125251486Y-80081969D01*
X125279432Y-80134253D01*
X125296645Y-80190996D01*
X125301000Y-80235214D01*
X125301000Y-80764786D01*
X125296645Y-80809004D01*
X125296644Y-80809006D01*
X125279433Y-80865745D01*
X125251483Y-80918036D01*
X125213869Y-80963869D01*
X125168036Y-81001483D01*
X125168032Y-81001485D01*
X125168031Y-81001486D01*
X125115747Y-81029432D01*
X125115745Y-81029433D01*
X125087376Y-81038038D01*
X125059004Y-81046645D01*
X125000000Y-81052456D01*
X124940997Y-81046645D01*
X124912625Y-81038038D01*
X124884256Y-81029433D01*
X124884254Y-81029432D01*
X124831970Y-81001486D01*
X124831969Y-81001485D01*
X124831965Y-81001483D01*
X124786132Y-80963869D01*
X124748518Y-80918036D01*
X124720568Y-80865745D01*
X124703357Y-80809006D01*
X124703356Y-80809004D01*
X124699001Y-80764786D01*
X124699000Y-80235215D01*
X124703355Y-80190997D01*
X124720568Y-80134254D01*
X124748516Y-80081967D01*
X124748517Y-80081965D01*
X124786131Y-80036131D01*
X124831964Y-79998517D01*
X124831968Y-79998515D01*
X124831969Y-79998514D01*
X124884253Y-79970568D01*
X124884255Y-79970567D01*
X124912624Y-79961962D01*
X124940996Y-79953355D01*
X125000000Y-79947544D01*
X125059003Y-79953355D01*
X125059003Y-79953355D01*
G37*
G36*
X126059003Y-79953355D02*
G01*
X126087374Y-79961961D01*
X126115744Y-79970567D01*
X126168035Y-79998517D01*
X126213869Y-80036131D01*
X126251483Y-80081964D01*
X126251485Y-80081968D01*
X126251486Y-80081969D01*
X126279432Y-80134253D01*
X126296645Y-80190996D01*
X126301000Y-80235214D01*
X126301000Y-80764786D01*
X126296645Y-80809004D01*
X126296644Y-80809006D01*
X126279433Y-80865745D01*
X126251483Y-80918036D01*
X126213869Y-80963869D01*
X126168036Y-81001483D01*
X126168032Y-81001485D01*
X126168031Y-81001486D01*
X126115747Y-81029432D01*
X126115745Y-81029433D01*
X126087376Y-81038038D01*
X126059004Y-81046645D01*
X126000000Y-81052456D01*
X125940997Y-81046645D01*
X125912625Y-81038038D01*
X125884256Y-81029433D01*
X125884254Y-81029432D01*
X125831970Y-81001486D01*
X125831969Y-81001485D01*
X125831965Y-81001483D01*
X125786132Y-80963869D01*
X125748518Y-80918036D01*
X125720568Y-80865745D01*
X125703357Y-80809006D01*
X125703356Y-80809004D01*
X125699001Y-80764786D01*
X125699000Y-80235215D01*
X125703355Y-80190997D01*
X125720568Y-80134254D01*
X125748516Y-80081967D01*
X125748517Y-80081965D01*
X125786131Y-80036131D01*
X125831964Y-79998517D01*
X125831968Y-79998515D01*
X125831969Y-79998514D01*
X125884253Y-79970568D01*
X125884255Y-79970567D01*
X125912624Y-79961962D01*
X125940996Y-79953355D01*
X126000000Y-79947544D01*
X126059003Y-79953355D01*
X126059003Y-79953355D01*
G37*
G36*
X100551000Y-80551000D02*
G01*
X98449000Y-80551000D01*
X98449000Y-78449000D01*
X100551000Y-78449000D01*
X100551000Y-80551000D01*
X100551000Y-80551000D01*
G37*
G36*
X119801000Y-80426000D02*
G01*
X119199000Y-80426000D01*
X119199000Y-79074000D01*
X119801000Y-79074000D01*
X119801000Y-80426000D01*
X119801000Y-80426000D01*
G37*
G36*
X121551000Y-80426000D02*
G01*
X120949000Y-80426000D01*
X120949000Y-79074000D01*
X121551000Y-79074000D01*
X121551000Y-80426000D01*
X121551000Y-80426000D01*
G37*
G36*
X108051000Y-79201000D02*
G01*
X106949000Y-79201000D01*
X106949000Y-78299000D01*
X108051000Y-78299000D01*
X108051000Y-79201000D01*
X108051000Y-79201000D01*
G37*
G36*
X116051000Y-79201000D02*
G01*
X114449000Y-79201000D01*
X114449000Y-78099000D01*
X116051000Y-78099000D01*
X116051000Y-79201000D01*
X116051000Y-79201000D01*
G37*
G36*
X126059003Y-77703355D02*
G01*
X126087374Y-77711961D01*
X126115744Y-77720567D01*
X126168035Y-77748517D01*
X126213869Y-77786131D01*
X126251483Y-77831964D01*
X126251485Y-77831968D01*
X126251486Y-77831969D01*
X126279432Y-77884253D01*
X126296645Y-77940996D01*
X126301000Y-77985214D01*
X126301000Y-78514786D01*
X126296645Y-78559004D01*
X126296644Y-78559006D01*
X126279433Y-78615745D01*
X126251483Y-78668036D01*
X126213869Y-78713869D01*
X126168036Y-78751483D01*
X126168032Y-78751485D01*
X126168031Y-78751486D01*
X126115747Y-78779432D01*
X126115745Y-78779433D01*
X126087375Y-78788039D01*
X126059004Y-78796645D01*
X126000000Y-78802456D01*
X125940997Y-78796645D01*
X125912625Y-78788038D01*
X125884256Y-78779433D01*
X125884254Y-78779432D01*
X125831970Y-78751486D01*
X125831969Y-78751485D01*
X125831965Y-78751483D01*
X125786132Y-78713869D01*
X125748518Y-78668036D01*
X125720568Y-78615745D01*
X125703357Y-78559006D01*
X125703356Y-78559004D01*
X125699001Y-78514786D01*
X125699000Y-77985215D01*
X125703355Y-77940997D01*
X125720568Y-77884254D01*
X125748516Y-77831967D01*
X125748517Y-77831965D01*
X125786131Y-77786131D01*
X125831964Y-77748517D01*
X125831968Y-77748515D01*
X125831969Y-77748514D01*
X125884253Y-77720568D01*
X125884255Y-77720567D01*
X125912625Y-77711961D01*
X125940996Y-77703355D01*
X126000000Y-77697544D01*
X126059003Y-77703355D01*
X126059003Y-77703355D01*
G37*
G36*
X125059003Y-77703355D02*
G01*
X125087374Y-77711961D01*
X125115744Y-77720567D01*
X125168035Y-77748517D01*
X125213869Y-77786131D01*
X125251483Y-77831964D01*
X125251485Y-77831968D01*
X125251486Y-77831969D01*
X125279432Y-77884253D01*
X125296645Y-77940996D01*
X125301000Y-77985214D01*
X125301000Y-78514786D01*
X125296645Y-78559004D01*
X125296644Y-78559006D01*
X125279433Y-78615745D01*
X125251483Y-78668036D01*
X125213869Y-78713869D01*
X125168036Y-78751483D01*
X125168032Y-78751485D01*
X125168031Y-78751486D01*
X125115747Y-78779432D01*
X125115745Y-78779433D01*
X125087375Y-78788039D01*
X125059004Y-78796645D01*
X125000000Y-78802456D01*
X124940997Y-78796645D01*
X124912625Y-78788038D01*
X124884256Y-78779433D01*
X124884254Y-78779432D01*
X124831970Y-78751486D01*
X124831969Y-78751485D01*
X124831965Y-78751483D01*
X124786132Y-78713869D01*
X124748518Y-78668036D01*
X124720568Y-78615745D01*
X124703357Y-78559006D01*
X124703356Y-78559004D01*
X124699001Y-78514786D01*
X124699000Y-77985215D01*
X124703355Y-77940997D01*
X124720568Y-77884254D01*
X124748516Y-77831967D01*
X124748517Y-77831965D01*
X124786131Y-77786131D01*
X124831964Y-77748517D01*
X124831968Y-77748515D01*
X124831969Y-77748514D01*
X124884253Y-77720568D01*
X124884255Y-77720567D01*
X124912625Y-77711961D01*
X124940996Y-77703355D01*
X125000000Y-77697544D01*
X125059003Y-77703355D01*
X125059003Y-77703355D01*
G37*
G36*
X113051000Y-78301000D02*
G01*
X111449000Y-78301000D01*
X111449000Y-77199000D01*
X113051000Y-77199000D01*
X113051000Y-78301000D01*
X113051000Y-78301000D01*
G37*
G36*
X110551000Y-78201000D02*
G01*
X109449000Y-78201000D01*
X109449000Y-77299000D01*
X110551000Y-77299000D01*
X110551000Y-78201000D01*
X110551000Y-78201000D01*
G37*
G36*
X121851000Y-77401000D02*
G01*
X120949000Y-77401000D01*
X120949000Y-75599000D01*
X121851000Y-75599000D01*
X121851000Y-77401000D01*
X121851000Y-77401000D01*
G37*
G36*
X119551000Y-77401000D02*
G01*
X118649000Y-77401000D01*
X118649000Y-75599000D01*
X119551000Y-75599000D01*
X119551000Y-77401000D01*
X119551000Y-77401000D01*
G37*
G36*
X116051000Y-77401000D02*
G01*
X114449000Y-77401000D01*
X114449000Y-76299000D01*
X116051000Y-76299000D01*
X116051000Y-77401000D01*
X116051000Y-77401000D01*
G37*
G36*
X108051000Y-77201000D02*
G01*
X106949000Y-77201000D01*
X106949000Y-76299000D01*
X108051000Y-76299000D01*
X108051000Y-77201000D01*
X108051000Y-77201000D01*
G37*
G36*
X126176000Y-75801000D02*
G01*
X124824000Y-75801000D01*
X124824000Y-75199000D01*
X126176000Y-75199000D01*
X126176000Y-75801000D01*
X126176000Y-75801000D01*
G37*
G36*
X99806564Y-73489389D02*
G01*
X99997833Y-73568615D01*
X99997835Y-73568616D01*
X100069311Y-73616375D01*
X100169973Y-73683635D01*
X100316365Y-73830027D01*
X100431385Y-74002167D01*
X100510611Y-74193436D01*
X100551000Y-74396484D01*
X100551000Y-74603516D01*
X100510611Y-74806564D01*
X100431385Y-74997833D01*
X100431384Y-74997835D01*
X100316365Y-75169973D01*
X100169973Y-75316365D01*
X99997835Y-75431384D01*
X99997834Y-75431385D01*
X99997833Y-75431385D01*
X99806564Y-75510611D01*
X99603516Y-75551000D01*
X99396484Y-75551000D01*
X99193436Y-75510611D01*
X99002167Y-75431385D01*
X99002166Y-75431385D01*
X99002165Y-75431384D01*
X98830027Y-75316365D01*
X98683635Y-75169973D01*
X98568616Y-74997835D01*
X98568615Y-74997833D01*
X98489389Y-74806564D01*
X98449000Y-74603516D01*
X98449000Y-74396484D01*
X98489389Y-74193436D01*
X98568615Y-74002167D01*
X98683635Y-73830027D01*
X98830027Y-73683635D01*
X98930689Y-73616375D01*
X99002165Y-73568616D01*
X99002167Y-73568615D01*
X99193436Y-73489389D01*
X99396484Y-73449000D01*
X99603516Y-73449000D01*
X99806564Y-73489389D01*
X99806564Y-73489389D01*
G37*
G36*
X110551000Y-74701000D02*
G01*
X109449000Y-74701000D01*
X109449000Y-73799000D01*
X110551000Y-73799000D01*
X110551000Y-74701000D01*
X110551000Y-74701000D01*
G37*
G36*
X116051000Y-74701000D02*
G01*
X114449000Y-74701000D01*
X114449000Y-73599000D01*
X116051000Y-73599000D01*
X116051000Y-74701000D01*
X116051000Y-74701000D01*
G37*
G36*
X118426000Y-74301000D02*
G01*
X117074000Y-74301000D01*
X117074000Y-73699000D01*
X118426000Y-73699000D01*
X118426000Y-74301000D01*
X118426000Y-74301000D01*
G37*
G36*
X126176000Y-74051000D02*
G01*
X124824000Y-74051000D01*
X124824000Y-73449000D01*
X126176000Y-73449000D01*
X126176000Y-74051000D01*
X126176000Y-74051000D01*
G37*
G36*
X113051000Y-73801000D02*
G01*
X111449000Y-73801000D01*
X111449000Y-72699000D01*
X113051000Y-72699000D01*
X113051000Y-73801000D01*
X113051000Y-73801000D01*
G37*
G36*
X108051000Y-73701000D02*
G01*
X106949000Y-73701000D01*
X106949000Y-72799000D01*
X108051000Y-72799000D01*
X108051000Y-73701000D01*
X108051000Y-73701000D01*
G37*
G36*
X121401000Y-73651000D02*
G01*
X119599000Y-73651000D01*
X119599000Y-71849000D01*
X121401000Y-71849000D01*
X121401000Y-73651000D01*
X121401000Y-73651000D01*
G37*
G36*
X123153512Y-71853927D02*
G01*
X123302812Y-71883624D01*
X123466784Y-71951544D01*
X123614354Y-72050147D01*
X123739853Y-72175646D01*
X123838456Y-72323216D01*
X123906376Y-72487188D01*
X123941000Y-72661259D01*
X123941000Y-72838741D01*
X123906376Y-73012812D01*
X123838456Y-73176784D01*
X123739853Y-73324354D01*
X123614354Y-73449853D01*
X123466784Y-73548456D01*
X123302812Y-73616376D01*
X123153512Y-73646073D01*
X123128742Y-73651000D01*
X122951258Y-73651000D01*
X122926488Y-73646073D01*
X122777188Y-73616376D01*
X122613216Y-73548456D01*
X122465646Y-73449853D01*
X122340147Y-73324354D01*
X122241544Y-73176784D01*
X122173624Y-73012812D01*
X122139000Y-72838741D01*
X122139000Y-72661259D01*
X122173624Y-72487188D01*
X122241544Y-72323216D01*
X122340147Y-72175646D01*
X122465646Y-72050147D01*
X122613216Y-71951544D01*
X122777188Y-71883624D01*
X122926488Y-71853927D01*
X122951258Y-71849000D01*
X123128742Y-71849000D01*
X123153512Y-71853927D01*
X123153512Y-71853927D01*
G37*
G36*
X116051000Y-72901000D02*
G01*
X114449000Y-72901000D01*
X114449000Y-71799000D01*
X116051000Y-71799000D01*
X116051000Y-72901000D01*
X116051000Y-72901000D01*
G37*
G36*
X110551000Y-72701000D02*
G01*
X109449000Y-72701000D01*
X109449000Y-71799000D01*
X110551000Y-71799000D01*
X110551000Y-72701000D01*
X110551000Y-72701000D01*
G37*
G36*
X118426000Y-72551000D02*
G01*
X117074000Y-72551000D01*
X117074000Y-71949000D01*
X118426000Y-71949000D01*
X118426000Y-72551000D01*
X118426000Y-72551000D01*
G37*
M02*
