G04 #@! TF.GenerationSoftware,KiCad,Pcbnew,(5.1.4)-1*
G04 #@! TF.CreationDate,2020-06-21T20:29:22+03:00*
G04 #@! TF.ProjectId,naa_g,6e61615f-672e-46b6-9963-61645f706362,rev?*
G04 #@! TF.SameCoordinates,Original*
G04 #@! TF.FileFunction,Legend,Top*
G04 #@! TF.FilePolarity,Positive*
%FSLAX46Y46*%
G04 Gerber Fmt 4.6, Leading zero omitted, Abs format (unit mm)*
G04 Created by KiCad (PCBNEW (5.1.4)-1) date 2020-06-21 20:29:22*
%MOMM*%
%LPD*%
G04 APERTURE LIST*
%ADD10C,0.150000*%
%ADD11C,0.120000*%
G04 APERTURE END LIST*
D10*
X104542857Y-79200000D02*
X104485714Y-79171428D01*
X104400000Y-79171428D01*
X104314285Y-79200000D01*
X104257142Y-79257142D01*
X104228571Y-79314285D01*
X104200000Y-79428571D01*
X104200000Y-79514285D01*
X104228571Y-79628571D01*
X104257142Y-79685714D01*
X104314285Y-79742857D01*
X104400000Y-79771428D01*
X104457142Y-79771428D01*
X104542857Y-79742857D01*
X104571428Y-79714285D01*
X104571428Y-79514285D01*
X104457142Y-79514285D01*
X104828571Y-79771428D02*
X104828571Y-79171428D01*
X105171428Y-79771428D01*
X105171428Y-79171428D01*
X105457142Y-79771428D02*
X105457142Y-79171428D01*
X105600000Y-79171428D01*
X105685714Y-79200000D01*
X105742857Y-79257142D01*
X105771428Y-79314285D01*
X105800000Y-79428571D01*
X105800000Y-79514285D01*
X105771428Y-79628571D01*
X105742857Y-79685714D01*
X105685714Y-79742857D01*
X105600000Y-79771428D01*
X105457142Y-79771428D01*
X104200000Y-74171428D02*
X104400000Y-74771428D01*
X104600000Y-74171428D01*
X105142857Y-74714285D02*
X105114285Y-74742857D01*
X105028571Y-74771428D01*
X104971428Y-74771428D01*
X104885714Y-74742857D01*
X104828571Y-74685714D01*
X104800000Y-74628571D01*
X104771428Y-74514285D01*
X104771428Y-74428571D01*
X104800000Y-74314285D01*
X104828571Y-74257142D01*
X104885714Y-74200000D01*
X104971428Y-74171428D01*
X105028571Y-74171428D01*
X105114285Y-74200000D01*
X105142857Y-74228571D01*
X105742857Y-74714285D02*
X105714285Y-74742857D01*
X105628571Y-74771428D01*
X105571428Y-74771428D01*
X105485714Y-74742857D01*
X105428571Y-74685714D01*
X105400000Y-74628571D01*
X105371428Y-74514285D01*
X105371428Y-74428571D01*
X105400000Y-74314285D01*
X105428571Y-74257142D01*
X105485714Y-74200000D01*
X105571428Y-74171428D01*
X105628571Y-74171428D01*
X105714285Y-74200000D01*
X105742857Y-74228571D01*
X127771428Y-84335714D02*
X127171428Y-84335714D01*
X127771428Y-83992857D01*
X127171428Y-83992857D01*
X127600000Y-83735714D02*
X127600000Y-83450000D01*
X127771428Y-83792857D02*
X127171428Y-83592857D01*
X127771428Y-83392857D01*
X127600000Y-83221428D02*
X127600000Y-82935714D01*
X127771428Y-83278571D02*
X127171428Y-83078571D01*
X127771428Y-82878571D01*
X127714285Y-82678571D02*
X127742857Y-82650000D01*
X127771428Y-82678571D01*
X127742857Y-82707142D01*
X127714285Y-82678571D01*
X127771428Y-82678571D01*
X127200000Y-82078571D02*
X127171428Y-82135714D01*
X127171428Y-82221428D01*
X127200000Y-82307142D01*
X127257142Y-82364285D01*
X127314285Y-82392857D01*
X127428571Y-82421428D01*
X127514285Y-82421428D01*
X127628571Y-82392857D01*
X127685714Y-82364285D01*
X127742857Y-82307142D01*
X127771428Y-82221428D01*
X127771428Y-82164285D01*
X127742857Y-82078571D01*
X127714285Y-82050000D01*
X127514285Y-82050000D01*
X127514285Y-82164285D01*
X127714285Y-81792857D02*
X127742857Y-81764285D01*
X127771428Y-81792857D01*
X127742857Y-81821428D01*
X127714285Y-81792857D01*
X127771428Y-81792857D01*
X127171428Y-81392857D02*
X127171428Y-81335714D01*
X127200000Y-81278571D01*
X127228571Y-81250000D01*
X127285714Y-81221428D01*
X127400000Y-81192857D01*
X127542857Y-81192857D01*
X127657142Y-81221428D01*
X127714285Y-81250000D01*
X127742857Y-81278571D01*
X127771428Y-81335714D01*
X127771428Y-81392857D01*
X127742857Y-81450000D01*
X127714285Y-81478571D01*
X127657142Y-81507142D01*
X127542857Y-81535714D01*
X127400000Y-81535714D01*
X127285714Y-81507142D01*
X127228571Y-81478571D01*
X127200000Y-81450000D01*
X127171428Y-81392857D01*
X127600000Y-80964285D02*
X127600000Y-80678571D01*
X127771428Y-81021428D02*
X127171428Y-80821428D01*
X127771428Y-80621428D01*
X127714285Y-80421428D02*
X127742857Y-80392857D01*
X127771428Y-80421428D01*
X127742857Y-80450000D01*
X127714285Y-80421428D01*
X127771428Y-80421428D01*
X127771428Y-80135714D02*
X127171428Y-80135714D01*
X127600000Y-79935714D01*
X127171428Y-79735714D01*
X127771428Y-79735714D01*
X127171428Y-79192857D02*
X127171428Y-79307142D01*
X127200000Y-79364285D01*
X127228571Y-79392857D01*
X127314285Y-79450000D01*
X127428571Y-79478571D01*
X127657142Y-79478571D01*
X127714285Y-79450000D01*
X127742857Y-79421428D01*
X127771428Y-79364285D01*
X127771428Y-79250000D01*
X127742857Y-79192857D01*
X127714285Y-79164285D01*
X127657142Y-79135714D01*
X127514285Y-79135714D01*
X127457142Y-79164285D01*
X127428571Y-79192857D01*
X127400000Y-79250000D01*
X127400000Y-79364285D01*
X127428571Y-79421428D01*
X127457142Y-79450000D01*
X127514285Y-79478571D01*
X125250000Y-85000000D02*
X125250000Y-95000000D01*
X128000000Y-85000000D02*
X125250000Y-85000000D01*
X128000000Y-95000000D02*
X128000000Y-85000000D01*
X125250000Y-95000000D02*
X128000000Y-95000000D01*
X126096428Y-94300000D02*
X126496428Y-94300000D01*
X125867857Y-94442857D02*
X126296428Y-94585714D01*
X126296428Y-94214285D01*
X125896428Y-93871428D02*
X125896428Y-93814285D01*
X125925000Y-93757142D01*
X125953571Y-93728571D01*
X126010714Y-93700000D01*
X126125000Y-93671428D01*
X126267857Y-93671428D01*
X126382142Y-93700000D01*
X126439285Y-93728571D01*
X126467857Y-93757142D01*
X126496428Y-93814285D01*
X126496428Y-93871428D01*
X126467857Y-93928571D01*
X126439285Y-93957142D01*
X126382142Y-93985714D01*
X126267857Y-94014285D01*
X126125000Y-94014285D01*
X126010714Y-93985714D01*
X125953571Y-93957142D01*
X125925000Y-93928571D01*
X125896428Y-93871428D01*
X126467857Y-93385714D02*
X126496428Y-93385714D01*
X126553571Y-93414285D01*
X126582142Y-93442857D01*
X125896428Y-92871428D02*
X125896428Y-92985714D01*
X125925000Y-93042857D01*
X125953571Y-93071428D01*
X126039285Y-93128571D01*
X126153571Y-93157142D01*
X126382142Y-93157142D01*
X126439285Y-93128571D01*
X126467857Y-93100000D01*
X126496428Y-93042857D01*
X126496428Y-92928571D01*
X126467857Y-92871428D01*
X126439285Y-92842857D01*
X126382142Y-92814285D01*
X126239285Y-92814285D01*
X126182142Y-92842857D01*
X126153571Y-92871428D01*
X126125000Y-92928571D01*
X126125000Y-93042857D01*
X126153571Y-93100000D01*
X126182142Y-93128571D01*
X126239285Y-93157142D01*
X125896428Y-92300000D02*
X125896428Y-92414285D01*
X125925000Y-92471428D01*
X125953571Y-92500000D01*
X126039285Y-92557142D01*
X126153571Y-92585714D01*
X126382142Y-92585714D01*
X126439285Y-92557142D01*
X126467857Y-92528571D01*
X126496428Y-92471428D01*
X126496428Y-92357142D01*
X126467857Y-92300000D01*
X126439285Y-92271428D01*
X126382142Y-92242857D01*
X126239285Y-92242857D01*
X126182142Y-92271428D01*
X126153571Y-92300000D01*
X126125000Y-92357142D01*
X126125000Y-92471428D01*
X126153571Y-92528571D01*
X126182142Y-92557142D01*
X126239285Y-92585714D01*
X125896428Y-91871428D02*
X125896428Y-91814285D01*
X125925000Y-91757142D01*
X125953571Y-91728571D01*
X126010714Y-91700000D01*
X126125000Y-91671428D01*
X126267857Y-91671428D01*
X126382142Y-91700000D01*
X126439285Y-91728571D01*
X126467857Y-91757142D01*
X126496428Y-91814285D01*
X126496428Y-91871428D01*
X126467857Y-91928571D01*
X126439285Y-91957142D01*
X126382142Y-91985714D01*
X126267857Y-92014285D01*
X126125000Y-92014285D01*
X126010714Y-91985714D01*
X125953571Y-91957142D01*
X125925000Y-91928571D01*
X125896428Y-91871428D01*
X126439285Y-90957142D02*
X126467857Y-90928571D01*
X126496428Y-90957142D01*
X126467857Y-90985714D01*
X126439285Y-90957142D01*
X126496428Y-90957142D01*
X126439285Y-90671428D02*
X126467857Y-90642857D01*
X126496428Y-90671428D01*
X126467857Y-90700000D01*
X126439285Y-90671428D01*
X126496428Y-90671428D01*
X126439285Y-90385714D02*
X126467857Y-90357142D01*
X126496428Y-90385714D01*
X126467857Y-90414285D01*
X126439285Y-90385714D01*
X126496428Y-90385714D01*
X126096428Y-89385714D02*
X126496428Y-89385714D01*
X125867857Y-89528571D02*
X126296428Y-89671428D01*
X126296428Y-89300000D01*
X125896428Y-88957142D02*
X125896428Y-88900000D01*
X125925000Y-88842857D01*
X125953571Y-88814285D01*
X126010714Y-88785714D01*
X126125000Y-88757142D01*
X126267857Y-88757142D01*
X126382142Y-88785714D01*
X126439285Y-88814285D01*
X126467857Y-88842857D01*
X126496428Y-88900000D01*
X126496428Y-88957142D01*
X126467857Y-89014285D01*
X126439285Y-89042857D01*
X126382142Y-89071428D01*
X126267857Y-89100000D01*
X126125000Y-89100000D01*
X126010714Y-89071428D01*
X125953571Y-89042857D01*
X125925000Y-89014285D01*
X125896428Y-88957142D01*
X126467857Y-88471428D02*
X126496428Y-88471428D01*
X126553571Y-88500000D01*
X126582142Y-88528571D01*
X125896428Y-88271428D02*
X125896428Y-87871428D01*
X126496428Y-88128571D01*
X126496428Y-87185714D02*
X125896428Y-87185714D01*
X126325000Y-86985714D01*
X125896428Y-86785714D01*
X126496428Y-86785714D01*
X126496428Y-86500000D02*
X125896428Y-86500000D01*
X125896428Y-86185714D01*
X126096428Y-85728571D02*
X126496428Y-85728571D01*
X126096428Y-85985714D02*
X126496428Y-85985714D01*
X126496428Y-85671428D01*
X126639285Y-85671428D01*
X126439285Y-85442857D02*
X126467857Y-85414285D01*
X126496428Y-85442857D01*
X126467857Y-85471428D01*
X126439285Y-85442857D01*
X126496428Y-85442857D01*
X126125000Y-85442857D02*
X126153571Y-85414285D01*
X126182142Y-85442857D01*
X126153571Y-85471428D01*
X126125000Y-85442857D01*
X126182142Y-85442857D01*
X127146428Y-91171428D02*
X127546428Y-91171428D01*
X126917857Y-91314285D02*
X127346428Y-91457142D01*
X127346428Y-91085714D01*
X126946428Y-90742857D02*
X126946428Y-90685714D01*
X126975000Y-90628571D01*
X127003571Y-90600000D01*
X127060714Y-90571428D01*
X127175000Y-90542857D01*
X127317857Y-90542857D01*
X127432142Y-90571428D01*
X127489285Y-90600000D01*
X127517857Y-90628571D01*
X127546428Y-90685714D01*
X127546428Y-90742857D01*
X127517857Y-90800000D01*
X127489285Y-90828571D01*
X127432142Y-90857142D01*
X127317857Y-90885714D01*
X127175000Y-90885714D01*
X127060714Y-90857142D01*
X127003571Y-90828571D01*
X126975000Y-90800000D01*
X126946428Y-90742857D01*
X127517857Y-90257142D02*
X127546428Y-90257142D01*
X127603571Y-90285714D01*
X127632142Y-90314285D01*
X126946428Y-89742857D02*
X126946428Y-89857142D01*
X126975000Y-89914285D01*
X127003571Y-89942857D01*
X127089285Y-90000000D01*
X127203571Y-90028571D01*
X127432142Y-90028571D01*
X127489285Y-90000000D01*
X127517857Y-89971428D01*
X127546428Y-89914285D01*
X127546428Y-89800000D01*
X127517857Y-89742857D01*
X127489285Y-89714285D01*
X127432142Y-89685714D01*
X127289285Y-89685714D01*
X127232142Y-89714285D01*
X127203571Y-89742857D01*
X127175000Y-89800000D01*
X127175000Y-89914285D01*
X127203571Y-89971428D01*
X127232142Y-90000000D01*
X127289285Y-90028571D01*
X127203571Y-89342857D02*
X127175000Y-89400000D01*
X127146428Y-89428571D01*
X127089285Y-89457142D01*
X127060714Y-89457142D01*
X127003571Y-89428571D01*
X126975000Y-89400000D01*
X126946428Y-89342857D01*
X126946428Y-89228571D01*
X126975000Y-89171428D01*
X127003571Y-89142857D01*
X127060714Y-89114285D01*
X127089285Y-89114285D01*
X127146428Y-89142857D01*
X127175000Y-89171428D01*
X127203571Y-89228571D01*
X127203571Y-89342857D01*
X127232142Y-89400000D01*
X127260714Y-89428571D01*
X127317857Y-89457142D01*
X127432142Y-89457142D01*
X127489285Y-89428571D01*
X127517857Y-89400000D01*
X127546428Y-89342857D01*
X127546428Y-89228571D01*
X127517857Y-89171428D01*
X127489285Y-89142857D01*
X127432142Y-89114285D01*
X127317857Y-89114285D01*
X127260714Y-89142857D01*
X127232142Y-89171428D01*
X127203571Y-89228571D01*
X126946428Y-88742857D02*
X126946428Y-88685714D01*
X126975000Y-88628571D01*
X127003571Y-88600000D01*
X127060714Y-88571428D01*
X127175000Y-88542857D01*
X127317857Y-88542857D01*
X127432142Y-88571428D01*
X127489285Y-88600000D01*
X127517857Y-88628571D01*
X127546428Y-88685714D01*
X127546428Y-88742857D01*
X127517857Y-88800000D01*
X127489285Y-88828571D01*
X127432142Y-88857142D01*
X127317857Y-88885714D01*
X127175000Y-88885714D01*
X127060714Y-88857142D01*
X127003571Y-88828571D01*
X126975000Y-88800000D01*
X126946428Y-88742857D01*
D11*
X126400000Y-81100000D02*
X126400000Y-80850000D01*
X126150000Y-81100000D02*
X126400000Y-81100000D01*
X126400000Y-79900000D02*
X126400000Y-80150000D01*
X126150000Y-79900000D02*
X126400000Y-79900000D01*
X124600000Y-81100000D02*
X124850000Y-81100000D01*
X124600000Y-80850000D02*
X124600000Y-81100000D01*
X124600000Y-79900000D02*
X124850000Y-79900000D01*
X124600000Y-80150000D02*
X124600000Y-79900000D01*
D10*
X120250000Y-79750000D02*
X120000000Y-79750000D01*
X120500000Y-79750000D02*
X120750000Y-79750000D01*
X120250000Y-79250000D02*
X120250000Y-80250000D01*
X120500000Y-80250000D02*
X120500000Y-79250000D01*
X118950000Y-78850000D02*
X119450000Y-78850000D01*
X118950000Y-80650000D02*
X119450000Y-80650000D01*
X121850000Y-78850000D02*
X121350000Y-78850000D01*
X121850000Y-80650000D02*
X121350000Y-80650000D01*
X121850000Y-80650000D02*
X121850000Y-78850000D01*
X118950000Y-80650000D02*
X118950000Y-78850000D01*
X95500000Y-75000000D02*
X96000000Y-74500000D01*
X95500000Y-74000000D02*
X95500000Y-75000000D01*
X96000000Y-74500000D02*
X95500000Y-74000000D01*
X96000000Y-71500000D02*
X97000000Y-71500000D01*
X96000000Y-71500000D02*
X96000000Y-72500000D01*
X96000000Y-82500000D02*
X96000000Y-81500000D01*
X104000000Y-71500000D02*
X103000000Y-71500000D01*
X104000000Y-71500000D02*
X104000000Y-72500000D01*
X104000000Y-82500000D02*
X104000000Y-81500000D01*
X104000000Y-82500000D02*
X103000000Y-82500000D01*
X96000000Y-82500000D02*
X97000000Y-82500000D01*
X106500000Y-81640000D02*
X106500000Y-80890000D01*
X109000000Y-80890000D02*
X109000000Y-81640000D01*
X109000000Y-86040000D02*
X109000000Y-85290000D01*
X106500000Y-80890000D02*
X107250000Y-80890000D01*
X108250000Y-80890000D02*
X109000000Y-80890000D01*
X108250000Y-86040000D02*
X109000000Y-86040000D01*
X106500000Y-86040000D02*
X107250000Y-86040000D01*
X106500000Y-86040000D02*
X106500000Y-85290000D01*
X119890000Y-74000000D02*
X119140000Y-74000000D01*
X119140000Y-71500000D02*
X119890000Y-71500000D01*
X124290000Y-71500000D02*
X123540000Y-71500000D01*
X119140000Y-74000000D02*
X119140000Y-73250000D01*
X119140000Y-72250000D02*
X119140000Y-71500000D01*
X124290000Y-72250000D02*
X124290000Y-71500000D01*
X124290000Y-74000000D02*
X124290000Y-73250000D01*
X124290000Y-74000000D02*
X123540000Y-74000000D01*
X106600000Y-87400000D02*
X106600000Y-87650000D01*
X106850000Y-87400000D02*
X106600000Y-87400000D01*
X106600000Y-88600000D02*
X106600000Y-88350000D01*
X106850000Y-88600000D02*
X106600000Y-88600000D01*
X108400000Y-87400000D02*
X108150000Y-87400000D01*
X108400000Y-87650000D02*
X108400000Y-87400000D01*
X108400000Y-88600000D02*
X108150000Y-88600000D01*
X108400000Y-88350000D02*
X108400000Y-88600000D01*
X126400000Y-78850000D02*
X126400000Y-78600000D01*
X126150000Y-78850000D02*
X126400000Y-78850000D01*
X126400000Y-77650000D02*
X126400000Y-77900000D01*
X126150000Y-77650000D02*
X126400000Y-77650000D01*
X124600000Y-78850000D02*
X124850000Y-78850000D01*
X124600000Y-78600000D02*
X124600000Y-78850000D01*
X124600000Y-77650000D02*
X124850000Y-77650000D01*
X124600000Y-77900000D02*
X124600000Y-77650000D01*
X109920000Y-92240000D02*
X109920000Y-93700000D01*
X113080000Y-92240000D02*
X113080000Y-93700000D01*
X109920000Y-92240000D02*
X110850000Y-92240000D01*
X113080000Y-92240000D02*
X112150000Y-92240000D01*
X107990000Y-74830000D02*
X109450000Y-74830000D01*
X107990000Y-71670000D02*
X109450000Y-71670000D01*
X107990000Y-74830000D02*
X107990000Y-73900000D01*
X107990000Y-71670000D02*
X107990000Y-72600000D01*
X109510000Y-76170000D02*
X108050000Y-76170000D01*
X109510000Y-79330000D02*
X108050000Y-79330000D01*
X109510000Y-76170000D02*
X109510000Y-77100000D01*
X109510000Y-79330000D02*
X109510000Y-78400000D01*
X124150000Y-88250000D02*
X123400000Y-88250000D01*
X124150000Y-88250000D02*
X124150000Y-89000000D01*
X120650000Y-88250000D02*
X121400000Y-88250000D01*
X120650000Y-88250000D02*
X120650000Y-89000000D01*
X124150000Y-93250000D02*
X123400000Y-93250000D01*
X124150000Y-93250000D02*
X124150000Y-92500000D01*
X120650000Y-92500000D02*
X120650000Y-93250000D01*
X120650000Y-93250000D02*
X121400000Y-93250000D01*
X119500000Y-96150000D02*
X119500000Y-95400000D01*
X119500000Y-96150000D02*
X118750000Y-96150000D01*
X119500000Y-92650000D02*
X119500000Y-93400000D01*
X119500000Y-92650000D02*
X118750000Y-92650000D01*
X114500000Y-96150000D02*
X114500000Y-95400000D01*
X114500000Y-96150000D02*
X115250000Y-96150000D01*
X115250000Y-92650000D02*
X114500000Y-92650000D01*
X114500000Y-92650000D02*
X114500000Y-93400000D01*
X112850000Y-80750000D02*
X112100000Y-80750000D01*
X112850000Y-80750000D02*
X112850000Y-81500000D01*
X109350000Y-80750000D02*
X110100000Y-80750000D01*
X109350000Y-80750000D02*
X109350000Y-81500000D01*
X112850000Y-85750000D02*
X112100000Y-85750000D01*
X112850000Y-85750000D02*
X112850000Y-85000000D01*
X109350000Y-85000000D02*
X109350000Y-85750000D01*
X109350000Y-85750000D02*
X110100000Y-85750000D01*
X116500000Y-75000000D02*
X116500000Y-74250000D01*
X116500000Y-75000000D02*
X115750000Y-75000000D01*
X116500000Y-71500000D02*
X116500000Y-72250000D01*
X116500000Y-71500000D02*
X115750000Y-71500000D01*
X111500000Y-75000000D02*
X111500000Y-74250000D01*
X111500000Y-75000000D02*
X112250000Y-75000000D01*
X112250000Y-71500000D02*
X111500000Y-71500000D01*
X111500000Y-71500000D02*
X111500000Y-72250000D01*
X116500000Y-79500000D02*
X116500000Y-78750000D01*
X116500000Y-79500000D02*
X115750000Y-79500000D01*
X116500000Y-76000000D02*
X116500000Y-76750000D01*
X116500000Y-76000000D02*
X115750000Y-76000000D01*
X111500000Y-79500000D02*
X111500000Y-78750000D01*
X111500000Y-79500000D02*
X112250000Y-79500000D01*
X112250000Y-76000000D02*
X111500000Y-76000000D01*
X111500000Y-76000000D02*
X111500000Y-76750000D01*
X124600000Y-76050000D02*
X124600000Y-75550000D01*
X126400000Y-76050000D02*
X126400000Y-75550000D01*
X126400000Y-76050000D02*
X124600000Y-76050000D01*
X124600000Y-73250000D02*
X124600000Y-73750000D01*
X126400000Y-73250000D02*
X124600000Y-73250000D01*
X126400000Y-73250000D02*
X126400000Y-73750000D01*
X109350000Y-87150000D02*
X110350000Y-87150000D01*
X113150000Y-87150000D02*
X112150000Y-87150000D01*
X113150000Y-89350000D02*
X112150000Y-89350000D01*
X109350000Y-89350000D02*
X110350000Y-89350000D01*
X113150000Y-87150000D02*
X113150000Y-89350000D01*
X109350000Y-89350000D02*
X109350000Y-87150000D01*
X111150000Y-88850000D02*
G75*
G03X111350000Y-88650000I0J200000D01*
G01*
X111350000Y-88650000D02*
G75*
G03X111150000Y-88450000I-200000J0D01*
G01*
X111150000Y-88450000D02*
G75*
G03X111350000Y-88250000I0J200000D01*
G01*
X111350000Y-88250000D02*
G75*
G03X111150000Y-88050000I-200000J0D01*
G01*
X111350000Y-87850000D02*
G75*
G03X111150000Y-87650000I-200000J0D01*
G01*
X111150000Y-88050000D02*
G75*
G03X111350000Y-87850000I0J200000D01*
G01*
X124400000Y-83850000D02*
X123400000Y-83850000D01*
X120600000Y-83850000D02*
X121600000Y-83850000D01*
X120600000Y-81650000D02*
X121600000Y-81650000D01*
X124400000Y-81650000D02*
X123400000Y-81650000D01*
X120600000Y-83850000D02*
X120600000Y-81650000D01*
X124400000Y-81650000D02*
X124400000Y-83850000D01*
X122600000Y-82150000D02*
G75*
G03X122400000Y-82350000I0J-200000D01*
G01*
X122400000Y-82350000D02*
G75*
G03X122600000Y-82550000I200000J0D01*
G01*
X122600000Y-82550000D02*
G75*
G03X122400000Y-82750000I0J-200000D01*
G01*
X122400000Y-82750000D02*
G75*
G03X122600000Y-82950000I200000J0D01*
G01*
X122400000Y-83150000D02*
G75*
G03X122600000Y-83350000I200000J0D01*
G01*
X122600000Y-82950000D02*
G75*
G03X122400000Y-83150000I0J-200000D01*
G01*
X122000000Y-77150000D02*
X122250000Y-77400000D01*
X119450000Y-75250000D02*
X121050000Y-75250000D01*
X121050000Y-75250000D02*
X121050000Y-75500000D01*
X119450000Y-75500000D02*
X119450000Y-75250000D01*
X119450000Y-77750000D02*
X119450000Y-77500000D01*
X121050000Y-77750000D02*
X119450000Y-77750000D01*
X121050000Y-77500000D02*
X121050000Y-77750000D01*
X122250000Y-76900000D02*
X122250000Y-77400000D01*
X122000000Y-77150000D02*
X122250000Y-76900000D01*
X122000000Y-77150000D02*
X122250000Y-77150000D01*
X106000000Y-92750000D02*
X106000000Y-93000000D01*
X106000000Y-92500000D02*
X106000000Y-92250000D01*
X105500000Y-92750000D02*
X106500000Y-92750000D01*
X106500000Y-92500000D02*
X105500000Y-92500000D01*
X105100000Y-94050000D02*
X105100000Y-93550000D01*
X106900000Y-94050000D02*
X106900000Y-93550000D01*
X105100000Y-91150000D02*
X105100000Y-91650000D01*
X106900000Y-91150000D02*
X106900000Y-91650000D01*
X106900000Y-91150000D02*
X105100000Y-91150000D01*
X106900000Y-94050000D02*
X105100000Y-94050000D01*
X108250000Y-92500000D02*
X108250000Y-92250000D01*
X108250000Y-92750000D02*
X108250000Y-93000000D01*
X108750000Y-92500000D02*
X107750000Y-92500000D01*
X107750000Y-92750000D02*
X108750000Y-92750000D01*
X109150000Y-91200000D02*
X109150000Y-91700000D01*
X107350000Y-91200000D02*
X107350000Y-91700000D01*
X109150000Y-94100000D02*
X109150000Y-93600000D01*
X107350000Y-94100000D02*
X107350000Y-93600000D01*
X107350000Y-94100000D02*
X109150000Y-94100000D01*
X107350000Y-91200000D02*
X109150000Y-91200000D01*
X122250000Y-85750000D02*
X122000000Y-85750000D01*
X122500000Y-85750000D02*
X122750000Y-85750000D01*
X122250000Y-85250000D02*
X122250000Y-86250000D01*
X122500000Y-86250000D02*
X122500000Y-85250000D01*
X120950000Y-84850000D02*
X121450000Y-84850000D01*
X120950000Y-86650000D02*
X121450000Y-86650000D01*
X123850000Y-84850000D02*
X123350000Y-84850000D01*
X123850000Y-86650000D02*
X123350000Y-86650000D01*
X123850000Y-86650000D02*
X123850000Y-84850000D01*
X120950000Y-86650000D02*
X120950000Y-84850000D01*
X114250000Y-88250000D02*
X115000000Y-89000000D01*
X114250000Y-86250000D02*
X115000000Y-85500000D01*
X119250000Y-85500000D02*
X118250000Y-85500000D01*
X119250000Y-85500000D02*
X119250000Y-86250000D01*
X119250000Y-89000000D02*
X119250000Y-88250000D01*
X119250000Y-89000000D02*
X118250000Y-89000000D01*
X114250000Y-89000000D02*
X115000000Y-89000000D01*
X114250000Y-89000000D02*
X114250000Y-88250000D01*
X114250000Y-85500000D02*
X115000000Y-85500000D01*
X114250000Y-85500000D02*
X114250000Y-86250000D01*
X117000000Y-90750000D02*
X117250000Y-90750000D01*
X116750000Y-90750000D02*
X116500000Y-90750000D01*
X117000000Y-91250000D02*
X117000000Y-90250000D01*
X116750000Y-90250000D02*
X116750000Y-91250000D01*
X118300000Y-91650000D02*
X117800000Y-91650000D01*
X118300000Y-89850000D02*
X117800000Y-89850000D01*
X115400000Y-91650000D02*
X115900000Y-91650000D01*
X115400000Y-89850000D02*
X115900000Y-89850000D01*
X115400000Y-89850000D02*
X115400000Y-91650000D01*
X118300000Y-89850000D02*
X118300000Y-91650000D01*
X117750000Y-73250000D02*
X117750000Y-73500000D01*
X117750000Y-73000000D02*
X117750000Y-72750000D01*
X117250000Y-73250000D02*
X118250000Y-73250000D01*
X118250000Y-73000000D02*
X117250000Y-73000000D01*
X116850000Y-74550000D02*
X116850000Y-74050000D01*
X118650000Y-74550000D02*
X118650000Y-74050000D01*
X116850000Y-71650000D02*
X116850000Y-72150000D01*
X118650000Y-71650000D02*
X118650000Y-72150000D01*
X118650000Y-71650000D02*
X116850000Y-71650000D01*
X118650000Y-74550000D02*
X116850000Y-74550000D01*
X119250000Y-81750000D02*
X118500000Y-81000000D01*
X119250000Y-83750000D02*
X118500000Y-84500000D01*
X114250000Y-84500000D02*
X115250000Y-84500000D01*
X114250000Y-84500000D02*
X114250000Y-83750000D01*
X114250000Y-81000000D02*
X114250000Y-81750000D01*
X114250000Y-81000000D02*
X115250000Y-81000000D01*
X119250000Y-81000000D02*
X118500000Y-81000000D01*
X119250000Y-81000000D02*
X119250000Y-81750000D01*
X119250000Y-84500000D02*
X118500000Y-84500000D01*
X119250000Y-84500000D02*
X119250000Y-83750000D01*
X101750000Y-85000000D02*
X102000000Y-85000000D01*
X101500000Y-85000000D02*
X101250000Y-85000000D01*
X101750000Y-85500000D02*
X101750000Y-84500000D01*
X101500000Y-84500000D02*
X101500000Y-85500000D01*
X103050000Y-85900000D02*
X102550000Y-85900000D01*
X103050000Y-84100000D02*
X102550000Y-84100000D01*
X100150000Y-85900000D02*
X100650000Y-85900000D01*
X100150000Y-84100000D02*
X100650000Y-84100000D01*
X100150000Y-84100000D02*
X100150000Y-85900000D01*
X103050000Y-84100000D02*
X103050000Y-85900000D01*
X125014285Y-79171428D02*
X125414285Y-79771428D01*
X125414285Y-79171428D02*
X125014285Y-79771428D01*
X125585714Y-79171428D02*
X125957142Y-79171428D01*
X125757142Y-79400000D01*
X125842857Y-79400000D01*
X125900000Y-79428571D01*
X125928571Y-79457142D01*
X125957142Y-79514285D01*
X125957142Y-79657142D01*
X125928571Y-79714285D01*
X125900000Y-79742857D01*
X125842857Y-79771428D01*
X125671428Y-79771428D01*
X125614285Y-79742857D01*
X125585714Y-79714285D01*
X120150000Y-78714285D02*
X120121428Y-78742857D01*
X120035714Y-78771428D01*
X119978571Y-78771428D01*
X119892857Y-78742857D01*
X119835714Y-78685714D01*
X119807142Y-78628571D01*
X119778571Y-78514285D01*
X119778571Y-78428571D01*
X119807142Y-78314285D01*
X119835714Y-78257142D01*
X119892857Y-78200000D01*
X119978571Y-78171428D01*
X120035714Y-78171428D01*
X120121428Y-78200000D01*
X120150000Y-78228571D01*
X120378571Y-78228571D02*
X120407142Y-78200000D01*
X120464285Y-78171428D01*
X120607142Y-78171428D01*
X120664285Y-78200000D01*
X120692857Y-78228571D01*
X120721428Y-78285714D01*
X120721428Y-78342857D01*
X120692857Y-78428571D01*
X120350000Y-78771428D01*
X120721428Y-78771428D01*
X99285714Y-70671428D02*
X99685714Y-71271428D01*
X99685714Y-70671428D02*
X99285714Y-71271428D01*
X99828571Y-70671428D02*
X100171428Y-70671428D01*
X100000000Y-71271428D02*
X100000000Y-70671428D01*
X100685714Y-71271428D02*
X100342857Y-71271428D01*
X100514285Y-71271428D02*
X100514285Y-70671428D01*
X100457142Y-70757142D01*
X100400000Y-70814285D01*
X100342857Y-70842857D01*
X96728571Y-86421428D02*
X97128571Y-87021428D01*
X97128571Y-86421428D02*
X96728571Y-87021428D01*
X97328571Y-86992857D02*
X97414285Y-87021428D01*
X97557142Y-87021428D01*
X97614285Y-86992857D01*
X97642857Y-86964285D01*
X97671428Y-86907142D01*
X97671428Y-86850000D01*
X97642857Y-86792857D01*
X97614285Y-86764285D01*
X97557142Y-86735714D01*
X97442857Y-86707142D01*
X97385714Y-86678571D01*
X97357142Y-86650000D01*
X97328571Y-86592857D01*
X97328571Y-86535714D01*
X97357142Y-86478571D01*
X97385714Y-86450000D01*
X97442857Y-86421428D01*
X97585714Y-86421428D01*
X97671428Y-86450000D01*
X98242857Y-87021428D02*
X97900000Y-87021428D01*
X98071428Y-87021428D02*
X98071428Y-86421428D01*
X98014285Y-86507142D01*
X97957142Y-86564285D01*
X97900000Y-86592857D01*
X106964285Y-79921428D02*
X107364285Y-80521428D01*
X107364285Y-79921428D02*
X106964285Y-80521428D01*
X107592857Y-80521428D02*
X107592857Y-79921428D01*
X107821428Y-79921428D01*
X107878571Y-79950000D01*
X107907142Y-79978571D01*
X107935714Y-80035714D01*
X107935714Y-80121428D01*
X107907142Y-80178571D01*
X107878571Y-80207142D01*
X107821428Y-80235714D01*
X107592857Y-80235714D01*
X108164285Y-79978571D02*
X108192857Y-79950000D01*
X108250000Y-79921428D01*
X108392857Y-79921428D01*
X108450000Y-79950000D01*
X108478571Y-79978571D01*
X108507142Y-80035714D01*
X108507142Y-80092857D01*
X108478571Y-80178571D01*
X108135714Y-80521428D01*
X108507142Y-80521428D01*
X120964285Y-70671428D02*
X121364285Y-71271428D01*
X121364285Y-70671428D02*
X120964285Y-71271428D01*
X121592857Y-71271428D02*
X121592857Y-70671428D01*
X121821428Y-70671428D01*
X121878571Y-70700000D01*
X121907142Y-70728571D01*
X121935714Y-70785714D01*
X121935714Y-70871428D01*
X121907142Y-70928571D01*
X121878571Y-70957142D01*
X121821428Y-70985714D01*
X121592857Y-70985714D01*
X122507142Y-71271428D02*
X122164285Y-71271428D01*
X122335714Y-71271428D02*
X122335714Y-70671428D01*
X122278571Y-70757142D01*
X122221428Y-70814285D01*
X122164285Y-70842857D01*
X107014285Y-86421428D02*
X107414285Y-87021428D01*
X107414285Y-86421428D02*
X107014285Y-87021428D01*
X107614285Y-86478571D02*
X107642857Y-86450000D01*
X107700000Y-86421428D01*
X107842857Y-86421428D01*
X107900000Y-86450000D01*
X107928571Y-86478571D01*
X107957142Y-86535714D01*
X107957142Y-86592857D01*
X107928571Y-86678571D01*
X107585714Y-87021428D01*
X107957142Y-87021428D01*
X125014285Y-76921428D02*
X125414285Y-77521428D01*
X125414285Y-76921428D02*
X125014285Y-77521428D01*
X125957142Y-77521428D02*
X125614285Y-77521428D01*
X125785714Y-77521428D02*
X125785714Y-76921428D01*
X125728571Y-77007142D01*
X125671428Y-77064285D01*
X125614285Y-77092857D01*
X110785714Y-90421428D02*
X110985714Y-91021428D01*
X111185714Y-90421428D01*
X111300000Y-90421428D02*
X111642857Y-90421428D01*
X111471428Y-91021428D02*
X111471428Y-90421428D01*
X112157142Y-91021428D02*
X111814285Y-91021428D01*
X111985714Y-91021428D02*
X111985714Y-90421428D01*
X111928571Y-90507142D01*
X111871428Y-90564285D01*
X111814285Y-90592857D01*
X107964285Y-70671428D02*
X108164285Y-71271428D01*
X108364285Y-70671428D01*
X108564285Y-71271428D02*
X108564285Y-70671428D01*
X108707142Y-70671428D01*
X108792857Y-70700000D01*
X108850000Y-70757142D01*
X108878571Y-70814285D01*
X108907142Y-70928571D01*
X108907142Y-71014285D01*
X108878571Y-71128571D01*
X108850000Y-71185714D01*
X108792857Y-71242857D01*
X108707142Y-71271428D01*
X108564285Y-71271428D01*
X109135714Y-70728571D02*
X109164285Y-70700000D01*
X109221428Y-70671428D01*
X109364285Y-70671428D01*
X109421428Y-70700000D01*
X109450000Y-70728571D01*
X109478571Y-70785714D01*
X109478571Y-70842857D01*
X109450000Y-70928571D01*
X109107142Y-71271428D01*
X109478571Y-71271428D01*
X108214285Y-75171428D02*
X108414285Y-75771428D01*
X108614285Y-75171428D01*
X108814285Y-75771428D02*
X108814285Y-75171428D01*
X108957142Y-75171428D01*
X109042857Y-75200000D01*
X109100000Y-75257142D01*
X109128571Y-75314285D01*
X109157142Y-75428571D01*
X109157142Y-75514285D01*
X109128571Y-75628571D01*
X109100000Y-75685714D01*
X109042857Y-75742857D01*
X108957142Y-75771428D01*
X108814285Y-75771428D01*
X109728571Y-75771428D02*
X109385714Y-75771428D01*
X109557142Y-75771428D02*
X109557142Y-75171428D01*
X109500000Y-75257142D01*
X109442857Y-75314285D01*
X109385714Y-75342857D01*
X122000000Y-88021428D02*
X121800000Y-87735714D01*
X121657142Y-88021428D02*
X121657142Y-87421428D01*
X121885714Y-87421428D01*
X121942857Y-87450000D01*
X121971428Y-87478571D01*
X122000000Y-87535714D01*
X122000000Y-87621428D01*
X121971428Y-87678571D01*
X121942857Y-87707142D01*
X121885714Y-87735714D01*
X121657142Y-87735714D01*
X122257142Y-88021428D02*
X122257142Y-87421428D01*
X122485714Y-87421428D01*
X122542857Y-87450000D01*
X122571428Y-87478571D01*
X122600000Y-87535714D01*
X122600000Y-87621428D01*
X122571428Y-87678571D01*
X122542857Y-87707142D01*
X122485714Y-87735714D01*
X122257142Y-87735714D01*
X123142857Y-87421428D02*
X122857142Y-87421428D01*
X122828571Y-87707142D01*
X122857142Y-87678571D01*
X122914285Y-87650000D01*
X123057142Y-87650000D01*
X123114285Y-87678571D01*
X123142857Y-87707142D01*
X123171428Y-87764285D01*
X123171428Y-87907142D01*
X123142857Y-87964285D01*
X123114285Y-87992857D01*
X123057142Y-88021428D01*
X122914285Y-88021428D01*
X122857142Y-87992857D01*
X122828571Y-87964285D01*
X116350000Y-92521428D02*
X116150000Y-92235714D01*
X116007142Y-92521428D02*
X116007142Y-91921428D01*
X116235714Y-91921428D01*
X116292857Y-91950000D01*
X116321428Y-91978571D01*
X116350000Y-92035714D01*
X116350000Y-92121428D01*
X116321428Y-92178571D01*
X116292857Y-92207142D01*
X116235714Y-92235714D01*
X116007142Y-92235714D01*
X116607142Y-92521428D02*
X116607142Y-91921428D01*
X116835714Y-91921428D01*
X116892857Y-91950000D01*
X116921428Y-91978571D01*
X116950000Y-92035714D01*
X116950000Y-92121428D01*
X116921428Y-92178571D01*
X116892857Y-92207142D01*
X116835714Y-92235714D01*
X116607142Y-92235714D01*
X117464285Y-92121428D02*
X117464285Y-92521428D01*
X117321428Y-91892857D02*
X117178571Y-92321428D01*
X117550000Y-92321428D01*
X110700000Y-80521428D02*
X110500000Y-80235714D01*
X110357142Y-80521428D02*
X110357142Y-79921428D01*
X110585714Y-79921428D01*
X110642857Y-79950000D01*
X110671428Y-79978571D01*
X110700000Y-80035714D01*
X110700000Y-80121428D01*
X110671428Y-80178571D01*
X110642857Y-80207142D01*
X110585714Y-80235714D01*
X110357142Y-80235714D01*
X110957142Y-80521428D02*
X110957142Y-79921428D01*
X111185714Y-79921428D01*
X111242857Y-79950000D01*
X111271428Y-79978571D01*
X111300000Y-80035714D01*
X111300000Y-80121428D01*
X111271428Y-80178571D01*
X111242857Y-80207142D01*
X111185714Y-80235714D01*
X110957142Y-80235714D01*
X111500000Y-79921428D02*
X111871428Y-79921428D01*
X111671428Y-80150000D01*
X111757142Y-80150000D01*
X111814285Y-80178571D01*
X111842857Y-80207142D01*
X111871428Y-80264285D01*
X111871428Y-80407142D01*
X111842857Y-80464285D01*
X111814285Y-80492857D01*
X111757142Y-80521428D01*
X111585714Y-80521428D01*
X111528571Y-80492857D01*
X111500000Y-80464285D01*
X113350000Y-71271428D02*
X113150000Y-70985714D01*
X113007142Y-71271428D02*
X113007142Y-70671428D01*
X113235714Y-70671428D01*
X113292857Y-70700000D01*
X113321428Y-70728571D01*
X113350000Y-70785714D01*
X113350000Y-70871428D01*
X113321428Y-70928571D01*
X113292857Y-70957142D01*
X113235714Y-70985714D01*
X113007142Y-70985714D01*
X113607142Y-71271428D02*
X113607142Y-70671428D01*
X113835714Y-70671428D01*
X113892857Y-70700000D01*
X113921428Y-70728571D01*
X113950000Y-70785714D01*
X113950000Y-70871428D01*
X113921428Y-70928571D01*
X113892857Y-70957142D01*
X113835714Y-70985714D01*
X113607142Y-70985714D01*
X114178571Y-70728571D02*
X114207142Y-70700000D01*
X114264285Y-70671428D01*
X114407142Y-70671428D01*
X114464285Y-70700000D01*
X114492857Y-70728571D01*
X114521428Y-70785714D01*
X114521428Y-70842857D01*
X114492857Y-70928571D01*
X114150000Y-71271428D01*
X114521428Y-71271428D01*
X113350000Y-75771428D02*
X113150000Y-75485714D01*
X113007142Y-75771428D02*
X113007142Y-75171428D01*
X113235714Y-75171428D01*
X113292857Y-75200000D01*
X113321428Y-75228571D01*
X113350000Y-75285714D01*
X113350000Y-75371428D01*
X113321428Y-75428571D01*
X113292857Y-75457142D01*
X113235714Y-75485714D01*
X113007142Y-75485714D01*
X113607142Y-75771428D02*
X113607142Y-75171428D01*
X113835714Y-75171428D01*
X113892857Y-75200000D01*
X113921428Y-75228571D01*
X113950000Y-75285714D01*
X113950000Y-75371428D01*
X113921428Y-75428571D01*
X113892857Y-75457142D01*
X113835714Y-75485714D01*
X113607142Y-75485714D01*
X114521428Y-75771428D02*
X114178571Y-75771428D01*
X114350000Y-75771428D02*
X114350000Y-75171428D01*
X114292857Y-75257142D01*
X114235714Y-75314285D01*
X114178571Y-75342857D01*
X125400000Y-73021428D02*
X125200000Y-72735714D01*
X125057142Y-73021428D02*
X125057142Y-72421428D01*
X125285714Y-72421428D01*
X125342857Y-72450000D01*
X125371428Y-72478571D01*
X125400000Y-72535714D01*
X125400000Y-72621428D01*
X125371428Y-72678571D01*
X125342857Y-72707142D01*
X125285714Y-72735714D01*
X125057142Y-72735714D01*
X125971428Y-73021428D02*
X125628571Y-73021428D01*
X125800000Y-73021428D02*
X125800000Y-72421428D01*
X125742857Y-72507142D01*
X125685714Y-72564285D01*
X125628571Y-72592857D01*
X111150000Y-87021428D02*
X110864285Y-87021428D01*
X110864285Y-86421428D01*
X111321428Y-86478571D02*
X111350000Y-86450000D01*
X111407142Y-86421428D01*
X111550000Y-86421428D01*
X111607142Y-86450000D01*
X111635714Y-86478571D01*
X111664285Y-86535714D01*
X111664285Y-86592857D01*
X111635714Y-86678571D01*
X111292857Y-87021428D01*
X111664285Y-87021428D01*
X122400000Y-81521428D02*
X122114285Y-81521428D01*
X122114285Y-80921428D01*
X122914285Y-81521428D02*
X122571428Y-81521428D01*
X122742857Y-81521428D02*
X122742857Y-80921428D01*
X122685714Y-81007142D01*
X122628571Y-81064285D01*
X122571428Y-81092857D01*
X119507142Y-75021428D02*
X119507142Y-74421428D01*
X119650000Y-74421428D01*
X119735714Y-74450000D01*
X119792857Y-74507142D01*
X119821428Y-74564285D01*
X119850000Y-74678571D01*
X119850000Y-74764285D01*
X119821428Y-74878571D01*
X119792857Y-74935714D01*
X119735714Y-74992857D01*
X119650000Y-75021428D01*
X119507142Y-75021428D01*
X120107142Y-75021428D02*
X120107142Y-74421428D01*
X120250000Y-74421428D01*
X120335714Y-74450000D01*
X120392857Y-74507142D01*
X120421428Y-74564285D01*
X120450000Y-74678571D01*
X120450000Y-74764285D01*
X120421428Y-74878571D01*
X120392857Y-74935714D01*
X120335714Y-74992857D01*
X120250000Y-75021428D01*
X120107142Y-75021428D01*
X121021428Y-75021428D02*
X120678571Y-75021428D01*
X120850000Y-75021428D02*
X120850000Y-74421428D01*
X120792857Y-74507142D01*
X120735714Y-74564285D01*
X120678571Y-74592857D01*
X105900000Y-90714285D02*
X105871428Y-90742857D01*
X105785714Y-90771428D01*
X105728571Y-90771428D01*
X105642857Y-90742857D01*
X105585714Y-90685714D01*
X105557142Y-90628571D01*
X105528571Y-90514285D01*
X105528571Y-90428571D01*
X105557142Y-90314285D01*
X105585714Y-90257142D01*
X105642857Y-90200000D01*
X105728571Y-90171428D01*
X105785714Y-90171428D01*
X105871428Y-90200000D01*
X105900000Y-90228571D01*
X106185714Y-90771428D02*
X106300000Y-90771428D01*
X106357142Y-90742857D01*
X106385714Y-90714285D01*
X106442857Y-90628571D01*
X106471428Y-90514285D01*
X106471428Y-90285714D01*
X106442857Y-90228571D01*
X106414285Y-90200000D01*
X106357142Y-90171428D01*
X106242857Y-90171428D01*
X106185714Y-90200000D01*
X106157142Y-90228571D01*
X106128571Y-90285714D01*
X106128571Y-90428571D01*
X106157142Y-90485714D01*
X106185714Y-90514285D01*
X106242857Y-90542857D01*
X106357142Y-90542857D01*
X106414285Y-90514285D01*
X106442857Y-90485714D01*
X106471428Y-90428571D01*
X108150000Y-90714285D02*
X108121428Y-90742857D01*
X108035714Y-90771428D01*
X107978571Y-90771428D01*
X107892857Y-90742857D01*
X107835714Y-90685714D01*
X107807142Y-90628571D01*
X107778571Y-90514285D01*
X107778571Y-90428571D01*
X107807142Y-90314285D01*
X107835714Y-90257142D01*
X107892857Y-90200000D01*
X107978571Y-90171428D01*
X108035714Y-90171428D01*
X108121428Y-90200000D01*
X108150000Y-90228571D01*
X108492857Y-90428571D02*
X108435714Y-90400000D01*
X108407142Y-90371428D01*
X108378571Y-90314285D01*
X108378571Y-90285714D01*
X108407142Y-90228571D01*
X108435714Y-90200000D01*
X108492857Y-90171428D01*
X108607142Y-90171428D01*
X108664285Y-90200000D01*
X108692857Y-90228571D01*
X108721428Y-90285714D01*
X108721428Y-90314285D01*
X108692857Y-90371428D01*
X108664285Y-90400000D01*
X108607142Y-90428571D01*
X108492857Y-90428571D01*
X108435714Y-90457142D01*
X108407142Y-90485714D01*
X108378571Y-90542857D01*
X108378571Y-90657142D01*
X108407142Y-90714285D01*
X108435714Y-90742857D01*
X108492857Y-90771428D01*
X108607142Y-90771428D01*
X108664285Y-90742857D01*
X108692857Y-90714285D01*
X108721428Y-90657142D01*
X108721428Y-90542857D01*
X108692857Y-90485714D01*
X108664285Y-90457142D01*
X108607142Y-90428571D01*
X122150000Y-84714285D02*
X122121428Y-84742857D01*
X122035714Y-84771428D01*
X121978571Y-84771428D01*
X121892857Y-84742857D01*
X121835714Y-84685714D01*
X121807142Y-84628571D01*
X121778571Y-84514285D01*
X121778571Y-84428571D01*
X121807142Y-84314285D01*
X121835714Y-84257142D01*
X121892857Y-84200000D01*
X121978571Y-84171428D01*
X122035714Y-84171428D01*
X122121428Y-84200000D01*
X122150000Y-84228571D01*
X122350000Y-84171428D02*
X122750000Y-84171428D01*
X122492857Y-84771428D01*
X116650000Y-85464285D02*
X116621428Y-85492857D01*
X116535714Y-85521428D01*
X116478571Y-85521428D01*
X116392857Y-85492857D01*
X116335714Y-85435714D01*
X116307142Y-85378571D01*
X116278571Y-85264285D01*
X116278571Y-85178571D01*
X116307142Y-85064285D01*
X116335714Y-85007142D01*
X116392857Y-84950000D01*
X116478571Y-84921428D01*
X116535714Y-84921428D01*
X116621428Y-84950000D01*
X116650000Y-84978571D01*
X117164285Y-84921428D02*
X117050000Y-84921428D01*
X116992857Y-84950000D01*
X116964285Y-84978571D01*
X116907142Y-85064285D01*
X116878571Y-85178571D01*
X116878571Y-85407142D01*
X116907142Y-85464285D01*
X116935714Y-85492857D01*
X116992857Y-85521428D01*
X117107142Y-85521428D01*
X117164285Y-85492857D01*
X117192857Y-85464285D01*
X117221428Y-85407142D01*
X117221428Y-85264285D01*
X117192857Y-85207142D01*
X117164285Y-85178571D01*
X117107142Y-85150000D01*
X116992857Y-85150000D01*
X116935714Y-85178571D01*
X116907142Y-85207142D01*
X116878571Y-85264285D01*
X116650000Y-89714285D02*
X116621428Y-89742857D01*
X116535714Y-89771428D01*
X116478571Y-89771428D01*
X116392857Y-89742857D01*
X116335714Y-89685714D01*
X116307142Y-89628571D01*
X116278571Y-89514285D01*
X116278571Y-89428571D01*
X116307142Y-89314285D01*
X116335714Y-89257142D01*
X116392857Y-89200000D01*
X116478571Y-89171428D01*
X116535714Y-89171428D01*
X116621428Y-89200000D01*
X116650000Y-89228571D01*
X117192857Y-89171428D02*
X116907142Y-89171428D01*
X116878571Y-89457142D01*
X116907142Y-89428571D01*
X116964285Y-89400000D01*
X117107142Y-89400000D01*
X117164285Y-89428571D01*
X117192857Y-89457142D01*
X117221428Y-89514285D01*
X117221428Y-89657142D01*
X117192857Y-89714285D01*
X117164285Y-89742857D01*
X117107142Y-89771428D01*
X116964285Y-89771428D01*
X116907142Y-89742857D01*
X116878571Y-89714285D01*
X117650000Y-71214285D02*
X117621428Y-71242857D01*
X117535714Y-71271428D01*
X117478571Y-71271428D01*
X117392857Y-71242857D01*
X117335714Y-71185714D01*
X117307142Y-71128571D01*
X117278571Y-71014285D01*
X117278571Y-70928571D01*
X117307142Y-70814285D01*
X117335714Y-70757142D01*
X117392857Y-70700000D01*
X117478571Y-70671428D01*
X117535714Y-70671428D01*
X117621428Y-70700000D01*
X117650000Y-70728571D01*
X117850000Y-70671428D02*
X118221428Y-70671428D01*
X118021428Y-70900000D01*
X118107142Y-70900000D01*
X118164285Y-70928571D01*
X118192857Y-70957142D01*
X118221428Y-71014285D01*
X118221428Y-71157142D01*
X118192857Y-71214285D01*
X118164285Y-71242857D01*
X118107142Y-71271428D01*
X117935714Y-71271428D01*
X117878571Y-71242857D01*
X117850000Y-71214285D01*
X116650000Y-80964285D02*
X116621428Y-80992857D01*
X116535714Y-81021428D01*
X116478571Y-81021428D01*
X116392857Y-80992857D01*
X116335714Y-80935714D01*
X116307142Y-80878571D01*
X116278571Y-80764285D01*
X116278571Y-80678571D01*
X116307142Y-80564285D01*
X116335714Y-80507142D01*
X116392857Y-80450000D01*
X116478571Y-80421428D01*
X116535714Y-80421428D01*
X116621428Y-80450000D01*
X116650000Y-80478571D01*
X117164285Y-80621428D02*
X117164285Y-81021428D01*
X117021428Y-80392857D02*
X116878571Y-80821428D01*
X117250000Y-80821428D01*
X101400000Y-83964285D02*
X101371428Y-83992857D01*
X101285714Y-84021428D01*
X101228571Y-84021428D01*
X101142857Y-83992857D01*
X101085714Y-83935714D01*
X101057142Y-83878571D01*
X101028571Y-83764285D01*
X101028571Y-83678571D01*
X101057142Y-83564285D01*
X101085714Y-83507142D01*
X101142857Y-83450000D01*
X101228571Y-83421428D01*
X101285714Y-83421428D01*
X101371428Y-83450000D01*
X101400000Y-83478571D01*
X101971428Y-84021428D02*
X101628571Y-84021428D01*
X101800000Y-84021428D02*
X101800000Y-83421428D01*
X101742857Y-83507142D01*
X101685714Y-83564285D01*
X101628571Y-83592857D01*
M02*
